<svg width="68" height="68" viewBox="0 0 68 68" fill="none" xmlns="http://www.w3.org/2000/svg">
<g filter="url(#filter0_d_277_773)">
<path d="M5.28047 29.6407C5.27906 34.6819 6.60656 39.6042 9.13078 43.9428L5.03906 58.7666L20.3278 54.7889C24.5565 57.0731 29.2944 58.2699 34.1091 58.2703H34.1217C50.0159 58.2703 62.9541 45.437 62.9609 29.6633C62.9639 22.0198 59.9668 14.8324 54.5213 9.42493C49.0768 4.01795 41.8357 1.03864 34.1206 1.03516C18.2245 1.03516 5.28727 13.8677 5.2807 29.6407" fill="url(#paint0_linear_277_773)"/>
<path d="M4.25078 29.6316C4.24914 34.8542 5.62422 39.9525 8.23844 44.4465L4 59.8016L19.837 55.6813C24.2005 58.042 29.1135 59.2867 34.1127 59.2885H34.1256C50.59 59.2885 63.993 45.9937 64 29.6553C64.0028 21.7372 60.8978 14.2914 55.2578 8.69022C49.6171 3.08976 42.1171 0.00325581 34.1256 0C17.6584 0 4.25734 13.293 4.25078 29.6316ZM13.6823 43.6725L13.0909 42.7411C10.6052 38.8193 9.29312 34.2872 9.295 29.6335C9.30016 16.0532 20.4386 5.00465 34.135 5.00465C40.7678 5.00744 47.0012 7.57302 51.6897 12.2279C56.3779 16.8832 58.9577 23.0716 58.956 29.6535C58.9499 43.2337 47.8112 54.2837 34.1256 54.2837H34.1158C29.6596 54.2813 25.2892 53.0939 21.4778 50.8499L20.5708 50.3162L11.1728 52.7611L13.6823 43.6725Z" fill="url(#paint1_linear_277_773)"/>
<path d="M26.6586 17.2438C26.0994 16.0105 25.5109 15.9856 24.9791 15.964C24.5436 15.9454 24.0458 15.9468 23.5484 15.9468C23.0506 15.9468 22.2418 16.1326 21.5581 16.8733C20.8738 17.6147 18.9453 19.4063 18.9453 23.0503C18.9453 26.6942 21.6202 30.2161 21.9931 30.7107C22.3665 31.2045 27.1571 38.9217 34.7443 41.8905C41.0499 44.3577 42.3331 43.867 43.7017 43.7433C45.0704 43.62 48.1182 41.9521 48.74 40.2226C49.3623 38.4933 49.3623 37.011 49.1757 36.7012C48.9892 36.3926 48.4914 36.2073 47.7449 35.837C46.9984 35.4668 43.3283 33.6747 42.6442 33.4275C41.9598 33.1805 41.4622 33.0573 40.9644 33.7989C40.4666 34.5393 39.0371 36.2073 38.6014 36.7012C38.1662 37.1963 37.7305 37.2579 36.9842 36.8875C36.2373 36.5159 33.8333 35.7347 30.9812 33.2117C28.7621 31.2484 27.264 28.824 26.8285 28.0824C26.3931 27.3419 26.7819 26.9405 27.1562 26.5714C27.4916 26.2396 27.9029 25.7066 28.2765 25.2742C28.6487 24.8417 28.7729 24.5331 29.0218 24.0391C29.2709 23.5447 29.1463 23.1121 28.9599 22.7417C28.7729 22.3712 27.3224 18.7082 26.6586 17.2438Z" fill="white"/>
</g>
<defs>
<filter id="filter0_d_277_773" x="0" y="0" width="68" height="68" filterUnits="userSpaceOnUse" color-interpolation-filters="sRGB">
<feFlood flood-opacity="0" result="BackgroundImageFix"/>
<feColorMatrix in="SourceAlpha" type="matrix" values="0 0 0 0 0 0 0 0 0 0 0 0 0 0 0 0 0 0 127 0" result="hardAlpha"/>
<feOffset dy="4"/>
<feGaussianBlur stdDeviation="2"/>
<feComposite in2="hardAlpha" operator="out"/>
<feColorMatrix type="matrix" values="0 0 0 0 0 0 0 0 0 0 0 0 0 0 0 0 0 0 0.25 0"/>
<feBlend mode="normal" in2="BackgroundImageFix" result="effect1_dropShadow_277_773"/>
<feBlend mode="normal" in="SourceGraphic" in2="effect1_dropShadow_277_773" result="shape"/>
</filter>
<linearGradient id="paint0_linear_277_773" x1="2901.13" y1="5774.18" x2="2901.13" y2="1.03516" gradientUnits="userSpaceOnUse">
<stop stop-color="#1FAF38"/>
<stop offset="1" stop-color="#60D669"/>
</linearGradient>
<linearGradient id="paint1_linear_277_773" x1="3004" y1="5980.16" x2="3004" y2="0" gradientUnits="userSpaceOnUse">
<stop stop-color="#F9F9F9"/>
<stop offset="1" stop-color="white"/>
</linearGradient>
</defs>
</svg>
