<svg width="38" height="38" viewBox="0 0 38 38" fill="none" xmlns="http://www.w3.org/2000/svg">
<path fill-rule="evenodd" clip-rule="evenodd" d="M19 33.25C20.8713 33.25 22.7243 32.8814 24.4532 32.1653C26.1821 31.4492 27.753 30.3995 29.0763 29.0763C30.3995 27.753 31.4492 26.1821 32.1653 24.4532C32.8814 22.7243 33.25 20.8713 33.25 19C33.25 17.1287 32.8814 15.2757 32.1653 13.5468C31.4492 11.8179 30.3995 10.247 29.0763 8.92373C27.753 7.60049 26.1821 6.55085 24.4532 5.83472C22.7243 5.11859 20.8713 4.75 19 4.75C15.2207 4.75 11.5961 6.25133 8.92373 8.92373C6.25134 11.5961 4.75 15.2207 4.75 19C4.75 22.7793 6.25134 26.4039 8.92373 29.0763C11.5961 31.7487 15.2207 33.25 19 33.25ZM18.6327 24.7633L26.5493 15.2633L24.1173 13.2367L17.309 21.4051L13.7861 17.8806L11.5473 20.1194L16.2973 24.8694L17.5228 26.0949L18.6327 24.7633Z" fill="#099F52"/>
</svg>
