<svg width="23" height="23" viewBox="0 0 23 23" fill="none" xmlns="http://www.w3.org/2000/svg">
<path opacity="0.987" fill-rule="evenodd" clip-rule="evenodd" d="M10.0028 1.47223C11.0087 1.35984 11.6039 1.35984 12.6848 1.47223C14.5981 1.75541 16.3717 2.63979 17.7492 3.99748C16.8183 4.87734 15.8997 5.77005 14.9936 6.67535C13.2583 5.2046 11.3214 4.86513 9.18275 5.65693C7.61395 6.37843 6.52153 7.54763 5.90548 9.16453C4.89876 8.41504 3.90516 7.6481 2.92513 6.86406C2.85702 6.82821 2.77923 6.81508 2.70312 6.82659C4.2599 3.82497 6.69265 2.03972 10.0014 1.47084" fill="#F44336"/>
<path opacity="0.997" fill-rule="evenodd" clip-rule="evenodd" d="M2.70042 6.82669C2.77905 6.81466 2.85351 6.82715 2.92381 6.86415C3.90385 7.6482 4.89745 8.41514 5.90416 9.16463C5.74575 9.79463 5.64588 10.4379 5.60585 11.0863C5.64007 11.7135 5.73951 12.3291 5.90416 12.9331L2.77535 15.4236C1.41282 12.5765 1.38785 9.71084 2.70042 6.82669Z" fill="#FFC107"/>
<path opacity="0.999" fill-rule="evenodd" clip-rule="evenodd" d="M17.6007 18.44C16.6265 17.5809 15.6066 16.775 14.5454 16.0258C15.6092 15.2747 16.2548 14.2442 16.4824 12.9344H11.2695V9.31446C14.2758 9.28948 17.2806 9.31492 20.2841 9.39077C20.8539 12.4849 20.1958 15.2747 18.3097 17.7602C18.0854 17.9986 17.8479 18.2255 17.6007 18.44Z" fill="#448AFF"/>
<path opacity="0.993" fill-rule="evenodd" clip-rule="evenodd" d="M5.9042 12.9343C7.04195 15.7621 9.12783 17.082 12.1618 16.8943C13.0135 16.7957 13.8301 16.4981 14.5456 16.0257C15.6075 16.7768 16.6259 17.5815 17.6008 18.4399C16.0561 19.8281 14.0864 20.6517 12.0134 20.7765C11.5424 20.8141 11.0691 20.8141 10.5981 20.7765C7.06647 20.3602 4.45889 18.5759 2.77539 15.4235L5.9042 12.9343Z" fill="#43A047"/>
</svg>
