<svg width="31" height="31" viewBox="0 0 31 31" fill="none" xmlns="http://www.w3.org/2000/svg">
<path d="M27.125 24.5418V25.8335H3.875V24.5418L6.45833 21.9585V14.2085C6.45833 10.2043 9.08042 6.67808 12.9167 5.54141V5.16683C12.9167 4.48169 13.1888 3.82461 13.6733 3.34014C14.1578 2.85567 14.8149 2.5835 15.5 2.5835C16.1851 2.5835 16.8422 2.85567 17.3267 3.34014C17.8112 3.82461 18.0833 4.48169 18.0833 5.16683V5.54141C21.9196 6.67808 24.5417 10.2043 24.5417 14.2085V21.9585L27.125 24.5418ZM18.0833 27.1252C18.0833 27.8103 17.8112 28.4674 17.3267 28.9519C16.8422 29.4363 16.1851 29.7085 15.5 29.7085C14.8149 29.7085 14.1578 29.4363 13.6733 28.9519C13.1888 28.4674 12.9167 27.8103 12.9167 27.1252" fill="white"/>
</svg>
