<svg width="60" height="60" viewBox="0 0 60 60" fill="none" xmlns="http://www.w3.org/2000/svg">
<path d="M30 55C33.2837 55.0041 36.5357 54.3593 39.5694 53.1026C42.6031 51.846 45.3586 50.0023 47.6775 47.6775C50.0023 45.3586 51.846 42.6031 53.1026 39.5694C54.3593 36.5357 55.0041 33.2837 55 30C55.0041 26.7164 54.3593 23.4643 53.1026 20.4306C51.846 17.397 50.0023 14.6415 47.6775 12.3225C45.3586 9.99772 42.6031 8.15404 39.5694 6.89741C36.5357 5.64078 33.2837 4.99597 30 5.00002C26.7164 4.99597 23.4643 5.64078 20.4306 6.89741C17.397 8.15404 14.6415 9.99772 12.3225 12.3225C9.99772 14.6415 8.15404 17.397 6.89741 20.4306C5.64078 23.4643 4.99597 26.7164 5.00002 30C4.99597 33.2837 5.64078 36.5357 6.89741 39.5694C8.15404 42.6031 9.99772 45.3586 12.3225 47.6775C14.6415 50.0023 17.397 51.846 20.4306 53.1026C23.4643 54.3593 26.7164 55.0041 30 55Z" stroke="black" stroke-width="4.5" stroke-linejoin="round"/>
<path d="M20 30L27.5 37.5L42.5 22.5" stroke="black" stroke-width="4.5" stroke-linecap="round" stroke-linejoin="round"/>
</svg>
