<svg width="60" height="60" viewBox="0 0 60 60" fill="none" xmlns="http://www.w3.org/2000/svg">
<path d="M1.28047 29.6407C1.27906 34.6819 2.60656 39.6042 5.13078 43.9428L1.03906 58.7666L16.3278 54.7889C20.5565 57.0731 25.2944 58.2699 30.1091 58.2703H30.1217C46.0159 58.2703 58.9541 45.437 58.9609 29.6633C58.9639 22.0198 55.9668 14.8324 50.5213 9.42493C45.0768 4.01795 37.8357 1.03864 30.1206 1.03516C14.2245 1.03516 1.28727 13.8677 1.2807 29.6407" fill="url(#paint0_linear_277_773)"/>
<path d="M0.250781 29.6316C0.249141 34.8542 1.62422 39.9525 4.23844 44.4465L0 59.8016L15.837 55.6813C20.2005 58.042 25.1135 59.2867 30.1127 59.2885H30.1256C46.59 59.2885 59.993 45.9937 60 29.6553C60.0028 21.7372 56.8978 14.2914 51.2578 8.69022C45.6171 3.08976 38.1171 0.00325581 30.1256 0C13.6584 0 0.257344 13.293 0.250781 29.6316ZM9.68227 43.6725L9.09094 42.7411C6.60516 38.8193 5.29312 34.2872 5.295 29.6335C5.30016 16.0532 16.4386 5.00465 30.135 5.00465C36.7678 5.00744 43.0013 7.57302 47.6897 12.2279C52.3779 16.8832 54.9577 23.0716 54.956 29.6535C54.9499 43.2337 43.8112 54.2837 30.1256 54.2837H30.1158C25.6596 54.2813 21.2892 53.0939 17.4778 50.8499L16.5708 50.3162L7.17281 52.7611L9.68227 43.6725Z" fill="url(#paint1_linear_277_773)"/>
<path d="M22.6586 17.2438C22.0994 16.0105 21.5109 15.9856 20.9791 15.964C20.5436 15.9454 20.0458 15.9468 19.5484 15.9468C19.0506 15.9468 18.2418 16.1326 17.5581 16.8733C16.8738 17.6147 14.9453 19.4063 14.9453 23.0503C14.9453 26.6942 17.6202 30.2161 17.9931 30.7107C18.3665 31.2045 23.1571 38.9217 30.7443 41.8905C37.0499 44.3577 38.3331 43.867 39.7017 43.7433C41.0704 43.62 44.1182 41.9521 44.74 40.2226C45.3623 38.4933 45.3623 37.011 45.1757 36.7012C44.9892 36.3926 44.4914 36.2073 43.7449 35.837C42.9984 35.4668 39.3283 33.6747 38.6442 33.4275C37.9598 33.1805 37.4622 33.0573 36.9644 33.7989C36.4666 34.5393 35.0371 36.2073 34.6014 36.7012C34.1662 37.1963 33.7305 37.2579 32.9842 36.8875C32.2373 36.5159 29.8333 35.7347 26.9812 33.2117C24.7621 31.2484 23.264 28.824 22.8285 28.0824C22.3931 27.3419 22.7819 26.9405 23.1562 26.5714C23.4916 26.2396 23.9029 25.7066 24.2765 25.2742C24.6487 24.8417 24.7729 24.5331 25.0218 24.0391C25.2709 23.5447 25.1463 23.1121 24.9599 22.7417C24.7729 22.3712 23.3224 18.7082 22.6586 17.2438Z" fill="white"/>
<defs>
<linearGradient id="paint0_linear_277_773" x1="2897.13" y1="5774.18" x2="2897.13" y2="1.03516" gradientUnits="userSpaceOnUse">
<stop stop-color="#1FAF38"/>
<stop offset="1" stop-color="#60D669"/>
</linearGradient>
<linearGradient id="paint1_linear_277_773" x1="3000" y1="5980.16" x2="3000" y2="0" gradientUnits="userSpaceOnUse">
<stop stop-color="#F9F9F9"/>
<stop offset="1" stop-color="white"/>
</linearGradient>
</defs>
</svg>
