<svg width="52" height="52" viewBox="0 0 52 52" fill="none" xmlns="http://www.w3.org/2000/svg">
<path d="M39.8125 0H12.1875C5.45653 0 0 5.45653 0 12.1875V39.8125C0 46.5435 5.45653 52 12.1875 52H39.8125C46.5435 52 52 46.5435 52 39.8125V12.1875C52 5.45653 46.5435 0 39.8125 0Z" fill="url(#paint0_radial_277_779)"/>
<path d="M39.8125 0H12.1875C5.45653 0 0 5.45653 0 12.1875V39.8125C0 46.5435 5.45653 52 12.1875 52H39.8125C46.5435 52 52 46.5435 52 39.8125V12.1875C52 5.45653 46.5435 0 39.8125 0Z" fill="url(#paint1_radial_277_779)"/>
<path d="M26.0018 5.6875C20.4854 5.6875 19.7929 5.71167 17.6264 5.81019C15.4639 5.90931 13.9878 6.25158 12.6963 6.75391C11.3602 7.27269 10.2269 7.96677 9.09797 9.09614C7.96798 10.2253 7.27391 11.3585 6.7535 12.6941C6.24975 13.986 5.90708 15.4627 5.80978 17.6241C5.71289 19.7909 5.6875 20.4835 5.6875 26.0002C5.6875 31.5169 5.71188 32.2071 5.81019 34.3736C5.90972 36.5361 6.25198 38.0122 6.75391 39.3037C7.27309 40.6398 7.96717 41.7731 9.09655 42.902C10.2253 44.032 11.3585 44.7277 12.6937 45.2465C13.9862 45.7488 15.4625 46.0911 17.6245 46.1902C19.7913 46.2887 20.4831 46.3129 25.9994 46.3129C31.5165 46.3129 32.2067 46.2887 34.3732 46.1902C36.5357 46.0911 38.0134 45.7488 39.3059 45.2465C40.6415 44.7277 41.7731 44.032 42.9016 42.902C44.0316 41.7731 44.7255 40.6398 45.2461 39.3043C45.7454 38.0122 46.0882 36.5357 46.1898 34.374C46.2871 32.2075 46.3125 31.5169 46.3125 26.0002C46.3125 20.4835 46.2871 19.7913 46.1898 17.6245C46.0882 15.4621 45.7454 13.9862 45.2461 12.6947C44.7255 11.3585 44.0316 10.2253 42.9016 9.09614C41.7718 7.96636 40.6419 7.27228 39.3047 6.75411C38.0098 6.25158 36.5328 5.90911 34.3704 5.81019C32.2036 5.71167 31.5138 5.6875 25.9955 5.6875H26.0018ZM24.1796 9.34802C24.7205 9.3472 25.324 9.34802 26.0018 9.34802C31.4255 9.34802 32.0682 9.36752 34.2099 9.46481C36.1904 9.55541 37.2653 9.8863 37.9813 10.1644C38.9293 10.5324 39.6051 10.9726 40.3156 11.6837C41.0266 12.3947 41.4665 13.0717 41.8356 14.0197C42.1137 14.7347 42.445 15.8096 42.5352 17.7901C42.6325 19.9314 42.6536 20.5745 42.6536 25.9955C42.6536 31.4165 42.6325 32.0598 42.5352 34.201C42.4446 36.1814 42.1137 37.2564 41.8356 37.9716C41.4676 38.9196 41.0266 39.5945 40.3156 40.3051C39.6047 41.016 38.9297 41.456 37.9813 41.8242C37.2661 42.1035 36.1904 42.4336 34.2099 42.5242C32.0686 42.6215 31.4255 42.6426 26.0018 42.6426C20.578 42.6426 19.9351 42.6215 17.794 42.5242C15.8135 42.4328 14.7385 42.1019 14.0219 41.8238C13.0741 41.4556 12.3969 41.0156 11.686 40.3047C10.975 39.5937 10.5351 38.9183 10.166 37.97C9.88792 37.2547 9.55663 36.1798 9.46644 34.1993C9.36914 32.058 9.34964 31.4149 9.34964 25.9905C9.34964 20.566 9.36914 19.9264 9.46644 17.785C9.55703 15.8045 9.88792 14.7296 10.166 14.0136C10.5343 13.0656 10.975 12.3886 11.6862 11.6777C12.3973 10.9667 13.0741 10.5265 14.0221 10.1577C14.7381 9.87837 15.8135 9.5483 17.794 9.4573C19.6678 9.37259 20.394 9.3472 24.1796 9.34294V9.34802ZM36.8446 12.7207C35.4989 12.7207 34.4071 13.8115 34.4071 15.1574C34.4071 16.5031 35.4989 17.5949 36.8446 17.5949C38.1903 17.5949 39.2821 16.5031 39.2821 15.1574C39.2821 13.8117 38.1903 12.7199 36.8446 12.7199V12.7207ZM26.0018 15.5687C20.2412 15.5687 15.5705 20.2394 15.5705 26.0002C15.5705 31.761 20.2412 36.4295 26.0018 36.4295C31.7627 36.4295 36.4317 31.761 36.4317 26.0002C36.4317 20.2396 31.7623 15.5687 26.0014 15.5687H26.0018ZM26.0018 19.2292C29.7412 19.2292 32.7728 22.2605 32.7728 26.0002C32.7728 29.7395 29.7412 32.7712 26.0018 32.7712C22.2625 32.7712 19.2311 29.7395 19.2311 26.0002C19.2311 22.2605 22.2623 19.2292 26.0018 19.2292Z" fill="white"/>
<defs>
<radialGradient id="paint0_radial_277_779" cx="0" cy="0" r="1" gradientUnits="userSpaceOnUse" gradientTransform="translate(13.8125 56.005) rotate(-90) scale(51.5359 47.9324)">
<stop stop-color="#FFDD55"/>
<stop offset="0.1" stop-color="#FFDD55"/>
<stop offset="0.5" stop-color="#FF543E"/>
<stop offset="1" stop-color="#C837AB"/>
</radialGradient>
<radialGradient id="paint1_radial_277_779" cx="0" cy="0" r="1" gradientUnits="userSpaceOnUse" gradientTransform="translate(-8.71017 3.74595) rotate(78.68) scale(23.0368 94.9585)">
<stop stop-color="#3771C8"/>
<stop offset="0.128" stop-color="#3771C8"/>
<stop offset="1" stop-color="#6600FF" stop-opacity="0"/>
</radialGradient>
</defs>
</svg>
