<svg width="38" height="38" viewBox="0 0 38 38" fill="none" xmlns="http://www.w3.org/2000/svg">
<path d="M26.918 15.3062C26.918 14.1863 26.4731 13.1122 25.6812 12.3203C24.8892 11.5284 23.8152 11.0835 22.6952 11.0835H8.97405C8.41951 11.0835 7.8704 11.1927 7.35807 11.4049C6.84574 11.6171 6.38023 11.9282 5.98811 12.3203C5.59599 12.7124 5.28495 13.1779 5.07273 13.6903C4.86052 14.2026 4.7513 14.7517 4.7513 15.3062V29.0274C4.7513 29.582 4.86052 30.1311 5.07273 30.6434C5.28495 31.1557 5.59599 31.6212 5.98811 32.0134C6.38023 32.4055 6.84574 32.7165 7.35807 32.9287C7.8704 33.1409 8.41951 33.2502 8.97405 33.2502H22.6952C23.2498 33.2502 23.7989 33.1409 24.3112 32.9287C24.8235 32.7165 25.289 32.4055 25.6812 32.0134C26.0733 31.6212 26.3843 31.1557 26.5965 30.6434C26.8087 30.1311 26.918 29.582 26.918 29.0274V15.3062Z" stroke="white" stroke-width="3" stroke-linecap="round" stroke-linejoin="round"/>
<path d="M31.6477 26.5002C32.1338 26.2241 32.5381 25.8241 32.8195 25.3411C33.1009 24.858 33.2495 24.3091 33.25 23.75V7.91667C33.25 6.175 31.825 4.75 30.0833 4.75H14.25C13.0625 4.75 12.4165 5.35958 11.875 6.33333" stroke="white" stroke-width="3" stroke-linecap="round" stroke-linejoin="round"/>
</svg>
