<svg width="38" height="38" viewBox="0 0 38 38" fill="none" xmlns="http://www.w3.org/2000/svg">
<rect x="0.5" y="0.5" width="37" height="37" rx="17.5" fill="#044485"/>
<rect x="0.5" y="0.5" width="37" height="37" rx="17.5" stroke="#05306D"/>
<mask id="path-2-inside-1_256_716" fill="white">
<path d="M28 25V26H10V25L12 23V17C12 13.9 14.03 11.17 17 10.29V10C17 9.46957 17.2107 8.96086 17.5858 8.58579C17.9609 8.21071 18.4696 8 19 8C19.5304 8 20.0391 8.21071 20.4142 8.58579C20.7893 8.96086 21 9.46957 21 10V10.29C23.97 11.17 26 13.9 26 17V23L28 25ZM21 27C21 27.5304 20.7893 28.0391 20.4142 28.4142C20.0391 28.7893 19.5304 29 19 29C18.4696 29 17.9609 28.7893 17.5858 28.4142C17.2107 28.0391 17 27.5304 17 27"/>
</mask>
<path d="M28 25V26H10V25L12 23V17C12 13.9 14.03 11.17 17 10.29V10C17 9.46957 17.2107 8.96086 17.5858 8.58579C17.9609 8.21071 18.4696 8 19 8C19.5304 8 20.0391 8.21071 20.4142 8.58579C20.7893 8.96086 21 9.46957 21 10V10.29C23.97 11.17 26 13.9 26 17V23L28 25ZM21 27C21 27.5304 20.7893 28.0391 20.4142 28.4142C20.0391 28.7893 19.5304 29 19 29C18.4696 29 17.9609 28.7893 17.5858 28.4142C17.2107 28.0391 17 27.5304 17 27" fill="white"/>
<path d="M28 25H29V24.5858L28.7071 24.2929L28 25ZM28 26V27H29V26H28ZM10 26H9V27H10V26ZM10 25L9.29289 24.2929L9 24.5858V25H10ZM12 23L12.7071 23.7071L13 23.4142V23H12ZM17 10.29L17.2841 11.2488L18 11.0367V10.29H17ZM19 8V7V8ZM21 10.29H20V11.0367L20.7159 11.2488L21 10.29ZM26 23H25V23.4142L25.2929 23.7071L26 23ZM28 25H27V26H28H29V25H28ZM28 26V25H10V26V27H28V26ZM10 26H11V25H10H9V26H10ZM10 25L10.7071 25.7071L12.7071 23.7071L12 23L11.2929 22.2929L9.29289 24.2929L10 25ZM12 23H13V17H12H11V23H12ZM12 17H13C13 14.3408 14.7407 12.0024 17.2841 11.2488L17 10.29L16.7159 9.3312C13.3193 10.3376 11 13.4592 11 17H12ZM17 10.29H18V10H17H16V10.29H17ZM17 10H18C18 9.73478 18.1054 9.48043 18.2929 9.29289L17.5858 8.58579L16.8787 7.87868C16.3161 8.44129 16 9.20435 16 10H17ZM17.5858 8.58579L18.2929 9.29289C18.4804 9.10536 18.7348 9 19 9V8V7C18.2044 7 17.4413 7.31607 16.8787 7.87868L17.5858 8.58579ZM19 8V9C19.2652 9 19.5196 9.10536 19.7071 9.29289L20.4142 8.58579L21.1213 7.87868C20.5587 7.31607 19.7956 7 19 7V8ZM20.4142 8.58579L19.7071 9.29289C19.8946 9.48043 20 9.73478 20 10H21H22C22 9.20435 21.6839 8.44129 21.1213 7.87868L20.4142 8.58579ZM21 10H20V10.29H21H22V10H21ZM21 10.29L20.7159 11.2488C23.2593 12.0024 25 14.3408 25 17H26H27C27 13.4592 24.6807 10.3376 21.2841 9.3312L21 10.29ZM26 17H25V23H26H27V17H26ZM26 23L25.2929 23.7071L27.2929 25.7071L28 25L28.7071 24.2929L26.7071 22.2929L26 23ZM21 27H20C20 27.2652 19.8946 27.5196 19.7071 27.7071L20.4142 28.4142L21.1213 29.1213C21.6839 28.5587 22 27.7957 22 27H21ZM20.4142 28.4142L19.7071 27.7071C19.5196 27.8946 19.2652 28 19 28V29V30C19.7957 30 20.5587 29.6839 21.1213 29.1213L20.4142 28.4142ZM19 29V28C18.7348 28 18.4804 27.8946 18.2929 27.7071L17.5858 28.4142L16.8787 29.1213C17.4413 29.6839 18.2043 30 19 30V29ZM17.5858 28.4142L18.2929 27.7071C18.1054 27.5196 18 27.2652 18 27H17H16C16 27.7957 16.3161 28.5587 16.8787 29.1213L17.5858 28.4142Z" fill="#05306D" mask="url(#path-2-inside-1_256_716)"/>
</svg>
