<svg width="427" height="191" viewBox="0 0 427 191" fill="none" xmlns="http://www.w3.org/2000/svg">
<g filter="url(#filter0_f_77_694)">
<path d="M23.0918 38.9319C23.0918 30.1834 30.1841 23.0911 38.9326 23.0911H157.621C157.621 28.934 162.759 33.6711 169.098 33.6711C175.238 33.6711 180.252 29.2258 180.56 23.636L180.574 23.0911H387.251C395.999 23.0911 403.092 30.1834 403.092 38.9319V151.25C403.092 159.999 395.999 167.091 387.251 167.091H180.574C180.574 161.248 175.436 156.512 169.098 156.512C162.759 156.512 157.621 161.248 157.621 167.091H38.9326C30.1841 167.091 23.0918 159.999 23.0918 151.25V38.9319Z" fill="black"/>
<path d="M38.9326 23.4075H157.31C157.491 29.3014 162.723 33.9875 169.098 33.9875C175.188 33.9875 180.234 29.7125 180.832 24.1917L180.876 23.6536V23.6448L180.883 23.4075H387.251C395.824 23.4075 402.775 30.3584 402.775 38.9319V151.25C402.775 159.824 395.824 166.775 387.251 166.775H180.886C180.704 160.881 175.472 156.196 169.098 156.196C162.723 156.196 157.491 160.881 157.31 166.775H38.9326C30.3591 166.775 23.4082 159.824 23.4082 151.25V38.9319C23.4082 30.3583 30.3591 23.4075 38.9326 23.4075Z" stroke="black" stroke-width="0.633625"/>
</g>
<defs>
<filter id="filter0_f_77_694" x="0.00069046" y="-4.19617e-05" width="426.182" height="190.182" filterUnits="userSpaceOnUse" color-interpolation-filters="sRGB">
<feFlood flood-opacity="0" result="BackgroundImageFix"/>
<feBlend mode="normal" in="SourceGraphic" in2="BackgroundImageFix" result="shape"/>
<feGaussianBlur stdDeviation="11.5456" result="effect1_foregroundBlur_77_694"/>
</filter>
</defs>
</svg>
