<svg width="25" height="25" viewBox="0 0 25 25" fill="none" xmlns="http://www.w3.org/2000/svg">
<path d="M21.0434 7.51562H3.00586V16.5344C3.00586 17.3317 3.32259 18.0963 3.88637 18.6601C4.45015 19.2239 5.2148 19.5406 6.01211 19.5406H18.0371C18.8344 19.5406 19.5991 19.2239 20.1628 18.6601C20.7266 18.0963 21.0434 17.3317 21.0434 16.5344V7.51562Z" fill="#C78005"/>
<path d="M21.0434 7.51562H3.00586V16.5344C3.00586 17.3317 3.32259 18.0963 3.88637 18.6601C4.45015 19.2239 5.2148 19.5406 6.01211 19.5406H18.0371C18.8344 19.5406 19.5991 19.2239 20.1628 18.6601C20.7266 18.0963 21.0434 17.3317 21.0434 16.5344V7.51562Z" fill="url(#paint0_linear_77_602)"/>
<path d="M21.0434 7.51562H3.00586V16.5344C3.00586 17.3317 3.32259 18.0963 3.88637 18.6601C4.45015 19.2239 5.2148 19.5406 6.01211 19.5406H18.0371C18.8344 19.5406 19.5991 19.2239 20.1628 18.6601C20.7266 18.0963 21.0434 17.3317 21.0434 16.5344V7.51562Z" fill="url(#paint1_linear_77_602)"/>
<path d="M21.0434 7.51562H3.00586V16.5344C3.00586 17.3317 3.32259 18.0963 3.88637 18.6601C4.45015 19.2239 5.2148 19.5406 6.01211 19.5406H18.0371C18.8344 19.5406 19.5991 19.2239 20.1628 18.6601C20.7266 18.0963 21.0434 17.3317 21.0434 16.5344V7.51562Z" fill="url(#paint2_linear_77_602)" fill-opacity="0.75"/>
<path d="M21.0434 7.51562H3.00586V16.5344C3.00586 17.3317 3.32259 18.0963 3.88637 18.6601C4.45015 19.2239 5.2148 19.5406 6.01211 19.5406H18.0371C18.8344 19.5406 19.5991 19.2239 20.1628 18.6601C20.7266 18.0963 21.0434 17.3317 21.0434 16.5344V7.51562Z" fill="url(#paint3_linear_77_602)" fill-opacity="0.7"/>
<path d="M6.01211 4.50928C5.2148 4.50928 4.45015 4.82601 3.88637 5.38979C3.32259 5.95357 3.00586 6.71822 3.00586 7.51553V8.77815L11.6684 13.4423C11.7779 13.5013 11.9003 13.5321 12.0246 13.5321C12.149 13.5321 12.2714 13.5013 12.3808 13.4423L21.0434 8.77815V7.51553C21.0434 6.71822 20.7266 5.95357 20.1628 5.38979C19.5991 4.82601 18.8344 4.50928 18.0371 4.50928H6.01211Z" fill="url(#paint4_linear_77_602)"/>
<defs>
<linearGradient id="paint0_linear_77_602" x1="14.3139" y1="9.87252" x2="19.5793" y2="19.261" gradientUnits="userSpaceOnUse">
<stop offset="0.228" stop-color="#F09800" stop-opacity="0"/>
<stop offset="0.431" stop-color="#F09800"/>
</linearGradient>
<linearGradient id="paint1_linear_77_602" x1="9.44825" y1="8.78126" x2="3.59809" y2="19.8382" gradientUnits="userSpaceOnUse">
<stop offset="0.228" stop-color="#F09800" stop-opacity="0"/>
<stop offset="0.431" stop-color="#F09800"/>
</linearGradient>
<linearGradient id="paint2_linear_77_602" x1="16.7805" y1="14.69" x2="17.6703" y2="20.6319" gradientUnits="userSpaceOnUse">
<stop stop-color="#CE8B16" stop-opacity="0"/>
<stop offset="1" stop-color="#CF8B17"/>
</linearGradient>
<linearGradient id="paint3_linear_77_602" x1="14.8159" y1="8.99169" x2="16.4408" y2="21.0949" gradientUnits="userSpaceOnUse">
<stop offset="0.533" stop-color="#A053FF" stop-opacity="0"/>
<stop offset="1" stop-color="#923BFD"/>
</linearGradient>
<linearGradient id="paint4_linear_77_602" x1="8.3645" y1="0.761987" x2="18.5121" y2="19.1272" gradientUnits="userSpaceOnUse">
<stop stop-color="#FFC96C"/>
<stop offset="0.462" stop-color="#FFB129"/>
<stop offset="1" stop-color="#FEBB48"/>
</linearGradient>
</defs>
</svg>
