<svg width="28" height="28" viewBox="0 0 28 28" fill="none" xmlns="http://www.w3.org/2000/svg">
<path d="M16.334 17.5002H11.6673V15.1668H2.33398V22.1668C2.33398 22.7857 2.57982 23.3792 3.0174 23.8167C3.45499 24.2543 4.04848 24.5002 4.66732 24.5002H23.334C23.9528 24.5002 24.5463 24.2543 24.9839 23.8167C25.4215 23.3792 25.6673 22.7857 25.6673 22.1668V15.1668H16.334V17.5002ZM23.334 7.00016H21.0007V4.66683C21.0007 4.04799 20.7548 3.4545 20.3172 3.01691C19.8797 2.57933 19.2862 2.3335 18.6673 2.3335H9.33398C8.71515 2.3335 8.12165 2.57933 7.68407 3.01691C7.24648 3.4545 7.00065 4.04799 7.00065 4.66683V7.00016H4.66732C4.04848 7.00016 3.45499 7.246 3.0174 7.68358C2.57982 8.12116 2.33398 8.71466 2.33398 9.3335V14.0002H25.6673V9.3335C25.6673 8.71466 25.4215 8.12116 24.9839 7.68358C24.5463 7.246 23.9528 7.00016 23.334 7.00016ZM18.6673 7.00016H9.33398V4.66683H18.6673V7.00016Z" fill="black"/>
</svg>
