<?xml version="1.0" encoding="UTF-8" standalone="no"?>
<svg
   width="1440"
   height="652"
   viewBox="0 0 1440 652"
   fill="none"
   version="1.1"
   id="svg1"
   xmlns="http://www.w3.org/2000/svg"
   xmlns:svg="http://www.w3.org/2000/svg">
  <defs
     id="defs1" />
  <path
     d="M0 -18H1440V555.526L1363.82 575.564C1363.82 575.564 1310.25 588.022 1275.64 594.013C1231.51 601.65 1206.52 603.998 1162.06 608.489C1116.53 613.089 1090.87 613.743 1045.26 617.14C942.842 624.768 885.552 631.719 783.02 636.913C691.669 641.541 640.379 642.343 548.945 643.621C461.867 644.838 413.013 645.905 325.951 643.621C285.551 642.561 262.856 642.676 222.533 639.648C189.651 637.18 164.18 635.718 131.506 630.82C100.87 626.227 90.4203 622.322 60.4809 615.811C29.0504 608.975 0 601.685 0 601.685V-18Z"
     fill="#FFFFFF"
     id="path1" />
</svg>
