<svg width="1601" height="488" viewBox="0 0 1601 488" fill="none" xmlns="http://www.w3.org/2000/svg">
<path d="M228.729 114.1C233.278 115.335 237.751 116.945 242.147 118.923L243.395 119.483C249.612 122.334 255.541 125.968 261.182 130.389C267.209 134.952 272.497 140.57 277.052 147.239C281.614 153.756 285.274 161.324 288.037 169.939C290.806 178.57 292.191 188.329 292.191 199.209V398.425C292.191 409.304 290.805 419.061 288.037 427.692L288.038 427.693C285.275 436.469 281.615 444.115 277.052 450.633C272.495 457.305 267.205 462.925 261.175 467.488L261.174 467.487C255.159 472.2 248.818 476.027 242.147 478.956L242.146 478.955C235.642 481.881 228.972 483.994 222.141 485.296C215.483 486.756 209.143 487.488 203.121 487.488H0.5V423.403H203.121C211.616 423.403 217.854 421.239 221.932 417.005C226.019 412.76 228.099 406.594 228.099 398.425V113.929L228.729 114.1ZM203.621 110.391V174.476H89.3252C81.6735 174.476 75.6656 176.863 71.2471 181.597L71.2412 181.603C66.8127 186.19 64.585 192.043 64.585 199.209V284.623C64.585 292.786 66.7446 298.949 70.9902 303.195C75.2341 307.439 81.4795 309.6 89.8076 309.6H203.621V373.685H89.3252C83.3041 373.685 76.9627 373.036 70.3027 371.737L70.292 371.735C63.6256 370.272 56.9593 368.077 50.2988 365.153L50.2939 365.151C43.7873 362.223 37.5298 358.48 31.5166 353.929L31.5098 353.924C25.4844 349.202 20.1884 343.584 15.6318 337.075L15.6289 337.071C11.0693 330.394 7.40945 322.751 4.64648 314.137L4.64551 314.135C1.87778 305.344 0.500022 295.502 0.5 284.623V199.209C0.500023 193.188 1.14879 186.847 2.44824 180.187L2.4502 180.175L2.7334 178.926C4.19121 172.685 6.29179 166.518 9.03418 160.423C11.962 153.756 15.7048 147.414 20.2559 141.4L20.2607 141.394C24.9835 135.369 30.6011 130.08 37.1104 125.523L37.1143 125.52L37.3613 125.881L37.3965 125.932L37.1152 125.52C43.7917 120.961 51.4411 117.301 60.0547 114.538C68.6864 111.769 78.4455 110.391 89.3252 110.391H203.621ZM477.324 110.391V174.476H432.91C424.582 174.476 418.337 176.638 414.093 180.881L414.086 180.888C409.848 184.97 407.688 191.044 407.688 199.209V284.623C407.688 292.786 409.847 298.949 414.093 303.195C418.337 307.439 424.582 309.6 432.91 309.6H477.324V373.685H432.42C423.627 373.685 414.039 372.143 403.65 369.059C393.235 365.967 383.549 360.918 374.605 353.925L374.598 353.919C365.805 346.754 358.41 337.564 352.397 326.351L352.393 326.343C346.524 314.932 343.603 301.018 343.603 284.623V199.209C343.603 182.974 346.525 169.226 352.395 157.975L352.396 157.973C358.408 146.598 365.805 137.397 374.602 130.392C383.546 123.237 393.233 118.11 403.65 115.017C414.039 111.933 423.627 110.391 432.42 110.391H477.324ZM546.224 110.391C562.458 110.391 576.289 113.313 587.699 119.181C599.077 125.033 608.28 132.431 615.285 141.39C622.278 150.172 627.321 159.774 630.413 170.187L630.713 171.16C633.76 181.182 635.286 190.532 635.286 199.209V284.623C635.286 295.502 633.908 305.344 631.141 314.135L631.14 314.137C628.377 322.751 624.717 330.394 620.157 337.071L620.154 337.075C615.598 343.584 610.309 349.202 604.283 353.924L604.277 353.929C598.262 358.481 591.919 362.225 585.25 365.153L585.249 365.152C578.748 368.077 572.082 370.273 565.254 371.736L565.245 371.737C558.585 373.036 552.245 373.685 546.224 373.685H501.802V309.6H546.224C554.718 309.6 560.956 307.437 565.034 303.202C569.122 298.957 571.201 292.791 571.201 284.623V199.699C571.201 191.039 569.036 184.72 564.803 180.643C560.558 176.556 554.392 174.476 546.224 174.476H501.802V110.391H546.224Z" fill="white" stroke="black"/>
<path d="M489.944 187.114V240.956H463.851V293.798H436.756V239.956H462.851V214.535H436.756V187.114H489.944ZM542.133 239.956V293.798H488.944V266.377H515.039V239.956H542.133ZM542.133 187.114V214.535H515.039V187.114H542.133Z" fill="white" stroke="black"/>
<path d="M1030.05 0V284.622C1030.05 300.96 1032.97 314.791 1038.79 326.115C1044.61 337.276 1051.98 346.413 1060.87 353.531C1069.77 360.487 1079.32 365.506 1089.51 368.58C1099.86 371.653 1109.57 373.185 1118.62 373.185H1146.77V310.1H1118.62C1111.34 310.1 1105.28 307.833 1100.43 303.303C1095.57 298.612 1093.15 292.387 1093.15 284.622V0H1030.05ZM1188.26 0V57.024H1251.35V0H1188.26ZM775.522 110.891V173.976C775.682 173.975 775.843 173.976 776.005 173.976H889.325C897.575 173.976 903.8 176.077 908.006 180.283C912.374 184.488 914.558 190.964 914.558 199.699V284.622C914.558 292.872 912.457 299.181 908.251 303.549C904.045 307.916 897.737 310.1 889.325 310.1H775.522V373.185H889.325C895.31 373.185 901.619 372.541 908.251 371.247C914.884 369.791 921.435 367.607 927.905 364.695C934.538 361.783 940.847 358.06 946.832 353.531C952.817 348.84 958.072 343.259 962.601 336.788C967.131 330.156 970.77 322.558 973.52 313.985C976.27 305.25 977.643 295.46 977.643 284.622V199.209C977.643 193.224 976.915 186.915 975.459 180.283C974.165 173.65 972.064 167.099 969.153 160.628C966.241 153.996 962.442 147.687 957.751 141.702C953.221 135.717 947.641 130.462 941.008 125.933C934.538 121.403 927.016 117.764 918.442 115.014C909.869 112.264 900.163 110.891 889.325 110.891H775.522ZM1188.26 110.891V373.185H1251.35V110.891H1188.26ZM1398.88 110.891V173.976C1399.04 173.975 1399.2 173.976 1399.36 173.976H1512.67C1520.92 173.976 1527.16 176.077 1531.36 180.283C1535.73 184.488 1537.92 190.964 1537.92 199.699V284.622C1537.92 292.872 1535.81 299.181 1531.6 303.549C1527.4 307.916 1521.09 310.1 1512.67 310.1H1398.88V373.185H1512.67C1518.66 373.185 1524.97 372.541 1531.6 371.247C1538.23 369.791 1544.78 367.607 1551.26 364.695C1557.89 361.783 1564.2 358.06 1570.18 353.531C1576.17 348.84 1581.43 343.259 1585.96 336.788C1590.49 330.156 1594.13 322.558 1596.88 313.985C1599.63 305.25 1601 295.46 1601 284.622V199.209C1601 193.224 1600.27 186.915 1598.82 180.283C1597.52 173.65 1595.42 167.099 1592.51 160.628C1589.6 153.996 1585.79 147.687 1581.1 141.702C1576.57 135.717 1570.99 130.462 1564.36 125.933C1557.89 121.403 1550.37 117.764 1541.79 115.014C1533.22 112.264 1523.51 110.891 1512.67 110.891H1398.88ZM750.044 114.612C745.595 115.837 741.145 117.428 736.696 119.381C730.226 122.293 724 126.092 718.015 130.783C712.03 135.312 706.692 140.893 702 147.526C697.471 153.996 693.831 161.518 691.081 170.091C688.332 178.665 686.959 188.371 686.959 199.209V486.988H750.044V385.857V199.149V114.612ZM1373.4 114.612C1368.95 115.837 1364.5 117.428 1360.05 119.381C1353.58 122.293 1347.36 126.092 1341.37 130.783C1335.39 135.312 1330.05 140.893 1325.36 147.526C1320.83 153.996 1317.19 161.518 1314.44 170.091C1311.69 178.665 1310.31 188.371 1310.31 199.209V486.988H1373.4V400V199.209V114.612Z" fill="#263E54"/>
</svg>
