<svg width="1601" height="489" viewBox="0 0 1601 489" fill="none" xmlns="http://www.w3.org/2000/svg">
<path d="M88.3252 111.891C77.4871 111.891 67.7813 113.264 59.2078 116.014C50.6344 118.764 43.029 122.403 36.3967 126.933C29.9262 131.462 24.3454 136.717 19.6542 142.702C15.1249 148.688 11.4018 154.996 8.49008 161.629C5.57834 168.099 3.39454 174.651 1.93867 181.283C0.644587 187.915 0 194.224 0 200.209V285.623C0 296.461 1.37256 306.25 4.12249 314.985C6.87246 323.559 10.5121 331.156 15.0415 337.789C19.5709 344.259 24.8331 349.84 30.8184 354.531C36.8036 359.061 43.029 362.784 49.4995 365.695C56.1318 368.607 62.7666 370.791 69.3989 372.247C76.0312 373.541 82.34 374.185 88.3252 374.185H202.121V311.1H88.8081C80.3964 311.1 74.0042 308.916 69.6366 304.549C65.269 300.181 63.0852 293.872 63.0852 285.623V200.209C63.0852 192.93 65.3524 186.947 69.8818 182.256C74.4111 177.403 80.5606 174.977 88.3252 174.977H202.121V111.891H88.3252ZM431.42 111.891C422.685 111.891 413.146 113.423 402.793 116.497C392.44 119.57 382.81 124.666 373.913 131.783C365.178 138.739 357.823 147.884 351.838 159.207C346.014 170.369 343.102 184.033 343.102 200.209V285.623C343.102 301.961 346.014 315.791 351.838 327.115C357.823 338.276 365.178 347.414 373.913 354.531C382.81 361.487 392.44 366.507 402.793 369.58C413.146 372.654 422.685 374.185 431.42 374.185H475.824V311.1H431.91C423.499 311.1 417.107 308.916 412.739 304.549C408.371 300.181 406.188 293.872 406.188 285.623V200.209C406.188 191.959 408.371 185.734 412.739 181.528C417.107 177.16 423.499 174.977 431.91 174.977H475.824V111.891H431.42ZM501.302 111.891V174.977H545.223C553.473 174.977 559.782 177.077 564.15 181.283C568.517 185.489 570.701 191.964 570.701 200.699V285.623C570.701 293.872 568.6 300.181 564.395 304.549C560.189 308.916 553.797 311.1 545.223 311.1H501.302V374.185H545.223C551.208 374.185 557.517 373.541 564.15 372.247C570.944 370.791 577.578 368.607 584.049 365.695C590.681 362.784 596.99 359.061 602.975 354.531C608.96 349.84 614.215 344.259 618.745 337.789C623.274 331.156 626.914 323.559 629.664 314.985C632.414 306.25 633.786 296.461 633.786 285.623V200.209C633.786 191.312 632.171 181.69 628.936 171.337C625.862 160.984 620.85 151.438 613.894 142.702C606.938 133.805 597.794 126.45 586.47 120.627C575.147 114.803 561.4 111.891 545.223 111.891H501.302ZM227.599 115.583V200.209V399.425C227.599 407.675 225.498 413.984 221.292 418.352C217.086 422.719 210.694 424.903 202.121 424.903H0V487.988H202.121C208.106 487.988 214.415 487.26 221.047 485.804C227.841 484.51 234.476 482.41 240.946 479.498C247.579 476.586 253.887 472.78 259.873 468.089C265.858 463.56 271.113 457.979 275.642 451.346C280.172 444.876 283.811 437.278 286.561 428.543C289.311 419.969 290.691 410.264 290.691 399.425V200.209C290.691 189.371 289.311 179.665 286.561 171.092C283.811 162.518 280.172 154.996 275.642 148.526C271.113 141.893 265.858 136.313 259.873 131.783C253.887 127.092 247.579 123.293 240.946 120.381C236.572 118.413 232.122 116.811 227.599 115.583Z" fill="black"/>
<path d="M436.256 188.614V215.035H462.35V241.456H488.444V215.035V188.614H462.35H436.256ZM462.35 241.456H436.256V267.877V294.298H462.35V267.877V241.456ZM514.539 188.614V215.035H540.633V188.614H514.539ZM514.539 241.456V267.877H488.444V294.298H514.539H540.633V267.877V241.456H514.539Z" fill="black"/>
<path d="M749.544 488.488H685.459V200.209C685.459 189.329 686.837 179.57 689.605 170.938C692.369 162.324 696.029 154.756 700.591 148.239L700.592 148.237H700.593C705.311 141.567 710.684 135.947 716.713 131.385C722.726 126.673 728.984 122.853 735.491 119.925L735.495 119.924C739.964 117.962 744.437 116.362 748.911 115.131L749.544 114.956V488.488ZM1372.9 488.488H1308.81V200.209C1308.81 189.329 1310.19 179.57 1312.96 170.938C1315.73 162.324 1319.39 154.756 1323.95 148.239L1323.95 148.237C1328.67 141.567 1334.04 135.947 1340.07 131.385C1346.08 126.673 1352.34 122.853 1358.85 119.925L1358.85 119.924C1363.32 117.962 1367.79 116.362 1372.27 115.131L1372.9 114.956V488.488ZM888.325 111.392C899.205 111.392 908.963 112.769 917.595 115.537C926.207 118.3 933.773 121.96 940.289 126.52H940.29C946.961 131.076 952.581 136.365 957.145 142.394L958.018 143.525C962.333 149.203 965.862 155.169 968.608 161.423C971.534 167.923 973.645 174.508 974.947 181.176L975.213 182.421C976.499 188.63 977.143 194.56 977.143 200.209V285.622C977.143 296.502 975.765 306.343 972.997 315.135L972.996 315.138C970.233 323.752 966.573 331.394 962.014 338.07L962.011 338.075C957.454 344.584 952.166 350.202 946.141 354.925L946.134 354.93C940.119 359.482 933.776 363.225 927.106 366.153L927.105 366.152C920.606 369.077 914.024 371.272 907.358 372.735L907.347 372.737C900.687 374.037 894.346 374.686 888.325 374.686H774.021V310.6H888.325C896.655 310.6 902.811 308.439 906.891 304.202C910.978 299.957 913.058 293.79 913.058 285.622V200.699C913.058 192.039 910.893 185.719 906.659 181.643L906.652 181.637V181.636C902.572 177.555 896.495 175.477 888.325 175.477H774.526L774.021 175.481V111.392H888.325ZM1092.65 0.5V285.622C1092.65 293.27 1095.03 299.356 1099.77 303.938C1104.52 308.372 1110.46 310.6 1117.62 310.6H1146.27V374.686H1117.62C1108.51 374.686 1098.75 373.144 1088.36 370.06L1088.36 370.059C1078.11 366.966 1068.51 361.916 1059.56 354.925L1059.56 354.922C1050.6 347.757 1043.2 338.563 1037.35 327.346L1037.34 327.343C1031.48 315.932 1028.55 302.018 1028.55 285.622V0.5H1092.65ZM1250.85 111.392V374.686H1186.76V111.392H1250.85ZM1511.67 111.392C1522.55 111.392 1532.31 112.768 1540.95 115.537C1549.56 118.3 1557.12 121.959 1563.64 126.52C1570.31 131.077 1575.94 136.369 1580.5 142.4H1580.5C1585.21 148.414 1589.04 154.754 1591.97 161.423C1594.89 167.927 1597.01 174.515 1598.31 181.187H1598.31C1599.77 187.845 1600.5 194.187 1600.5 200.209V285.622C1600.5 296.502 1599.12 306.343 1596.35 315.135L1596.35 315.138C1593.59 323.751 1589.93 331.394 1585.37 338.07L1585.37 338.075C1580.81 344.585 1575.52 350.202 1569.49 354.925L1569.48 354.93C1563.47 359.481 1557.13 363.223 1550.46 366.15C1543.96 369.076 1537.38 371.272 1530.71 372.735L1530.7 372.737C1524.04 374.037 1517.7 374.686 1511.67 374.686H1397.38V310.6H1511.67C1520 310.6 1526.16 308.439 1530.24 304.202C1534.33 299.957 1536.42 293.79 1536.42 285.622V200.699C1536.42 192.039 1534.25 185.719 1530.02 181.643L1530.01 181.637V181.636C1525.93 177.555 1519.84 175.477 1511.67 175.477H1397.88L1397.38 175.481V111.392H1511.67ZM1250.85 0.5V58.5244H1186.76V0.5H1250.85Z" fill="white" stroke="black"/>
</svg>
