<?xml version="1.0" encoding="UTF-8" standalone="no"?>
<!-- Created with Inkscape (http://www.inkscape.org/) -->

<svg
   width="1077.5112"
   height="154.13086"
   viewBox="0 0 285.09151 40.780457"
   version="1.1"
   id="svg1"
   xmlns="http://www.w3.org/2000/svg"
   xmlns:svg="http://www.w3.org/2000/svg">
  <defs
     id="defs1" />
  <g
     id="g21"
     transform="translate(-797.15541,-412.97409)">
    <g
       id="g63"
       transform="translate(790.9741,-14.492653)">
      <g
         id="g450">
        <g
           id="g46"
           transform="matrix(0.67088979,0,0,0.67088979,-728.96298,186.82606)"
           style="stroke-width:1.49055">
          <path
             d="m 32.59375,-130.375 h 78.21875 c 4.78125,0 9.15625,1.16797 13.125,3.5 3.96875,2.33594 7.11719,5.48437 9.45312,9.45312 2.33204,3.96875 3.5,8.34375 3.5,13.125 v 78.218755 c 0,4.679687 -1.16796,9 -3.5,12.96875 -2.33593,3.960937 -5.46093,7.136719 -9.37499,9.53125 C 120.10938,-1.191406 115.70703,0 110.8125,0 H 84.75 V 13.03125 H 58.671875 V 0 H 32.59375 c -4.78125,0 -9.15625,-1.164062 -13.125,-3.5 -3.960938,-2.332031 -7.109375,-5.484375 -9.453125,-9.453125 -2.335937,-3.96875 -3.5,-8.34375 -3.5,-13.125 v -78.218755 c 0,-4.78125 1.164063,-9.15625 3.5,-13.125 2.34375,-3.96875 5.492187,-7.11718 9.453125,-9.45312 3.96875,-2.33203 8.34375,-3.5 13.125,-3.5 z M 84.75,-26.07812 h 23.1962 v -78.21876 H 35.460051 v 78.21876 H 58.671875 V -39.245833 H 84.75 Z"
             id="path43"
             style="fill:#ffffff;stroke-width:1.37277"
             transform="matrix(0.34615604,0,0,0.42387038,1111.8697,-183.02276)" />
          <path
             id="path44"
             style="fill:#ffffff;stroke-width:1.24938"
             d="m -405.60476,-130.37459 v 24.17953 h 24.64455 59.59704 v 37.42201 h -59.59704 -24.64455 v 68.74579536 h 24.64455 V -44.608149 h 21.90064 l 32.49668,44.60040086 32.35571,0.00731494 -32.76254,-44.6077158 h 9.18761 c 3.9029,0 7.47386,-1.079485 10.71352,-3.245395 3.23966,-2.162288 5.81054,-5.077256 7.71734,-8.749886 1.90362,-3.679874 2.85645,-7.736386 2.85645,-12.16962 v -37.42201 c 0,-4.43323 -0.95283,-8.48975 -2.85645,-12.16962 -1.9068,-3.67987 -4.47768,-6.5986 -7.71734,-8.76451 -3.23966,-2.16228 -6.81062,-3.2454 -10.71352,-3.2454 z"
             transform="matrix(0.41790625,0,0,0.42387038,1336.3488,-183.02276)" />
          <path
             d="m -327.24305,-130.375 v 23.9595 h -72.06464 v 27.711253 h 54.38124 v 25.930043 h -54.38124 v 26.696084 h 72.06464 V 0 h -77.43681 c -3.54991,0 -6.7982,-1.1680028 -9.74486,-3.5118491 -2.94086,-2.339926 -5.27846,-5.5029421 -7.01862,-9.4851289 -1.73435,-3.982186 -2.59863,-8.371997 -2.59863,-13.169434 V -103.9879 c 0,-4.8379 0.86428,-9.26473 2.59863,-13.28051 1.74016,-4.01577 4.07776,-7.2015 7.01862,-9.56511 2.94666,-2.35968 6.19495,-3.54148 9.74486,-3.54148 z"
             id="path45"
             style="fill:#ffffff;stroke-width:1.24938"
             transform="matrix(0.41790625,0,0,0.42387038,1396.2832,-183.02276)" />
          <path
             d="M -334.01348,-26.07812 V -130.375 h 26.45634 v 104.10959 c 0,4.815587 -1.33528,9.222007 -4.00139,13.21926 -2.67057,3.9972519 -6.27004,7.1722351 -10.80734,9.521014 C -326.90316,-1.1724219 -331.9049,0 -337.37109,0 h -89.42402 c -5.46619,0 -10.46793,-1.1724219 -15.00523,-3.525136 -4.52835,-2.3487789 -8.12783,-5.5237621 -10.80733,-9.521014 -2.67058,-3.997253 -4.00139,-8.403673 -4.00139,-13.21926 V -130.375 h 26.2325 v 104.29688 h 34.73846 V -130.375 h 26.68019 v 104.29688 z"
             id="path46"
             style="fill:#ffffff;stroke-width:1.24938"
             transform="matrix(0.41790625,0,0,0.42387038,1456.2176,-183.02276)" />
        </g>
        <g
           id="g62"
           transform="matrix(0.27157493,0,0,0.27157493,125.93468,-65.028853)"
           style="stroke-width:1.29869;stroke-dasharray:none">
          <path
             d="m 174.84197,345.5604 h 26.875 c 1.64454,0 3.14454,0.40235 4.5,1.20313 1.36329,0.80469 2.44532,1.88672 3.25,3.25 0.8125,1.36719 1.21875,2.86719 1.21875,4.5 v 35.84375 h -8.96875 V 372.4354 h -26.875 v 17.92188 h -8.96875 v -35.84375 c 0,-1.63281 0.39844,-3.13281 1.20313,-4.5 0.80078,-1.36328 1.88281,-2.44531 3.25,-3.25 1.36328,-0.80078 2.86719,-1.20313 4.51562,-1.20313 z m 0,8.95313 v 8.96875 h 26.875 v -8.96875 z m 0,0"
             id="path47"
             style="fill:#ffffff;fill-opacity:1;stroke-width:1.29869;stroke-dasharray:none" />
          <path
             d="m 259.95884,390.35728 h -35.84375 c -1.64843,0 -3.15234,-0.39844 -4.51562,-1.20313 -1.36719,-0.80078 -2.44922,-1.88281 -3.25,-3.25 -0.80469,-1.36328 -1.20313,-2.86328 -1.20313,-4.5 v -26.89062 c 0,-1.63281 0.39844,-3.13281 1.20313,-4.5 0.80078,-1.36328 1.88281,-2.44531 3.25,-3.25 1.36328,-0.80078 2.86719,-1.20313 4.51562,-1.20313 h 35.84375 v 8.95313 h -35.84375 v 26.89062 h 35.84375 z m 0,0"
             id="path48"
             style="fill:#ffffff;fill-opacity:1;stroke-width:1.29869;stroke-dasharray:none" />
          <path
             d="m 309.23196,390.35728 h -35.84375 c -1.64843,0 -3.15234,-0.39844 -4.51562,-1.20313 -1.36719,-0.80078 -2.44922,-1.88281 -3.25,-3.25 -0.80469,-1.36328 -1.20313,-2.86328 -1.20313,-4.5 v -26.89062 c 0,-1.63281 0.39844,-3.13281 1.20313,-4.5 0.80078,-1.36328 1.88281,-2.44531 3.25,-3.25 1.36328,-0.80078 2.86719,-1.20313 4.51562,-1.20313 h 35.84375 v 8.95313 h -35.84375 v 26.89062 h 35.84375 z m 0,0"
             id="path49"
             style="fill:#ffffff;fill-opacity:1;stroke-width:1.29869;stroke-dasharray:none" />
          <path
             d="m 358.50507,345.5604 v 8.95313 h -35.84375 v 8.96875 h 35.84375 v 8.95312 h -35.84375 v 8.96875 h 35.84375 v 8.95313 h -35.84375 c -1.64843,0 -3.15234,-0.39844 -4.51562,-1.20313 -1.36719,-0.80078 -2.44922,-1.88281 -3.25,-3.25 -0.80469,-1.36328 -1.20313,-2.86328 -1.20313,-4.5 v -26.89062 c 0,-1.63281 0.39844,-3.13281 1.20313,-4.5 0.80078,-1.36328 1.88281,-2.44531 3.25,-3.25 1.36328,-0.80078 2.86719,-1.20313 4.51562,-1.20313 z m 0,0"
             id="path50"
             style="fill:#ffffff;fill-opacity:1;stroke-width:1.29869;stroke-dasharray:none" />
          <path
             d="m 407.77819,345.5604 v 8.95313 h -35.84375 v 8.96875 h 26.875 c 1.64454,0 3.14454,0.40234 4.5,1.20312 1.36329,0.80469 2.44532,1.88672 3.25,3.25 0.8125,1.35547 1.21875,2.85547 1.21875,4.5 v 8.96875 c 0,1.63672 -0.40625,3.13672 -1.21875,4.5 -0.80468,1.36719 -1.88671,2.44922 -3.25,3.25 -1.35546,0.80469 -2.85546,1.20313 -4.5,1.20313 h -35.84375 v -8.95313 h 35.84375 v -8.96875 h -26.875 c -1.64843,0 -3.15234,-0.39843 -4.51562,-1.20312 -1.36719,-0.80078 -2.44922,-1.88281 -3.25,-3.25 -0.80469,-1.36328 -1.20313,-2.86328 -1.20313,-4.5 v -8.96875 c 0,-1.63281 0.39844,-3.13281 1.20313,-4.5 0.80078,-1.36328 1.88281,-2.44531 3.25,-3.25 1.36328,-0.80078 2.86719,-1.20313 4.51562,-1.20313 z m 0,0"
             id="path51"
             style="fill:#ffffff;fill-opacity:1;stroke-width:1.29869;stroke-dasharray:none" />
          <path
             d="m 448.08258,390.35728 h -26.875 c -1.64844,0 -3.15235,-0.39844 -4.51563,-1.20313 -1.36719,-0.80078 -2.44922,-1.88281 -3.25,-3.25 -0.80469,-1.36328 -1.20312,-2.86328 -1.20312,-4.5 v -26.89062 c 0,-1.63281 0.39843,-3.13281 1.20312,-4.5 0.80078,-1.36328 1.88281,-2.44531 3.25,-3.25 1.36328,-0.80078 2.86719,-1.20313 4.51563,-1.20313 h 26.875 c 1.64453,0 3.14453,0.40235 4.5,1.20313 1.36328,0.80469 2.44531,1.88672 3.25,3.25 0.8125,1.36719 1.21875,2.86719 1.21875,4.5 v 26.89062 c 0,1.60547 -0.40625,3.08985 -1.21875,4.45313 -0.80469,1.35547 -1.875,2.44531 -3.21875,3.26562 -1.34375,0.82422 -2.85547,1.23438 -4.53125,1.23438 z m -26.875,-35.84375 v 26.89062 h 26.875 v -26.89062 z m 0,0"
             id="path52"
             style="fill:#ffffff;fill-opacity:1;stroke-width:1.29869;stroke-dasharray:none" />
          <path
             d="m 174.84197,423.5604 h 26.875 c 1.64454,0 3.14454,0.40234 4.5,1.20312 1.36329,0.80469 2.44532,1.88672 3.25,3.25 0.8125,1.36719 1.21875,2.86719 1.21875,4.5 v 35.84375 h -8.96875 V 450.4354 h -26.875 v 17.92187 h -8.96875 v -35.84375 c 0,-1.63281 0.39844,-3.13281 1.20313,-4.5 0.80078,-1.36328 1.88281,-2.44531 3.25,-3.25 1.36328,-0.80078 2.86719,-1.20312 4.51562,-1.20312 z m 0,8.95312 v 8.96875 h 26.875 v -8.96875 z m 0,0"
             id="path53"
             style="fill:#ffffff;fill-opacity:1;stroke-width:1.29869;stroke-dasharray:none" />
          <path
             d="m 224.11509,468.35727 h -8.96875 v -40.3125 c 0,-1.23828 0.4375,-2.29687 1.3125,-3.17187 0.88282,-0.875 1.94141,-1.3125 3.17188,-1.3125 1.22656,0 2.28906,0.44921 3.1875,1.34375 l 28.17187,28.17187 V 423.5604 h 8.96875 v 40.3125 c 0,1.24218 -0.44531,2.29687 -1.32812,3.17187 -0.875,0.875 -1.92969,1.3125 -3.15625,1.3125 -1.23047,0 -2.29297,-0.44531 -3.1875,-1.34375 l -28.17188,-28.17187 z m 0,0"
             id="path54"
             style="fill:#ffffff;fill-opacity:1;stroke-width:1.29869;stroke-dasharray:none" />
          <path
             d="m 309.23196,423.5604 v 8.95312 h -17.92187 v 35.84375 h -8.96875 v -35.84375 h -17.92188 v -8.95312 z m 0,0"
             id="path55"
             style="fill:#ffffff;fill-opacity:1;stroke-width:1.29869;stroke-dasharray:none" />
          <path
             d="m 358.50507,468.35727 h -44.8125 v -8.95312 h 17.92188 v -26.89063 h -17.92188 v -8.95312 h 44.8125 v 8.95312 H 340.5832 v 26.89063 h 17.92187 z m 0,0"
             id="path56"
             style="fill:#ffffff;fill-opacity:1;stroke-width:1.29869;stroke-dasharray:none" />
          <path
             d="m 407.77819,468.35727 h -35.84375 c -1.64843,0 -3.15234,-0.39844 -4.51562,-1.20312 -1.36719,-0.80079 -2.44922,-1.88282 -3.25,-3.25 -0.80469,-1.36329 -1.20313,-2.86329 -1.20313,-4.5 v -26.89063 c 0,-1.63281 0.39844,-3.13281 1.20313,-4.5 0.80078,-1.36328 1.88281,-2.44531 3.25,-3.25 1.36328,-0.80078 2.86719,-1.20312 4.51562,-1.20312 h 35.84375 v 8.95312 h -35.84375 v 26.89063 h 35.84375 z m 0,0"
             id="path57"
             style="fill:#ffffff;fill-opacity:1;stroke-width:1.29869;stroke-dasharray:none" />
          <path
             d="m 457.05133,468.35727 h -44.8125 v -8.95312 h 17.92187 v -26.89063 h -17.92187 v -8.95312 h 44.8125 v 8.95312 h -17.92188 v 26.89063 h 17.92188 z m 0,0"
             id="path58"
             style="fill:#ffffff;fill-opacity:1;stroke-width:1.29869;stroke-dasharray:none" />
          <path
             d="m 497.35568,423.5604 c 1.64454,0 3.14454,0.40234 4.5,1.20312 1.36329,0.80469 2.44532,1.88672 3.25,3.25 0.8125,1.36719 1.21875,2.86719 1.21875,4.5 v 8.96875 c 0,1.63672 -0.40625,3.13672 -1.21875,4.5 -0.80468,1.36719 -1.88671,2.44922 -3.25,3.25 -1.35546,0.80469 -2.85546,1.20313 -4.5,1.20313 h -26.875 v 17.92187 h -8.96875 V 423.5604 Z m -26.875,17.92187 h 26.875 v -8.96875 h -26.875 z m 0,0"
             id="path59"
             style="fill:#ffffff;fill-opacity:1;stroke-width:1.29869;stroke-dasharray:none" />
          <path
             d="m 519.7538,423.5604 h 26.875 c 1.64453,0 3.14453,0.40234 4.5,1.20312 1.36328,0.80469 2.44531,1.88672 3.25,3.25 0.8125,1.36719 1.21875,2.86719 1.21875,4.5 v 35.84375 H 546.6288 V 450.4354 h -26.875 v 17.92187 h -8.96875 v -35.84375 c 0,-1.63281 0.39843,-3.13281 1.20312,-4.5 0.80078,-1.36328 1.88281,-2.44531 3.25,-3.25 1.36328,-0.80078 2.86719,-1.20312 4.51563,-1.20312 z m 0,8.95312 v 8.96875 h 26.875 v -8.96875 z m 0,0"
             id="path60"
             style="fill:#ffffff;fill-opacity:1;stroke-width:1.29869;stroke-dasharray:none" />
          <path
             d="M 595.90192,468.35727 H 560.05817 V 423.5604 h 35.84375 c 1.64454,0 3.14454,0.40234 4.5,1.20312 1.36329,0.80469 2.44532,1.88672 3.25,3.25 0.8125,1.36719 1.21875,2.86719 1.21875,4.5 v 26.89063 c 0,1.63671 -0.40625,3.13671 -1.21875,4.5 -0.80468,1.36718 -1.88671,2.44921 -3.25,3.25 -1.35546,0.80468 -2.85546,1.20312 -4.5,1.20312 z m -26.875,-35.84375 v 26.89063 h 26.875 v -26.89063 z m 0,0"
             id="path61"
             style="fill:#ffffff;fill-opacity:1;stroke-width:1.29869;stroke-dasharray:none" />
          <path
             d="m 645.17506,468.35727 h -26.875 c -1.64844,0 -3.15235,-0.39844 -4.51563,-1.20312 -1.36719,-0.80079 -2.44922,-1.88282 -3.25,-3.25 -0.80469,-1.36329 -1.20312,-2.86329 -1.20312,-4.5 v -26.89063 c 0,-1.63281 0.39843,-3.13281 1.20312,-4.5 0.80078,-1.36328 1.88281,-2.44531 3.25,-3.25 1.36328,-0.80078 2.86719,-1.20312 4.51563,-1.20312 h 26.875 c 1.64453,0 3.14453,0.40234 4.5,1.20312 1.36328,0.80469 2.44531,1.88672 3.25,3.25 0.8125,1.36719 1.21875,2.86719 1.21875,4.5 v 26.89063 c 0,1.60546 -0.40625,3.08984 -1.21875,4.45312 -0.80469,1.35547 -1.875,2.44531 -3.21875,3.26563 -1.34375,0.82421 -2.85547,1.23437 -4.53125,1.23437 z m -26.875,-35.84375 v 26.89063 h 26.875 v -26.89063 z m 0,0"
             id="path62"
             style="fill:#ffffff;fill-opacity:1;stroke-width:1.29869;stroke-dasharray:none" />
        </g>
      </g>
      <g
         id="g306"
         transform="translate(-9.2332067,106.20105)"
         style="fill:#5e30a5;fill-opacity:1">
        <g
           id="g289"
           transform="matrix(0.67088979,0,0,0.67088979,-728.96298,195.28979)"
           style="fill:#5e30a5;fill-opacity:1;stroke-width:1.49055">
          <path
             d="m 32.59375,-130.375 h 78.21875 c 4.78125,0 9.15625,1.16797 13.125,3.5 3.96875,2.33594 7.11719,5.48437 9.45312,9.45312 2.33204,3.96875 3.5,8.34375 3.5,13.125 v 78.218755 c 0,4.679687 -1.16796,9 -3.5,12.96875 -2.33593,3.960937 -5.46093,7.136719 -9.37499,9.53125 C 120.10938,-1.191406 115.70703,0 110.8125,0 H 84.75 V 13.03125 H 58.671875 V 0 H 32.59375 c -4.78125,0 -9.15625,-1.164062 -13.125,-3.5 -3.960938,-2.332031 -7.109375,-5.484375 -9.453125,-9.453125 -2.335937,-3.96875 -3.5,-8.34375 -3.5,-13.125 v -78.218755 c 0,-4.78125 1.164063,-9.15625 3.5,-13.125 2.34375,-3.96875 5.492187,-7.11718 9.453125,-9.45312 3.96875,-2.33203 8.34375,-3.5 13.125,-3.5 z M 84.75,-26.07812 h 23.1962 v -78.21876 H 35.460051 v 78.21876 H 58.671875 V -39.245833 H 84.75 Z"
             id="path286"
             style="fill:#5e30a5;fill-opacity:1;stroke-width:1.37277"
             transform="matrix(0.34615604,0,0,0.42387038,1111.8697,-183.02276)" />
          <path
             id="path287"
             style="fill:#5e30a5;fill-opacity:1;stroke-width:1.24938"
             d="m -405.60476,-130.37459 v 24.17953 h 24.64455 59.59704 v 37.42201 h -59.59704 -24.64455 v 68.74579536 h 24.64455 V -44.608149 h 21.90064 l 32.49668,44.60040086 32.35571,0.00731494 -32.76254,-44.6077158 h 9.18761 c 3.9029,0 7.47386,-1.079485 10.71352,-3.245395 3.23966,-2.162288 5.81054,-5.077256 7.71734,-8.749886 1.90362,-3.679874 2.85645,-7.736386 2.85645,-12.16962 v -37.42201 c 0,-4.43323 -0.95283,-8.48975 -2.85645,-12.16962 -1.9068,-3.67987 -4.47768,-6.5986 -7.71734,-8.76451 -3.23966,-2.16228 -6.81062,-3.2454 -10.71352,-3.2454 z"
             transform="matrix(0.41790625,0,0,0.42387038,1336.3488,-183.02276)" />
          <path
             d="m -327.24305,-130.375 v 23.9595 h -72.06464 v 27.711253 h 54.38124 v 25.930043 h -54.38124 v 26.696084 h 72.06464 V 0 h -77.43681 c -3.54991,0 -6.7982,-1.1680028 -9.74486,-3.5118491 -2.94086,-2.339926 -5.27846,-5.5029421 -7.01862,-9.4851289 -1.73435,-3.982186 -2.59863,-8.371997 -2.59863,-13.169434 V -103.9879 c 0,-4.8379 0.86428,-9.26473 2.59863,-13.28051 1.74016,-4.01577 4.07776,-7.2015 7.01862,-9.56511 2.94666,-2.35968 6.19495,-3.54148 9.74486,-3.54148 z"
             id="path288"
             style="fill:#5e30a5;fill-opacity:1;stroke-width:1.24938"
             transform="matrix(0.41790625,0,0,0.42387038,1396.2832,-183.02276)" />
          <path
             d="M -334.01348,-26.07812 V -130.375 h 26.45634 v 104.10959 c 0,4.815587 -1.33528,9.222007 -4.00139,13.21926 -2.67057,3.9972519 -6.27004,7.1722351 -10.80734,9.521014 C -326.90316,-1.1724219 -331.9049,0 -337.37109,0 h -89.42402 c -5.46619,0 -10.46793,-1.1724219 -15.00523,-3.525136 -4.52835,-2.3487789 -8.12783,-5.5237621 -10.80733,-9.521014 -2.67058,-3.997253 -4.00139,-8.403673 -4.00139,-13.21926 V -130.375 h 26.2325 v 104.29688 h 34.73846 V -130.375 h 26.68019 v 104.29688 z"
             id="path289"
             style="fill:#5e30a5;fill-opacity:1;stroke-width:1.24938"
             transform="matrix(0.41790625,0,0,0.42387038,1456.2176,-183.02276)" />
        </g>
        <g
           id="g305"
           transform="matrix(0.27157493,0,0,0.27157493,125.93468,-56.565122)"
           style="fill:#5e30a5;fill-opacity:1;stroke-width:1.29869;stroke-dasharray:none">
          <path
             d="m 174.84197,345.5604 h 26.875 c 1.64454,0 3.14454,0.40235 4.5,1.20313 1.36329,0.80469 2.44532,1.88672 3.25,3.25 0.8125,1.36719 1.21875,2.86719 1.21875,4.5 v 35.84375 h -8.96875 V 372.4354 h -26.875 v 17.92188 h -8.96875 v -35.84375 c 0,-1.63281 0.39844,-3.13281 1.20313,-4.5 0.80078,-1.36328 1.88281,-2.44531 3.25,-3.25 1.36328,-0.80078 2.86719,-1.20313 4.51562,-1.20313 z m 0,8.95313 v 8.96875 h 26.875 v -8.96875 z m 0,0"
             id="path290"
             style="fill:#5e30a5;fill-opacity:1;stroke-width:1.29869;stroke-dasharray:none" />
          <path
             d="m 259.95884,390.35728 h -35.84375 c -1.64843,0 -3.15234,-0.39844 -4.51562,-1.20313 -1.36719,-0.80078 -2.44922,-1.88281 -3.25,-3.25 -0.80469,-1.36328 -1.20313,-2.86328 -1.20313,-4.5 v -26.89062 c 0,-1.63281 0.39844,-3.13281 1.20313,-4.5 0.80078,-1.36328 1.88281,-2.44531 3.25,-3.25 1.36328,-0.80078 2.86719,-1.20313 4.51562,-1.20313 h 35.84375 v 8.95313 h -35.84375 v 26.89062 h 35.84375 z m 0,0"
             id="path291"
             style="fill:#5e30a5;fill-opacity:1;stroke-width:1.29869;stroke-dasharray:none" />
          <path
             d="m 309.23196,390.35728 h -35.84375 c -1.64843,0 -3.15234,-0.39844 -4.51562,-1.20313 -1.36719,-0.80078 -2.44922,-1.88281 -3.25,-3.25 -0.80469,-1.36328 -1.20313,-2.86328 -1.20313,-4.5 v -26.89062 c 0,-1.63281 0.39844,-3.13281 1.20313,-4.5 0.80078,-1.36328 1.88281,-2.44531 3.25,-3.25 1.36328,-0.80078 2.86719,-1.20313 4.51562,-1.20313 h 35.84375 v 8.95313 h -35.84375 v 26.89062 h 35.84375 z m 0,0"
             id="path292"
             style="fill:#5e30a5;fill-opacity:1;stroke-width:1.29869;stroke-dasharray:none" />
          <path
             d="m 358.50507,345.5604 v 8.95313 h -35.84375 v 8.96875 h 35.84375 v 8.95312 h -35.84375 v 8.96875 h 35.84375 v 8.95313 h -35.84375 c -1.64843,0 -3.15234,-0.39844 -4.51562,-1.20313 -1.36719,-0.80078 -2.44922,-1.88281 -3.25,-3.25 -0.80469,-1.36328 -1.20313,-2.86328 -1.20313,-4.5 v -26.89062 c 0,-1.63281 0.39844,-3.13281 1.20313,-4.5 0.80078,-1.36328 1.88281,-2.44531 3.25,-3.25 1.36328,-0.80078 2.86719,-1.20313 4.51562,-1.20313 z m 0,0"
             id="path293"
             style="fill:#5e30a5;fill-opacity:1;stroke-width:1.29869;stroke-dasharray:none" />
          <path
             d="m 407.77819,345.5604 v 8.95313 h -35.84375 v 8.96875 h 26.875 c 1.64454,0 3.14454,0.40234 4.5,1.20312 1.36329,0.80469 2.44532,1.88672 3.25,3.25 0.8125,1.35547 1.21875,2.85547 1.21875,4.5 v 8.96875 c 0,1.63672 -0.40625,3.13672 -1.21875,4.5 -0.80468,1.36719 -1.88671,2.44922 -3.25,3.25 -1.35546,0.80469 -2.85546,1.20313 -4.5,1.20313 h -35.84375 v -8.95313 h 35.84375 v -8.96875 h -26.875 c -1.64843,0 -3.15234,-0.39843 -4.51562,-1.20312 -1.36719,-0.80078 -2.44922,-1.88281 -3.25,-3.25 -0.80469,-1.36328 -1.20313,-2.86328 -1.20313,-4.5 v -8.96875 c 0,-1.63281 0.39844,-3.13281 1.20313,-4.5 0.80078,-1.36328 1.88281,-2.44531 3.25,-3.25 1.36328,-0.80078 2.86719,-1.20313 4.51562,-1.20313 z m 0,0"
             id="path294"
             style="fill:#5e30a5;fill-opacity:1;stroke-width:1.29869;stroke-dasharray:none" />
          <path
             d="m 448.08258,390.35728 h -26.875 c -1.64844,0 -3.15235,-0.39844 -4.51563,-1.20313 -1.36719,-0.80078 -2.44922,-1.88281 -3.25,-3.25 -0.80469,-1.36328 -1.20312,-2.86328 -1.20312,-4.5 v -26.89062 c 0,-1.63281 0.39843,-3.13281 1.20312,-4.5 0.80078,-1.36328 1.88281,-2.44531 3.25,-3.25 1.36328,-0.80078 2.86719,-1.20313 4.51563,-1.20313 h 26.875 c 1.64453,0 3.14453,0.40235 4.5,1.20313 1.36328,0.80469 2.44531,1.88672 3.25,3.25 0.8125,1.36719 1.21875,2.86719 1.21875,4.5 v 26.89062 c 0,1.60547 -0.40625,3.08985 -1.21875,4.45313 -0.80469,1.35547 -1.875,2.44531 -3.21875,3.26562 -1.34375,0.82422 -2.85547,1.23438 -4.53125,1.23438 z m -26.875,-35.84375 v 26.89062 h 26.875 v -26.89062 z m 0,0"
             id="path295"
             style="fill:#5e30a5;fill-opacity:1;stroke-width:1.29869;stroke-dasharray:none" />
          <path
             d="m 174.84197,423.5604 h 26.875 c 1.64454,0 3.14454,0.40234 4.5,1.20312 1.36329,0.80469 2.44532,1.88672 3.25,3.25 0.8125,1.36719 1.21875,2.86719 1.21875,4.5 v 35.84375 h -8.96875 V 450.4354 h -26.875 v 17.92187 h -8.96875 v -35.84375 c 0,-1.63281 0.39844,-3.13281 1.20313,-4.5 0.80078,-1.36328 1.88281,-2.44531 3.25,-3.25 1.36328,-0.80078 2.86719,-1.20312 4.51562,-1.20312 z m 0,8.95312 v 8.96875 h 26.875 v -8.96875 z m 0,0"
             id="path296"
             style="fill:#5e30a5;fill-opacity:1;stroke-width:1.29869;stroke-dasharray:none" />
          <path
             d="m 224.11509,468.35727 h -8.96875 v -40.3125 c 0,-1.23828 0.4375,-2.29687 1.3125,-3.17187 0.88282,-0.875 1.94141,-1.3125 3.17188,-1.3125 1.22656,0 2.28906,0.44921 3.1875,1.34375 l 28.17187,28.17187 V 423.5604 h 8.96875 v 40.3125 c 0,1.24218 -0.44531,2.29687 -1.32812,3.17187 -0.875,0.875 -1.92969,1.3125 -3.15625,1.3125 -1.23047,0 -2.29297,-0.44531 -3.1875,-1.34375 l -28.17188,-28.17187 z m 0,0"
             id="path297"
             style="fill:#5e30a5;fill-opacity:1;stroke-width:1.29869;stroke-dasharray:none" />
          <path
             d="m 309.23196,423.5604 v 8.95312 h -17.92187 v 35.84375 h -8.96875 v -35.84375 h -17.92188 v -8.95312 z m 0,0"
             id="path298"
             style="fill:#5e30a5;fill-opacity:1;stroke-width:1.29869;stroke-dasharray:none" />
          <path
             d="m 358.50507,468.35727 h -44.8125 v -8.95312 h 17.92188 v -26.89063 h -17.92188 v -8.95312 h 44.8125 v 8.95312 H 340.5832 v 26.89063 h 17.92187 z m 0,0"
             id="path299"
             style="fill:#5e30a5;fill-opacity:1;stroke-width:1.29869;stroke-dasharray:none" />
          <path
             d="m 407.77819,468.35727 h -35.84375 c -1.64843,0 -3.15234,-0.39844 -4.51562,-1.20312 -1.36719,-0.80079 -2.44922,-1.88282 -3.25,-3.25 -0.80469,-1.36329 -1.20313,-2.86329 -1.20313,-4.5 v -26.89063 c 0,-1.63281 0.39844,-3.13281 1.20313,-4.5 0.80078,-1.36328 1.88281,-2.44531 3.25,-3.25 1.36328,-0.80078 2.86719,-1.20312 4.51562,-1.20312 h 35.84375 v 8.95312 h -35.84375 v 26.89063 h 35.84375 z m 0,0"
             id="path300"
             style="fill:#5e30a5;fill-opacity:1;stroke-width:1.29869;stroke-dasharray:none" />
          <path
             d="m 457.05133,468.35727 h -44.8125 v -8.95312 h 17.92187 v -26.89063 h -17.92187 v -8.95312 h 44.8125 v 8.95312 h -17.92188 v 26.89063 h 17.92188 z m 0,0"
             id="path301"
             style="fill:#5e30a5;fill-opacity:1;stroke-width:1.29869;stroke-dasharray:none" />
          <path
             d="m 497.35568,423.5604 c 1.64454,0 3.14454,0.40234 4.5,1.20312 1.36329,0.80469 2.44532,1.88672 3.25,3.25 0.8125,1.36719 1.21875,2.86719 1.21875,4.5 v 8.96875 c 0,1.63672 -0.40625,3.13672 -1.21875,4.5 -0.80468,1.36719 -1.88671,2.44922 -3.25,3.25 -1.35546,0.80469 -2.85546,1.20313 -4.5,1.20313 h -26.875 v 17.92187 h -8.96875 V 423.5604 Z m -26.875,17.92187 h 26.875 v -8.96875 h -26.875 z m 0,0"
             id="path302"
             style="fill:#5e30a5;fill-opacity:1;stroke-width:1.29869;stroke-dasharray:none" />
          <path
             d="m 519.7538,423.5604 h 26.875 c 1.64453,0 3.14453,0.40234 4.5,1.20312 1.36328,0.80469 2.44531,1.88672 3.25,3.25 0.8125,1.36719 1.21875,2.86719 1.21875,4.5 v 35.84375 H 546.6288 V 450.4354 h -26.875 v 17.92187 h -8.96875 v -35.84375 c 0,-1.63281 0.39843,-3.13281 1.20312,-4.5 0.80078,-1.36328 1.88281,-2.44531 3.25,-3.25 1.36328,-0.80078 2.86719,-1.20312 4.51563,-1.20312 z m 0,8.95312 v 8.96875 h 26.875 v -8.96875 z m 0,0"
             id="path303"
             style="fill:#5e30a5;fill-opacity:1;stroke-width:1.29869;stroke-dasharray:none" />
          <path
             d="M 595.90192,468.35727 H 560.05817 V 423.5604 h 35.84375 c 1.64454,0 3.14454,0.40234 4.5,1.20312 1.36329,0.80469 2.44532,1.88672 3.25,3.25 0.8125,1.36719 1.21875,2.86719 1.21875,4.5 v 26.89063 c 0,1.63671 -0.40625,3.13671 -1.21875,4.5 -0.80468,1.36718 -1.88671,2.44921 -3.25,3.25 -1.35546,0.80468 -2.85546,1.20312 -4.5,1.20312 z m -26.875,-35.84375 v 26.89063 h 26.875 v -26.89063 z m 0,0"
             id="path304"
             style="fill:#5e30a5;fill-opacity:1;stroke-width:1.29869;stroke-dasharray:none" />
          <path
             d="m 645.17506,468.35727 h -26.875 c -1.64844,0 -3.15235,-0.39844 -4.51563,-1.20312 -1.36719,-0.80079 -2.44922,-1.88282 -3.25,-3.25 -0.80469,-1.36329 -1.20312,-2.86329 -1.20312,-4.5 v -26.89063 c 0,-1.63281 0.39843,-3.13281 1.20312,-4.5 0.80078,-1.36328 1.88281,-2.44531 3.25,-3.25 1.36328,-0.80078 2.86719,-1.20312 4.51563,-1.20312 h 26.875 c 1.64453,0 3.14453,0.40234 4.5,1.20312 1.36328,0.80469 2.44531,1.88672 3.25,3.25 0.8125,1.36719 1.21875,2.86719 1.21875,4.5 v 26.89063 c 0,1.60546 -0.40625,3.08984 -1.21875,4.45312 -0.80469,1.35547 -1.875,2.44531 -3.21875,3.26563 -1.34375,0.82421 -2.85547,1.23437 -4.53125,1.23437 z m -26.875,-35.84375 v 26.89063 h 26.875 v -26.89063 z m 0,0"
             id="path305"
             style="fill:#5e30a5;fill-opacity:1;stroke-width:1.29869;stroke-dasharray:none" />
        </g>
      </g>
      <g
         id="g326"
         transform="translate(-9.2331615,210.84353)"
         style="fill:#f68e3a;fill-opacity:1">
        <g
           id="g309"
           transform="matrix(0.67088979,0,0,0.67088979,-728.96298,195.28979)"
           style="fill:#f68e3a;fill-opacity:1;stroke-width:1.49055">
          <path
             d="m 32.59375,-130.375 h 78.21875 c 4.78125,0 9.15625,1.16797 13.125,3.5 3.96875,2.33594 7.11719,5.48437 9.45312,9.45312 2.33204,3.96875 3.5,8.34375 3.5,13.125 v 78.218755 c 0,4.679687 -1.16796,9 -3.5,12.96875 -2.33593,3.960937 -5.46093,7.136719 -9.37499,9.53125 C 120.10938,-1.191406 115.70703,0 110.8125,0 H 84.75 V 13.03125 H 58.671875 V 0 H 32.59375 c -4.78125,0 -9.15625,-1.164062 -13.125,-3.5 -3.960938,-2.332031 -7.109375,-5.484375 -9.453125,-9.453125 -2.335937,-3.96875 -3.5,-8.34375 -3.5,-13.125 v -78.218755 c 0,-4.78125 1.164063,-9.15625 3.5,-13.125 2.34375,-3.96875 5.492187,-7.11718 9.453125,-9.45312 3.96875,-2.33203 8.34375,-3.5 13.125,-3.5 z M 84.75,-26.07812 h 23.1962 v -78.21876 H 35.460051 v 78.21876 H 58.671875 V -39.245833 H 84.75 Z"
             id="path306"
             style="fill:#f68e3a;fill-opacity:1;stroke-width:1.37277"
             transform="matrix(0.34615604,0,0,0.42387038,1111.8697,-183.02276)" />
          <path
             id="path307"
             style="fill:#f68e3a;fill-opacity:1;stroke-width:1.24938"
             d="m -405.60476,-130.37459 v 24.17953 h 24.64455 59.59704 v 37.42201 h -59.59704 -24.64455 v 68.74579536 h 24.64455 V -44.608149 h 21.90064 l 32.49668,44.60040086 32.35571,0.00731494 -32.76254,-44.6077158 h 9.18761 c 3.9029,0 7.47386,-1.079485 10.71352,-3.245395 3.23966,-2.162288 5.81054,-5.077256 7.71734,-8.749886 1.90362,-3.679874 2.85645,-7.736386 2.85645,-12.16962 v -37.42201 c 0,-4.43323 -0.95283,-8.48975 -2.85645,-12.16962 -1.9068,-3.67987 -4.47768,-6.5986 -7.71734,-8.76451 -3.23966,-2.16228 -6.81062,-3.2454 -10.71352,-3.2454 z"
             transform="matrix(0.41790625,0,0,0.42387038,1336.3488,-183.02276)" />
          <path
             d="m -327.24305,-130.375 v 23.9595 h -72.06464 v 27.711253 h 54.38124 v 25.930043 h -54.38124 v 26.696084 h 72.06464 V 0 h -77.43681 c -3.54991,0 -6.7982,-1.1680028 -9.74486,-3.5118491 -2.94086,-2.339926 -5.27846,-5.5029421 -7.01862,-9.4851289 -1.73435,-3.982186 -2.59863,-8.371997 -2.59863,-13.169434 V -103.9879 c 0,-4.8379 0.86428,-9.26473 2.59863,-13.28051 1.74016,-4.01577 4.07776,-7.2015 7.01862,-9.56511 2.94666,-2.35968 6.19495,-3.54148 9.74486,-3.54148 z"
             id="path308"
             style="fill:#f68e3a;fill-opacity:1;stroke-width:1.24938"
             transform="matrix(0.41790625,0,0,0.42387038,1396.2832,-183.02276)" />
          <path
             d="M -334.01348,-26.07812 V -130.375 h 26.45634 v 104.10959 c 0,4.815587 -1.33528,9.222007 -4.00139,13.21926 -2.67057,3.9972519 -6.27004,7.1722351 -10.80734,9.521014 C -326.90316,-1.1724219 -331.9049,0 -337.37109,0 h -89.42402 c -5.46619,0 -10.46793,-1.1724219 -15.00523,-3.525136 -4.52835,-2.3487789 -8.12783,-5.5237621 -10.80733,-9.521014 -2.67058,-3.997253 -4.00139,-8.403673 -4.00139,-13.21926 V -130.375 h 26.2325 v 104.29688 h 34.73846 V -130.375 h 26.68019 v 104.29688 z"
             id="path309"
             style="fill:#f68e3a;fill-opacity:1;stroke-width:1.24938"
             transform="matrix(0.41790625,0,0,0.42387038,1456.2176,-183.02276)" />
        </g>
        <g
           id="g325"
           transform="matrix(0.27157493,0,0,0.27157493,125.93468,-56.565122)"
           style="fill:#f68e3a;fill-opacity:1;stroke-width:1.29869;stroke-dasharray:none">
          <path
             d="m 174.84197,345.5604 h 26.875 c 1.64454,0 3.14454,0.40235 4.5,1.20313 1.36329,0.80469 2.44532,1.88672 3.25,3.25 0.8125,1.36719 1.21875,2.86719 1.21875,4.5 v 35.84375 h -8.96875 V 372.4354 h -26.875 v 17.92188 h -8.96875 v -35.84375 c 0,-1.63281 0.39844,-3.13281 1.20313,-4.5 0.80078,-1.36328 1.88281,-2.44531 3.25,-3.25 1.36328,-0.80078 2.86719,-1.20313 4.51562,-1.20313 z m 0,8.95313 v 8.96875 h 26.875 v -8.96875 z m 0,0"
             id="path310"
             style="fill:#f68e3a;fill-opacity:1;stroke-width:1.29869;stroke-dasharray:none" />
          <path
             d="m 259.95884,390.35728 h -35.84375 c -1.64843,0 -3.15234,-0.39844 -4.51562,-1.20313 -1.36719,-0.80078 -2.44922,-1.88281 -3.25,-3.25 -0.80469,-1.36328 -1.20313,-2.86328 -1.20313,-4.5 v -26.89062 c 0,-1.63281 0.39844,-3.13281 1.20313,-4.5 0.80078,-1.36328 1.88281,-2.44531 3.25,-3.25 1.36328,-0.80078 2.86719,-1.20313 4.51562,-1.20313 h 35.84375 v 8.95313 h -35.84375 v 26.89062 h 35.84375 z m 0,0"
             id="path311"
             style="fill:#f68e3a;fill-opacity:1;stroke-width:1.29869;stroke-dasharray:none" />
          <path
             d="m 309.23196,390.35728 h -35.84375 c -1.64843,0 -3.15234,-0.39844 -4.51562,-1.20313 -1.36719,-0.80078 -2.44922,-1.88281 -3.25,-3.25 -0.80469,-1.36328 -1.20313,-2.86328 -1.20313,-4.5 v -26.89062 c 0,-1.63281 0.39844,-3.13281 1.20313,-4.5 0.80078,-1.36328 1.88281,-2.44531 3.25,-3.25 1.36328,-0.80078 2.86719,-1.20313 4.51562,-1.20313 h 35.84375 v 8.95313 h -35.84375 v 26.89062 h 35.84375 z m 0,0"
             id="path312"
             style="fill:#f68e3a;fill-opacity:1;stroke-width:1.29869;stroke-dasharray:none" />
          <path
             d="m 358.50507,345.5604 v 8.95313 h -35.84375 v 8.96875 h 35.84375 v 8.95312 h -35.84375 v 8.96875 h 35.84375 v 8.95313 h -35.84375 c -1.64843,0 -3.15234,-0.39844 -4.51562,-1.20313 -1.36719,-0.80078 -2.44922,-1.88281 -3.25,-3.25 -0.80469,-1.36328 -1.20313,-2.86328 -1.20313,-4.5 v -26.89062 c 0,-1.63281 0.39844,-3.13281 1.20313,-4.5 0.80078,-1.36328 1.88281,-2.44531 3.25,-3.25 1.36328,-0.80078 2.86719,-1.20313 4.51562,-1.20313 z m 0,0"
             id="path313"
             style="fill:#f68e3a;fill-opacity:1;stroke-width:1.29869;stroke-dasharray:none" />
          <path
             d="m 407.77819,345.5604 v 8.95313 h -35.84375 v 8.96875 h 26.875 c 1.64454,0 3.14454,0.40234 4.5,1.20312 1.36329,0.80469 2.44532,1.88672 3.25,3.25 0.8125,1.35547 1.21875,2.85547 1.21875,4.5 v 8.96875 c 0,1.63672 -0.40625,3.13672 -1.21875,4.5 -0.80468,1.36719 -1.88671,2.44922 -3.25,3.25 -1.35546,0.80469 -2.85546,1.20313 -4.5,1.20313 h -35.84375 v -8.95313 h 35.84375 v -8.96875 h -26.875 c -1.64843,0 -3.15234,-0.39843 -4.51562,-1.20312 -1.36719,-0.80078 -2.44922,-1.88281 -3.25,-3.25 -0.80469,-1.36328 -1.20313,-2.86328 -1.20313,-4.5 v -8.96875 c 0,-1.63281 0.39844,-3.13281 1.20313,-4.5 0.80078,-1.36328 1.88281,-2.44531 3.25,-3.25 1.36328,-0.80078 2.86719,-1.20313 4.51562,-1.20313 z m 0,0"
             id="path314"
             style="fill:#f68e3a;fill-opacity:1;stroke-width:1.29869;stroke-dasharray:none" />
          <path
             d="m 448.08258,390.35728 h -26.875 c -1.64844,0 -3.15235,-0.39844 -4.51563,-1.20313 -1.36719,-0.80078 -2.44922,-1.88281 -3.25,-3.25 -0.80469,-1.36328 -1.20312,-2.86328 -1.20312,-4.5 v -26.89062 c 0,-1.63281 0.39843,-3.13281 1.20312,-4.5 0.80078,-1.36328 1.88281,-2.44531 3.25,-3.25 1.36328,-0.80078 2.86719,-1.20313 4.51563,-1.20313 h 26.875 c 1.64453,0 3.14453,0.40235 4.5,1.20313 1.36328,0.80469 2.44531,1.88672 3.25,3.25 0.8125,1.36719 1.21875,2.86719 1.21875,4.5 v 26.89062 c 0,1.60547 -0.40625,3.08985 -1.21875,4.45313 -0.80469,1.35547 -1.875,2.44531 -3.21875,3.26562 -1.34375,0.82422 -2.85547,1.23438 -4.53125,1.23438 z m -26.875,-35.84375 v 26.89062 h 26.875 v -26.89062 z m 0,0"
             id="path315"
             style="fill:#f68e3a;fill-opacity:1;stroke-width:1.29869;stroke-dasharray:none" />
          <path
             d="m 174.84197,423.5604 h 26.875 c 1.64454,0 3.14454,0.40234 4.5,1.20312 1.36329,0.80469 2.44532,1.88672 3.25,3.25 0.8125,1.36719 1.21875,2.86719 1.21875,4.5 v 35.84375 h -8.96875 V 450.4354 h -26.875 v 17.92187 h -8.96875 v -35.84375 c 0,-1.63281 0.39844,-3.13281 1.20313,-4.5 0.80078,-1.36328 1.88281,-2.44531 3.25,-3.25 1.36328,-0.80078 2.86719,-1.20312 4.51562,-1.20312 z m 0,8.95312 v 8.96875 h 26.875 v -8.96875 z m 0,0"
             id="path316"
             style="fill:#f68e3a;fill-opacity:1;stroke-width:1.29869;stroke-dasharray:none" />
          <path
             d="m 224.11509,468.35727 h -8.96875 v -40.3125 c 0,-1.23828 0.4375,-2.29687 1.3125,-3.17187 0.88282,-0.875 1.94141,-1.3125 3.17188,-1.3125 1.22656,0 2.28906,0.44921 3.1875,1.34375 l 28.17187,28.17187 V 423.5604 h 8.96875 v 40.3125 c 0,1.24218 -0.44531,2.29687 -1.32812,3.17187 -0.875,0.875 -1.92969,1.3125 -3.15625,1.3125 -1.23047,0 -2.29297,-0.44531 -3.1875,-1.34375 l -28.17188,-28.17187 z m 0,0"
             id="path317"
             style="fill:#f68e3a;fill-opacity:1;stroke-width:1.29869;stroke-dasharray:none" />
          <path
             d="m 309.23196,423.5604 v 8.95312 h -17.92187 v 35.84375 h -8.96875 v -35.84375 h -17.92188 v -8.95312 z m 0,0"
             id="path318"
             style="fill:#f68e3a;fill-opacity:1;stroke-width:1.29869;stroke-dasharray:none" />
          <path
             d="m 358.50507,468.35727 h -44.8125 v -8.95312 h 17.92188 v -26.89063 h -17.92188 v -8.95312 h 44.8125 v 8.95312 H 340.5832 v 26.89063 h 17.92187 z m 0,0"
             id="path319"
             style="fill:#f68e3a;fill-opacity:1;stroke-width:1.29869;stroke-dasharray:none" />
          <path
             d="m 407.77819,468.35727 h -35.84375 c -1.64843,0 -3.15234,-0.39844 -4.51562,-1.20312 -1.36719,-0.80079 -2.44922,-1.88282 -3.25,-3.25 -0.80469,-1.36329 -1.20313,-2.86329 -1.20313,-4.5 v -26.89063 c 0,-1.63281 0.39844,-3.13281 1.20313,-4.5 0.80078,-1.36328 1.88281,-2.44531 3.25,-3.25 1.36328,-0.80078 2.86719,-1.20312 4.51562,-1.20312 h 35.84375 v 8.95312 h -35.84375 v 26.89063 h 35.84375 z m 0,0"
             id="path320"
             style="fill:#f68e3a;fill-opacity:1;stroke-width:1.29869;stroke-dasharray:none" />
          <path
             d="m 457.05133,468.35727 h -44.8125 v -8.95312 h 17.92187 v -26.89063 h -17.92187 v -8.95312 h 44.8125 v 8.95312 h -17.92188 v 26.89063 h 17.92188 z m 0,0"
             id="path321"
             style="fill:#f68e3a;fill-opacity:1;stroke-width:1.29869;stroke-dasharray:none" />
          <path
             d="m 497.35568,423.5604 c 1.64454,0 3.14454,0.40234 4.5,1.20312 1.36329,0.80469 2.44532,1.88672 3.25,3.25 0.8125,1.36719 1.21875,2.86719 1.21875,4.5 v 8.96875 c 0,1.63672 -0.40625,3.13672 -1.21875,4.5 -0.80468,1.36719 -1.88671,2.44922 -3.25,3.25 -1.35546,0.80469 -2.85546,1.20313 -4.5,1.20313 h -26.875 v 17.92187 h -8.96875 V 423.5604 Z m -26.875,17.92187 h 26.875 v -8.96875 h -26.875 z m 0,0"
             id="path322"
             style="fill:#f68e3a;fill-opacity:1;stroke-width:1.29869;stroke-dasharray:none" />
          <path
             d="m 519.7538,423.5604 h 26.875 c 1.64453,0 3.14453,0.40234 4.5,1.20312 1.36328,0.80469 2.44531,1.88672 3.25,3.25 0.8125,1.36719 1.21875,2.86719 1.21875,4.5 v 35.84375 H 546.6288 V 450.4354 h -26.875 v 17.92187 h -8.96875 v -35.84375 c 0,-1.63281 0.39843,-3.13281 1.20312,-4.5 0.80078,-1.36328 1.88281,-2.44531 3.25,-3.25 1.36328,-0.80078 2.86719,-1.20312 4.51563,-1.20312 z m 0,8.95312 v 8.96875 h 26.875 v -8.96875 z m 0,0"
             id="path323"
             style="fill:#f68e3a;fill-opacity:1;stroke-width:1.29869;stroke-dasharray:none" />
          <path
             d="M 595.90192,468.35727 H 560.05817 V 423.5604 h 35.84375 c 1.64454,0 3.14454,0.40234 4.5,1.20312 1.36329,0.80469 2.44532,1.88672 3.25,3.25 0.8125,1.36719 1.21875,2.86719 1.21875,4.5 v 26.89063 c 0,1.63671 -0.40625,3.13671 -1.21875,4.5 -0.80468,1.36718 -1.88671,2.44921 -3.25,3.25 -1.35546,0.80468 -2.85546,1.20312 -4.5,1.20312 z m -26.875,-35.84375 v 26.89063 h 26.875 v -26.89063 z m 0,0"
             id="path324"
             style="fill:#f68e3a;fill-opacity:1;stroke-width:1.29869;stroke-dasharray:none" />
          <path
             d="m 645.17506,468.35727 h -26.875 c -1.64844,0 -3.15235,-0.39844 -4.51563,-1.20312 -1.36719,-0.80079 -2.44922,-1.88282 -3.25,-3.25 -0.80469,-1.36329 -1.20312,-2.86329 -1.20312,-4.5 v -26.89063 c 0,-1.63281 0.39843,-3.13281 1.20312,-4.5 0.80078,-1.36328 1.88281,-2.44531 3.25,-3.25 1.36328,-0.80078 2.86719,-1.20312 4.51563,-1.20312 h 26.875 c 1.64453,0 3.14453,0.40234 4.5,1.20312 1.36328,0.80469 2.44531,1.88672 3.25,3.25 0.8125,1.36719 1.21875,2.86719 1.21875,4.5 v 26.89063 c 0,1.60546 -0.40625,3.08984 -1.21875,4.45312 -0.80469,1.35547 -1.875,2.44531 -3.21875,3.26563 -1.34375,0.82421 -2.85547,1.23437 -4.53125,1.23437 z m -26.875,-35.84375 v 26.89063 h 26.875 v -26.89063 z m 0,0"
             id="path325"
             style="fill:#f68e3a;fill-opacity:1;stroke-width:1.29869;stroke-dasharray:none" />
        </g>
      </g>
      <g
         id="g83"
         transform="translate(-15.388602,313.92745)">
        <g
           id="g66"
           transform="matrix(0.67088979,0,0,0.67088979,-728.96298,186.82606)"
           style="stroke-width:1.49055">
          <path
             d="m 32.59375,-130.375 h 78.21875 c 4.78125,0 9.15625,1.16797 13.125,3.5 3.96875,2.33594 7.11719,5.48437 9.45312,9.45312 2.33204,3.96875 3.5,8.34375 3.5,13.125 v 78.218755 c 0,4.679687 -1.16796,9 -3.5,12.96875 -2.33593,3.960937 -5.46093,7.136719 -9.37499,9.53125 C 120.10938,-1.191406 115.70703,0 110.8125,0 H 84.75 V 13.03125 H 58.671875 V 0 H 32.59375 c -4.78125,0 -9.15625,-1.164062 -13.125,-3.5 -3.960938,-2.332031 -7.109375,-5.484375 -9.453125,-9.453125 -2.335937,-3.96875 -3.5,-8.34375 -3.5,-13.125 v -78.218755 c 0,-4.78125 1.164063,-9.15625 3.5,-13.125 2.34375,-3.96875 5.492187,-7.11718 9.453125,-9.45312 3.96875,-2.33203 8.34375,-3.5 13.125,-3.5 z M 84.75,-26.07812 h 23.1962 v -78.21876 H 35.460051 v 78.21876 H 58.671875 V -39.245833 H 84.75 Z"
             id="path63"
             style="fill:#000000;stroke-width:1.37277"
             transform="matrix(0.34615604,0,0,0.42387038,1111.8697,-183.02276)" />
          <path
             id="path64"
             style="fill:#000000;stroke-width:1.24938"
             d="m -405.60476,-130.37459 v 24.17953 h 24.64455 59.59704 v 37.42201 h -59.59704 -24.64455 v 68.74579536 h 24.64455 V -44.608149 h 21.90064 l 32.49668,44.60040086 32.35571,0.00731494 -32.76254,-44.6077158 h 9.18761 c 3.9029,0 7.47386,-1.079485 10.71352,-3.245395 3.23966,-2.162288 5.81054,-5.077256 7.71734,-8.749886 1.90362,-3.679874 2.85645,-7.736386 2.85645,-12.16962 v -37.42201 c 0,-4.43323 -0.95283,-8.48975 -2.85645,-12.16962 -1.9068,-3.67987 -4.47768,-6.5986 -7.71734,-8.76451 -3.23966,-2.16228 -6.81062,-3.2454 -10.71352,-3.2454 z"
             transform="matrix(0.41790625,0,0,0.42387038,1336.3488,-183.02276)" />
          <path
             d="m -327.24305,-130.375 v 23.9595 h -72.06464 v 27.711253 h 54.38124 v 25.930043 h -54.38124 v 26.696084 h 72.06464 V 0 h -77.43681 c -3.54991,0 -6.7982,-1.1680028 -9.74486,-3.5118491 -2.94086,-2.339926 -5.27846,-5.5029421 -7.01862,-9.4851289 -1.73435,-3.982186 -2.59863,-8.371997 -2.59863,-13.169434 V -103.9879 c 0,-4.8379 0.86428,-9.26473 2.59863,-13.28051 1.74016,-4.01577 4.07776,-7.2015 7.01862,-9.56511 2.94666,-2.35968 6.19495,-3.54148 9.74486,-3.54148 z"
             id="path65"
             style="fill:#000000;stroke-width:1.24938"
             transform="matrix(0.41790625,0,0,0.42387038,1396.2832,-183.02276)" />
          <path
             d="M -334.01348,-26.07812 V -130.375 h 26.45634 v 104.10959 c 0,4.815587 -1.33528,9.222007 -4.00139,13.21926 -2.67057,3.9972519 -6.27004,7.1722351 -10.80734,9.521014 C -326.90316,-1.1724219 -331.9049,0 -337.37109,0 h -89.42402 c -5.46619,0 -10.46793,-1.1724219 -15.00523,-3.525136 -4.52835,-2.3487789 -8.12783,-5.5237621 -10.80733,-9.521014 -2.67058,-3.997253 -4.00139,-8.403673 -4.00139,-13.21926 V -130.375 h 26.2325 v 104.29688 h 34.73846 V -130.375 h 26.68019 v 104.29688 z"
             id="path66"
             style="fill:#000000;stroke-width:1.24938"
             transform="matrix(0.41790625,0,0,0.42387038,1456.2176,-183.02276)" />
        </g>
        <g
           id="g82"
           transform="matrix(0.27157493,0,0,0.27157493,125.93468,-65.028853)"
           style="stroke-width:1.29869;stroke-dasharray:none">
          <path
             d="m 174.84197,345.5604 h 26.875 c 1.64454,0 3.14454,0.40235 4.5,1.20313 1.36329,0.80469 2.44532,1.88672 3.25,3.25 0.8125,1.36719 1.21875,2.86719 1.21875,4.5 v 35.84375 h -8.96875 V 372.4354 h -26.875 v 17.92188 h -8.96875 v -35.84375 c 0,-1.63281 0.39844,-3.13281 1.20313,-4.5 0.80078,-1.36328 1.88281,-2.44531 3.25,-3.25 1.36328,-0.80078 2.86719,-1.20313 4.51562,-1.20313 z m 0,8.95313 v 8.96875 h 26.875 v -8.96875 z m 0,0"
             id="path67"
             style="fill:#000000;fill-opacity:1;stroke-width:1.29869;stroke-dasharray:none" />
          <path
             d="m 259.95884,390.35728 h -35.84375 c -1.64843,0 -3.15234,-0.39844 -4.51562,-1.20313 -1.36719,-0.80078 -2.44922,-1.88281 -3.25,-3.25 -0.80469,-1.36328 -1.20313,-2.86328 -1.20313,-4.5 v -26.89062 c 0,-1.63281 0.39844,-3.13281 1.20313,-4.5 0.80078,-1.36328 1.88281,-2.44531 3.25,-3.25 1.36328,-0.80078 2.86719,-1.20313 4.51562,-1.20313 h 35.84375 v 8.95313 h -35.84375 v 26.89062 h 35.84375 z m 0,0"
             id="path68"
             style="fill:#000000;fill-opacity:1;stroke-width:1.29869;stroke-dasharray:none" />
          <path
             d="m 309.23196,390.35728 h -35.84375 c -1.64843,0 -3.15234,-0.39844 -4.51562,-1.20313 -1.36719,-0.80078 -2.44922,-1.88281 -3.25,-3.25 -0.80469,-1.36328 -1.20313,-2.86328 -1.20313,-4.5 v -26.89062 c 0,-1.63281 0.39844,-3.13281 1.20313,-4.5 0.80078,-1.36328 1.88281,-2.44531 3.25,-3.25 1.36328,-0.80078 2.86719,-1.20313 4.51562,-1.20313 h 35.84375 v 8.95313 h -35.84375 v 26.89062 h 35.84375 z m 0,0"
             id="path69"
             style="fill:#000000;fill-opacity:1;stroke-width:1.29869;stroke-dasharray:none" />
          <path
             d="m 358.50507,345.5604 v 8.95313 h -35.84375 v 8.96875 h 35.84375 v 8.95312 h -35.84375 v 8.96875 h 35.84375 v 8.95313 h -35.84375 c -1.64843,0 -3.15234,-0.39844 -4.51562,-1.20313 -1.36719,-0.80078 -2.44922,-1.88281 -3.25,-3.25 -0.80469,-1.36328 -1.20313,-2.86328 -1.20313,-4.5 v -26.89062 c 0,-1.63281 0.39844,-3.13281 1.20313,-4.5 0.80078,-1.36328 1.88281,-2.44531 3.25,-3.25 1.36328,-0.80078 2.86719,-1.20313 4.51562,-1.20313 z m 0,0"
             id="path70"
             style="fill:#000000;fill-opacity:1;stroke-width:1.29869;stroke-dasharray:none" />
          <path
             d="m 407.77819,345.5604 v 8.95313 h -35.84375 v 8.96875 h 26.875 c 1.64454,0 3.14454,0.40234 4.5,1.20312 1.36329,0.80469 2.44532,1.88672 3.25,3.25 0.8125,1.35547 1.21875,2.85547 1.21875,4.5 v 8.96875 c 0,1.63672 -0.40625,3.13672 -1.21875,4.5 -0.80468,1.36719 -1.88671,2.44922 -3.25,3.25 -1.35546,0.80469 -2.85546,1.20313 -4.5,1.20313 h -35.84375 v -8.95313 h 35.84375 v -8.96875 h -26.875 c -1.64843,0 -3.15234,-0.39843 -4.51562,-1.20312 -1.36719,-0.80078 -2.44922,-1.88281 -3.25,-3.25 -0.80469,-1.36328 -1.20313,-2.86328 -1.20313,-4.5 v -8.96875 c 0,-1.63281 0.39844,-3.13281 1.20313,-4.5 0.80078,-1.36328 1.88281,-2.44531 3.25,-3.25 1.36328,-0.80078 2.86719,-1.20313 4.51562,-1.20313 z m 0,0"
             id="path71"
             style="fill:#000000;fill-opacity:1;stroke-width:1.29869;stroke-dasharray:none" />
          <path
             d="m 448.08258,390.35728 h -26.875 c -1.64844,0 -3.15235,-0.39844 -4.51563,-1.20313 -1.36719,-0.80078 -2.44922,-1.88281 -3.25,-3.25 -0.80469,-1.36328 -1.20312,-2.86328 -1.20312,-4.5 v -26.89062 c 0,-1.63281 0.39843,-3.13281 1.20312,-4.5 0.80078,-1.36328 1.88281,-2.44531 3.25,-3.25 1.36328,-0.80078 2.86719,-1.20313 4.51563,-1.20313 h 26.875 c 1.64453,0 3.14453,0.40235 4.5,1.20313 1.36328,0.80469 2.44531,1.88672 3.25,3.25 0.8125,1.36719 1.21875,2.86719 1.21875,4.5 v 26.89062 c 0,1.60547 -0.40625,3.08985 -1.21875,4.45313 -0.80469,1.35547 -1.875,2.44531 -3.21875,3.26562 -1.34375,0.82422 -2.85547,1.23438 -4.53125,1.23438 z m -26.875,-35.84375 v 26.89062 h 26.875 v -26.89062 z m 0,0"
             id="path72"
             style="fill:#000000;fill-opacity:1;stroke-width:1.29869;stroke-dasharray:none" />
          <path
             d="m 174.84197,423.5604 h 26.875 c 1.64454,0 3.14454,0.40234 4.5,1.20312 1.36329,0.80469 2.44532,1.88672 3.25,3.25 0.8125,1.36719 1.21875,2.86719 1.21875,4.5 v 35.84375 h -8.96875 V 450.4354 h -26.875 v 17.92187 h -8.96875 v -35.84375 c 0,-1.63281 0.39844,-3.13281 1.20313,-4.5 0.80078,-1.36328 1.88281,-2.44531 3.25,-3.25 1.36328,-0.80078 2.86719,-1.20312 4.51562,-1.20312 z m 0,8.95312 v 8.96875 h 26.875 v -8.96875 z m 0,0"
             id="path73"
             style="fill:#000000;fill-opacity:1;stroke-width:1.29869;stroke-dasharray:none" />
          <path
             d="m 224.11509,468.35727 h -8.96875 v -40.3125 c 0,-1.23828 0.4375,-2.29687 1.3125,-3.17187 0.88282,-0.875 1.94141,-1.3125 3.17188,-1.3125 1.22656,0 2.28906,0.44921 3.1875,1.34375 l 28.17187,28.17187 V 423.5604 h 8.96875 v 40.3125 c 0,1.24218 -0.44531,2.29687 -1.32812,3.17187 -0.875,0.875 -1.92969,1.3125 -3.15625,1.3125 -1.23047,0 -2.29297,-0.44531 -3.1875,-1.34375 l -28.17188,-28.17187 z m 0,0"
             id="path74"
             style="fill:#000000;fill-opacity:1;stroke-width:1.29869;stroke-dasharray:none" />
          <path
             d="m 309.23196,423.5604 v 8.95312 h -17.92187 v 35.84375 h -8.96875 v -35.84375 h -17.92188 v -8.95312 z m 0,0"
             id="path75"
             style="fill:#000000;fill-opacity:1;stroke-width:1.29869;stroke-dasharray:none" />
          <path
             d="m 358.50507,468.35727 h -44.8125 v -8.95312 h 17.92188 v -26.89063 h -17.92188 v -8.95312 h 44.8125 v 8.95312 H 340.5832 v 26.89063 h 17.92187 z m 0,0"
             id="path76"
             style="fill:#000000;fill-opacity:1;stroke-width:1.29869;stroke-dasharray:none" />
          <path
             d="m 407.77819,468.35727 h -35.84375 c -1.64843,0 -3.15234,-0.39844 -4.51562,-1.20312 -1.36719,-0.80079 -2.44922,-1.88282 -3.25,-3.25 -0.80469,-1.36329 -1.20313,-2.86329 -1.20313,-4.5 v -26.89063 c 0,-1.63281 0.39844,-3.13281 1.20313,-4.5 0.80078,-1.36328 1.88281,-2.44531 3.25,-3.25 1.36328,-0.80078 2.86719,-1.20312 4.51562,-1.20312 h 35.84375 v 8.95312 h -35.84375 v 26.89063 h 35.84375 z m 0,0"
             id="path77"
             style="fill:#000000;fill-opacity:1;stroke-width:1.29869;stroke-dasharray:none" />
          <path
             d="m 457.05133,468.35727 h -44.8125 v -8.95312 h 17.92187 v -26.89063 h -17.92187 v -8.95312 h 44.8125 v 8.95312 h -17.92188 v 26.89063 h 17.92188 z m 0,0"
             id="path78"
             style="fill:#000000;fill-opacity:1;stroke-width:1.29869;stroke-dasharray:none" />
          <path
             d="m 497.35568,423.5604 c 1.64454,0 3.14454,0.40234 4.5,1.20312 1.36329,0.80469 2.44532,1.88672 3.25,3.25 0.8125,1.36719 1.21875,2.86719 1.21875,4.5 v 8.96875 c 0,1.63672 -0.40625,3.13672 -1.21875,4.5 -0.80468,1.36719 -1.88671,2.44922 -3.25,3.25 -1.35546,0.80469 -2.85546,1.20313 -4.5,1.20313 h -26.875 v 17.92187 h -8.96875 V 423.5604 Z m -26.875,17.92187 h 26.875 v -8.96875 h -26.875 z m 0,0"
             id="path79"
             style="fill:#000000;fill-opacity:1;stroke-width:1.29869;stroke-dasharray:none" />
          <path
             d="m 519.7538,423.5604 h 26.875 c 1.64453,0 3.14453,0.40234 4.5,1.20312 1.36328,0.80469 2.44531,1.88672 3.25,3.25 0.8125,1.36719 1.21875,2.86719 1.21875,4.5 v 35.84375 H 546.6288 V 450.4354 h -26.875 v 17.92187 h -8.96875 v -35.84375 c 0,-1.63281 0.39843,-3.13281 1.20312,-4.5 0.80078,-1.36328 1.88281,-2.44531 3.25,-3.25 1.36328,-0.80078 2.86719,-1.20312 4.51563,-1.20312 z m 0,8.95312 v 8.96875 h 26.875 v -8.96875 z m 0,0"
             id="path80"
             style="fill:#000000;fill-opacity:1;stroke-width:1.29869;stroke-dasharray:none" />
          <path
             d="M 595.90192,468.35727 H 560.05817 V 423.5604 h 35.84375 c 1.64454,0 3.14454,0.40234 4.5,1.20312 1.36329,0.80469 2.44532,1.88672 3.25,3.25 0.8125,1.36719 1.21875,2.86719 1.21875,4.5 v 26.89063 c 0,1.63671 -0.40625,3.13671 -1.21875,4.5 -0.80468,1.36718 -1.88671,2.44921 -3.25,3.25 -1.35546,0.80468 -2.85546,1.20312 -4.5,1.20312 z m -26.875,-35.84375 v 26.89063 h 26.875 v -26.89063 z m 0,0"
             id="path81"
             style="fill:#000000;fill-opacity:1;stroke-width:1.29869;stroke-dasharray:none" />
          <path
             d="m 645.17506,468.35727 h -26.875 c -1.64844,0 -3.15235,-0.39844 -4.51563,-1.20312 -1.36719,-0.80079 -2.44922,-1.88282 -3.25,-3.25 -0.80469,-1.36329 -1.20312,-2.86329 -1.20312,-4.5 v -26.89063 c 0,-1.63281 0.39843,-3.13281 1.20312,-4.5 0.80078,-1.36328 1.88281,-2.44531 3.25,-3.25 1.36328,-0.80078 2.86719,-1.20312 4.51563,-1.20312 h 26.875 c 1.64453,0 3.14453,0.40234 4.5,1.20312 1.36328,0.80469 2.44531,1.88672 3.25,3.25 0.8125,1.36719 1.21875,2.86719 1.21875,4.5 v 26.89063 c 0,1.60546 -0.40625,3.08984 -1.21875,4.45312 -0.80469,1.35547 -1.875,2.44531 -3.21875,3.26563 -1.34375,0.82421 -2.85547,1.23437 -4.53125,1.23437 z m -26.875,-35.84375 v 26.89063 h 26.875 v -26.89063 z m 0,0"
             id="path82"
             style="fill:#000000;fill-opacity:1;stroke-width:1.29869;stroke-dasharray:none" />
        </g>
      </g>
      <g
         id="g245"
         transform="translate(-12.310882,400.50355)">
        <g
           id="g225"
           transform="matrix(0.67088979,0,0,0.67088979,-728.96298,186.82606)"
           style="stroke-width:1.49055">
          <path
             d="m 32.59375,-130.375 h 78.21875 c 4.78125,0 9.15625,1.16797 13.125,3.5 3.96875,2.33594 7.11719,5.48437 9.45312,9.45312 2.33204,3.96875 3.5,8.34375 3.5,13.125 v 78.218755 c 0,4.679687 -1.16796,9 -3.5,12.96875 -2.33593,3.960937 -5.46093,7.136719 -9.37499,9.53125 C 120.10938,-1.191406 115.70703,0 110.8125,0 H 84.75 V 13.03125 H 58.671875 V 0 H 32.59375 c -4.78125,0 -9.15625,-1.164062 -13.125,-3.5 -3.960938,-2.332031 -7.109375,-5.484375 -9.453125,-9.453125 -2.335937,-3.96875 -3.5,-8.34375 -3.5,-13.125 v -78.218755 c 0,-4.78125 1.164063,-9.15625 3.5,-13.125 2.34375,-3.96875 5.492187,-7.11718 9.453125,-9.45312 3.96875,-2.33203 8.34375,-3.5 13.125,-3.5 z M 84.75,-26.07812 h 23.1962 v -78.21876 H 35.460051 v 78.21876 H 58.671875 V -39.245833 H 84.75 Z"
             id="path222"
             style="fill:#ec7617;fill-opacity:1;stroke-width:1.37277"
             transform="matrix(0.34615604,0,0,0.42387038,1111.8697,-183.02276)" />
          <path
             id="path223"
             style="fill:#ec7617;fill-opacity:1;stroke-width:1.24938"
             d="m -405.60476,-130.37459 v 24.17953 h 24.64455 59.59704 v 37.42201 h -59.59704 -24.64455 v 68.74579536 h 24.64455 V -44.608149 h 21.90064 l 32.49668,44.60040086 32.35571,0.00731494 -32.76254,-44.6077158 h 9.18761 c 3.9029,0 7.47386,-1.079485 10.71352,-3.245395 3.23966,-2.162288 5.81054,-5.077256 7.71734,-8.749886 1.90362,-3.679874 2.85645,-7.736386 2.85645,-12.16962 v -37.42201 c 0,-4.43323 -0.95283,-8.48975 -2.85645,-12.16962 -1.9068,-3.67987 -4.47768,-6.5986 -7.71734,-8.76451 -3.23966,-2.16228 -6.81062,-3.2454 -10.71352,-3.2454 z"
             transform="matrix(0.41790625,0,0,0.42387038,1336.3488,-183.02276)" />
          <path
             d="m -327.24305,-130.375 v 23.9595 h -72.06464 v 27.711253 h 54.38124 v 25.930043 h -54.38124 v 26.696084 h 72.06464 V 0 h -77.43681 c -3.54991,0 -6.7982,-1.1680028 -9.74486,-3.5118491 -2.94086,-2.339926 -5.27846,-5.5029421 -7.01862,-9.4851289 -1.73435,-3.982186 -2.59863,-8.371997 -2.59863,-13.169434 V -103.9879 c 0,-4.8379 0.86428,-9.26473 2.59863,-13.28051 1.74016,-4.01577 4.07776,-7.2015 7.01862,-9.56511 2.94666,-2.35968 6.19495,-3.54148 9.74486,-3.54148 z"
             id="path224"
             style="fill:#ec7617;fill-opacity:1;stroke-width:1.24938"
             transform="matrix(0.41790625,0,0,0.42387038,1396.2832,-183.02276)" />
          <path
             d="M -334.01348,-26.07812 V -130.375 h 26.45634 v 104.10959 c 0,4.815587 -1.33528,9.222007 -4.00139,13.21926 -2.67057,3.9972519 -6.27004,7.1722351 -10.80734,9.521014 C -326.90316,-1.1724219 -331.9049,0 -337.37109,0 h -89.42402 c -5.46619,0 -10.46793,-1.1724219 -15.00523,-3.525136 -4.52835,-2.3487789 -8.12783,-5.5237621 -10.80733,-9.521014 -2.67058,-3.997253 -4.00139,-8.403673 -4.00139,-13.21926 V -130.375 h 26.2325 v 104.29688 h 34.73846 V -130.375 h 26.68019 v 104.29688 z"
             id="path225"
             style="fill:#ec7617;fill-opacity:1;stroke-width:1.24938"
             transform="matrix(0.41790625,0,0,0.42387038,1456.2176,-183.02276)" />
        </g>
        <g
           id="g244"
           transform="matrix(0.27157493,0,0,0.27157493,125.93468,-65.028853)"
           style="stroke-width:1.29869;stroke-dasharray:none">
          <path
             d="m 174.84197,345.5604 h 26.875 c 1.64454,0 3.14454,0.40235 4.5,1.20313 1.36329,0.80469 2.44532,1.88672 3.25,3.25 0.8125,1.36719 1.21875,2.86719 1.21875,4.5 v 35.84375 h -8.96875 V 372.4354 h -26.875 v 17.92188 h -8.96875 v -35.84375 c 0,-1.63281 0.39844,-3.13281 1.20313,-4.5 0.80078,-1.36328 1.88281,-2.44531 3.25,-3.25 1.36328,-0.80078 2.86719,-1.20313 4.51562,-1.20313 z m 0,8.95313 v 8.96875 h 26.875 v -8.96875 z m 0,0"
             id="path226"
             style="fill:#ec7617;fill-opacity:1;stroke-width:1.29869;stroke-dasharray:none" />
          <path
             d="m 259.95884,390.35728 h -35.84375 c -1.64843,0 -3.15234,-0.39844 -4.51562,-1.20313 -1.36719,-0.80078 -2.44922,-1.88281 -3.25,-3.25 -0.80469,-1.36328 -1.20313,-2.86328 -1.20313,-4.5 v -26.89062 c 0,-1.63281 0.39844,-3.13281 1.20313,-4.5 0.80078,-1.36328 1.88281,-2.44531 3.25,-3.25 1.36328,-0.80078 2.86719,-1.20313 4.51562,-1.20313 h 35.84375 v 8.95313 h -35.84375 v 26.89062 h 35.84375 z m 0,0"
             id="path227"
             style="fill:#ec7617;fill-opacity:1;stroke-width:1.29869;stroke-dasharray:none" />
          <path
             d="m 309.23196,390.35728 h -35.84375 c -1.64843,0 -3.15234,-0.39844 -4.51562,-1.20313 -1.36719,-0.80078 -2.44922,-1.88281 -3.25,-3.25 -0.80469,-1.36328 -1.20313,-2.86328 -1.20313,-4.5 v -26.89062 c 0,-1.63281 0.39844,-3.13281 1.20313,-4.5 0.80078,-1.36328 1.88281,-2.44531 3.25,-3.25 1.36328,-0.80078 2.86719,-1.20313 4.51562,-1.20313 h 35.84375 v 8.95313 h -35.84375 v 26.89062 h 35.84375 z m 0,0"
             id="path228"
             style="fill:#ec7617;fill-opacity:1;stroke-width:1.29869;stroke-dasharray:none" />
          <path
             d="m 358.50507,345.5604 v 8.95313 h -35.84375 v 8.96875 h 35.84375 v 8.95312 h -35.84375 v 8.96875 h 35.84375 v 8.95313 h -35.84375 c -1.64843,0 -3.15234,-0.39844 -4.51562,-1.20313 -1.36719,-0.80078 -2.44922,-1.88281 -3.25,-3.25 -0.80469,-1.36328 -1.20313,-2.86328 -1.20313,-4.5 v -26.89062 c 0,-1.63281 0.39844,-3.13281 1.20313,-4.5 0.80078,-1.36328 1.88281,-2.44531 3.25,-3.25 1.36328,-0.80078 2.86719,-1.20313 4.51562,-1.20313 z m 0,0"
             id="path229"
             style="fill:#ec7617;fill-opacity:1;stroke-width:1.29869;stroke-dasharray:none" />
          <path
             d="m 407.77819,345.5604 v 8.95313 h -35.84375 v 8.96875 h 26.875 c 1.64454,0 3.14454,0.40234 4.5,1.20312 1.36329,0.80469 2.44532,1.88672 3.25,3.25 0.8125,1.35547 1.21875,2.85547 1.21875,4.5 v 8.96875 c 0,1.63672 -0.40625,3.13672 -1.21875,4.5 -0.80468,1.36719 -1.88671,2.44922 -3.25,3.25 -1.35546,0.80469 -2.85546,1.20313 -4.5,1.20313 h -35.84375 v -8.95313 h 35.84375 v -8.96875 h -26.875 c -1.64843,0 -3.15234,-0.39843 -4.51562,-1.20312 -1.36719,-0.80078 -2.44922,-1.88281 -3.25,-3.25 -0.80469,-1.36328 -1.20313,-2.86328 -1.20313,-4.5 v -8.96875 c 0,-1.63281 0.39844,-3.13281 1.20313,-4.5 0.80078,-1.36328 1.88281,-2.44531 3.25,-3.25 1.36328,-0.80078 2.86719,-1.20313 4.51562,-1.20313 z m 0,0"
             id="path230"
             style="fill:#ec7617;fill-opacity:1;stroke-width:1.29869;stroke-dasharray:none" />
          <path
             d="m 448.08258,390.35728 h -26.875 c -1.64844,0 -3.15235,-0.39844 -4.51563,-1.20313 -1.36719,-0.80078 -2.44922,-1.88281 -3.25,-3.25 -0.80469,-1.36328 -1.20312,-2.86328 -1.20312,-4.5 v -26.89062 c 0,-1.63281 0.39843,-3.13281 1.20312,-4.5 0.80078,-1.36328 1.88281,-2.44531 3.25,-3.25 1.36328,-0.80078 2.86719,-1.20313 4.51563,-1.20313 h 26.875 c 1.64453,0 3.14453,0.40235 4.5,1.20313 1.36328,0.80469 2.44531,1.88672 3.25,3.25 0.8125,1.36719 1.21875,2.86719 1.21875,4.5 v 26.89062 c 0,1.60547 -0.40625,3.08985 -1.21875,4.45313 -0.80469,1.35547 -1.875,2.44531 -3.21875,3.26562 -1.34375,0.82422 -2.85547,1.23438 -4.53125,1.23438 z m -26.875,-35.84375 v 26.89062 h 26.875 v -26.89062 z m 0,0"
             id="path231"
             style="fill:#ec7617;fill-opacity:1;stroke-width:1.29869;stroke-dasharray:none" />
          <path
             d="m 174.84197,423.5604 h 26.875 c 1.64454,0 3.14454,0.40234 4.5,1.20312 1.36329,0.80469 2.44532,1.88672 3.25,3.25 0.8125,1.36719 1.21875,2.86719 1.21875,4.5 v 35.84375 h -8.96875 V 450.4354 h -26.875 v 17.92187 h -8.96875 v -35.84375 c 0,-1.63281 0.39844,-3.13281 1.20313,-4.5 0.80078,-1.36328 1.88281,-2.44531 3.25,-3.25 1.36328,-0.80078 2.86719,-1.20312 4.51562,-1.20312 z m 0,8.95312 v 8.96875 h 26.875 v -8.96875 z m 0,0"
             id="path232"
             style="fill:#ec7617;fill-opacity:1;stroke-width:1.29869;stroke-dasharray:none" />
          <path
             d="m 224.11509,468.35727 h -8.96875 v -40.3125 c 0,-1.23828 0.4375,-2.29687 1.3125,-3.17187 0.88282,-0.875 1.94141,-1.3125 3.17188,-1.3125 1.22656,0 2.28906,0.44921 3.1875,1.34375 l 28.17187,28.17187 V 423.5604 h 8.96875 v 40.3125 c 0,1.24218 -0.44531,2.29687 -1.32812,3.17187 -0.875,0.875 -1.92969,1.3125 -3.15625,1.3125 -1.23047,0 -2.29297,-0.44531 -3.1875,-1.34375 l -28.17188,-28.17187 z m 0,0"
             id="path233"
             style="fill:#ec7617;fill-opacity:1;stroke-width:1.29869;stroke-dasharray:none" />
          <path
             d="m 309.23196,423.5604 v 8.95312 h -17.92187 v 35.84375 h -8.96875 v -35.84375 h -17.92188 v -8.95312 z m 0,0"
             id="path234"
             style="fill:#ec7617;fill-opacity:1;stroke-width:1.29869;stroke-dasharray:none" />
          <path
             d="m 358.50507,468.35727 h -44.8125 v -8.95312 h 17.92188 v -26.89063 h -17.92188 v -8.95312 h 44.8125 v 8.95312 H 340.5832 v 26.89063 h 17.92187 z m 0,0"
             id="path235"
             style="fill:#ec7617;fill-opacity:1;stroke-width:1.29869;stroke-dasharray:none" />
          <path
             d="m 407.77819,468.35727 h -35.84375 c -1.64843,0 -3.15234,-0.39844 -4.51562,-1.20312 -1.36719,-0.80079 -2.44922,-1.88282 -3.25,-3.25 -0.80469,-1.36329 -1.20313,-2.86329 -1.20313,-4.5 v -26.89063 c 0,-1.63281 0.39844,-3.13281 1.20313,-4.5 0.80078,-1.36328 1.88281,-2.44531 3.25,-3.25 1.36328,-0.80078 2.86719,-1.20312 4.51562,-1.20312 h 35.84375 v 8.95312 h -35.84375 v 26.89063 h 35.84375 z m 0,0"
             id="path239"
             style="fill:#ec7617;fill-opacity:1;stroke-width:1.29869;stroke-dasharray:none" />
          <path
             d="m 457.05133,468.35727 h -44.8125 v -8.95312 h 17.92187 v -26.89063 h -17.92187 v -8.95312 h 44.8125 v 8.95312 h -17.92188 v 26.89063 h 17.92188 z m 0,0"
             id="path240"
             style="fill:#ec7617;fill-opacity:1;stroke-width:1.29869;stroke-dasharray:none" />
          <path
             d="m 497.35568,423.5604 c 1.64454,0 3.14454,0.40234 4.5,1.20312 1.36329,0.80469 2.44532,1.88672 3.25,3.25 0.8125,1.36719 1.21875,2.86719 1.21875,4.5 v 8.96875 c 0,1.63672 -0.40625,3.13672 -1.21875,4.5 -0.80468,1.36719 -1.88671,2.44922 -3.25,3.25 -1.35546,0.80469 -2.85546,1.20313 -4.5,1.20313 h -26.875 v 17.92187 h -8.96875 V 423.5604 Z m -26.875,17.92187 h 26.875 v -8.96875 h -26.875 z m 0,0"
             id="path241"
             style="fill:#ec7617;fill-opacity:1;stroke-width:1.29869;stroke-dasharray:none" />
          <path
             d="m 519.7538,423.5604 h 26.875 c 1.64453,0 3.14453,0.40234 4.5,1.20312 1.36328,0.80469 2.44531,1.88672 3.25,3.25 0.8125,1.36719 1.21875,2.86719 1.21875,4.5 v 35.84375 H 546.6288 V 450.4354 h -26.875 v 17.92187 h -8.96875 v -35.84375 c 0,-1.63281 0.39843,-3.13281 1.20312,-4.5 0.80078,-1.36328 1.88281,-2.44531 3.25,-3.25 1.36328,-0.80078 2.86719,-1.20312 4.51563,-1.20312 z m 0,8.95312 v 8.96875 h 26.875 v -8.96875 z m 0,0"
             id="path242"
             style="fill:#ec7617;fill-opacity:1;stroke-width:1.29869;stroke-dasharray:none" />
          <path
             d="M 595.90192,468.35727 H 560.05817 V 423.5604 h 35.84375 c 1.64454,0 3.14454,0.40234 4.5,1.20312 1.36329,0.80469 2.44532,1.88672 3.25,3.25 0.8125,1.36719 1.21875,2.86719 1.21875,4.5 v 26.89063 c 0,1.63671 -0.40625,3.13671 -1.21875,4.5 -0.80468,1.36718 -1.88671,2.44921 -3.25,3.25 -1.35546,0.80468 -2.85546,1.20312 -4.5,1.20312 z m -26.875,-35.84375 v 26.89063 h 26.875 v -26.89063 z m 0,0"
             id="path243"
             style="fill:#ec7617;fill-opacity:1;stroke-width:1.29869;stroke-dasharray:none" />
          <path
             d="m 645.17506,468.35727 h -26.875 c -1.64844,0 -3.15235,-0.39844 -4.51563,-1.20312 -1.36719,-0.80079 -2.44922,-1.88282 -3.25,-3.25 -0.80469,-1.36329 -1.20312,-2.86329 -1.20312,-4.5 v -26.89063 c 0,-1.63281 0.39843,-3.13281 1.20312,-4.5 0.80078,-1.36328 1.88281,-2.44531 3.25,-3.25 1.36328,-0.80078 2.86719,-1.20312 4.51563,-1.20312 h 26.875 c 1.64453,0 3.14453,0.40234 4.5,1.20312 1.36328,0.80469 2.44531,1.88672 3.25,3.25 0.8125,1.36719 1.21875,2.86719 1.21875,4.5 v 26.89063 c 0,1.60546 -0.40625,3.08984 -1.21875,4.45312 -0.80469,1.35547 -1.875,2.44531 -3.21875,3.26563 -1.34375,0.82421 -2.85547,1.23437 -4.53125,1.23437 z m -26.875,-35.84375 v 26.89063 h 26.875 v -26.89063 z m 0,0"
             id="path244"
             style="fill:#ec7617;fill-opacity:1;stroke-width:1.29869;stroke-dasharray:none" />
        </g>
      </g>
      <g
         id="g631"
         transform="translate(-12.310882,474.49696)"
         style="fill:#ffffff;stroke:#000000;stroke-width:2.1;stroke-dasharray:none;paint-order:stroke markers fill">
        <g
           id="g614"
           transform="matrix(0.67088979,0,0,0.67088979,-728.96298,186.82606)"
           style="fill:#ffffff;stroke:#000000;stroke-width:3.13017;stroke-dasharray:none;paint-order:stroke markers fill">
          <path
             d="m 32.59375,-130.375 h 78.21875 c 4.78125,0 9.15625,1.16797 13.125,3.5 3.96875,2.33594 7.11719,5.48437 9.45312,9.45312 2.33204,3.96875 3.5,8.34375 3.5,13.125 v 78.218755 c 0,4.679687 -1.16796,9 -3.5,12.96875 -2.33593,3.960937 -5.46093,7.136719 -9.37499,9.53125 C 120.10938,-1.191406 115.70703,0 110.8125,0 H 84.75 V 13.03125 H 58.671875 V 0 H 32.59375 c -4.78125,0 -9.15625,-1.164062 -13.125,-3.5 -3.960938,-2.332031 -7.109375,-5.484375 -9.453125,-9.453125 -2.335937,-3.96875 -3.5,-8.34375 -3.5,-13.125 v -78.218755 c 0,-4.78125 1.164063,-9.15625 3.5,-13.125 2.34375,-3.96875 5.492187,-7.11718 9.453125,-9.45312 3.96875,-2.33203 8.34375,-3.5 13.125,-3.5 z M 84.75,-26.07812 h 23.1962 v -78.21876 H 35.460051 v 78.21876 H 58.671875 V -39.245833 H 84.75 Z"
             id="path611"
             style="fill:#ffffff;fill-opacity:1;stroke:#000000;stroke-width:8.17176;stroke-dasharray:none;paint-order:stroke markers fill"
             transform="matrix(0.34615604,0,0,0.42387038,1111.8697,-183.02276)" />
          <path
             id="path612"
             style="fill:#ffffff;fill-opacity:1;stroke:#000000;stroke-width:7.43725;stroke-dasharray:none;paint-order:stroke markers fill"
             d="m -405.60476,-130.37459 v 24.17953 h 24.64455 59.59704 v 37.42201 h -59.59704 -24.64455 v 68.74579536 h 24.64455 V -44.608149 h 21.90064 l 32.49668,44.60040086 32.35571,0.00731494 -32.76254,-44.6077158 h 9.18761 c 3.9029,0 7.47386,-1.079485 10.71352,-3.245395 3.23966,-2.162288 5.81054,-5.077256 7.71734,-8.749886 1.90362,-3.679874 2.85645,-7.736386 2.85645,-12.16962 v -37.42201 c 0,-4.43323 -0.95283,-8.48975 -2.85645,-12.16962 -1.9068,-3.67987 -4.47768,-6.5986 -7.71734,-8.76451 -3.23966,-2.16228 -6.81062,-3.2454 -10.71352,-3.2454 z"
             transform="matrix(0.41790625,0,0,0.42387038,1336.3488,-183.02276)" />
          <path
             d="m -327.24305,-130.375 v 23.9595 h -72.06464 v 27.711253 h 54.38124 v 25.930043 h -54.38124 v 26.696084 h 72.06464 V 0 h -77.43681 c -3.54991,0 -6.7982,-1.1680028 -9.74486,-3.5118491 -2.94086,-2.339926 -5.27846,-5.5029421 -7.01862,-9.4851289 -1.73435,-3.982186 -2.59863,-8.371997 -2.59863,-13.169434 V -103.9879 c 0,-4.8379 0.86428,-9.26473 2.59863,-13.28051 1.74016,-4.01577 4.07776,-7.2015 7.01862,-9.56511 2.94666,-2.35968 6.19495,-3.54148 9.74486,-3.54148 z"
             id="path613"
             style="fill:#ffffff;fill-opacity:1;stroke:#000000;stroke-width:7.43725;stroke-dasharray:none;paint-order:stroke markers fill"
             transform="matrix(0.41790625,0,0,0.42387038,1396.2832,-183.02276)" />
          <path
             d="M -334.01348,-26.07812 V -130.375 h 26.45634 v 104.10959 c 0,4.815587 -1.33528,9.222007 -4.00139,13.21926 -2.67057,3.9972519 -6.27004,7.1722351 -10.80734,9.521014 C -326.90316,-1.1724219 -331.9049,0 -337.37109,0 h -89.42402 c -5.46619,0 -10.46793,-1.1724219 -15.00523,-3.525136 -4.52835,-2.3487789 -8.12783,-5.5237621 -10.80733,-9.521014 -2.67058,-3.997253 -4.00139,-8.403673 -4.00139,-13.21926 V -130.375 h 26.2325 v 104.29688 h 34.73846 V -130.375 h 26.68019 v 104.29688 z"
             id="path614"
             style="fill:#ffffff;fill-opacity:1;stroke:#000000;stroke-width:7.43725;stroke-dasharray:none;paint-order:stroke markers fill"
             transform="matrix(0.41790625,0,0,0.42387038,1456.2176,-183.02276)" />
        </g>
        <g
           id="g630"
           transform="matrix(0.27157493,0,0,0.27157493,125.93468,-65.028853)"
           style="fill:#ffffff;stroke:#000000;stroke-width:7.73267;stroke-dasharray:none;paint-order:stroke markers fill">
          <path
             d="m 174.84197,345.5604 h 26.875 c 1.64454,0 3.14454,0.40235 4.5,1.20313 1.36329,0.80469 2.44532,1.88672 3.25,3.25 0.8125,1.36719 1.21875,2.86719 1.21875,4.5 v 35.84375 h -8.96875 V 372.4354 h -26.875 v 17.92188 h -8.96875 v -35.84375 c 0,-1.63281 0.39844,-3.13281 1.20313,-4.5 0.80078,-1.36328 1.88281,-2.44531 3.25,-3.25 1.36328,-0.80078 2.86719,-1.20313 4.51562,-1.20313 z m 0,8.95313 v 8.96875 h 26.875 v -8.96875 z m 0,0"
             id="path615"
             style="fill:#ffffff;fill-opacity:1;stroke:#000000;stroke-width:7.73267;stroke-dasharray:none;paint-order:stroke markers fill" />
          <path
             d="m 259.95884,390.35728 h -35.84375 c -1.64843,0 -3.15234,-0.39844 -4.51562,-1.20313 -1.36719,-0.80078 -2.44922,-1.88281 -3.25,-3.25 -0.80469,-1.36328 -1.20313,-2.86328 -1.20313,-4.5 v -26.89062 c 0,-1.63281 0.39844,-3.13281 1.20313,-4.5 0.80078,-1.36328 1.88281,-2.44531 3.25,-3.25 1.36328,-0.80078 2.86719,-1.20313 4.51562,-1.20313 h 35.84375 v 8.95313 h -35.84375 v 26.89062 h 35.84375 z m 0,0"
             id="path616"
             style="fill:#ffffff;fill-opacity:1;stroke:#000000;stroke-width:7.73267;stroke-dasharray:none;paint-order:stroke markers fill" />
          <path
             d="m 309.23196,390.35728 h -35.84375 c -1.64843,0 -3.15234,-0.39844 -4.51562,-1.20313 -1.36719,-0.80078 -2.44922,-1.88281 -3.25,-3.25 -0.80469,-1.36328 -1.20313,-2.86328 -1.20313,-4.5 v -26.89062 c 0,-1.63281 0.39844,-3.13281 1.20313,-4.5 0.80078,-1.36328 1.88281,-2.44531 3.25,-3.25 1.36328,-0.80078 2.86719,-1.20313 4.51562,-1.20313 h 35.84375 v 8.95313 h -35.84375 v 26.89062 h 35.84375 z m 0,0"
             id="path617"
             style="fill:#ffffff;fill-opacity:1;stroke:#000000;stroke-width:7.73267;stroke-dasharray:none;paint-order:stroke markers fill" />
          <path
             d="m 358.50507,345.5604 v 8.95313 h -35.84375 v 8.96875 h 35.84375 v 8.95312 h -35.84375 v 8.96875 h 35.84375 v 8.95313 h -35.84375 c -1.64843,0 -3.15234,-0.39844 -4.51562,-1.20313 -1.36719,-0.80078 -2.44922,-1.88281 -3.25,-3.25 -0.80469,-1.36328 -1.20313,-2.86328 -1.20313,-4.5 v -26.89062 c 0,-1.63281 0.39844,-3.13281 1.20313,-4.5 0.80078,-1.36328 1.88281,-2.44531 3.25,-3.25 1.36328,-0.80078 2.86719,-1.20313 4.51562,-1.20313 z m 0,0"
             id="path618"
             style="fill:#ffffff;fill-opacity:1;stroke:#000000;stroke-width:7.73267;stroke-dasharray:none;paint-order:stroke markers fill" />
          <path
             d="m 407.77819,345.5604 v 8.95313 h -35.84375 v 8.96875 h 26.875 c 1.64454,0 3.14454,0.40234 4.5,1.20312 1.36329,0.80469 2.44532,1.88672 3.25,3.25 0.8125,1.35547 1.21875,2.85547 1.21875,4.5 v 8.96875 c 0,1.63672 -0.40625,3.13672 -1.21875,4.5 -0.80468,1.36719 -1.88671,2.44922 -3.25,3.25 -1.35546,0.80469 -2.85546,1.20313 -4.5,1.20313 h -35.84375 v -8.95313 h 35.84375 v -8.96875 h -26.875 c -1.64843,0 -3.15234,-0.39843 -4.51562,-1.20312 -1.36719,-0.80078 -2.44922,-1.88281 -3.25,-3.25 -0.80469,-1.36328 -1.20313,-2.86328 -1.20313,-4.5 v -8.96875 c 0,-1.63281 0.39844,-3.13281 1.20313,-4.5 0.80078,-1.36328 1.88281,-2.44531 3.25,-3.25 1.36328,-0.80078 2.86719,-1.20313 4.51562,-1.20313 z m 0,0"
             id="path619"
             style="fill:#ffffff;fill-opacity:1;stroke:#000000;stroke-width:7.73267;stroke-dasharray:none;paint-order:stroke markers fill" />
          <path
             d="m 448.08258,390.35728 h -26.875 c -1.64844,0 -3.15235,-0.39844 -4.51563,-1.20313 -1.36719,-0.80078 -2.44922,-1.88281 -3.25,-3.25 -0.80469,-1.36328 -1.20312,-2.86328 -1.20312,-4.5 v -26.89062 c 0,-1.63281 0.39843,-3.13281 1.20312,-4.5 0.80078,-1.36328 1.88281,-2.44531 3.25,-3.25 1.36328,-0.80078 2.86719,-1.20313 4.51563,-1.20313 h 26.875 c 1.64453,0 3.14453,0.40235 4.5,1.20313 1.36328,0.80469 2.44531,1.88672 3.25,3.25 0.8125,1.36719 1.21875,2.86719 1.21875,4.5 v 26.89062 c 0,1.60547 -0.40625,3.08985 -1.21875,4.45313 -0.80469,1.35547 -1.875,2.44531 -3.21875,3.26562 -1.34375,0.82422 -2.85547,1.23438 -4.53125,1.23438 z m -26.875,-35.84375 v 26.89062 h 26.875 v -26.89062 z m 0,0"
             id="path620"
             style="fill:#ffffff;fill-opacity:1;stroke:#000000;stroke-width:7.73267;stroke-dasharray:none;paint-order:stroke markers fill" />
          <path
             d="m 174.84197,423.5604 h 26.875 c 1.64454,0 3.14454,0.40234 4.5,1.20312 1.36329,0.80469 2.44532,1.88672 3.25,3.25 0.8125,1.36719 1.21875,2.86719 1.21875,4.5 v 35.84375 h -8.96875 V 450.4354 h -26.875 v 17.92187 h -8.96875 v -35.84375 c 0,-1.63281 0.39844,-3.13281 1.20313,-4.5 0.80078,-1.36328 1.88281,-2.44531 3.25,-3.25 1.36328,-0.80078 2.86719,-1.20312 4.51562,-1.20312 z m 0,8.95312 v 8.96875 h 26.875 v -8.96875 z m 0,0"
             id="path621"
             style="fill:#ffffff;fill-opacity:1;stroke:#000000;stroke-width:7.73267;stroke-dasharray:none;paint-order:stroke markers fill" />
          <path
             d="m 224.11509,468.35727 h -8.96875 v -40.3125 c 0,-1.23828 0.4375,-2.29687 1.3125,-3.17187 0.88282,-0.875 1.94141,-1.3125 3.17188,-1.3125 1.22656,0 2.28906,0.44921 3.1875,1.34375 l 28.17187,28.17187 V 423.5604 h 8.96875 v 40.3125 c 0,1.24218 -0.44531,2.29687 -1.32812,3.17187 -0.875,0.875 -1.92969,1.3125 -3.15625,1.3125 -1.23047,0 -2.29297,-0.44531 -3.1875,-1.34375 l -28.17188,-28.17187 z m 0,0"
             id="path622"
             style="fill:#ffffff;fill-opacity:1;stroke:#000000;stroke-width:7.73267;stroke-dasharray:none;paint-order:stroke markers fill" />
          <path
             d="m 309.23196,423.5604 v 8.95312 h -17.92187 v 35.84375 h -8.96875 v -35.84375 h -17.92188 v -8.95312 z m 0,0"
             id="path623"
             style="fill:#ffffff;fill-opacity:1;stroke:#000000;stroke-width:7.73267;stroke-dasharray:none;paint-order:stroke markers fill" />
          <path
             d="m 358.50507,468.35727 h -44.8125 v -8.95312 h 17.92188 v -26.89063 h -17.92188 v -8.95312 h 44.8125 v 8.95312 H 340.5832 v 26.89063 h 17.92187 z m 0,0"
             id="path624"
             style="fill:#ffffff;fill-opacity:1;stroke:#000000;stroke-width:7.73267;stroke-dasharray:none;paint-order:stroke markers fill" />
          <path
             d="m 407.77819,468.35727 h -35.84375 c -1.64843,0 -3.15234,-0.39844 -4.51562,-1.20312 -1.36719,-0.80079 -2.44922,-1.88282 -3.25,-3.25 -0.80469,-1.36329 -1.20313,-2.86329 -1.20313,-4.5 v -26.89063 c 0,-1.63281 0.39844,-3.13281 1.20313,-4.5 0.80078,-1.36328 1.88281,-2.44531 3.25,-3.25 1.36328,-0.80078 2.86719,-1.20312 4.51562,-1.20312 h 35.84375 v 8.95312 h -35.84375 v 26.89063 h 35.84375 z m 0,0"
             id="path625"
             style="fill:#ffffff;fill-opacity:1;stroke:#000000;stroke-width:7.73267;stroke-dasharray:none;paint-order:stroke markers fill" />
          <path
             d="m 457.05133,468.35727 h -44.8125 v -8.95312 h 17.92187 v -26.89063 h -17.92187 v -8.95312 h 44.8125 v 8.95312 h -17.92188 v 26.89063 h 17.92188 z m 0,0"
             id="path626"
             style="fill:#ffffff;fill-opacity:1;stroke:#000000;stroke-width:7.73267;stroke-dasharray:none;paint-order:stroke markers fill" />
          <path
             d="m 497.35568,423.5604 c 1.64454,0 3.14454,0.40234 4.5,1.20312 1.36329,0.80469 2.44532,1.88672 3.25,3.25 0.8125,1.36719 1.21875,2.86719 1.21875,4.5 v 8.96875 c 0,1.63672 -0.40625,3.13672 -1.21875,4.5 -0.80468,1.36719 -1.88671,2.44922 -3.25,3.25 -1.35546,0.80469 -2.85546,1.20313 -4.5,1.20313 h -26.875 v 17.92187 h -8.96875 V 423.5604 Z m -26.875,17.92187 h 26.875 v -8.96875 h -26.875 z m 0,0"
             id="path627"
             style="fill:#ffffff;fill-opacity:1;stroke:#000000;stroke-width:7.73267;stroke-dasharray:none;paint-order:stroke markers fill" />
          <path
             d="m 519.7538,423.5604 h 26.875 c 1.64453,0 3.14453,0.40234 4.5,1.20312 1.36328,0.80469 2.44531,1.88672 3.25,3.25 0.8125,1.36719 1.21875,2.86719 1.21875,4.5 v 35.84375 H 546.6288 V 450.4354 h -26.875 v 17.92187 h -8.96875 v -35.84375 c 0,-1.63281 0.39843,-3.13281 1.20312,-4.5 0.80078,-1.36328 1.88281,-2.44531 3.25,-3.25 1.36328,-0.80078 2.86719,-1.20312 4.51563,-1.20312 z m 0,8.95312 v 8.96875 h 26.875 v -8.96875 z m 0,0"
             id="path628"
             style="fill:#ffffff;fill-opacity:1;stroke:#000000;stroke-width:7.73267;stroke-dasharray:none;paint-order:stroke markers fill" />
          <path
             d="M 595.90192,468.35727 H 560.05817 V 423.5604 h 35.84375 c 1.64454,0 3.14454,0.40234 4.5,1.20312 1.36329,0.80469 2.44532,1.88672 3.25,3.25 0.8125,1.36719 1.21875,2.86719 1.21875,4.5 v 26.89063 c 0,1.63671 -0.40625,3.13671 -1.21875,4.5 -0.80468,1.36718 -1.88671,2.44921 -3.25,3.25 -1.35546,0.80468 -2.85546,1.20312 -4.5,1.20312 z m -26.875,-35.84375 v 26.89063 h 26.875 v -26.89063 z m 0,0"
             id="path629"
             style="fill:#ffffff;fill-opacity:1;stroke:#000000;stroke-width:7.73267;stroke-dasharray:none;paint-order:stroke markers fill" />
          <path
             d="m 645.17506,468.35727 h -26.875 c -1.64844,0 -3.15235,-0.39844 -4.51563,-1.20312 -1.36719,-0.80079 -2.44922,-1.88282 -3.25,-3.25 -0.80469,-1.36329 -1.20312,-2.86329 -1.20312,-4.5 v -26.89063 c 0,-1.63281 0.39843,-3.13281 1.20312,-4.5 0.80078,-1.36328 1.88281,-2.44531 3.25,-3.25 1.36328,-0.80078 2.86719,-1.20312 4.51563,-1.20312 h 26.875 c 1.64453,0 3.14453,0.40234 4.5,1.20312 1.36328,0.80469 2.44531,1.88672 3.25,3.25 0.8125,1.36719 1.21875,2.86719 1.21875,4.5 v 26.89063 c 0,1.60546 -0.40625,3.08984 -1.21875,4.45312 -0.80469,1.35547 -1.875,2.44531 -3.21875,3.26563 -1.34375,0.82421 -2.85547,1.23437 -4.53125,1.23437 z m -26.875,-35.84375 v 26.89063 h 26.875 v -26.89063 z m 0,0"
             id="path630"
             style="fill:#ffffff;fill-opacity:1;stroke:#000000;stroke-width:7.73267;stroke-dasharray:none;paint-order:stroke markers fill" />
        </g>
      </g>
    </g>
  </g>
</svg>
