<?xml version="1.0" encoding="UTF-8" standalone="no"?>
<!-- Created with Inkscape (http://www.inkscape.org/) -->

<svg
   width="1077.5114"
   height="154.13094"
   viewBox="0 0 285.09155 40.780477"
   version="1.1"
   id="svg1"
   xmlns="http://www.w3.org/2000/svg"
   xmlns:svg="http://www.w3.org/2000/svg">
  <defs
     id="defs1" />
  <g
     id="g21"
     transform="translate(-409.36263,-30.260568)">
    <g
       id="g449"
       transform="translate(390.87047,89.253886)">
      <g
         id="g182"
         transform="translate(0,-85.956498)"
         style="fill:#000000">
        <g
           id="g165"
           transform="matrix(0.67088979,0,0,0.67088979,-728.96298,186.82606)"
           style="fill:#000000;stroke-width:1.49055">
          <path
             d="m 32.59375,-130.375 h 78.21875 c 4.78125,0 9.15625,1.16797 13.125,3.5 3.96875,2.33594 7.11719,5.48437 9.45312,9.45312 2.33204,3.96875 3.5,8.34375 3.5,13.125 v 78.218755 c 0,4.679687 -1.16796,9 -3.5,12.96875 -2.33593,3.960937 -5.46093,7.136719 -9.37499,9.53125 C 120.10938,-1.191406 115.70703,0 110.8125,0 H 84.75 V 13.03125 H 58.671875 V 0 H 32.59375 c -4.78125,0 -9.15625,-1.164062 -13.125,-3.5 -3.960938,-2.332031 -7.109375,-5.484375 -9.453125,-9.453125 -2.335937,-3.96875 -3.5,-8.34375 -3.5,-13.125 v -78.218755 c 0,-4.78125 1.164063,-9.15625 3.5,-13.125 2.34375,-3.96875 5.492187,-7.11718 9.453125,-9.45312 3.96875,-2.33203 8.34375,-3.5 13.125,-3.5 z M 84.75,-26.07812 h 23.1962 v -78.21876 H 35.460051 v 78.21876 H 58.671875 V -39.245833 H 84.75 Z"
             id="path162"
             style="fill:#000000;fill-opacity:1;stroke-width:1.37277"
             transform="matrix(0.34615604,0,0,0.42387038,1111.8697,-183.02276)" />
          <path
             id="path163"
             style="fill:#000000;fill-opacity:1;stroke-width:1.24938"
             d="m -405.60476,-130.37459 v 24.17953 h 24.64455 59.59704 v 37.42201 h -59.59704 -24.64455 v 68.74579536 h 24.64455 V -44.608149 h 21.90064 l 32.49668,44.60040086 32.35571,0.00731494 -32.76254,-44.6077158 h 9.18761 c 3.9029,0 7.47386,-1.079485 10.71352,-3.245395 3.23966,-2.162288 5.81054,-5.077256 7.71734,-8.749886 1.90362,-3.679874 2.85645,-7.736386 2.85645,-12.16962 v -37.42201 c 0,-4.43323 -0.95283,-8.48975 -2.85645,-12.16962 -1.9068,-3.67987 -4.47768,-6.5986 -7.71734,-8.76451 -3.23966,-2.16228 -6.81062,-3.2454 -10.71352,-3.2454 z"
             transform="matrix(0.41790625,0,0,0.42387038,1336.3488,-183.02276)" />
          <path
             d="m -327.24305,-130.375 v 23.9595 h -72.06464 v 27.711253 h 54.38124 v 25.930043 h -54.38124 v 26.696084 h 72.06464 V 0 h -77.43681 c -3.54991,0 -6.7982,-1.1680028 -9.74486,-3.5118491 -2.94086,-2.339926 -5.27846,-5.5029421 -7.01862,-9.4851289 -1.73435,-3.982186 -2.59863,-8.371997 -2.59863,-13.169434 V -103.9879 c 0,-4.8379 0.86428,-9.26473 2.59863,-13.28051 1.74016,-4.01577 4.07776,-7.2015 7.01862,-9.56511 2.94666,-2.35968 6.19495,-3.54148 9.74486,-3.54148 z"
             id="path164"
             style="fill:#ec7617;fill-opacity:1;stroke-width:1.24938"
             transform="matrix(0.41790625,0,0,0.42387038,1396.2832,-183.02276)" />
          <path
             d="M -334.01348,-26.07812 V -130.375 h 26.45634 v 104.10959 c 0,4.815587 -1.33528,9.222007 -4.00139,13.21926 -2.67057,3.9972519 -6.27004,7.1722351 -10.80734,9.521014 C -326.90316,-1.1724219 -331.9049,0 -337.37109,0 h -89.42402 c -5.46619,0 -10.46793,-1.1724219 -15.00523,-3.525136 -4.52835,-2.3487789 -8.12783,-5.5237621 -10.80733,-9.521014 -2.67058,-3.997253 -4.00139,-8.403673 -4.00139,-13.21926 V -130.375 h 26.2325 v 104.29688 h 34.73846 V -130.375 h 26.68019 v 104.29688 z"
             id="path165"
             style="fill:#ec7617;fill-opacity:1;stroke-width:1.24938"
             transform="matrix(0.41790625,0,0,0.42387038,1456.2176,-183.02276)" />
        </g>
        <g
           id="g181"
           transform="matrix(0.27157493,0,0,0.27157493,125.93468,-65.028853)"
           style="fill:#000000;stroke-width:1.29869;stroke-dasharray:none">
          <path
             d="m 174.84197,345.5604 h 26.875 c 1.64454,0 3.14454,0.40235 4.5,1.20313 1.36329,0.80469 2.44532,1.88672 3.25,3.25 0.8125,1.36719 1.21875,2.86719 1.21875,4.5 v 35.84375 h -8.96875 V 372.4354 h -26.875 v 17.92188 h -8.96875 v -35.84375 c 0,-1.63281 0.39844,-3.13281 1.20313,-4.5 0.80078,-1.36328 1.88281,-2.44531 3.25,-3.25 1.36328,-0.80078 2.86719,-1.20313 4.51562,-1.20313 z m 0,8.95313 v 8.96875 h 26.875 v -8.96875 z m 0,0"
             id="path166"
             style="fill:#000000;fill-opacity:1;stroke-width:1.29869;stroke-dasharray:none" />
          <path
             d="m 259.95884,390.35728 h -35.84375 c -1.64843,0 -3.15234,-0.39844 -4.51562,-1.20313 -1.36719,-0.80078 -2.44922,-1.88281 -3.25,-3.25 -0.80469,-1.36328 -1.20313,-2.86328 -1.20313,-4.5 v -26.89062 c 0,-1.63281 0.39844,-3.13281 1.20313,-4.5 0.80078,-1.36328 1.88281,-2.44531 3.25,-3.25 1.36328,-0.80078 2.86719,-1.20313 4.51562,-1.20313 h 35.84375 v 8.95313 h -35.84375 v 26.89062 h 35.84375 z m 0,0"
             id="path167"
             style="fill:#000000;fill-opacity:1;stroke-width:1.29869;stroke-dasharray:none" />
          <path
             d="m 309.23196,390.35728 h -35.84375 c -1.64843,0 -3.15234,-0.39844 -4.51562,-1.20313 -1.36719,-0.80078 -2.44922,-1.88281 -3.25,-3.25 -0.80469,-1.36328 -1.20313,-2.86328 -1.20313,-4.5 v -26.89062 c 0,-1.63281 0.39844,-3.13281 1.20313,-4.5 0.80078,-1.36328 1.88281,-2.44531 3.25,-3.25 1.36328,-0.80078 2.86719,-1.20313 4.51562,-1.20313 h 35.84375 v 8.95313 h -35.84375 v 26.89062 h 35.84375 z m 0,0"
             id="path168"
             style="fill:#000000;fill-opacity:1;stroke-width:1.29869;stroke-dasharray:none" />
          <path
             d="m 358.50507,345.5604 v 8.95313 h -35.84375 v 8.96875 h 35.84375 v 8.95312 h -35.84375 v 8.96875 h 35.84375 v 8.95313 h -35.84375 c -1.64843,0 -3.15234,-0.39844 -4.51562,-1.20313 -1.36719,-0.80078 -2.44922,-1.88281 -3.25,-3.25 -0.80469,-1.36328 -1.20313,-2.86328 -1.20313,-4.5 v -26.89062 c 0,-1.63281 0.39844,-3.13281 1.20313,-4.5 0.80078,-1.36328 1.88281,-2.44531 3.25,-3.25 1.36328,-0.80078 2.86719,-1.20313 4.51562,-1.20313 z m 0,0"
             id="path169"
             style="fill:#000000;fill-opacity:1;stroke-width:1.29869;stroke-dasharray:none" />
          <path
             d="m 407.77819,345.5604 v 8.95313 h -35.84375 v 8.96875 h 26.875 c 1.64454,0 3.14454,0.40234 4.5,1.20312 1.36329,0.80469 2.44532,1.88672 3.25,3.25 0.8125,1.35547 1.21875,2.85547 1.21875,4.5 v 8.96875 c 0,1.63672 -0.40625,3.13672 -1.21875,4.5 -0.80468,1.36719 -1.88671,2.44922 -3.25,3.25 -1.35546,0.80469 -2.85546,1.20313 -4.5,1.20313 h -35.84375 v -8.95313 h 35.84375 v -8.96875 h -26.875 c -1.64843,0 -3.15234,-0.39843 -4.51562,-1.20312 -1.36719,-0.80078 -2.44922,-1.88281 -3.25,-3.25 -0.80469,-1.36328 -1.20313,-2.86328 -1.20313,-4.5 v -8.96875 c 0,-1.63281 0.39844,-3.13281 1.20313,-4.5 0.80078,-1.36328 1.88281,-2.44531 3.25,-3.25 1.36328,-0.80078 2.86719,-1.20313 4.51562,-1.20313 z m 0,0"
             id="path170"
             style="fill:#000000;fill-opacity:1;stroke-width:1.29869;stroke-dasharray:none" />
          <path
             d="m 448.08258,390.35728 h -26.875 c -1.64844,0 -3.15235,-0.39844 -4.51563,-1.20313 -1.36719,-0.80078 -2.44922,-1.88281 -3.25,-3.25 -0.80469,-1.36328 -1.20312,-2.86328 -1.20312,-4.5 v -26.89062 c 0,-1.63281 0.39843,-3.13281 1.20312,-4.5 0.80078,-1.36328 1.88281,-2.44531 3.25,-3.25 1.36328,-0.80078 2.86719,-1.20313 4.51563,-1.20313 h 26.875 c 1.64453,0 3.14453,0.40235 4.5,1.20313 1.36328,0.80469 2.44531,1.88672 3.25,3.25 0.8125,1.36719 1.21875,2.86719 1.21875,4.5 v 26.89062 c 0,1.60547 -0.40625,3.08985 -1.21875,4.45313 -0.80469,1.35547 -1.875,2.44531 -3.21875,3.26562 -1.34375,0.82422 -2.85547,1.23438 -4.53125,1.23438 z m -26.875,-35.84375 v 26.89062 h 26.875 v -26.89062 z m 0,0"
             id="path171"
             style="fill:#000000;fill-opacity:1;stroke-width:1.29869;stroke-dasharray:none" />
          <path
             d="m 174.84197,423.5604 h 26.875 c 1.64454,0 3.14454,0.40234 4.5,1.20312 1.36329,0.80469 2.44532,1.88672 3.25,3.25 0.8125,1.36719 1.21875,2.86719 1.21875,4.5 v 35.84375 h -8.96875 V 450.4354 h -26.875 v 17.92187 h -8.96875 v -35.84375 c 0,-1.63281 0.39844,-3.13281 1.20313,-4.5 0.80078,-1.36328 1.88281,-2.44531 3.25,-3.25 1.36328,-0.80078 2.86719,-1.20312 4.51562,-1.20312 z m 0,8.95312 v 8.96875 h 26.875 v -8.96875 z m 0,0"
             id="path172"
             style="fill:#000000;fill-opacity:1;stroke-width:1.29869;stroke-dasharray:none" />
          <path
             d="m 224.11509,468.35727 h -8.96875 v -40.3125 c 0,-1.23828 0.4375,-2.29687 1.3125,-3.17187 0.88282,-0.875 1.94141,-1.3125 3.17188,-1.3125 1.22656,0 2.28906,0.44921 3.1875,1.34375 l 28.17187,28.17187 V 423.5604 h 8.96875 v 40.3125 c 0,1.24218 -0.44531,2.29687 -1.32812,3.17187 -0.875,0.875 -1.92969,1.3125 -3.15625,1.3125 -1.23047,0 -2.29297,-0.44531 -3.1875,-1.34375 l -28.17188,-28.17187 z m 0,0"
             id="path173"
             style="fill:#000000;fill-opacity:1;stroke-width:1.29869;stroke-dasharray:none" />
          <path
             d="m 309.23196,423.5604 v 8.95312 h -17.92187 v 35.84375 h -8.96875 v -35.84375 h -17.92188 v -8.95312 z m 0,0"
             id="path174"
             style="fill:#000000;fill-opacity:1;stroke-width:1.29869;stroke-dasharray:none" />
          <path
             d="m 358.50507,468.35727 h -44.8125 v -8.95312 h 17.92188 v -26.89063 h -17.92188 v -8.95312 h 44.8125 v 8.95312 H 340.5832 v 26.89063 h 17.92187 z m 0,0"
             id="path175"
             style="fill:#000000;fill-opacity:1;stroke-width:1.29869;stroke-dasharray:none" />
          <path
             d="m 407.77819,468.35727 h -35.84375 c -1.64843,0 -3.15234,-0.39844 -4.51562,-1.20312 -1.36719,-0.80079 -2.44922,-1.88282 -3.25,-3.25 -0.80469,-1.36329 -1.20313,-2.86329 -1.20313,-4.5 v -26.89063 c 0,-1.63281 0.39844,-3.13281 1.20313,-4.5 0.80078,-1.36328 1.88281,-2.44531 3.25,-3.25 1.36328,-0.80078 2.86719,-1.20312 4.51562,-1.20312 h 35.84375 v 8.95312 h -35.84375 v 26.89063 h 35.84375 z m 0,0"
             id="path176"
             style="fill:#000000;fill-opacity:1;stroke-width:1.29869;stroke-dasharray:none" />
          <path
             d="m 457.05133,468.35727 h -44.8125 v -8.95312 h 17.92187 v -26.89063 h -17.92187 v -8.95312 h 44.8125 v 8.95312 h -17.92188 v 26.89063 h 17.92188 z m 0,0"
             id="path177"
             style="fill:#000000;fill-opacity:1;stroke-width:1.29869;stroke-dasharray:none" />
          <path
             d="m 497.35568,423.5604 c 1.64454,0 3.14454,0.40234 4.5,1.20312 1.36329,0.80469 2.44532,1.88672 3.25,3.25 0.8125,1.36719 1.21875,2.86719 1.21875,4.5 v 8.96875 c 0,1.63672 -0.40625,3.13672 -1.21875,4.5 -0.80468,1.36719 -1.88671,2.44922 -3.25,3.25 -1.35546,0.80469 -2.85546,1.20313 -4.5,1.20313 h -26.875 v 17.92187 h -8.96875 V 423.5604 Z m -26.875,17.92187 h 26.875 v -8.96875 h -26.875 z m 0,0"
             id="path178"
             style="fill:#000000;fill-opacity:1;stroke-width:1.29869;stroke-dasharray:none" />
          <path
             d="m 519.7538,423.5604 h 26.875 c 1.64453,0 3.14453,0.40234 4.5,1.20312 1.36328,0.80469 2.44531,1.88672 3.25,3.25 0.8125,1.36719 1.21875,2.86719 1.21875,4.5 v 35.84375 H 546.6288 V 450.4354 h -26.875 v 17.92187 h -8.96875 v -35.84375 c 0,-1.63281 0.39843,-3.13281 1.20312,-4.5 0.80078,-1.36328 1.88281,-2.44531 3.25,-3.25 1.36328,-0.80078 2.86719,-1.20312 4.51563,-1.20312 z m 0,8.95312 v 8.96875 h 26.875 v -8.96875 z m 0,0"
             id="path179"
             style="fill:#000000;fill-opacity:1;stroke-width:1.29869;stroke-dasharray:none" />
          <path
             d="M 595.90192,468.35727 H 560.05817 V 423.5604 h 35.84375 c 1.64454,0 3.14454,0.40234 4.5,1.20312 1.36329,0.80469 2.44532,1.88672 3.25,3.25 0.8125,1.36719 1.21875,2.86719 1.21875,4.5 v 26.89063 c 0,1.63671 -0.40625,3.13671 -1.21875,4.5 -0.80468,1.36718 -1.88671,2.44921 -3.25,3.25 -1.35546,0.80468 -2.85546,1.20312 -4.5,1.20312 z m -26.875,-35.84375 v 26.89063 h 26.875 v -26.89063 z m 0,0"
             id="path180"
             style="fill:#000000;fill-opacity:1;stroke-width:1.29869;stroke-dasharray:none" />
          <path
             d="m 645.17506,468.35727 h -26.875 c -1.64844,0 -3.15235,-0.39844 -4.51563,-1.20312 -1.36719,-0.80079 -2.44922,-1.88282 -3.25,-3.25 -0.80469,-1.36329 -1.20312,-2.86329 -1.20312,-4.5 v -26.89063 c 0,-1.63281 0.39843,-3.13281 1.20312,-4.5 0.80078,-1.36328 1.88281,-2.44531 3.25,-3.25 1.36328,-0.80078 2.86719,-1.20312 4.51563,-1.20312 h 26.875 c 1.64453,0 3.14453,0.40234 4.5,1.20312 1.36328,0.80469 2.44531,1.88672 3.25,3.25 0.8125,1.36719 1.21875,2.86719 1.21875,4.5 v 26.89063 c 0,1.60546 -0.40625,3.08984 -1.21875,4.45312 -0.80469,1.35547 -1.875,2.44531 -3.21875,3.26563 -1.34375,0.82421 -2.85547,1.23437 -4.53125,1.23437 z m -26.875,-35.84375 v 26.89063 h 26.875 v -26.89063 z m 0,0"
             id="path181"
             style="fill:#000000;fill-opacity:1;stroke-width:1.29869;stroke-dasharray:none" />
        </g>
      </g>
      <g
         id="g202"
         transform="translate(0,-4.0047973)"
         style="fill:#ec7617;fill-opacity:1">
        <g
           id="g185"
           transform="matrix(0.67088979,0,0,0.67088979,-728.96298,195.28979)"
           style="fill:#ec7617;fill-opacity:1;stroke-width:1.49055">
          <path
             d="m 32.59375,-130.375 h 78.21875 c 4.78125,0 9.15625,1.16797 13.125,3.5 3.96875,2.33594 7.11719,5.48437 9.45312,9.45312 2.33204,3.96875 3.5,8.34375 3.5,13.125 v 78.218755 c 0,4.679687 -1.16796,9 -3.5,12.96875 -2.33593,3.960937 -5.46093,7.136719 -9.37499,9.53125 C 120.10938,-1.191406 115.70703,0 110.8125,0 H 84.75 V 13.03125 H 58.671875 V 0 H 32.59375 c -4.78125,0 -9.15625,-1.164062 -13.125,-3.5 -3.960938,-2.332031 -7.109375,-5.484375 -9.453125,-9.453125 -2.335937,-3.96875 -3.5,-8.34375 -3.5,-13.125 v -78.218755 c 0,-4.78125 1.164063,-9.15625 3.5,-13.125 2.34375,-3.96875 5.492187,-7.11718 9.453125,-9.45312 3.96875,-2.33203 8.34375,-3.5 13.125,-3.5 z M 84.75,-26.07812 h 23.1962 v -78.21876 H 35.460051 v 78.21876 H 58.671875 V -39.245833 H 84.75 Z"
             id="path182"
             style="fill:#000000;fill-opacity:1;stroke-width:1.37277"
             transform="matrix(0.34615604,0,0,0.42387038,1111.8697,-183.02276)" />
          <path
             id="path183"
             style="fill:#000000;fill-opacity:1;stroke-width:1.24938"
             d="m -405.60476,-130.37459 v 24.17953 h 24.64455 59.59704 v 37.42201 h -59.59704 -24.64455 v 68.74579536 h 24.64455 V -44.608149 h 21.90064 l 32.49668,44.60040086 32.35571,0.00731494 -32.76254,-44.6077158 h 9.18761 c 3.9029,0 7.47386,-1.079485 10.71352,-3.245395 3.23966,-2.162288 5.81054,-5.077256 7.71734,-8.749886 1.90362,-3.679874 2.85645,-7.736386 2.85645,-12.16962 v -37.42201 c 0,-4.43323 -0.95283,-8.48975 -2.85645,-12.16962 -1.9068,-3.67987 -4.47768,-6.5986 -7.71734,-8.76451 -3.23966,-2.16228 -6.81062,-3.2454 -10.71352,-3.2454 z"
             transform="matrix(0.41790625,0,0,0.42387038,1336.3488,-183.02276)" />
          <path
             d="m -327.24305,-130.375 v 23.9595 h -72.06464 v 27.711253 h 54.38124 v 25.930043 h -54.38124 v 26.696084 h 72.06464 V 0 h -77.43681 c -3.54991,0 -6.7982,-1.1680028 -9.74486,-3.5118491 -2.94086,-2.339926 -5.27846,-5.5029421 -7.01862,-9.4851289 -1.73435,-3.982186 -2.59863,-8.371997 -2.59863,-13.169434 V -103.9879 c 0,-4.8379 0.86428,-9.26473 2.59863,-13.28051 1.74016,-4.01577 4.07776,-7.2015 7.01862,-9.56511 2.94666,-2.35968 6.19495,-3.54148 9.74486,-3.54148 z"
             id="path184"
             style="fill:#ec7617;fill-opacity:1;stroke-width:1.24938"
             transform="matrix(0.41790625,0,0,0.42387038,1396.2832,-183.02276)" />
          <path
             d="M -334.01348,-26.07812 V -130.375 h 26.45634 v 104.10959 c 0,4.815587 -1.33528,9.222007 -4.00139,13.21926 -2.67057,3.9972519 -6.27004,7.1722351 -10.80734,9.521014 C -326.90316,-1.1724219 -331.9049,0 -337.37109,0 h -89.42402 c -5.46619,0 -10.46793,-1.1724219 -15.00523,-3.525136 -4.52835,-2.3487789 -8.12783,-5.5237621 -10.80733,-9.521014 -2.67058,-3.997253 -4.00139,-8.403673 -4.00139,-13.21926 V -130.375 h 26.2325 v 104.29688 h 34.73846 V -130.375 h 26.68019 v 104.29688 z"
             id="path185"
             style="fill:#ec7617;fill-opacity:1;stroke-width:1.24938"
             transform="matrix(0.41790625,0,0,0.42387038,1456.2176,-183.02276)" />
        </g>
        <g
           id="g201"
           transform="matrix(0.27157493,0,0,0.27157493,125.93468,-56.565122)"
           style="fill:#ec7617;fill-opacity:1;stroke-width:1.29869;stroke-dasharray:none">
          <path
             d="m 174.84197,345.5604 h 26.875 c 1.64454,0 3.14454,0.40235 4.5,1.20313 1.36329,0.80469 2.44532,1.88672 3.25,3.25 0.8125,1.36719 1.21875,2.86719 1.21875,4.5 v 35.84375 h -8.96875 V 372.4354 h -26.875 v 17.92188 h -8.96875 v -35.84375 c 0,-1.63281 0.39844,-3.13281 1.20313,-4.5 0.80078,-1.36328 1.88281,-2.44531 3.25,-3.25 1.36328,-0.80078 2.86719,-1.20313 4.51562,-1.20313 z m 0,8.95313 v 8.96875 h 26.875 v -8.96875 z m 0,0"
             id="path186"
             style="fill:#ec7617;fill-opacity:1;stroke-width:1.29869;stroke-dasharray:none" />
          <path
             d="m 259.95884,390.35728 h -35.84375 c -1.64843,0 -3.15234,-0.39844 -4.51562,-1.20313 -1.36719,-0.80078 -2.44922,-1.88281 -3.25,-3.25 -0.80469,-1.36328 -1.20313,-2.86328 -1.20313,-4.5 v -26.89062 c 0,-1.63281 0.39844,-3.13281 1.20313,-4.5 0.80078,-1.36328 1.88281,-2.44531 3.25,-3.25 1.36328,-0.80078 2.86719,-1.20313 4.51562,-1.20313 h 35.84375 v 8.95313 h -35.84375 v 26.89062 h 35.84375 z m 0,0"
             id="path187"
             style="fill:#ec7617;fill-opacity:1;stroke-width:1.29869;stroke-dasharray:none" />
          <path
             d="m 309.23196,390.35728 h -35.84375 c -1.64843,0 -3.15234,-0.39844 -4.51562,-1.20313 -1.36719,-0.80078 -2.44922,-1.88281 -3.25,-3.25 -0.80469,-1.36328 -1.20313,-2.86328 -1.20313,-4.5 v -26.89062 c 0,-1.63281 0.39844,-3.13281 1.20313,-4.5 0.80078,-1.36328 1.88281,-2.44531 3.25,-3.25 1.36328,-0.80078 2.86719,-1.20313 4.51562,-1.20313 h 35.84375 v 8.95313 h -35.84375 v 26.89062 h 35.84375 z m 0,0"
             id="path188"
             style="fill:#ec7617;fill-opacity:1;stroke-width:1.29869;stroke-dasharray:none" />
          <path
             d="m 358.50507,345.5604 v 8.95313 h -35.84375 v 8.96875 h 35.84375 v 8.95312 h -35.84375 v 8.96875 h 35.84375 v 8.95313 h -35.84375 c -1.64843,0 -3.15234,-0.39844 -4.51562,-1.20313 -1.36719,-0.80078 -2.44922,-1.88281 -3.25,-3.25 -0.80469,-1.36328 -1.20313,-2.86328 -1.20313,-4.5 v -26.89062 c 0,-1.63281 0.39844,-3.13281 1.20313,-4.5 0.80078,-1.36328 1.88281,-2.44531 3.25,-3.25 1.36328,-0.80078 2.86719,-1.20313 4.51562,-1.20313 z m 0,0"
             id="path189"
             style="fill:#ec7617;fill-opacity:1;stroke-width:1.29869;stroke-dasharray:none" />
          <path
             d="m 407.77819,345.5604 v 8.95313 h -35.84375 v 8.96875 h 26.875 c 1.64454,0 3.14454,0.40234 4.5,1.20312 1.36329,0.80469 2.44532,1.88672 3.25,3.25 0.8125,1.35547 1.21875,2.85547 1.21875,4.5 v 8.96875 c 0,1.63672 -0.40625,3.13672 -1.21875,4.5 -0.80468,1.36719 -1.88671,2.44922 -3.25,3.25 -1.35546,0.80469 -2.85546,1.20313 -4.5,1.20313 h -35.84375 v -8.95313 h 35.84375 v -8.96875 h -26.875 c -1.64843,0 -3.15234,-0.39843 -4.51562,-1.20312 -1.36719,-0.80078 -2.44922,-1.88281 -3.25,-3.25 -0.80469,-1.36328 -1.20313,-2.86328 -1.20313,-4.5 v -8.96875 c 0,-1.63281 0.39844,-3.13281 1.20313,-4.5 0.80078,-1.36328 1.88281,-2.44531 3.25,-3.25 1.36328,-0.80078 2.86719,-1.20313 4.51562,-1.20313 z m 0,0"
             id="path190"
             style="fill:#ec7617;fill-opacity:1;stroke-width:1.29869;stroke-dasharray:none" />
          <path
             d="m 448.08258,390.35728 h -26.875 c -1.64844,0 -3.15235,-0.39844 -4.51563,-1.20313 -1.36719,-0.80078 -2.44922,-1.88281 -3.25,-3.25 -0.80469,-1.36328 -1.20312,-2.86328 -1.20312,-4.5 v -26.89062 c 0,-1.63281 0.39843,-3.13281 1.20312,-4.5 0.80078,-1.36328 1.88281,-2.44531 3.25,-3.25 1.36328,-0.80078 2.86719,-1.20313 4.51563,-1.20313 h 26.875 c 1.64453,0 3.14453,0.40235 4.5,1.20313 1.36328,0.80469 2.44531,1.88672 3.25,3.25 0.8125,1.36719 1.21875,2.86719 1.21875,4.5 v 26.89062 c 0,1.60547 -0.40625,3.08985 -1.21875,4.45313 -0.80469,1.35547 -1.875,2.44531 -3.21875,3.26562 -1.34375,0.82422 -2.85547,1.23438 -4.53125,1.23438 z m -26.875,-35.84375 v 26.89062 h 26.875 v -26.89062 z m 0,0"
             id="path191"
             style="fill:#ec7617;fill-opacity:1;stroke-width:1.29869;stroke-dasharray:none" />
          <path
             d="m 174.84197,423.5604 h 26.875 c 1.64454,0 3.14454,0.40234 4.5,1.20312 1.36329,0.80469 2.44532,1.88672 3.25,3.25 0.8125,1.36719 1.21875,2.86719 1.21875,4.5 v 35.84375 h -8.96875 V 450.4354 h -26.875 v 17.92187 h -8.96875 v -35.84375 c 0,-1.63281 0.39844,-3.13281 1.20313,-4.5 0.80078,-1.36328 1.88281,-2.44531 3.25,-3.25 1.36328,-0.80078 2.86719,-1.20312 4.51562,-1.20312 z m 0,8.95312 v 8.96875 h 26.875 v -8.96875 z m 0,0"
             id="path192"
             style="fill:#ec7617;fill-opacity:1;stroke-width:1.29869;stroke-dasharray:none" />
          <path
             d="m 224.11509,468.35727 h -8.96875 v -40.3125 c 0,-1.23828 0.4375,-2.29687 1.3125,-3.17187 0.88282,-0.875 1.94141,-1.3125 3.17188,-1.3125 1.22656,0 2.28906,0.44921 3.1875,1.34375 l 28.17187,28.17187 V 423.5604 h 8.96875 v 40.3125 c 0,1.24218 -0.44531,2.29687 -1.32812,3.17187 -0.875,0.875 -1.92969,1.3125 -3.15625,1.3125 -1.23047,0 -2.29297,-0.44531 -3.1875,-1.34375 l -28.17188,-28.17187 z m 0,0"
             id="path193"
             style="fill:#ec7617;fill-opacity:1;stroke-width:1.29869;stroke-dasharray:none" />
          <path
             d="m 309.23196,423.5604 v 8.95312 h -17.92187 v 35.84375 h -8.96875 v -35.84375 h -17.92188 v -8.95312 z m 0,0"
             id="path194"
             style="fill:#ec7617;fill-opacity:1;stroke-width:1.29869;stroke-dasharray:none" />
          <path
             d="m 358.50507,468.35727 h -44.8125 v -8.95312 h 17.92188 v -26.89063 h -17.92188 v -8.95312 h 44.8125 v 8.95312 H 340.5832 v 26.89063 h 17.92187 z m 0,0"
             id="path195"
             style="fill:#ec7617;fill-opacity:1;stroke-width:1.29869;stroke-dasharray:none" />
          <path
             d="m 407.77819,468.35727 h -35.84375 c -1.64843,0 -3.15234,-0.39844 -4.51562,-1.20312 -1.36719,-0.80079 -2.44922,-1.88282 -3.25,-3.25 -0.80469,-1.36329 -1.20313,-2.86329 -1.20313,-4.5 v -26.89063 c 0,-1.63281 0.39844,-3.13281 1.20313,-4.5 0.80078,-1.36328 1.88281,-2.44531 3.25,-3.25 1.36328,-0.80078 2.86719,-1.20312 4.51562,-1.20312 h 35.84375 v 8.95312 h -35.84375 v 26.89063 h 35.84375 z m 0,0"
             id="path196"
             style="fill:#ec7617;fill-opacity:1;stroke-width:1.29869;stroke-dasharray:none" />
          <path
             d="m 457.05133,468.35727 h -44.8125 v -8.95312 h 17.92187 v -26.89063 h -17.92187 v -8.95312 h 44.8125 v 8.95312 h -17.92188 v 26.89063 h 17.92188 z m 0,0"
             id="path197"
             style="fill:#ec7617;fill-opacity:1;stroke-width:1.29869;stroke-dasharray:none" />
          <path
             d="m 497.35568,423.5604 c 1.64454,0 3.14454,0.40234 4.5,1.20312 1.36329,0.80469 2.44532,1.88672 3.25,3.25 0.8125,1.36719 1.21875,2.86719 1.21875,4.5 v 8.96875 c 0,1.63672 -0.40625,3.13672 -1.21875,4.5 -0.80468,1.36719 -1.88671,2.44922 -3.25,3.25 -1.35546,0.80469 -2.85546,1.20313 -4.5,1.20313 h -26.875 v 17.92187 h -8.96875 V 423.5604 Z m -26.875,17.92187 h 26.875 v -8.96875 h -26.875 z m 0,0"
             id="path198"
             style="fill:#ec7617;fill-opacity:1;stroke-width:1.29869;stroke-dasharray:none" />
          <path
             d="m 519.7538,423.5604 h 26.875 c 1.64453,0 3.14453,0.40234 4.5,1.20312 1.36328,0.80469 2.44531,1.88672 3.25,3.25 0.8125,1.36719 1.21875,2.86719 1.21875,4.5 v 35.84375 H 546.6288 V 450.4354 h -26.875 v 17.92187 h -8.96875 v -35.84375 c 0,-1.63281 0.39843,-3.13281 1.20312,-4.5 0.80078,-1.36328 1.88281,-2.44531 3.25,-3.25 1.36328,-0.80078 2.86719,-1.20312 4.51563,-1.20312 z m 0,8.95312 v 8.96875 h 26.875 v -8.96875 z m 0,0"
             id="path199"
             style="fill:#ec7617;fill-opacity:1;stroke-width:1.29869;stroke-dasharray:none" />
          <path
             d="M 595.90192,468.35727 H 560.05817 V 423.5604 h 35.84375 c 1.64454,0 3.14454,0.40234 4.5,1.20312 1.36329,0.80469 2.44532,1.88672 3.25,3.25 0.8125,1.36719 1.21875,2.86719 1.21875,4.5 v 26.89063 c 0,1.63671 -0.40625,3.13671 -1.21875,4.5 -0.80468,1.36718 -1.88671,2.44921 -3.25,3.25 -1.35546,0.80468 -2.85546,1.20312 -4.5,1.20312 z m -26.875,-35.84375 v 26.89063 h 26.875 v -26.89063 z m 0,0"
             id="path200"
             style="fill:#ec7617;fill-opacity:1;stroke-width:1.29869;stroke-dasharray:none" />
          <path
             d="m 645.17506,468.35727 h -26.875 c -1.64844,0 -3.15235,-0.39844 -4.51563,-1.20312 -1.36719,-0.80079 -2.44922,-1.88282 -3.25,-3.25 -0.80469,-1.36329 -1.20312,-2.86329 -1.20312,-4.5 v -26.89063 c 0,-1.63281 0.39843,-3.13281 1.20312,-4.5 0.80078,-1.36328 1.88281,-2.44531 3.25,-3.25 1.36328,-0.80078 2.86719,-1.20312 4.51563,-1.20312 h 26.875 c 1.64453,0 3.14453,0.40234 4.5,1.20312 1.36328,0.80469 2.44531,1.88672 3.25,3.25 0.8125,1.36719 1.21875,2.86719 1.21875,4.5 v 26.89063 c 0,1.60546 -0.40625,3.08984 -1.21875,4.45312 -0.80469,1.35547 -1.875,2.44531 -3.21875,3.26563 -1.34375,0.82421 -2.85547,1.23437 -4.53125,1.23437 z m -26.875,-35.84375 v 26.89063 h 26.875 v -26.89063 z m 0,0"
             id="path201"
             style="fill:#ec7617;fill-opacity:1;stroke-width:1.29869;stroke-dasharray:none" />
        </g>
      </g>
      <g
         id="g222"
         transform="translate(0,81.584843)"
         style="fill:#ec7617;fill-opacity:1">
        <g
           id="g205"
           transform="matrix(0.67088979,0,0,0.67088979,-728.96298,195.28979)"
           style="fill:#ec7617;fill-opacity:1;stroke-width:1.49055">
          <path
             d="m 32.59375,-130.375 h 78.21875 c 4.78125,0 9.15625,1.16797 13.125,3.5 3.96875,2.33594 7.11719,5.48437 9.45312,9.45312 2.33204,3.96875 3.5,8.34375 3.5,13.125 v 78.218755 c 0,4.679687 -1.16796,9 -3.5,12.96875 -2.33593,3.960937 -5.46093,7.136719 -9.37499,9.53125 C 120.10938,-1.191406 115.70703,0 110.8125,0 H 84.75 V 13.03125 H 58.671875 V 0 H 32.59375 c -4.78125,0 -9.15625,-1.164062 -13.125,-3.5 -3.960938,-2.332031 -7.109375,-5.484375 -9.453125,-9.453125 -2.335937,-3.96875 -3.5,-8.34375 -3.5,-13.125 v -78.218755 c 0,-4.78125 1.164063,-9.15625 3.5,-13.125 2.34375,-3.96875 5.492187,-7.11718 9.453125,-9.45312 3.96875,-2.33203 8.34375,-3.5 13.125,-3.5 z M 84.75,-26.07812 h 23.1962 v -78.21876 H 35.460051 v 78.21876 H 58.671875 V -39.245833 H 84.75 Z"
             id="path202"
             style="fill:#ec7617;fill-opacity:1;stroke-width:1.37277"
             transform="matrix(0.34615604,0,0,0.42387038,1111.8697,-183.02276)" />
          <path
             id="path203"
             style="fill:#ec7617;fill-opacity:1;stroke-width:1.24938"
             d="m -405.60476,-130.37459 v 24.17953 h 24.64455 59.59704 v 37.42201 h -59.59704 -24.64455 v 68.74579536 h 24.64455 V -44.608149 h 21.90064 l 32.49668,44.60040086 32.35571,0.00731494 -32.76254,-44.6077158 h 9.18761 c 3.9029,0 7.47386,-1.079485 10.71352,-3.245395 3.23966,-2.162288 5.81054,-5.077256 7.71734,-8.749886 1.90362,-3.679874 2.85645,-7.736386 2.85645,-12.16962 v -37.42201 c 0,-4.43323 -0.95283,-8.48975 -2.85645,-12.16962 -1.9068,-3.67987 -4.47768,-6.5986 -7.71734,-8.76451 -3.23966,-2.16228 -6.81062,-3.2454 -10.71352,-3.2454 z"
             transform="matrix(0.41790625,0,0,0.42387038,1336.3488,-183.02276)" />
          <path
             d="m -327.24305,-130.375 v 23.9595 h -72.06464 v 27.711253 h 54.38124 v 25.930043 h -54.38124 v 26.696084 h 72.06464 V 0 h -77.43681 c -3.54991,0 -6.7982,-1.1680028 -9.74486,-3.5118491 -2.94086,-2.339926 -5.27846,-5.5029421 -7.01862,-9.4851289 -1.73435,-3.982186 -2.59863,-8.371997 -2.59863,-13.169434 V -103.9879 c 0,-4.8379 0.86428,-9.26473 2.59863,-13.28051 1.74016,-4.01577 4.07776,-7.2015 7.01862,-9.56511 2.94666,-2.35968 6.19495,-3.54148 9.74486,-3.54148 z"
             id="path204"
             style="fill:#000000;fill-opacity:1;stroke-width:1.24938"
             transform="matrix(0.41790625,0,0,0.42387038,1396.2832,-183.02276)" />
          <path
             d="M -334.01348,-26.07812 V -130.375 h 26.45634 v 104.10959 c 0,4.815587 -1.33528,9.222007 -4.00139,13.21926 -2.67057,3.9972519 -6.27004,7.1722351 -10.80734,9.521014 C -326.90316,-1.1724219 -331.9049,0 -337.37109,0 h -89.42402 c -5.46619,0 -10.46793,-1.1724219 -15.00523,-3.525136 -4.52835,-2.3487789 -8.12783,-5.5237621 -10.80733,-9.521014 -2.67058,-3.997253 -4.00139,-8.403673 -4.00139,-13.21926 V -130.375 h 26.2325 v 104.29688 h 34.73846 V -130.375 h 26.68019 v 104.29688 z"
             id="path205"
             style="fill:#000000;fill-opacity:1;stroke-width:1.24938"
             transform="matrix(0.41790625,0,0,0.42387038,1456.2176,-183.02276)" />
        </g>
        <g
           id="g221"
           transform="matrix(0.27157493,0,0,0.27157493,125.93468,-56.565122)"
           style="fill:#000000;fill-opacity:1;stroke-width:1.29869;stroke-dasharray:none">
          <path
             d="m 174.84197,345.5604 h 26.875 c 1.64454,0 3.14454,0.40235 4.5,1.20313 1.36329,0.80469 2.44532,1.88672 3.25,3.25 0.8125,1.36719 1.21875,2.86719 1.21875,4.5 v 35.84375 h -8.96875 V 372.4354 h -26.875 v 17.92188 h -8.96875 v -35.84375 c 0,-1.63281 0.39844,-3.13281 1.20313,-4.5 0.80078,-1.36328 1.88281,-2.44531 3.25,-3.25 1.36328,-0.80078 2.86719,-1.20313 4.51562,-1.20313 z m 0,8.95313 v 8.96875 h 26.875 v -8.96875 z m 0,0"
             id="path206"
             style="fill:#000000;fill-opacity:1;stroke-width:1.29869;stroke-dasharray:none" />
          <path
             d="m 259.95884,390.35728 h -35.84375 c -1.64843,0 -3.15234,-0.39844 -4.51562,-1.20313 -1.36719,-0.80078 -2.44922,-1.88281 -3.25,-3.25 -0.80469,-1.36328 -1.20313,-2.86328 -1.20313,-4.5 v -26.89062 c 0,-1.63281 0.39844,-3.13281 1.20313,-4.5 0.80078,-1.36328 1.88281,-2.44531 3.25,-3.25 1.36328,-0.80078 2.86719,-1.20313 4.51562,-1.20313 h 35.84375 v 8.95313 h -35.84375 v 26.89062 h 35.84375 z m 0,0"
             id="path207"
             style="fill:#000000;fill-opacity:1;stroke-width:1.29869;stroke-dasharray:none" />
          <path
             d="m 309.23196,390.35728 h -35.84375 c -1.64843,0 -3.15234,-0.39844 -4.51562,-1.20313 -1.36719,-0.80078 -2.44922,-1.88281 -3.25,-3.25 -0.80469,-1.36328 -1.20313,-2.86328 -1.20313,-4.5 v -26.89062 c 0,-1.63281 0.39844,-3.13281 1.20313,-4.5 0.80078,-1.36328 1.88281,-2.44531 3.25,-3.25 1.36328,-0.80078 2.86719,-1.20313 4.51562,-1.20313 h 35.84375 v 8.95313 h -35.84375 v 26.89062 h 35.84375 z m 0,0"
             id="path208"
             style="fill:#000000;fill-opacity:1;stroke-width:1.29869;stroke-dasharray:none" />
          <path
             d="m 358.50507,345.5604 v 8.95313 h -35.84375 v 8.96875 h 35.84375 v 8.95312 h -35.84375 v 8.96875 h 35.84375 v 8.95313 h -35.84375 c -1.64843,0 -3.15234,-0.39844 -4.51562,-1.20313 -1.36719,-0.80078 -2.44922,-1.88281 -3.25,-3.25 -0.80469,-1.36328 -1.20313,-2.86328 -1.20313,-4.5 v -26.89062 c 0,-1.63281 0.39844,-3.13281 1.20313,-4.5 0.80078,-1.36328 1.88281,-2.44531 3.25,-3.25 1.36328,-0.80078 2.86719,-1.20313 4.51562,-1.20313 z m 0,0"
             id="path209"
             style="fill:#000000;fill-opacity:1;stroke-width:1.29869;stroke-dasharray:none" />
          <path
             d="m 407.77819,345.5604 v 8.95313 h -35.84375 v 8.96875 h 26.875 c 1.64454,0 3.14454,0.40234 4.5,1.20312 1.36329,0.80469 2.44532,1.88672 3.25,3.25 0.8125,1.35547 1.21875,2.85547 1.21875,4.5 v 8.96875 c 0,1.63672 -0.40625,3.13672 -1.21875,4.5 -0.80468,1.36719 -1.88671,2.44922 -3.25,3.25 -1.35546,0.80469 -2.85546,1.20313 -4.5,1.20313 h -35.84375 v -8.95313 h 35.84375 v -8.96875 h -26.875 c -1.64843,0 -3.15234,-0.39843 -4.51562,-1.20312 -1.36719,-0.80078 -2.44922,-1.88281 -3.25,-3.25 -0.80469,-1.36328 -1.20313,-2.86328 -1.20313,-4.5 v -8.96875 c 0,-1.63281 0.39844,-3.13281 1.20313,-4.5 0.80078,-1.36328 1.88281,-2.44531 3.25,-3.25 1.36328,-0.80078 2.86719,-1.20313 4.51562,-1.20313 z m 0,0"
             id="path210"
             style="fill:#000000;fill-opacity:1;stroke-width:1.29869;stroke-dasharray:none" />
          <path
             d="m 448.08258,390.35728 h -26.875 c -1.64844,0 -3.15235,-0.39844 -4.51563,-1.20313 -1.36719,-0.80078 -2.44922,-1.88281 -3.25,-3.25 -0.80469,-1.36328 -1.20312,-2.86328 -1.20312,-4.5 v -26.89062 c 0,-1.63281 0.39843,-3.13281 1.20312,-4.5 0.80078,-1.36328 1.88281,-2.44531 3.25,-3.25 1.36328,-0.80078 2.86719,-1.20313 4.51563,-1.20313 h 26.875 c 1.64453,0 3.14453,0.40235 4.5,1.20313 1.36328,0.80469 2.44531,1.88672 3.25,3.25 0.8125,1.36719 1.21875,2.86719 1.21875,4.5 v 26.89062 c 0,1.60547 -0.40625,3.08985 -1.21875,4.45313 -0.80469,1.35547 -1.875,2.44531 -3.21875,3.26562 -1.34375,0.82422 -2.85547,1.23438 -4.53125,1.23438 z m -26.875,-35.84375 v 26.89062 h 26.875 v -26.89062 z m 0,0"
             id="path211"
             style="fill:#000000;fill-opacity:1;stroke-width:1.29869;stroke-dasharray:none" />
          <path
             d="m 174.84197,423.5604 h 26.875 c 1.64454,0 3.14454,0.40234 4.5,1.20312 1.36329,0.80469 2.44532,1.88672 3.25,3.25 0.8125,1.36719 1.21875,2.86719 1.21875,4.5 v 35.84375 h -8.96875 V 450.4354 h -26.875 v 17.92187 h -8.96875 v -35.84375 c 0,-1.63281 0.39844,-3.13281 1.20313,-4.5 0.80078,-1.36328 1.88281,-2.44531 3.25,-3.25 1.36328,-0.80078 2.86719,-1.20312 4.51562,-1.20312 z m 0,8.95312 v 8.96875 h 26.875 v -8.96875 z m 0,0"
             id="path212"
             style="fill:#000000;fill-opacity:1;stroke-width:1.29869;stroke-dasharray:none" />
          <path
             d="m 224.11509,468.35727 h -8.96875 v -40.3125 c 0,-1.23828 0.4375,-2.29687 1.3125,-3.17187 0.88282,-0.875 1.94141,-1.3125 3.17188,-1.3125 1.22656,0 2.28906,0.44921 3.1875,1.34375 l 28.17187,28.17187 V 423.5604 h 8.96875 v 40.3125 c 0,1.24218 -0.44531,2.29687 -1.32812,3.17187 -0.875,0.875 -1.92969,1.3125 -3.15625,1.3125 -1.23047,0 -2.29297,-0.44531 -3.1875,-1.34375 l -28.17188,-28.17187 z m 0,0"
             id="path213"
             style="fill:#000000;fill-opacity:1;stroke-width:1.29869;stroke-dasharray:none" />
          <path
             d="m 309.23196,423.5604 v 8.95312 h -17.92187 v 35.84375 h -8.96875 v -35.84375 h -17.92188 v -8.95312 z m 0,0"
             id="path214"
             style="fill:#000000;fill-opacity:1;stroke-width:1.29869;stroke-dasharray:none" />
          <path
             d="m 358.50507,468.35727 h -44.8125 v -8.95312 h 17.92188 v -26.89063 h -17.92188 v -8.95312 h 44.8125 v 8.95312 H 340.5832 v 26.89063 h 17.92187 z m 0,0"
             id="path215"
             style="fill:#000000;fill-opacity:1;stroke-width:1.29869;stroke-dasharray:none" />
          <path
             d="m 407.77819,468.35727 h -35.84375 c -1.64843,0 -3.15234,-0.39844 -4.51562,-1.20312 -1.36719,-0.80079 -2.44922,-1.88282 -3.25,-3.25 -0.80469,-1.36329 -1.20313,-2.86329 -1.20313,-4.5 v -26.89063 c 0,-1.63281 0.39844,-3.13281 1.20313,-4.5 0.80078,-1.36328 1.88281,-2.44531 3.25,-3.25 1.36328,-0.80078 2.86719,-1.20312 4.51562,-1.20312 h 35.84375 v 8.95312 h -35.84375 v 26.89063 h 35.84375 z m 0,0"
             id="path216"
             style="fill:#000000;fill-opacity:1;stroke-width:1.29869;stroke-dasharray:none" />
          <path
             d="m 457.05133,468.35727 h -44.8125 v -8.95312 h 17.92187 v -26.89063 h -17.92187 v -8.95312 h 44.8125 v 8.95312 h -17.92188 v 26.89063 h 17.92188 z m 0,0"
             id="path217"
             style="fill:#000000;fill-opacity:1;stroke-width:1.29869;stroke-dasharray:none" />
          <path
             d="m 497.35568,423.5604 c 1.64454,0 3.14454,0.40234 4.5,1.20312 1.36329,0.80469 2.44532,1.88672 3.25,3.25 0.8125,1.36719 1.21875,2.86719 1.21875,4.5 v 8.96875 c 0,1.63672 -0.40625,3.13672 -1.21875,4.5 -0.80468,1.36719 -1.88671,2.44922 -3.25,3.25 -1.35546,0.80469 -2.85546,1.20313 -4.5,1.20313 h -26.875 v 17.92187 h -8.96875 V 423.5604 Z m -26.875,17.92187 h 26.875 v -8.96875 h -26.875 z m 0,0"
             id="path218"
             style="fill:#000000;fill-opacity:1;stroke-width:1.29869;stroke-dasharray:none" />
          <path
             d="m 519.7538,423.5604 h 26.875 c 1.64453,0 3.14453,0.40234 4.5,1.20312 1.36328,0.80469 2.44531,1.88672 3.25,3.25 0.8125,1.36719 1.21875,2.86719 1.21875,4.5 v 35.84375 H 546.6288 V 450.4354 h -26.875 v 17.92187 h -8.96875 v -35.84375 c 0,-1.63281 0.39843,-3.13281 1.20312,-4.5 0.80078,-1.36328 1.88281,-2.44531 3.25,-3.25 1.36328,-0.80078 2.86719,-1.20312 4.51563,-1.20312 z m 0,8.95312 v 8.96875 h 26.875 v -8.96875 z m 0,0"
             id="path219"
             style="fill:#000000;fill-opacity:1;stroke-width:1.29869;stroke-dasharray:none" />
          <path
             d="M 595.90192,468.35727 H 560.05817 V 423.5604 h 35.84375 c 1.64454,0 3.14454,0.40234 4.5,1.20312 1.36329,0.80469 2.44532,1.88672 3.25,3.25 0.8125,1.36719 1.21875,2.86719 1.21875,4.5 v 26.89063 c 0,1.63671 -0.40625,3.13671 -1.21875,4.5 -0.80468,1.36718 -1.88671,2.44921 -3.25,3.25 -1.35546,0.80468 -2.85546,1.20312 -4.5,1.20312 z m -26.875,-35.84375 v 26.89063 h 26.875 v -26.89063 z m 0,0"
             id="path220"
             style="fill:#000000;fill-opacity:1;stroke-width:1.29869;stroke-dasharray:none" />
          <path
             d="m 645.17506,468.35727 h -26.875 c -1.64844,0 -3.15235,-0.39844 -4.51563,-1.20312 -1.36719,-0.80079 -2.44922,-1.88282 -3.25,-3.25 -0.80469,-1.36329 -1.20312,-2.86329 -1.20312,-4.5 v -26.89063 c 0,-1.63281 0.39843,-3.13281 1.20312,-4.5 0.80078,-1.36328 1.88281,-2.44531 3.25,-3.25 1.36328,-0.80078 2.86719,-1.20312 4.51563,-1.20312 h 26.875 c 1.64453,0 3.14453,0.40234 4.5,1.20312 1.36328,0.80469 2.44531,1.88672 3.25,3.25 0.8125,1.36719 1.21875,2.86719 1.21875,4.5 v 26.89063 c 0,1.60546 -0.40625,3.08984 -1.21875,4.45312 -0.80469,1.35547 -1.875,2.44531 -3.21875,3.26563 -1.34375,0.82421 -2.85547,1.23437 -4.53125,1.23437 z m -26.875,-35.84375 v 26.89063 h 26.875 v -26.89063 z m 0,0"
             id="path221"
             style="fill:#000000;fill-opacity:1;stroke-width:1.29869;stroke-dasharray:none" />
        </g>
      </g>
      <g
         id="g551"
         transform="translate(0,188.22241)"
         style="fill:#ec7617;fill-opacity:1">
        <g
           id="g534"
           transform="matrix(0.67088979,0,0,0.67088979,-728.96298,195.28979)"
           style="fill:#ec7617;fill-opacity:1;stroke-width:1.49055">
          <path
             d="m 32.59375,-130.375 h 78.21875 c 4.78125,0 9.15625,1.16797 13.125,3.5 3.96875,2.33594 7.11719,5.48437 9.45312,9.45312 2.33204,3.96875 3.5,8.34375 3.5,13.125 v 78.218755 c 0,4.679687 -1.16796,9 -3.5,12.96875 -2.33593,3.960937 -5.46093,7.136719 -9.37499,9.53125 C 120.10938,-1.191406 115.70703,0 110.8125,0 H 84.75 V 13.03125 H 58.671875 V 0 H 32.59375 c -4.78125,0 -9.15625,-1.164062 -13.125,-3.5 -3.960938,-2.332031 -7.109375,-5.484375 -9.453125,-9.453125 -2.335937,-3.96875 -3.5,-8.34375 -3.5,-13.125 v -78.218755 c 0,-4.78125 1.164063,-9.15625 3.5,-13.125 2.34375,-3.96875 5.492187,-7.11718 9.453125,-9.45312 3.96875,-2.33203 8.34375,-3.5 13.125,-3.5 z M 84.75,-26.07812 h 23.1962 v -78.21876 H 35.460051 v 78.21876 H 58.671875 V -39.245833 H 84.75 Z"
             id="path531"
             style="fill:#ec7617;fill-opacity:1;stroke-width:1.37277"
             transform="matrix(0.34615604,0,0,0.42387038,1111.8697,-183.02276)" />
          <path
             id="path532"
             style="fill:#ec7617;fill-opacity:1;stroke-width:1.24938"
             d="m -405.60476,-130.37459 v 24.17953 h 24.64455 59.59704 v 37.42201 h -59.59704 -24.64455 v 68.74579536 h 24.64455 V -44.608149 h 21.90064 l 32.49668,44.60040086 32.35571,0.00731494 -32.76254,-44.6077158 h 9.18761 c 3.9029,0 7.47386,-1.079485 10.71352,-3.245395 3.23966,-2.162288 5.81054,-5.077256 7.71734,-8.749886 1.90362,-3.679874 2.85645,-7.736386 2.85645,-12.16962 v -37.42201 c 0,-4.43323 -0.95283,-8.48975 -2.85645,-12.16962 -1.9068,-3.67987 -4.47768,-6.5986 -7.71734,-8.76451 -3.23966,-2.16228 -6.81062,-3.2454 -10.71352,-3.2454 z"
             transform="matrix(0.41790625,0,0,0.42387038,1336.3488,-183.02276)" />
          <path
             d="m -327.24305,-130.375 v 23.9595 h -72.06464 v 27.711253 h 54.38124 v 25.930043 h -54.38124 v 26.696084 h 72.06464 V 0 h -77.43681 c -3.54991,0 -6.7982,-1.1680028 -9.74486,-3.5118491 -2.94086,-2.339926 -5.27846,-5.5029421 -7.01862,-9.4851289 -1.73435,-3.982186 -2.59863,-8.371997 -2.59863,-13.169434 V -103.9879 c 0,-4.8379 0.86428,-9.26473 2.59863,-13.28051 1.74016,-4.01577 4.07776,-7.2015 7.01862,-9.56511 2.94666,-2.35968 6.19495,-3.54148 9.74486,-3.54148 z"
             id="path533"
             style="fill:#ec7617;fill-opacity:1;stroke-width:1.24938"
             transform="matrix(0.41790625,0,0,0.42387038,1396.2832,-183.02276)" />
          <path
             d="M -334.01348,-26.07812 V -130.375 h 26.45634 v 104.10959 c 0,4.815587 -1.33528,9.222007 -4.00139,13.21926 -2.67057,3.9972519 -6.27004,7.1722351 -10.80734,9.521014 C -326.90316,-1.1724219 -331.9049,0 -337.37109,0 h -89.42402 c -5.46619,0 -10.46793,-1.1724219 -15.00523,-3.525136 -4.52835,-2.3487789 -8.12783,-5.5237621 -10.80733,-9.521014 -2.67058,-3.997253 -4.00139,-8.403673 -4.00139,-13.21926 V -130.375 h 26.2325 v 104.29688 h 34.73846 V -130.375 h 26.68019 v 104.29688 z"
             id="path534"
             style="fill:#ec7617;fill-opacity:1;stroke-width:1.24938"
             transform="matrix(0.41790625,0,0,0.42387038,1456.2176,-183.02276)" />
        </g>
        <g
           id="g550"
           transform="matrix(0.27157493,0,0,0.27157493,125.93468,-56.565122)"
           style="fill:#000000;fill-opacity:1;stroke-width:1.29869;stroke-dasharray:none">
          <path
             d="m 174.84197,345.5604 h 26.875 c 1.64454,0 3.14454,0.40235 4.5,1.20313 1.36329,0.80469 2.44532,1.88672 3.25,3.25 0.8125,1.36719 1.21875,2.86719 1.21875,4.5 v 35.84375 h -8.96875 V 372.4354 h -26.875 v 17.92188 h -8.96875 v -35.84375 c 0,-1.63281 0.39844,-3.13281 1.20313,-4.5 0.80078,-1.36328 1.88281,-2.44531 3.25,-3.25 1.36328,-0.80078 2.86719,-1.20313 4.51562,-1.20313 z m 0,8.95313 v 8.96875 h 26.875 v -8.96875 z m 0,0"
             id="path535"
             style="fill:#000000;fill-opacity:1;stroke-width:1.29869;stroke-dasharray:none" />
          <path
             d="m 259.95884,390.35728 h -35.84375 c -1.64843,0 -3.15234,-0.39844 -4.51562,-1.20313 -1.36719,-0.80078 -2.44922,-1.88281 -3.25,-3.25 -0.80469,-1.36328 -1.20313,-2.86328 -1.20313,-4.5 v -26.89062 c 0,-1.63281 0.39844,-3.13281 1.20313,-4.5 0.80078,-1.36328 1.88281,-2.44531 3.25,-3.25 1.36328,-0.80078 2.86719,-1.20313 4.51562,-1.20313 h 35.84375 v 8.95313 h -35.84375 v 26.89062 h 35.84375 z m 0,0"
             id="path536"
             style="fill:#000000;fill-opacity:1;stroke-width:1.29869;stroke-dasharray:none" />
          <path
             d="m 309.23196,390.35728 h -35.84375 c -1.64843,0 -3.15234,-0.39844 -4.51562,-1.20313 -1.36719,-0.80078 -2.44922,-1.88281 -3.25,-3.25 -0.80469,-1.36328 -1.20313,-2.86328 -1.20313,-4.5 v -26.89062 c 0,-1.63281 0.39844,-3.13281 1.20313,-4.5 0.80078,-1.36328 1.88281,-2.44531 3.25,-3.25 1.36328,-0.80078 2.86719,-1.20313 4.51562,-1.20313 h 35.84375 v 8.95313 h -35.84375 v 26.89062 h 35.84375 z m 0,0"
             id="path537"
             style="fill:#000000;fill-opacity:1;stroke-width:1.29869;stroke-dasharray:none" />
          <path
             d="m 358.50507,345.5604 v 8.95313 h -35.84375 v 8.96875 h 35.84375 v 8.95312 h -35.84375 v 8.96875 h 35.84375 v 8.95313 h -35.84375 c -1.64843,0 -3.15234,-0.39844 -4.51562,-1.20313 -1.36719,-0.80078 -2.44922,-1.88281 -3.25,-3.25 -0.80469,-1.36328 -1.20313,-2.86328 -1.20313,-4.5 v -26.89062 c 0,-1.63281 0.39844,-3.13281 1.20313,-4.5 0.80078,-1.36328 1.88281,-2.44531 3.25,-3.25 1.36328,-0.80078 2.86719,-1.20313 4.51562,-1.20313 z m 0,0"
             id="path538"
             style="fill:#000000;fill-opacity:1;stroke-width:1.29869;stroke-dasharray:none" />
          <path
             d="m 407.77819,345.5604 v 8.95313 h -35.84375 v 8.96875 h 26.875 c 1.64454,0 3.14454,0.40234 4.5,1.20312 1.36329,0.80469 2.44532,1.88672 3.25,3.25 0.8125,1.35547 1.21875,2.85547 1.21875,4.5 v 8.96875 c 0,1.63672 -0.40625,3.13672 -1.21875,4.5 -0.80468,1.36719 -1.88671,2.44922 -3.25,3.25 -1.35546,0.80469 -2.85546,1.20313 -4.5,1.20313 h -35.84375 v -8.95313 h 35.84375 v -8.96875 h -26.875 c -1.64843,0 -3.15234,-0.39843 -4.51562,-1.20312 -1.36719,-0.80078 -2.44922,-1.88281 -3.25,-3.25 -0.80469,-1.36328 -1.20313,-2.86328 -1.20313,-4.5 v -8.96875 c 0,-1.63281 0.39844,-3.13281 1.20313,-4.5 0.80078,-1.36328 1.88281,-2.44531 3.25,-3.25 1.36328,-0.80078 2.86719,-1.20313 4.51562,-1.20313 z m 0,0"
             id="path539"
             style="fill:#000000;fill-opacity:1;stroke-width:1.29869;stroke-dasharray:none" />
          <path
             d="m 448.08258,390.35728 h -26.875 c -1.64844,0 -3.15235,-0.39844 -4.51563,-1.20313 -1.36719,-0.80078 -2.44922,-1.88281 -3.25,-3.25 -0.80469,-1.36328 -1.20312,-2.86328 -1.20312,-4.5 v -26.89062 c 0,-1.63281 0.39843,-3.13281 1.20312,-4.5 0.80078,-1.36328 1.88281,-2.44531 3.25,-3.25 1.36328,-0.80078 2.86719,-1.20313 4.51563,-1.20313 h 26.875 c 1.64453,0 3.14453,0.40235 4.5,1.20313 1.36328,0.80469 2.44531,1.88672 3.25,3.25 0.8125,1.36719 1.21875,2.86719 1.21875,4.5 v 26.89062 c 0,1.60547 -0.40625,3.08985 -1.21875,4.45313 -0.80469,1.35547 -1.875,2.44531 -3.21875,3.26562 -1.34375,0.82422 -2.85547,1.23438 -4.53125,1.23438 z m -26.875,-35.84375 v 26.89062 h 26.875 v -26.89062 z m 0,0"
             id="path540"
             style="fill:#000000;fill-opacity:1;stroke-width:1.29869;stroke-dasharray:none" />
          <path
             d="m 174.84197,423.5604 h 26.875 c 1.64454,0 3.14454,0.40234 4.5,1.20312 1.36329,0.80469 2.44532,1.88672 3.25,3.25 0.8125,1.36719 1.21875,2.86719 1.21875,4.5 v 35.84375 h -8.96875 V 450.4354 h -26.875 v 17.92187 h -8.96875 v -35.84375 c 0,-1.63281 0.39844,-3.13281 1.20313,-4.5 0.80078,-1.36328 1.88281,-2.44531 3.25,-3.25 1.36328,-0.80078 2.86719,-1.20312 4.51562,-1.20312 z m 0,8.95312 v 8.96875 h 26.875 v -8.96875 z m 0,0"
             id="path541"
             style="fill:#000000;fill-opacity:1;stroke-width:1.29869;stroke-dasharray:none" />
          <path
             d="m 224.11509,468.35727 h -8.96875 v -40.3125 c 0,-1.23828 0.4375,-2.29687 1.3125,-3.17187 0.88282,-0.875 1.94141,-1.3125 3.17188,-1.3125 1.22656,0 2.28906,0.44921 3.1875,1.34375 l 28.17187,28.17187 V 423.5604 h 8.96875 v 40.3125 c 0,1.24218 -0.44531,2.29687 -1.32812,3.17187 -0.875,0.875 -1.92969,1.3125 -3.15625,1.3125 -1.23047,0 -2.29297,-0.44531 -3.1875,-1.34375 l -28.17188,-28.17187 z m 0,0"
             id="path542"
             style="fill:#000000;fill-opacity:1;stroke-width:1.29869;stroke-dasharray:none" />
          <path
             d="m 309.23196,423.5604 v 8.95312 h -17.92187 v 35.84375 h -8.96875 v -35.84375 h -17.92188 v -8.95312 z m 0,0"
             id="path543"
             style="fill:#000000;fill-opacity:1;stroke-width:1.29869;stroke-dasharray:none" />
          <path
             d="m 358.50507,468.35727 h -44.8125 v -8.95312 h 17.92188 v -26.89063 h -17.92188 v -8.95312 h 44.8125 v 8.95312 H 340.5832 v 26.89063 h 17.92187 z m 0,0"
             id="path544"
             style="fill:#000000;fill-opacity:1;stroke-width:1.29869;stroke-dasharray:none" />
          <path
             d="m 407.77819,468.35727 h -35.84375 c -1.64843,0 -3.15234,-0.39844 -4.51562,-1.20312 -1.36719,-0.80079 -2.44922,-1.88282 -3.25,-3.25 -0.80469,-1.36329 -1.20313,-2.86329 -1.20313,-4.5 v -26.89063 c 0,-1.63281 0.39844,-3.13281 1.20313,-4.5 0.80078,-1.36328 1.88281,-2.44531 3.25,-3.25 1.36328,-0.80078 2.86719,-1.20312 4.51562,-1.20312 h 35.84375 v 8.95312 h -35.84375 v 26.89063 h 35.84375 z m 0,0"
             id="path545"
             style="fill:#000000;fill-opacity:1;stroke-width:1.29869;stroke-dasharray:none" />
          <path
             d="m 457.05133,468.35727 h -44.8125 v -8.95312 h 17.92187 v -26.89063 h -17.92187 v -8.95312 h 44.8125 v 8.95312 h -17.92188 v 26.89063 h 17.92188 z m 0,0"
             id="path546"
             style="fill:#000000;fill-opacity:1;stroke-width:1.29869;stroke-dasharray:none" />
          <path
             d="m 497.35568,423.5604 c 1.64454,0 3.14454,0.40234 4.5,1.20312 1.36329,0.80469 2.44532,1.88672 3.25,3.25 0.8125,1.36719 1.21875,2.86719 1.21875,4.5 v 8.96875 c 0,1.63672 -0.40625,3.13672 -1.21875,4.5 -0.80468,1.36719 -1.88671,2.44922 -3.25,3.25 -1.35546,0.80469 -2.85546,1.20313 -4.5,1.20313 h -26.875 v 17.92187 h -8.96875 V 423.5604 Z m -26.875,17.92187 h 26.875 v -8.96875 h -26.875 z m 0,0"
             id="path547"
             style="fill:#000000;fill-opacity:1;stroke-width:1.29869;stroke-dasharray:none" />
          <path
             d="m 519.7538,423.5604 h 26.875 c 1.64453,0 3.14453,0.40234 4.5,1.20312 1.36328,0.80469 2.44531,1.88672 3.25,3.25 0.8125,1.36719 1.21875,2.86719 1.21875,4.5 v 35.84375 H 546.6288 V 450.4354 h -26.875 v 17.92187 h -8.96875 v -35.84375 c 0,-1.63281 0.39843,-3.13281 1.20312,-4.5 0.80078,-1.36328 1.88281,-2.44531 3.25,-3.25 1.36328,-0.80078 2.86719,-1.20312 4.51563,-1.20312 z m 0,8.95312 v 8.96875 h 26.875 v -8.96875 z m 0,0"
             id="path548"
             style="fill:#000000;fill-opacity:1;stroke-width:1.29869;stroke-dasharray:none" />
          <path
             d="M 595.90192,468.35727 H 560.05817 V 423.5604 h 35.84375 c 1.64454,0 3.14454,0.40234 4.5,1.20312 1.36329,0.80469 2.44532,1.88672 3.25,3.25 0.8125,1.36719 1.21875,2.86719 1.21875,4.5 v 26.89063 c 0,1.63671 -0.40625,3.13671 -1.21875,4.5 -0.80468,1.36718 -1.88671,2.44921 -3.25,3.25 -1.35546,0.80468 -2.85546,1.20312 -4.5,1.20312 z m -26.875,-35.84375 v 26.89063 h 26.875 v -26.89063 z m 0,0"
             id="path549"
             style="fill:#000000;fill-opacity:1;stroke-width:1.29869;stroke-dasharray:none" />
          <path
             d="m 645.17506,468.35727 h -26.875 c -1.64844,0 -3.15235,-0.39844 -4.51563,-1.20312 -1.36719,-0.80079 -2.44922,-1.88282 -3.25,-3.25 -0.80469,-1.36329 -1.20312,-2.86329 -1.20312,-4.5 v -26.89063 c 0,-1.63281 0.39843,-3.13281 1.20312,-4.5 0.80078,-1.36328 1.88281,-2.44531 3.25,-3.25 1.36328,-0.80078 2.86719,-1.20312 4.51563,-1.20312 h 26.875 c 1.64453,0 3.14453,0.40234 4.5,1.20312 1.36328,0.80469 2.44531,1.88672 3.25,3.25 0.8125,1.36719 1.21875,2.86719 1.21875,4.5 v 26.89063 c 0,1.60546 -0.40625,3.08984 -1.21875,4.45312 -0.80469,1.35547 -1.875,2.44531 -3.21875,3.26563 -1.34375,0.82421 -2.85547,1.23437 -4.53125,1.23437 z m -26.875,-35.84375 v 26.89063 h 26.875 v -26.89063 z m 0,0"
             id="path550"
             style="fill:#000000;fill-opacity:1;stroke-width:1.29869;stroke-dasharray:none" />
        </g>
      </g>
      <g
         id="g571"
         transform="translate(0,288.33114)"
         style="fill:#000000;fill-opacity:1">
        <g
           id="g554"
           transform="matrix(0.67088979,0,0,0.67088979,-728.96298,195.28979)"
           style="fill:#000000;fill-opacity:1;stroke-width:1.49055">
          <path
             d="m 32.59375,-130.375 h 78.21875 c 4.78125,0 9.15625,1.16797 13.125,3.5 3.96875,2.33594 7.11719,5.48437 9.45312,9.45312 2.33204,3.96875 3.5,8.34375 3.5,13.125 v 78.218755 c 0,4.679687 -1.16796,9 -3.5,12.96875 -2.33593,3.960937 -5.46093,7.136719 -9.37499,9.53125 C 120.10938,-1.191406 115.70703,0 110.8125,0 H 84.75 V 13.03125 H 58.671875 V 0 H 32.59375 c -4.78125,0 -9.15625,-1.164062 -13.125,-3.5 -3.960938,-2.332031 -7.109375,-5.484375 -9.453125,-9.453125 -2.335937,-3.96875 -3.5,-8.34375 -3.5,-13.125 v -78.218755 c 0,-4.78125 1.164063,-9.15625 3.5,-13.125 2.34375,-3.96875 5.492187,-7.11718 9.453125,-9.45312 3.96875,-2.33203 8.34375,-3.5 13.125,-3.5 z M 84.75,-26.07812 h 23.1962 v -78.21876 H 35.460051 v 78.21876 H 58.671875 V -39.245833 H 84.75 Z"
             id="path551"
             style="fill:#000000;fill-opacity:1;stroke-width:1.37277"
             transform="matrix(0.34615604,0,0,0.42387038,1111.8697,-183.02276)" />
          <path
             id="path552"
             style="fill:#000000;fill-opacity:1;stroke-width:1.24938"
             d="m -405.60476,-130.37459 v 24.17953 h 24.64455 59.59704 v 37.42201 h -59.59704 -24.64455 v 68.74579536 h 24.64455 V -44.608149 h 21.90064 l 32.49668,44.60040086 32.35571,0.00731494 -32.76254,-44.6077158 h 9.18761 c 3.9029,0 7.47386,-1.079485 10.71352,-3.245395 3.23966,-2.162288 5.81054,-5.077256 7.71734,-8.749886 1.90362,-3.679874 2.85645,-7.736386 2.85645,-12.16962 v -37.42201 c 0,-4.43323 -0.95283,-8.48975 -2.85645,-12.16962 -1.9068,-3.67987 -4.47768,-6.5986 -7.71734,-8.76451 -3.23966,-2.16228 -6.81062,-3.2454 -10.71352,-3.2454 z"
             transform="matrix(0.41790625,0,0,0.42387038,1336.3488,-183.02276)" />
          <path
             d="m -327.24305,-130.375 v 23.9595 h -72.06464 v 27.711253 h 54.38124 v 25.930043 h -54.38124 v 26.696084 h 72.06464 V 0 h -77.43681 c -3.54991,0 -6.7982,-1.1680028 -9.74486,-3.5118491 -2.94086,-2.339926 -5.27846,-5.5029421 -7.01862,-9.4851289 -1.73435,-3.982186 -2.59863,-8.371997 -2.59863,-13.169434 V -103.9879 c 0,-4.8379 0.86428,-9.26473 2.59863,-13.28051 1.74016,-4.01577 4.07776,-7.2015 7.01862,-9.56511 2.94666,-2.35968 6.19495,-3.54148 9.74486,-3.54148 z"
             id="path553"
             style="fill:#000000;fill-opacity:1;stroke-width:1.24938"
             transform="matrix(0.41790625,0,0,0.42387038,1396.2832,-183.02276)" />
          <path
             d="M -334.01348,-26.07812 V -130.375 h 26.45634 v 104.10959 c 0,4.815587 -1.33528,9.222007 -4.00139,13.21926 -2.67057,3.9972519 -6.27004,7.1722351 -10.80734,9.521014 C -326.90316,-1.1724219 -331.9049,0 -337.37109,0 h -89.42402 c -5.46619,0 -10.46793,-1.1724219 -15.00523,-3.525136 -4.52835,-2.3487789 -8.12783,-5.5237621 -10.80733,-9.521014 -2.67058,-3.997253 -4.00139,-8.403673 -4.00139,-13.21926 V -130.375 h 26.2325 v 104.29688 h 34.73846 V -130.375 h 26.68019 v 104.29688 z"
             id="path554"
             style="fill:#000000;fill-opacity:1;stroke-width:1.24938"
             transform="matrix(0.41790625,0,0,0.42387038,1456.2176,-183.02276)" />
        </g>
        <g
           id="g570"
           transform="matrix(0.27157493,0,0,0.27157493,125.93468,-56.565122)"
           style="fill:#ec7617;fill-opacity:1;stroke-width:1.29869;stroke-dasharray:none">
          <path
             d="m 174.84197,345.5604 h 26.875 c 1.64454,0 3.14454,0.40235 4.5,1.20313 1.36329,0.80469 2.44532,1.88672 3.25,3.25 0.8125,1.36719 1.21875,2.86719 1.21875,4.5 v 35.84375 h -8.96875 V 372.4354 h -26.875 v 17.92188 h -8.96875 v -35.84375 c 0,-1.63281 0.39844,-3.13281 1.20313,-4.5 0.80078,-1.36328 1.88281,-2.44531 3.25,-3.25 1.36328,-0.80078 2.86719,-1.20313 4.51562,-1.20313 z m 0,8.95313 v 8.96875 h 26.875 v -8.96875 z m 0,0"
             id="path555"
             style="fill:#ec7617;fill-opacity:1;stroke-width:1.29869;stroke-dasharray:none" />
          <path
             d="m 259.95884,390.35728 h -35.84375 c -1.64843,0 -3.15234,-0.39844 -4.51562,-1.20313 -1.36719,-0.80078 -2.44922,-1.88281 -3.25,-3.25 -0.80469,-1.36328 -1.20313,-2.86328 -1.20313,-4.5 v -26.89062 c 0,-1.63281 0.39844,-3.13281 1.20313,-4.5 0.80078,-1.36328 1.88281,-2.44531 3.25,-3.25 1.36328,-0.80078 2.86719,-1.20313 4.51562,-1.20313 h 35.84375 v 8.95313 h -35.84375 v 26.89062 h 35.84375 z m 0,0"
             id="path556"
             style="fill:#ec7617;fill-opacity:1;stroke-width:1.29869;stroke-dasharray:none" />
          <path
             d="m 309.23196,390.35728 h -35.84375 c -1.64843,0 -3.15234,-0.39844 -4.51562,-1.20313 -1.36719,-0.80078 -2.44922,-1.88281 -3.25,-3.25 -0.80469,-1.36328 -1.20313,-2.86328 -1.20313,-4.5 v -26.89062 c 0,-1.63281 0.39844,-3.13281 1.20313,-4.5 0.80078,-1.36328 1.88281,-2.44531 3.25,-3.25 1.36328,-0.80078 2.86719,-1.20313 4.51562,-1.20313 h 35.84375 v 8.95313 h -35.84375 v 26.89062 h 35.84375 z m 0,0"
             id="path557"
             style="fill:#ec7617;fill-opacity:1;stroke-width:1.29869;stroke-dasharray:none" />
          <path
             d="m 358.50507,345.5604 v 8.95313 h -35.84375 v 8.96875 h 35.84375 v 8.95312 h -35.84375 v 8.96875 h 35.84375 v 8.95313 h -35.84375 c -1.64843,0 -3.15234,-0.39844 -4.51562,-1.20313 -1.36719,-0.80078 -2.44922,-1.88281 -3.25,-3.25 -0.80469,-1.36328 -1.20313,-2.86328 -1.20313,-4.5 v -26.89062 c 0,-1.63281 0.39844,-3.13281 1.20313,-4.5 0.80078,-1.36328 1.88281,-2.44531 3.25,-3.25 1.36328,-0.80078 2.86719,-1.20313 4.51562,-1.20313 z m 0,0"
             id="path558"
             style="fill:#ec7617;fill-opacity:1;stroke-width:1.29869;stroke-dasharray:none" />
          <path
             d="m 407.77819,345.5604 v 8.95313 h -35.84375 v 8.96875 h 26.875 c 1.64454,0 3.14454,0.40234 4.5,1.20312 1.36329,0.80469 2.44532,1.88672 3.25,3.25 0.8125,1.35547 1.21875,2.85547 1.21875,4.5 v 8.96875 c 0,1.63672 -0.40625,3.13672 -1.21875,4.5 -0.80468,1.36719 -1.88671,2.44922 -3.25,3.25 -1.35546,0.80469 -2.85546,1.20313 -4.5,1.20313 h -35.84375 v -8.95313 h 35.84375 v -8.96875 h -26.875 c -1.64843,0 -3.15234,-0.39843 -4.51562,-1.20312 -1.36719,-0.80078 -2.44922,-1.88281 -3.25,-3.25 -0.80469,-1.36328 -1.20313,-2.86328 -1.20313,-4.5 v -8.96875 c 0,-1.63281 0.39844,-3.13281 1.20313,-4.5 0.80078,-1.36328 1.88281,-2.44531 3.25,-3.25 1.36328,-0.80078 2.86719,-1.20313 4.51562,-1.20313 z m 0,0"
             id="path559"
             style="fill:#ec7617;fill-opacity:1;stroke-width:1.29869;stroke-dasharray:none" />
          <path
             d="m 448.08258,390.35728 h -26.875 c -1.64844,0 -3.15235,-0.39844 -4.51563,-1.20313 -1.36719,-0.80078 -2.44922,-1.88281 -3.25,-3.25 -0.80469,-1.36328 -1.20312,-2.86328 -1.20312,-4.5 v -26.89062 c 0,-1.63281 0.39843,-3.13281 1.20312,-4.5 0.80078,-1.36328 1.88281,-2.44531 3.25,-3.25 1.36328,-0.80078 2.86719,-1.20313 4.51563,-1.20313 h 26.875 c 1.64453,0 3.14453,0.40235 4.5,1.20313 1.36328,0.80469 2.44531,1.88672 3.25,3.25 0.8125,1.36719 1.21875,2.86719 1.21875,4.5 v 26.89062 c 0,1.60547 -0.40625,3.08985 -1.21875,4.45313 -0.80469,1.35547 -1.875,2.44531 -3.21875,3.26562 -1.34375,0.82422 -2.85547,1.23438 -4.53125,1.23438 z m -26.875,-35.84375 v 26.89062 h 26.875 v -26.89062 z m 0,0"
             id="path560"
             style="fill:#ec7617;fill-opacity:1;stroke-width:1.29869;stroke-dasharray:none" />
          <path
             d="m 174.84197,423.5604 h 26.875 c 1.64454,0 3.14454,0.40234 4.5,1.20312 1.36329,0.80469 2.44532,1.88672 3.25,3.25 0.8125,1.36719 1.21875,2.86719 1.21875,4.5 v 35.84375 h -8.96875 V 450.4354 h -26.875 v 17.92187 h -8.96875 v -35.84375 c 0,-1.63281 0.39844,-3.13281 1.20313,-4.5 0.80078,-1.36328 1.88281,-2.44531 3.25,-3.25 1.36328,-0.80078 2.86719,-1.20312 4.51562,-1.20312 z m 0,8.95312 v 8.96875 h 26.875 v -8.96875 z m 0,0"
             id="path561"
             style="fill:#ec7617;fill-opacity:1;stroke-width:1.29869;stroke-dasharray:none" />
          <path
             d="m 224.11509,468.35727 h -8.96875 v -40.3125 c 0,-1.23828 0.4375,-2.29687 1.3125,-3.17187 0.88282,-0.875 1.94141,-1.3125 3.17188,-1.3125 1.22656,0 2.28906,0.44921 3.1875,1.34375 l 28.17187,28.17187 V 423.5604 h 8.96875 v 40.3125 c 0,1.24218 -0.44531,2.29687 -1.32812,3.17187 -0.875,0.875 -1.92969,1.3125 -3.15625,1.3125 -1.23047,0 -2.29297,-0.44531 -3.1875,-1.34375 l -28.17188,-28.17187 z m 0,0"
             id="path562"
             style="fill:#ec7617;fill-opacity:1;stroke-width:1.29869;stroke-dasharray:none" />
          <path
             d="m 309.23196,423.5604 v 8.95312 h -17.92187 v 35.84375 h -8.96875 v -35.84375 h -17.92188 v -8.95312 z m 0,0"
             id="path563"
             style="fill:#ec7617;fill-opacity:1;stroke-width:1.29869;stroke-dasharray:none" />
          <path
             d="m 358.50507,468.35727 h -44.8125 v -8.95312 h 17.92188 v -26.89063 h -17.92188 v -8.95312 h 44.8125 v 8.95312 H 340.5832 v 26.89063 h 17.92187 z m 0,0"
             id="path564"
             style="fill:#ec7617;fill-opacity:1;stroke-width:1.29869;stroke-dasharray:none" />
          <path
             d="m 407.77819,468.35727 h -35.84375 c -1.64843,0 -3.15234,-0.39844 -4.51562,-1.20312 -1.36719,-0.80079 -2.44922,-1.88282 -3.25,-3.25 -0.80469,-1.36329 -1.20313,-2.86329 -1.20313,-4.5 v -26.89063 c 0,-1.63281 0.39844,-3.13281 1.20313,-4.5 0.80078,-1.36328 1.88281,-2.44531 3.25,-3.25 1.36328,-0.80078 2.86719,-1.20312 4.51562,-1.20312 h 35.84375 v 8.95312 h -35.84375 v 26.89063 h 35.84375 z m 0,0"
             id="path565"
             style="fill:#ec7617;fill-opacity:1;stroke-width:1.29869;stroke-dasharray:none" />
          <path
             d="m 457.05133,468.35727 h -44.8125 v -8.95312 h 17.92187 v -26.89063 h -17.92187 v -8.95312 h 44.8125 v 8.95312 h -17.92188 v 26.89063 h 17.92188 z m 0,0"
             id="path566"
             style="fill:#ec7617;fill-opacity:1;stroke-width:1.29869;stroke-dasharray:none" />
          <path
             d="m 497.35568,423.5604 c 1.64454,0 3.14454,0.40234 4.5,1.20312 1.36329,0.80469 2.44532,1.88672 3.25,3.25 0.8125,1.36719 1.21875,2.86719 1.21875,4.5 v 8.96875 c 0,1.63672 -0.40625,3.13672 -1.21875,4.5 -0.80468,1.36719 -1.88671,2.44922 -3.25,3.25 -1.35546,0.80469 -2.85546,1.20313 -4.5,1.20313 h -26.875 v 17.92187 h -8.96875 V 423.5604 Z m -26.875,17.92187 h 26.875 v -8.96875 h -26.875 z m 0,0"
             id="path567"
             style="fill:#ec7617;fill-opacity:1;stroke-width:1.29869;stroke-dasharray:none" />
          <path
             d="m 519.7538,423.5604 h 26.875 c 1.64453,0 3.14453,0.40234 4.5,1.20312 1.36328,0.80469 2.44531,1.88672 3.25,3.25 0.8125,1.36719 1.21875,2.86719 1.21875,4.5 v 35.84375 H 546.6288 V 450.4354 h -26.875 v 17.92187 h -8.96875 v -35.84375 c 0,-1.63281 0.39843,-3.13281 1.20312,-4.5 0.80078,-1.36328 1.88281,-2.44531 3.25,-3.25 1.36328,-0.80078 2.86719,-1.20312 4.51563,-1.20312 z m 0,8.95312 v 8.96875 h 26.875 v -8.96875 z m 0,0"
             id="path568"
             style="fill:#ec7617;fill-opacity:1;stroke-width:1.29869;stroke-dasharray:none" />
          <path
             d="M 595.90192,468.35727 H 560.05817 V 423.5604 h 35.84375 c 1.64454,0 3.14454,0.40234 4.5,1.20312 1.36329,0.80469 2.44532,1.88672 3.25,3.25 0.8125,1.36719 1.21875,2.86719 1.21875,4.5 v 26.89063 c 0,1.63671 -0.40625,3.13671 -1.21875,4.5 -0.80468,1.36718 -1.88671,2.44921 -3.25,3.25 -1.35546,0.80468 -2.85546,1.20312 -4.5,1.20312 z m -26.875,-35.84375 v 26.89063 h 26.875 v -26.89063 z m 0,0"
             id="path569"
             style="fill:#ec7617;fill-opacity:1;stroke-width:1.29869;stroke-dasharray:none" />
          <path
             d="m 645.17506,468.35727 h -26.875 c -1.64844,0 -3.15235,-0.39844 -4.51563,-1.20312 -1.36719,-0.80079 -2.44922,-1.88282 -3.25,-3.25 -0.80469,-1.36329 -1.20312,-2.86329 -1.20312,-4.5 v -26.89063 c 0,-1.63281 0.39843,-3.13281 1.20312,-4.5 0.80078,-1.36328 1.88281,-2.44531 3.25,-3.25 1.36328,-0.80078 2.86719,-1.20312 4.51563,-1.20312 h 26.875 c 1.64453,0 3.14453,0.40234 4.5,1.20312 1.36328,0.80469 2.44531,1.88672 3.25,3.25 0.8125,1.36719 1.21875,2.86719 1.21875,4.5 v 26.89063 c 0,1.60546 -0.40625,3.08984 -1.21875,4.45312 -0.80469,1.35547 -1.875,2.44531 -3.21875,3.26563 -1.34375,0.82421 -2.85547,1.23437 -4.53125,1.23437 z m -26.875,-35.84375 v 26.89063 h 26.875 v -26.89063 z m 0,0"
             id="path570"
             style="fill:#ec7617;fill-opacity:1;stroke-width:1.29869;stroke-dasharray:none" />
        </g>
      </g>
      <g
         id="g611"
         transform="translate(0,360.65757)"
         style="fill:#000000;fill-opacity:1">
        <g
           id="g594"
           transform="matrix(0.67088979,0,0,0.67088979,-728.96298,195.28979)"
           style="fill:#000000;fill-opacity:1;stroke-width:1.49055">
          <path
             d="m 32.59375,-130.375 h 78.21875 c 4.78125,0 9.15625,1.16797 13.125,3.5 3.96875,2.33594 7.11719,5.48437 9.45312,9.45312 2.33204,3.96875 3.5,8.34375 3.5,13.125 v 78.218755 c 0,4.679687 -1.16796,9 -3.5,12.96875 -2.33593,3.960937 -5.46093,7.136719 -9.37499,9.53125 C 120.10938,-1.191406 115.70703,0 110.8125,0 H 84.75 V 13.03125 H 58.671875 V 0 H 32.59375 c -4.78125,0 -9.15625,-1.164062 -13.125,-3.5 -3.960938,-2.332031 -7.109375,-5.484375 -9.453125,-9.453125 -2.335937,-3.96875 -3.5,-8.34375 -3.5,-13.125 v -78.218755 c 0,-4.78125 1.164063,-9.15625 3.5,-13.125 2.34375,-3.96875 5.492187,-7.11718 9.453125,-9.45312 3.96875,-2.33203 8.34375,-3.5 13.125,-3.5 z M 84.75,-26.07812 h 23.1962 v -78.21876 H 35.460051 v 78.21876 H 58.671875 V -39.245833 H 84.75 Z"
             id="path591"
             style="fill:#ec7617;fill-opacity:1;stroke-width:1.37277"
             transform="matrix(0.34615604,0,0,0.42387038,1111.8697,-183.02276)" />
          <path
             id="path592"
             style="fill:#ec7617;fill-opacity:1;stroke-width:1.24938"
             d="m -405.60476,-130.37459 v 24.17953 h 24.64455 59.59704 v 37.42201 h -59.59704 -24.64455 v 68.74579536 h 24.64455 V -44.608149 h 21.90064 l 32.49668,44.60040086 32.35571,0.00731494 -32.76254,-44.6077158 h 9.18761 c 3.9029,0 7.47386,-1.079485 10.71352,-3.245395 3.23966,-2.162288 5.81054,-5.077256 7.71734,-8.749886 1.90362,-3.679874 2.85645,-7.736386 2.85645,-12.16962 v -37.42201 c 0,-4.43323 -0.95283,-8.48975 -2.85645,-12.16962 -1.9068,-3.67987 -4.47768,-6.5986 -7.71734,-8.76451 -3.23966,-2.16228 -6.81062,-3.2454 -10.71352,-3.2454 z"
             transform="matrix(0.41790625,0,0,0.42387038,1336.3488,-183.02276)" />
          <path
             d="m -327.24305,-130.375 v 23.9595 h -72.06464 v 27.711253 h 54.38124 v 25.930043 h -54.38124 v 26.696084 h 72.06464 V 0 h -77.43681 c -3.54991,0 -6.7982,-1.1680028 -9.74486,-3.5118491 -2.94086,-2.339926 -5.27846,-5.5029421 -7.01862,-9.4851289 -1.73435,-3.982186 -2.59863,-8.371997 -2.59863,-13.169434 V -103.9879 c 0,-4.8379 0.86428,-9.26473 2.59863,-13.28051 1.74016,-4.01577 4.07776,-7.2015 7.01862,-9.56511 2.94666,-2.35968 6.19495,-3.54148 9.74486,-3.54148 z"
             id="path593"
             style="fill:#000000;fill-opacity:1;stroke-width:1.24938"
             transform="matrix(0.41790625,0,0,0.42387038,1396.2832,-183.02276)" />
          <path
             d="M -334.01348,-26.07812 V -130.375 h 26.45634 v 104.10959 c 0,4.815587 -1.33528,9.222007 -4.00139,13.21926 -2.67057,3.9972519 -6.27004,7.1722351 -10.80734,9.521014 C -326.90316,-1.1724219 -331.9049,0 -337.37109,0 h -89.42402 c -5.46619,0 -10.46793,-1.1724219 -15.00523,-3.525136 -4.52835,-2.3487789 -8.12783,-5.5237621 -10.80733,-9.521014 -2.67058,-3.997253 -4.00139,-8.403673 -4.00139,-13.21926 V -130.375 h 26.2325 v 104.29688 h 34.73846 V -130.375 h 26.68019 v 104.29688 z"
             id="path594"
             style="fill:#000000;fill-opacity:1;stroke-width:1.24938"
             transform="matrix(0.41790625,0,0,0.42387038,1456.2176,-183.02276)" />
        </g>
        <g
           id="g610"
           transform="matrix(0.27157493,0,0,0.27157493,125.93468,-56.565122)"
           style="fill:#ec7617;fill-opacity:1;stroke-width:1.29869;stroke-dasharray:none">
          <path
             d="m 174.84197,345.5604 h 26.875 c 1.64454,0 3.14454,0.40235 4.5,1.20313 1.36329,0.80469 2.44532,1.88672 3.25,3.25 0.8125,1.36719 1.21875,2.86719 1.21875,4.5 v 35.84375 h -8.96875 V 372.4354 h -26.875 v 17.92188 h -8.96875 v -35.84375 c 0,-1.63281 0.39844,-3.13281 1.20313,-4.5 0.80078,-1.36328 1.88281,-2.44531 3.25,-3.25 1.36328,-0.80078 2.86719,-1.20313 4.51562,-1.20313 z m 0,8.95313 v 8.96875 h 26.875 v -8.96875 z m 0,0"
             id="path595"
             style="fill:#ec7617;fill-opacity:1;stroke-width:1.29869;stroke-dasharray:none" />
          <path
             d="m 259.95884,390.35728 h -35.84375 c -1.64843,0 -3.15234,-0.39844 -4.51562,-1.20313 -1.36719,-0.80078 -2.44922,-1.88281 -3.25,-3.25 -0.80469,-1.36328 -1.20313,-2.86328 -1.20313,-4.5 v -26.89062 c 0,-1.63281 0.39844,-3.13281 1.20313,-4.5 0.80078,-1.36328 1.88281,-2.44531 3.25,-3.25 1.36328,-0.80078 2.86719,-1.20313 4.51562,-1.20313 h 35.84375 v 8.95313 h -35.84375 v 26.89062 h 35.84375 z m 0,0"
             id="path596"
             style="fill:#ec7617;fill-opacity:1;stroke-width:1.29869;stroke-dasharray:none" />
          <path
             d="m 309.23196,390.35728 h -35.84375 c -1.64843,0 -3.15234,-0.39844 -4.51562,-1.20313 -1.36719,-0.80078 -2.44922,-1.88281 -3.25,-3.25 -0.80469,-1.36328 -1.20313,-2.86328 -1.20313,-4.5 v -26.89062 c 0,-1.63281 0.39844,-3.13281 1.20313,-4.5 0.80078,-1.36328 1.88281,-2.44531 3.25,-3.25 1.36328,-0.80078 2.86719,-1.20313 4.51562,-1.20313 h 35.84375 v 8.95313 h -35.84375 v 26.89062 h 35.84375 z m 0,0"
             id="path597"
             style="fill:#ec7617;fill-opacity:1;stroke-width:1.29869;stroke-dasharray:none" />
          <path
             d="m 358.50507,345.5604 v 8.95313 h -35.84375 v 8.96875 h 35.84375 v 8.95312 h -35.84375 v 8.96875 h 35.84375 v 8.95313 h -35.84375 c -1.64843,0 -3.15234,-0.39844 -4.51562,-1.20313 -1.36719,-0.80078 -2.44922,-1.88281 -3.25,-3.25 -0.80469,-1.36328 -1.20313,-2.86328 -1.20313,-4.5 v -26.89062 c 0,-1.63281 0.39844,-3.13281 1.20313,-4.5 0.80078,-1.36328 1.88281,-2.44531 3.25,-3.25 1.36328,-0.80078 2.86719,-1.20313 4.51562,-1.20313 z m 0,0"
             id="path598"
             style="fill:#ec7617;fill-opacity:1;stroke-width:1.29869;stroke-dasharray:none" />
          <path
             d="m 407.77819,345.5604 v 8.95313 h -35.84375 v 8.96875 h 26.875 c 1.64454,0 3.14454,0.40234 4.5,1.20312 1.36329,0.80469 2.44532,1.88672 3.25,3.25 0.8125,1.35547 1.21875,2.85547 1.21875,4.5 v 8.96875 c 0,1.63672 -0.40625,3.13672 -1.21875,4.5 -0.80468,1.36719 -1.88671,2.44922 -3.25,3.25 -1.35546,0.80469 -2.85546,1.20313 -4.5,1.20313 h -35.84375 v -8.95313 h 35.84375 v -8.96875 h -26.875 c -1.64843,0 -3.15234,-0.39843 -4.51562,-1.20312 -1.36719,-0.80078 -2.44922,-1.88281 -3.25,-3.25 -0.80469,-1.36328 -1.20313,-2.86328 -1.20313,-4.5 v -8.96875 c 0,-1.63281 0.39844,-3.13281 1.20313,-4.5 0.80078,-1.36328 1.88281,-2.44531 3.25,-3.25 1.36328,-0.80078 2.86719,-1.20313 4.51562,-1.20313 z m 0,0"
             id="path599"
             style="fill:#ec7617;fill-opacity:1;stroke-width:1.29869;stroke-dasharray:none" />
          <path
             d="m 448.08258,390.35728 h -26.875 c -1.64844,0 -3.15235,-0.39844 -4.51563,-1.20313 -1.36719,-0.80078 -2.44922,-1.88281 -3.25,-3.25 -0.80469,-1.36328 -1.20312,-2.86328 -1.20312,-4.5 v -26.89062 c 0,-1.63281 0.39843,-3.13281 1.20312,-4.5 0.80078,-1.36328 1.88281,-2.44531 3.25,-3.25 1.36328,-0.80078 2.86719,-1.20313 4.51563,-1.20313 h 26.875 c 1.64453,0 3.14453,0.40235 4.5,1.20313 1.36328,0.80469 2.44531,1.88672 3.25,3.25 0.8125,1.36719 1.21875,2.86719 1.21875,4.5 v 26.89062 c 0,1.60547 -0.40625,3.08985 -1.21875,4.45313 -0.80469,1.35547 -1.875,2.44531 -3.21875,3.26562 -1.34375,0.82422 -2.85547,1.23438 -4.53125,1.23438 z m -26.875,-35.84375 v 26.89062 h 26.875 v -26.89062 z m 0,0"
             id="path600"
             style="fill:#ec7617;fill-opacity:1;stroke-width:1.29869;stroke-dasharray:none" />
          <path
             d="m 174.84197,423.5604 h 26.875 c 1.64454,0 3.14454,0.40234 4.5,1.20312 1.36329,0.80469 2.44532,1.88672 3.25,3.25 0.8125,1.36719 1.21875,2.86719 1.21875,4.5 v 35.84375 h -8.96875 V 450.4354 h -26.875 v 17.92187 h -8.96875 v -35.84375 c 0,-1.63281 0.39844,-3.13281 1.20313,-4.5 0.80078,-1.36328 1.88281,-2.44531 3.25,-3.25 1.36328,-0.80078 2.86719,-1.20312 4.51562,-1.20312 z m 0,8.95312 v 8.96875 h 26.875 v -8.96875 z m 0,0"
             id="path601"
             style="fill:#ec7617;fill-opacity:1;stroke-width:1.29869;stroke-dasharray:none" />
          <path
             d="m 224.11509,468.35727 h -8.96875 v -40.3125 c 0,-1.23828 0.4375,-2.29687 1.3125,-3.17187 0.88282,-0.875 1.94141,-1.3125 3.17188,-1.3125 1.22656,0 2.28906,0.44921 3.1875,1.34375 l 28.17187,28.17187 V 423.5604 h 8.96875 v 40.3125 c 0,1.24218 -0.44531,2.29687 -1.32812,3.17187 -0.875,0.875 -1.92969,1.3125 -3.15625,1.3125 -1.23047,0 -2.29297,-0.44531 -3.1875,-1.34375 l -28.17188,-28.17187 z m 0,0"
             id="path602"
             style="fill:#ec7617;fill-opacity:1;stroke-width:1.29869;stroke-dasharray:none" />
          <path
             d="m 309.23196,423.5604 v 8.95312 h -17.92187 v 35.84375 h -8.96875 v -35.84375 h -17.92188 v -8.95312 z m 0,0"
             id="path603"
             style="fill:#ec7617;fill-opacity:1;stroke-width:1.29869;stroke-dasharray:none" />
          <path
             d="m 358.50507,468.35727 h -44.8125 v -8.95312 h 17.92188 v -26.89063 h -17.92188 v -8.95312 h 44.8125 v 8.95312 H 340.5832 v 26.89063 h 17.92187 z m 0,0"
             id="path604"
             style="fill:#ec7617;fill-opacity:1;stroke-width:1.29869;stroke-dasharray:none" />
          <path
             d="m 407.77819,468.35727 h -35.84375 c -1.64843,0 -3.15234,-0.39844 -4.51562,-1.20312 -1.36719,-0.80079 -2.44922,-1.88282 -3.25,-3.25 -0.80469,-1.36329 -1.20313,-2.86329 -1.20313,-4.5 v -26.89063 c 0,-1.63281 0.39844,-3.13281 1.20313,-4.5 0.80078,-1.36328 1.88281,-2.44531 3.25,-3.25 1.36328,-0.80078 2.86719,-1.20312 4.51562,-1.20312 h 35.84375 v 8.95312 h -35.84375 v 26.89063 h 35.84375 z m 0,0"
             id="path605"
             style="fill:#ec7617;fill-opacity:1;stroke-width:1.29869;stroke-dasharray:none" />
          <path
             d="m 457.05133,468.35727 h -44.8125 v -8.95312 h 17.92187 v -26.89063 h -17.92187 v -8.95312 h 44.8125 v 8.95312 h -17.92188 v 26.89063 h 17.92188 z m 0,0"
             id="path606"
             style="fill:#ec7617;fill-opacity:1;stroke-width:1.29869;stroke-dasharray:none" />
          <path
             d="m 497.35568,423.5604 c 1.64454,0 3.14454,0.40234 4.5,1.20312 1.36329,0.80469 2.44532,1.88672 3.25,3.25 0.8125,1.36719 1.21875,2.86719 1.21875,4.5 v 8.96875 c 0,1.63672 -0.40625,3.13672 -1.21875,4.5 -0.80468,1.36719 -1.88671,2.44922 -3.25,3.25 -1.35546,0.80469 -2.85546,1.20313 -4.5,1.20313 h -26.875 v 17.92187 h -8.96875 V 423.5604 Z m -26.875,17.92187 h 26.875 v -8.96875 h -26.875 z m 0,0"
             id="path607"
             style="fill:#ec7617;fill-opacity:1;stroke-width:1.29869;stroke-dasharray:none" />
          <path
             d="m 519.7538,423.5604 h 26.875 c 1.64453,0 3.14453,0.40234 4.5,1.20312 1.36328,0.80469 2.44531,1.88672 3.25,3.25 0.8125,1.36719 1.21875,2.86719 1.21875,4.5 v 35.84375 H 546.6288 V 450.4354 h -26.875 v 17.92187 h -8.96875 v -35.84375 c 0,-1.63281 0.39843,-3.13281 1.20312,-4.5 0.80078,-1.36328 1.88281,-2.44531 3.25,-3.25 1.36328,-0.80078 2.86719,-1.20312 4.51563,-1.20312 z m 0,8.95312 v 8.96875 h 26.875 v -8.96875 z m 0,0"
             id="path608"
             style="fill:#ec7617;fill-opacity:1;stroke-width:1.29869;stroke-dasharray:none" />
          <path
             d="M 595.90192,468.35727 H 560.05817 V 423.5604 h 35.84375 c 1.64454,0 3.14454,0.40234 4.5,1.20312 1.36329,0.80469 2.44532,1.88672 3.25,3.25 0.8125,1.36719 1.21875,2.86719 1.21875,4.5 v 26.89063 c 0,1.63671 -0.40625,3.13671 -1.21875,4.5 -0.80468,1.36718 -1.88671,2.44921 -3.25,3.25 -1.35546,0.80468 -2.85546,1.20312 -4.5,1.20312 z m -26.875,-35.84375 v 26.89063 h 26.875 v -26.89063 z m 0,0"
             id="path609"
             style="fill:#ec7617;fill-opacity:1;stroke-width:1.29869;stroke-dasharray:none" />
          <path
             d="m 645.17506,468.35727 h -26.875 c -1.64844,0 -3.15235,-0.39844 -4.51563,-1.20312 -1.36719,-0.80079 -2.44922,-1.88282 -3.25,-3.25 -0.80469,-1.36329 -1.20312,-2.86329 -1.20312,-4.5 v -26.89063 c 0,-1.63281 0.39843,-3.13281 1.20312,-4.5 0.80078,-1.36328 1.88281,-2.44531 3.25,-3.25 1.36328,-0.80078 2.86719,-1.20312 4.51563,-1.20312 h 26.875 c 1.64453,0 3.14453,0.40234 4.5,1.20312 1.36328,0.80469 2.44531,1.88672 3.25,3.25 0.8125,1.36719 1.21875,2.86719 1.21875,4.5 v 26.89063 c 0,1.60546 -0.40625,3.08984 -1.21875,4.45312 -0.80469,1.35547 -1.875,2.44531 -3.21875,3.26563 -1.34375,0.82421 -2.85547,1.23437 -4.53125,1.23437 z m -26.875,-35.84375 v 26.89063 h 26.875 v -26.89063 z m 0,0"
             id="path610"
             style="fill:#ec7617;fill-opacity:1;stroke-width:1.29869;stroke-dasharray:none" />
        </g>
      </g>
    </g>
  </g>
</svg>
