<svg xmlns="http://www.w3.org/2000/svg" xmlns:xlink="http://www.w3.org/1999/xlink" width="1080" zoomAndPan="magnify" viewBox="0 0 810 809.999993" height="1080" preserveAspectRatio="xMidYMid meet" version="1.0"><defs><g/></defs><g fill="#000000" fill-opacity="1"><g transform="translate(163.638847, 390.357276)"><g><path d="M 11.203125 -44.796875 L 38.078125 -44.796875 C 39.722656 -44.796875 41.222656 -44.394531 42.578125 -43.59375 C 43.941406 -42.789062 45.023438 -41.707031 45.828125 -40.34375 C 46.640625 -38.976562 47.046875 -37.476562 47.046875 -35.84375 L 47.046875 0 L 38.078125 0 L 38.078125 -17.921875 L 11.203125 -17.921875 L 11.203125 0 L 2.234375 0 L 2.234375 -35.84375 C 2.234375 -37.476562 2.632812 -38.976562 3.4375 -40.34375 C 4.238281 -41.707031 5.320312 -42.789062 6.6875 -43.59375 C 8.050781 -44.394531 9.554688 -44.796875 11.203125 -44.796875 Z M 11.203125 -35.84375 L 11.203125 -26.875 L 38.078125 -26.875 L 38.078125 -35.84375 Z M 11.203125 -35.84375 "/></g></g></g><g fill="#000000" fill-opacity="1"><g transform="translate(212.911966, 390.357276)"><g><path d="M 47.046875 0 L 11.203125 0 C 9.554688 0 8.050781 -0.398438 6.6875 -1.203125 C 5.320312 -2.003906 4.238281 -3.085938 3.4375 -4.453125 C 2.632812 -5.816406 2.234375 -7.316406 2.234375 -8.953125 L 2.234375 -35.84375 C 2.234375 -37.476562 2.632812 -38.976562 3.4375 -40.34375 C 4.238281 -41.707031 5.320312 -42.789062 6.6875 -43.59375 C 8.050781 -44.394531 9.554688 -44.796875 11.203125 -44.796875 L 47.046875 -44.796875 L 47.046875 -35.84375 L 11.203125 -35.84375 L 11.203125 -8.953125 L 47.046875 -8.953125 Z M 47.046875 0 "/></g></g></g><g fill="#000000" fill-opacity="1"><g transform="translate(262.185085, 390.357276)"><g><path d="M 47.046875 0 L 11.203125 0 C 9.554688 0 8.050781 -0.398438 6.6875 -1.203125 C 5.320312 -2.003906 4.238281 -3.085938 3.4375 -4.453125 C 2.632812 -5.816406 2.234375 -7.316406 2.234375 -8.953125 L 2.234375 -35.84375 C 2.234375 -37.476562 2.632812 -38.976562 3.4375 -40.34375 C 4.238281 -41.707031 5.320312 -42.789062 6.6875 -43.59375 C 8.050781 -44.394531 9.554688 -44.796875 11.203125 -44.796875 L 47.046875 -44.796875 L 47.046875 -35.84375 L 11.203125 -35.84375 L 11.203125 -8.953125 L 47.046875 -8.953125 Z M 47.046875 0 "/></g></g></g><g fill="#000000" fill-opacity="1"><g transform="translate(311.458204, 390.357276)"><g><path d="M 47.046875 -44.796875 L 47.046875 -35.84375 L 11.203125 -35.84375 L 11.203125 -26.875 L 47.046875 -26.875 L 47.046875 -17.921875 L 11.203125 -17.921875 L 11.203125 -8.953125 L 47.046875 -8.953125 L 47.046875 0 L 11.203125 0 C 9.554688 0 8.050781 -0.398438 6.6875 -1.203125 C 5.320312 -2.003906 4.238281 -3.085938 3.4375 -4.453125 C 2.632812 -5.816406 2.234375 -7.316406 2.234375 -8.953125 L 2.234375 -35.84375 C 2.234375 -37.476562 2.632812 -38.976562 3.4375 -40.34375 C 4.238281 -41.707031 5.320312 -42.789062 6.6875 -43.59375 C 8.050781 -44.394531 9.554688 -44.796875 11.203125 -44.796875 Z M 47.046875 -44.796875 "/></g></g></g><g fill="#000000" fill-opacity="1"><g transform="translate(360.731322, 390.357276)"><g><path d="M 47.046875 -44.796875 L 47.046875 -35.84375 L 11.203125 -35.84375 L 11.203125 -26.875 L 38.078125 -26.875 C 39.722656 -26.875 41.222656 -26.472656 42.578125 -25.671875 C 43.941406 -24.867188 45.023438 -23.785156 45.828125 -22.421875 C 46.640625 -21.066406 47.046875 -19.566406 47.046875 -17.921875 L 47.046875 -8.953125 C 47.046875 -7.316406 46.640625 -5.816406 45.828125 -4.453125 C 45.023438 -3.085938 43.941406 -2.003906 42.578125 -1.203125 C 41.222656 -0.398438 39.722656 0 38.078125 0 L 2.234375 0 L 2.234375 -8.953125 L 38.078125 -8.953125 L 38.078125 -17.921875 L 11.203125 -17.921875 C 9.554688 -17.921875 8.050781 -18.320312 6.6875 -19.125 C 5.320312 -19.925781 4.238281 -21.007812 3.4375 -22.375 C 2.632812 -23.738281 2.234375 -25.238281 2.234375 -26.875 L 2.234375 -35.84375 C 2.234375 -37.476562 2.632812 -38.976562 3.4375 -40.34375 C 4.238281 -41.707031 5.320312 -42.789062 6.6875 -43.59375 C 8.050781 -44.394531 9.554688 -44.796875 11.203125 -44.796875 Z M 47.046875 -44.796875 "/></g></g></g><g fill="#000000" fill-opacity="1"><g transform="translate(410.004452, 390.357276)"><g><path d="M 38.078125 0 L 11.203125 0 C 9.554688 0 8.050781 -0.398438 6.6875 -1.203125 C 5.320312 -2.003906 4.238281 -3.085938 3.4375 -4.453125 C 2.632812 -5.816406 2.234375 -7.316406 2.234375 -8.953125 L 2.234375 -35.84375 C 2.234375 -37.476562 2.632812 -38.976562 3.4375 -40.34375 C 4.238281 -41.707031 5.320312 -42.789062 6.6875 -43.59375 C 8.050781 -44.394531 9.554688 -44.796875 11.203125 -44.796875 L 38.078125 -44.796875 C 39.722656 -44.796875 41.222656 -44.394531 42.578125 -43.59375 C 43.941406 -42.789062 45.023438 -41.707031 45.828125 -40.34375 C 46.640625 -38.976562 47.046875 -37.476562 47.046875 -35.84375 L 47.046875 -8.953125 C 47.046875 -7.347656 46.640625 -5.863281 45.828125 -4.5 C 45.023438 -3.144531 43.953125 -2.054688 42.609375 -1.234375 C 41.265625 -0.410156 39.753906 0 38.078125 0 Z M 11.203125 -35.84375 L 11.203125 -8.953125 L 38.078125 -8.953125 L 38.078125 -35.84375 Z M 11.203125 -35.84375 "/></g></g></g><g fill="#000000" fill-opacity="1"><g transform="translate(163.638847, 468.357272)"><g><path d="M 11.203125 -44.796875 L 38.078125 -44.796875 C 39.722656 -44.796875 41.222656 -44.394531 42.578125 -43.59375 C 43.941406 -42.789062 45.023438 -41.707031 45.828125 -40.34375 C 46.640625 -38.976562 47.046875 -37.476562 47.046875 -35.84375 L 47.046875 0 L 38.078125 0 L 38.078125 -17.921875 L 11.203125 -17.921875 L 11.203125 0 L 2.234375 0 L 2.234375 -35.84375 C 2.234375 -37.476562 2.632812 -38.976562 3.4375 -40.34375 C 4.238281 -41.707031 5.320312 -42.789062 6.6875 -43.59375 C 8.050781 -44.394531 9.554688 -44.796875 11.203125 -44.796875 Z M 11.203125 -35.84375 L 11.203125 -26.875 L 38.078125 -26.875 L 38.078125 -35.84375 Z M 11.203125 -35.84375 "/></g></g></g><g fill="#000000" fill-opacity="1"><g transform="translate(212.911966, 468.357272)"><g><path d="M 11.203125 0 L 2.234375 0 L 2.234375 -40.3125 C 2.234375 -41.550781 2.671875 -42.609375 3.546875 -43.484375 C 4.429688 -44.359375 5.488281 -44.796875 6.71875 -44.796875 C 7.945312 -44.796875 9.007812 -44.347656 9.90625 -43.453125 L 38.078125 -15.28125 L 38.078125 -44.796875 L 47.046875 -44.796875 L 47.046875 -4.484375 C 47.046875 -3.242188 46.601562 -2.1875 45.71875 -1.3125 C 44.84375 -0.4375 43.789062 0 42.5625 0 C 41.332031 0 40.269531 -0.445312 39.375 -1.34375 L 11.203125 -29.515625 Z M 11.203125 0 "/></g></g></g><g fill="#000000" fill-opacity="1"><g transform="translate(262.185085, 468.357272)"><g><path d="M 47.046875 -44.796875 L 47.046875 -35.84375 L 29.125 -35.84375 L 29.125 0 L 20.15625 0 L 20.15625 -35.84375 L 2.234375 -35.84375 L 2.234375 -44.796875 Z M 47.046875 -44.796875 "/></g></g></g><g fill="#000000" fill-opacity="1"><g transform="translate(311.458204, 468.357272)"><g><path d="M 47.046875 0 L 2.234375 0 L 2.234375 -8.953125 L 20.15625 -8.953125 L 20.15625 -35.84375 L 2.234375 -35.84375 L 2.234375 -44.796875 L 47.046875 -44.796875 L 47.046875 -35.84375 L 29.125 -35.84375 L 29.125 -8.953125 L 47.046875 -8.953125 Z M 47.046875 0 "/></g></g></g><g fill="#000000" fill-opacity="1"><g transform="translate(360.731322, 468.357272)"><g><path d="M 47.046875 0 L 11.203125 0 C 9.554688 0 8.050781 -0.398438 6.6875 -1.203125 C 5.320312 -2.003906 4.238281 -3.085938 3.4375 -4.453125 C 2.632812 -5.816406 2.234375 -7.316406 2.234375 -8.953125 L 2.234375 -35.84375 C 2.234375 -37.476562 2.632812 -38.976562 3.4375 -40.34375 C 4.238281 -41.707031 5.320312 -42.789062 6.6875 -43.59375 C 8.050781 -44.394531 9.554688 -44.796875 11.203125 -44.796875 L 47.046875 -44.796875 L 47.046875 -35.84375 L 11.203125 -35.84375 L 11.203125 -8.953125 L 47.046875 -8.953125 Z M 47.046875 0 "/></g></g></g><g fill="#000000" fill-opacity="1"><g transform="translate(410.004452, 468.357272)"><g><path d="M 47.046875 0 L 2.234375 0 L 2.234375 -8.953125 L 20.15625 -8.953125 L 20.15625 -35.84375 L 2.234375 -35.84375 L 2.234375 -44.796875 L 47.046875 -44.796875 L 47.046875 -35.84375 L 29.125 -35.84375 L 29.125 -8.953125 L 47.046875 -8.953125 Z M 47.046875 0 "/></g></g></g><g fill="#000000" fill-opacity="1"><g transform="translate(459.277559, 468.357272)"><g><path d="M 38.078125 -44.796875 C 39.722656 -44.796875 41.222656 -44.394531 42.578125 -43.59375 C 43.941406 -42.789062 45.023438 -41.707031 45.828125 -40.34375 C 46.640625 -38.976562 47.046875 -37.476562 47.046875 -35.84375 L 47.046875 -26.875 C 47.046875 -25.238281 46.640625 -23.738281 45.828125 -22.375 C 45.023438 -21.007812 43.941406 -19.925781 42.578125 -19.125 C 41.222656 -18.320312 39.722656 -17.921875 38.078125 -17.921875 L 11.203125 -17.921875 L 11.203125 0 L 2.234375 0 L 2.234375 -44.796875 Z M 11.203125 -26.875 L 38.078125 -26.875 L 38.078125 -35.84375 L 11.203125 -35.84375 Z M 11.203125 -26.875 "/></g></g></g><g fill="#000000" fill-opacity="1"><g transform="translate(508.550666, 468.357272)"><g><path d="M 11.203125 -44.796875 L 38.078125 -44.796875 C 39.722656 -44.796875 41.222656 -44.394531 42.578125 -43.59375 C 43.941406 -42.789062 45.023438 -41.707031 45.828125 -40.34375 C 46.640625 -38.976562 47.046875 -37.476562 47.046875 -35.84375 L 47.046875 0 L 38.078125 0 L 38.078125 -17.921875 L 11.203125 -17.921875 L 11.203125 0 L 2.234375 0 L 2.234375 -35.84375 C 2.234375 -37.476562 2.632812 -38.976562 3.4375 -40.34375 C 4.238281 -41.707031 5.320312 -42.789062 6.6875 -43.59375 C 8.050781 -44.394531 9.554688 -44.796875 11.203125 -44.796875 Z M 11.203125 -35.84375 L 11.203125 -26.875 L 38.078125 -26.875 L 38.078125 -35.84375 Z M 11.203125 -35.84375 "/></g></g></g><g fill="#000000" fill-opacity="1"><g transform="translate(557.823796, 468.357272)"><g><path d="M 38.078125 0 L 2.234375 0 L 2.234375 -44.796875 L 38.078125 -44.796875 C 39.722656 -44.796875 41.222656 -44.394531 42.578125 -43.59375 C 43.941406 -42.789062 45.023438 -41.707031 45.828125 -40.34375 C 46.640625 -38.976562 47.046875 -37.476562 47.046875 -35.84375 L 47.046875 -8.953125 C 47.046875 -7.316406 46.640625 -5.816406 45.828125 -4.453125 C 45.023438 -3.085938 43.941406 -2.003906 42.578125 -1.203125 C 41.222656 -0.398438 39.722656 0 38.078125 0 Z M 11.203125 -35.84375 L 11.203125 -8.953125 L 38.078125 -8.953125 L 38.078125 -35.84375 Z M 11.203125 -35.84375 "/></g></g></g><g fill="#000000" fill-opacity="1"><g transform="translate(607.096926, 468.357272)"><g><path d="M 38.078125 0 L 11.203125 0 C 9.554688 0 8.050781 -0.398438 6.6875 -1.203125 C 5.320312 -2.003906 4.238281 -3.085938 3.4375 -4.453125 C 2.632812 -5.816406 2.234375 -7.316406 2.234375 -8.953125 L 2.234375 -35.84375 C 2.234375 -37.476562 2.632812 -38.976562 3.4375 -40.34375 C 4.238281 -41.707031 5.320312 -42.789062 6.6875 -43.59375 C 8.050781 -44.394531 9.554688 -44.796875 11.203125 -44.796875 L 38.078125 -44.796875 C 39.722656 -44.796875 41.222656 -44.394531 42.578125 -43.59375 C 43.941406 -42.789062 45.023438 -41.707031 45.828125 -40.34375 C 46.640625 -38.976562 47.046875 -37.476562 47.046875 -35.84375 L 47.046875 -8.953125 C 47.046875 -7.347656 46.640625 -5.863281 45.828125 -4.5 C 45.023438 -3.144531 43.953125 -2.054688 42.609375 -1.234375 C 41.265625 -0.410156 39.753906 0 38.078125 0 Z M 11.203125 -35.84375 L 11.203125 -8.953125 L 38.078125 -8.953125 L 38.078125 -35.84375 Z M 11.203125 -35.84375 "/></g></g></g></svg>