<?xml version="1.0" encoding="UTF-8" standalone="no"?>
<!-- Created with Inkscape (http://www.inkscape.org/) -->

<svg
   width="807.16504"
   height="229.74109"
   viewBox="0 0 213.56241 60.785663"
   version="1.1"
   id="svg1"
   xml:space="preserve"
   xmlns="http://www.w3.org/2000/svg"
   xmlns:svg="http://www.w3.org/2000/svg"><defs
     id="defs1" /><g
     id="layer1"
     transform="translate(-1114.1251,238.28486)"><g
       id="g93"><path
         d="m 32.59375,-130.375 h 78.21875 c 4.78125,0 9.15625,1.16797 13.125,3.5 3.96875,2.33594 7.11719,5.48437 9.45312,9.45312 2.33204,3.96875 3.5,8.34375 3.5,13.125 v 78.218755 c 0,4.679687 -1.16796,9 -3.5,12.96875 -2.33593,3.960937 -5.46093,7.136719 -9.37499,9.53125 C 120.10938,-1.191406 115.70703,0 110.8125,0 H 84.75 V 13.03125 H 58.671875 V 0 H 32.59375 c -4.78125,0 -9.15625,-1.164062 -13.125,-3.5 -3.960938,-2.332031 -7.109375,-5.484375 -9.453125,-9.453125 -2.335937,-3.96875 -3.5,-8.34375 -3.5,-13.125 v -78.218755 c 0,-4.78125 1.164063,-9.15625 3.5,-13.125 2.34375,-3.96875 5.492187,-7.11718 9.453125,-9.45312 3.96875,-2.33203 8.34375,-3.5 13.125,-3.5 z M 84.75,-26.07812 h 23.1962 v -78.21876 H 35.460051 v 78.21876 H 58.671875 V -39.245833 H 84.75 Z"
         id="path1-9"
         style="fill:#ffffff;stroke-width:0.920976"
         transform="matrix(0.34615604,0,0,0.42387038,1111.8697,-183.02276)" /><path
         id="path4-4"
         style="fill:#ffffff;stroke-width:0.838195"
         d="m -405.60476,-130.37459 v 24.17953 h 24.64455 59.59704 v 37.42201 h -59.59704 -24.64455 v 68.74579536 h 24.64455 V -44.608149 h 21.90064 l 32.49668,44.60040086 32.35571,0.00731494 -32.76254,-44.6077158 h 9.18761 c 3.9029,0 7.47386,-1.079485 10.71352,-3.245395 3.23966,-2.162288 5.81054,-5.077256 7.71734,-8.749886 1.90362,-3.679874 2.85645,-7.736386 2.85645,-12.16962 v -37.42201 c 0,-4.43323 -0.95283,-8.48975 -2.85645,-12.16962 -1.9068,-3.67987 -4.47768,-6.5986 -7.71734,-8.76451 -3.23966,-2.16228 -6.81062,-3.2454 -10.71352,-3.2454 z"
         transform="matrix(0.41790625,0,0,0.42387038,1336.3488,-183.02276)" /><path
         d="m -327.24305,-130.375 v 23.9595 h -72.06464 v 27.711253 h 54.38124 v 25.930043 h -54.38124 v 26.696084 h 72.06464 V 0 h -77.43681 c -3.54991,0 -6.7982,-1.1680028 -9.74486,-3.5118491 -2.94086,-2.339926 -5.27846,-5.5029421 -7.01862,-9.4851289 -1.73435,-3.982186 -2.59863,-8.371997 -2.59863,-13.169434 V -103.9879 c 0,-4.8379 0.86428,-9.26473 2.59863,-13.28051 1.74016,-4.01577 4.07776,-7.2015 7.01862,-9.56511 2.94666,-2.35968 6.19495,-3.54148 9.74486,-3.54148 z"
         id="path7-8"
         style="fill:#ffffff;stroke-width:0.838195"
         transform="matrix(0.41790625,0,0,0.42387038,1396.2832,-183.02276)" /><path
         d="M -334.01348,-26.07812 V -130.375 h 26.45634 v 104.10959 c 0,4.815587 -1.33528,9.222007 -4.00139,13.21926 -2.67057,3.9972519 -6.27004,7.1722351 -10.80734,9.521014 C -326.90316,-1.1724219 -331.9049,0 -337.37109,0 h -89.42402 c -5.46619,0 -10.46793,-1.1724219 -15.00523,-3.525136 -4.52835,-2.3487789 -8.12783,-5.5237621 -10.80733,-9.521014 -2.67058,-3.997253 -4.00139,-8.403673 -4.00139,-13.21926 V -130.375 h 26.2325 v 104.29688 h 34.73846 V -130.375 h 26.68019 v 104.29688 z"
         id="path10-4"
         style="fill:#ffffff;stroke-width:0.838195"
         transform="matrix(0.41790625,0,0,0.42387038,1456.2176,-183.02276)" /></g></g></svg>
