<svg width="1600" height="487" viewBox="0 0 1600 487" fill="none" xmlns="http://www.w3.org/2000/svg">
<path d="M88.3252 110.891C77.4871 110.891 67.7813 112.264 59.2078 115.014C50.6344 117.764 43.029 121.403 36.3967 125.933C29.9262 130.462 24.3454 135.717 19.6542 141.702C15.1249 147.687 11.4018 153.996 8.49008 160.628C5.57834 167.099 3.39454 173.65 1.93867 180.283C0.644587 186.915 0 193.224 0 199.209V284.622C0 295.461 1.37256 305.25 4.12249 313.985C6.87246 322.558 10.5121 330.156 15.0415 336.789C19.5709 343.259 24.8331 348.84 30.8184 353.531C36.8036 358.06 43.029 361.783 49.4995 364.695C56.1318 367.607 62.7666 369.791 69.3989 371.247C76.0312 372.541 82.34 373.185 88.3252 373.185H202.121V310.1H88.8081C80.3964 310.1 74.0042 307.916 69.6366 303.549C65.269 299.181 63.0852 292.872 63.0852 284.622V199.209C63.0852 191.93 65.3524 185.947 69.8818 181.256C74.4111 176.403 80.5606 173.976 88.3252 173.976H202.121V110.891H88.3252ZM431.42 110.891C422.685 110.891 413.146 112.423 402.793 115.496C392.44 118.57 382.81 123.666 373.913 130.783C365.178 137.739 357.823 146.884 351.838 158.207C346.014 169.369 343.102 183.033 343.102 199.209V284.622C343.102 300.961 346.014 314.791 351.838 326.115C357.823 337.276 365.178 346.413 373.913 353.531C382.81 360.487 392.44 365.507 402.793 368.58C413.146 371.654 422.685 373.185 431.42 373.185H475.824V310.1H431.91C423.499 310.1 417.107 307.916 412.739 303.549C408.371 299.181 406.188 292.872 406.188 284.622V199.209C406.188 190.959 408.371 184.734 412.739 180.528C417.107 176.16 423.499 173.976 431.91 173.976H475.824V110.891H431.42ZM501.302 110.891V173.976H545.223C553.473 173.976 559.782 176.077 564.15 180.283C568.517 184.489 570.701 190.964 570.701 199.699V284.622C570.701 292.872 568.6 299.181 564.395 303.549C560.189 307.916 553.797 310.1 545.223 310.1H501.302V373.185H545.223C551.208 373.185 557.517 372.541 564.15 371.247C570.944 369.791 577.578 367.607 584.049 364.695C590.681 361.783 596.99 358.06 602.975 353.531C608.96 348.84 614.215 343.259 618.745 336.789C623.274 330.156 626.914 322.558 629.664 313.985C632.414 305.25 633.786 295.461 633.786 284.622V199.209C633.786 190.312 632.171 180.69 628.936 170.337C625.862 159.984 620.85 150.437 613.894 141.702C606.938 132.805 597.794 125.45 586.47 119.626C575.147 113.803 561.4 110.891 545.223 110.891H501.302ZM227.599 114.583V199.209V398.425C227.599 406.675 225.498 412.984 221.292 417.352C217.086 421.719 210.694 423.903 202.121 423.903H0V486.988H202.121C208.106 486.988 214.415 486.26 221.047 484.804C227.841 483.51 234.476 481.41 240.946 478.498C247.579 475.586 253.887 471.78 259.873 467.089C265.858 462.559 271.113 456.979 275.642 450.346C280.172 443.876 283.811 436.278 286.561 427.543C289.311 418.969 290.691 409.263 290.691 398.425V199.209C290.691 188.371 289.311 178.665 286.561 170.092C283.811 161.518 280.172 153.996 275.642 147.526C271.113 140.893 265.858 135.313 259.873 130.783C253.887 126.092 247.579 122.293 240.946 119.381C236.572 117.413 232.122 115.811 227.599 114.583Z" fill="white"/>
<path d="M1029.05 0V284.622C1029.05 300.96 1031.97 314.791 1037.79 326.115C1043.61 337.276 1050.98 346.413 1059.87 353.531C1068.77 360.487 1078.32 365.506 1088.51 368.58C1098.86 371.653 1108.57 373.185 1117.62 373.185H1145.77V310.1H1117.62C1110.34 310.1 1104.28 307.833 1099.43 303.303C1094.57 298.612 1092.15 292.387 1092.15 284.622V0H1029.05ZM1187.26 0V57.024H1250.35V0H1187.26ZM774.522 110.891V173.976C774.682 173.975 774.843 173.976 775.005 173.976H888.325C896.575 173.976 902.8 176.077 907.006 180.283C911.374 184.488 913.558 190.964 913.558 199.699V284.622C913.558 292.872 911.457 299.181 907.251 303.549C903.045 307.916 896.737 310.1 888.325 310.1H774.522V373.185H888.325C894.31 373.185 900.619 372.541 907.251 371.247C913.884 369.791 920.435 367.607 926.905 364.695C933.538 361.783 939.847 358.06 945.832 353.531C951.817 348.84 957.072 343.259 961.601 336.788C966.131 330.156 969.77 322.558 972.52 313.985C975.27 305.25 976.643 295.46 976.643 284.622V199.209C976.643 193.224 975.915 186.915 974.459 180.283C973.165 173.65 971.064 167.099 968.153 160.628C965.241 153.996 961.442 147.687 956.751 141.702C952.221 135.717 946.641 130.462 940.008 125.933C933.538 121.403 926.016 117.764 917.442 115.014C908.869 112.264 899.163 110.891 888.325 110.891H774.522ZM1187.26 110.891V373.185H1250.35V110.891H1187.26ZM1397.88 110.891V173.976C1398.04 173.975 1398.2 173.976 1398.36 173.976H1511.67C1519.92 173.976 1526.16 176.077 1530.36 180.283C1534.73 184.488 1536.92 190.964 1536.92 199.699V284.622C1536.92 292.872 1534.81 299.181 1530.6 303.549C1526.4 307.916 1520.09 310.1 1511.67 310.1H1397.88V373.185H1511.67C1517.66 373.185 1523.97 372.541 1530.6 371.247C1537.23 369.791 1543.78 367.607 1550.26 364.695C1556.89 361.783 1563.2 358.06 1569.18 353.531C1575.17 348.84 1580.43 343.259 1584.96 336.788C1589.49 330.156 1593.13 322.558 1595.88 313.985C1598.63 305.25 1600 295.46 1600 284.622V199.209C1600 193.224 1599.27 186.915 1597.82 180.283C1596.52 173.65 1594.42 167.099 1591.51 160.628C1588.6 153.996 1584.79 147.687 1580.1 141.702C1575.57 135.717 1569.99 130.462 1563.36 125.933C1556.89 121.403 1549.37 117.764 1540.79 115.014C1532.22 112.264 1522.51 110.891 1511.67 110.891H1397.88ZM749.044 114.612C744.595 115.837 740.145 117.428 735.696 119.381C729.226 122.293 723 126.092 717.015 130.783C711.03 135.312 705.692 140.893 701 147.526C696.471 153.996 692.831 161.518 690.081 170.091C687.332 178.665 685.959 188.371 685.959 199.209V486.988H749.044V385.857V199.149V114.612ZM1372.4 114.612C1367.95 115.837 1363.5 117.428 1359.05 119.381C1352.58 122.293 1346.36 126.092 1340.37 130.783C1334.39 135.312 1329.05 140.893 1324.36 147.526C1319.83 153.996 1316.19 161.518 1313.44 170.091C1310.69 178.665 1309.31 188.371 1309.31 199.209V486.988H1372.4V400V199.209V114.612Z" fill="#B26CF2"/>
<path d="M788 193V218.5H813.5V244H839V218.5V193H813.5H788ZM813.5 244H788V269.5V295H813.5V269.5V244ZM864.5 193V218.5H890V193H864.5ZM864.5 244V269.5H839V295H864.5H890V269.5V244H864.5Z" fill="#B26CF2"/>
</svg>
