<svg width="370" height="144" viewBox="0 0 370 144" fill="none" xmlns="http://www.w3.org/2000/svg">
<mask id="path-1-inside-1_173_124" fill="white">
<path d="M0 15.8408C0 7.09229 7.09229 0 15.8408 0H134.529V0.000976562C134.53 5.8437 139.668 10.5801 146.006 10.5801C152.344 10.58 157.482 5.84367 157.482 0.000976562L157.481 0L354.159 0C362.908 0 370 7.09229 370 15.8408V128.159C370 136.908 362.908 144 354.159 144L157.481 144C157.481 138.157 152.344 133.421 146.006 133.421C139.668 133.421 134.53 138.157 134.529 144H15.8408C7.09229 144 0 136.908 0 128.159L0 15.8408Z"/>
</mask>
<path d="M0 15.8408C0 7.09229 7.09229 0 15.8408 0H134.529V0.000976562C134.53 5.8437 139.668 10.5801 146.006 10.5801C152.344 10.58 157.482 5.84367 157.482 0.000976562L157.481 0L354.159 0C362.908 0 370 7.09229 370 15.8408V128.159C370 136.908 362.908 144 354.159 144L157.481 144C157.481 138.157 152.344 133.421 146.006 133.421C139.668 133.421 134.53 138.157 134.529 144H15.8408C7.09229 144 0 136.908 0 128.159L0 15.8408Z" fill="white"/>
<path d="M134.529 0H135.529V-1H134.529V0ZM134.529 0.000976562H133.529V0.00102234L134.529 0.000976562ZM146.006 10.5801V11.5801V11.5801V10.5801ZM157.482 0.000976562L158.482 0.00102234L158.482 -0.413223L158.19 -0.706131L157.482 0.000976562ZM157.481 0V-1H155.067L156.774 0.707108L157.481 0ZM157.481 144L156.481 144L156.481 145H157.481V144ZM146.006 133.421V132.421V132.421V133.421ZM134.529 144V145H135.529L135.529 144L134.529 144ZM0 15.8408H1C1 7.64458 7.64458 1 15.8408 1V0V-1C6.54001 -1 -1 6.54001 -1 15.8408H0ZM15.8408 0V1H134.529V0V-1H15.8408V0ZM134.529 0H133.529V0.000976562H134.529H135.529V0H134.529ZM134.529 0.000976562L133.529 0.00102234C133.53 6.47107 139.194 11.5801 146.006 11.5801V10.5801V9.58008C140.142 9.58008 135.53 5.21632 135.529 0.000930786L134.529 0.000976562ZM146.006 10.5801V11.5801C152.818 11.58 158.482 6.47105 158.482 0.00102234L157.482 0.000976562L156.482 0.000930786C156.482 5.21631 151.87 9.58005 146.006 9.58008V10.5801ZM157.482 0.000976562L158.19 -0.706131L158.189 -0.707108L157.481 0L156.774 0.707108L156.775 0.708084L157.482 0.000976562ZM157.481 0V1L354.159 1V0V-1L157.481 -1V0ZM354.159 0V1C362.355 1 369 7.64458 369 15.8408H370H371C371 6.54001 363.46 -1 354.159 -1V0ZM370 15.8408H369V128.159H370H371V15.8408H370ZM370 128.159H369C369 136.355 362.355 143 354.159 143V144V145C363.46 145 371 137.46 371 128.159H370ZM354.159 144V143L157.481 143V144V145L354.159 145V144ZM157.481 144L158.481 144C158.481 137.53 152.818 132.421 146.006 132.421V133.421V134.421C151.87 134.421 156.481 138.785 156.481 144L157.481 144ZM146.006 133.421V132.421C139.194 132.421 133.53 137.53 133.529 144L134.529 144L135.529 144C135.53 138.785 140.142 134.421 146.006 134.421V133.421ZM134.529 144V143H15.8408V144V145H134.529V144ZM15.8408 144V143C7.64458 143 1 136.355 1 128.159H0H-1C-1 137.46 6.54001 145 15.8408 145V144ZM0 128.159H1L1 15.8408H0H-1L-1 128.159H0Z" fill="#CECECE" fill-opacity="0.35" mask="url(#path-1-inside-1_173_124)"/>
</svg>
