<svg width="34" height="34" viewBox="0 0 34 34" fill="none" xmlns="http://www.w3.org/2000/svg">
<g clip-path="url(#clip0_173_144)">
<path d="M12.75 0H0V12.75H12.75V0ZM10.625 10.625H2.125V2.125H10.625V10.625Z" fill="black"/>
<path d="M4.25 4.25H8.5V8.5H4.25V4.25ZM0 34H12.75V21.25H0V34ZM2.125 23.375H10.625V31.875H2.125V23.375Z" fill="black"/>
<path d="M4.25 25.5H8.5V29.75H4.25V25.5ZM21.25 0V12.75H34V0H21.25ZM31.875 10.625H23.375V2.125H31.875V10.625Z" fill="black"/>
<path d="M25.5 4.25H29.75V8.5H25.5V4.25ZM4.25 14.875H0V19.125H6.375V17H4.25V14.875ZM14.875 19.125H19.125V23.375H14.875V19.125ZM6.375 14.875H10.625V17H6.375V14.875ZM19.125 25.5H14.875V27.625H17V29.75H19.125V27.625V25.5ZM12.75 14.875V17H10.625V19.125H14.875V14.875H12.75ZM17 8.5H19.125V12.75H17V8.5ZM19.125 17V19.125H23.375V14.875H17V17H19.125ZM14.875 12.75H17V14.875H14.875V12.75ZM19.125 29.75H23.375V34H19.125V29.75ZM14.875 29.75H17V34H14.875V29.75ZM19.125 23.375H21.25V25.5H19.125V23.375ZM19.125 6.375V2.125H17V0H14.875V8.5H17V6.375H19.125ZM25.5 29.75H27.625V34H25.5V29.75ZM25.5 25.5H29.75V27.625H25.5V25.5ZM23.375 27.625H25.5V29.75H23.375V27.625ZM21.25 25.5H23.375V27.625H21.25V25.5ZM29.75 21.25V23.375H31.875V25.5H34V21.25H31.875H29.75ZM31.875 27.625H29.75V34H34V29.75H31.875V27.625ZM21.25 21.25V23.375H27.625V19.125H23.375V21.25H21.25ZM25.5 14.875V17H29.75V19.125H34V14.875H29.75H25.5Z" fill="black"/>
</g>
<defs>
<clipPath id="clip0_173_144">
<rect width="34" height="34" fill="white"/>
</clipPath>
</defs>
</svg>
