<?xml version="1.0" encoding="UTF-8" standalone="no"?>
<!-- Created with Inkscape (http://www.inkscape.org/) -->

<svg
   width="1077.5112"
   height="154.13095"
   viewBox="0 0 285.09151 40.780481"
   version="1.1"
   id="svg1"
   xmlns="http://www.w3.org/2000/svg"
   xmlns:svg="http://www.w3.org/2000/svg">
  <defs
     id="defs1" />
  <g
     id="g21"
     transform="translate(-1166.4818,-95.500351)">
    <g
       id="g447"
       transform="translate(1147.9896,258.5285)">
      <g
         id="g346"
         transform="translate(0,-285.37412)"
         style="fill:#ffffff">
        <g
           id="g329"
           transform="matrix(0.67088979,0,0,0.67088979,-728.96298,186.82606)"
           style="fill:#ffffff;stroke-width:1.49055">
          <path
             d="m 32.59375,-130.375 h 78.21875 c 4.78125,0 9.15625,1.16797 13.125,3.5 3.96875,2.33594 7.11719,5.48437 9.45312,9.45312 2.33204,3.96875 3.5,8.34375 3.5,13.125 v 78.218755 c 0,4.679687 -1.16796,9 -3.5,12.96875 -2.33593,3.960937 -5.46093,7.136719 -9.37499,9.53125 C 120.10938,-1.191406 115.70703,0 110.8125,0 H 84.75 V 13.03125 H 58.671875 V 0 H 32.59375 c -4.78125,0 -9.15625,-1.164062 -13.125,-3.5 -3.960938,-2.332031 -7.109375,-5.484375 -9.453125,-9.453125 -2.335937,-3.96875 -3.5,-8.34375 -3.5,-13.125 v -78.218755 c 0,-4.78125 1.164063,-9.15625 3.5,-13.125 2.34375,-3.96875 5.492187,-7.11718 9.453125,-9.45312 3.96875,-2.33203 8.34375,-3.5 13.125,-3.5 z M 84.75,-26.07812 h 23.1962 v -78.21876 H 35.460051 v 78.21876 H 58.671875 V -39.245833 H 84.75 Z"
             id="path326"
             style="fill:#ffffff;fill-opacity:1;stroke-width:1.37277"
             transform="matrix(0.34615604,0,0,0.42387038,1111.8697,-183.02276)" />
          <path
             id="path327"
             style="fill:#ffffff;fill-opacity:1;stroke-width:1.24938"
             d="m -405.60476,-130.37459 v 24.17953 h 24.64455 59.59704 v 37.42201 h -59.59704 -24.64455 v 68.74579536 h 24.64455 V -44.608149 h 21.90064 l 32.49668,44.60040086 32.35571,0.00731494 -32.76254,-44.6077158 h 9.18761 c 3.9029,0 7.47386,-1.079485 10.71352,-3.245395 3.23966,-2.162288 5.81054,-5.077256 7.71734,-8.749886 1.90362,-3.679874 2.85645,-7.736386 2.85645,-12.16962 v -37.42201 c 0,-4.43323 -0.95283,-8.48975 -2.85645,-12.16962 -1.9068,-3.67987 -4.47768,-6.5986 -7.71734,-8.76451 -3.23966,-2.16228 -6.81062,-3.2454 -10.71352,-3.2454 z"
             transform="matrix(0.41790625,0,0,0.42387038,1336.3488,-183.02276)" />
          <path
             d="m -327.24305,-130.375 v 23.9595 h -72.06464 v 27.711253 h 54.38124 v 25.930043 h -54.38124 v 26.696084 h 72.06464 V 0 h -77.43681 c -3.54991,0 -6.7982,-1.1680028 -9.74486,-3.5118491 -2.94086,-2.339926 -5.27846,-5.5029421 -7.01862,-9.4851289 -1.73435,-3.982186 -2.59863,-8.371997 -2.59863,-13.169434 V -103.9879 c 0,-4.8379 0.86428,-9.26473 2.59863,-13.28051 1.74016,-4.01577 4.07776,-7.2015 7.01862,-9.56511 2.94666,-2.35968 6.19495,-3.54148 9.74486,-3.54148 z"
             id="path328"
             style="fill:#ffffff;fill-opacity:1;stroke-width:1.24938"
             transform="matrix(0.41790625,0,0,0.42387038,1396.2832,-183.02276)" />
          <path
             d="M -334.01348,-26.07812 V -130.375 h 26.45634 v 104.10959 c 0,4.815587 -1.33528,9.222007 -4.00139,13.21926 -2.67057,3.9972519 -6.27004,7.1722351 -10.80734,9.521014 C -326.90316,-1.1724219 -331.9049,0 -337.37109,0 h -89.42402 c -5.46619,0 -10.46793,-1.1724219 -15.00523,-3.525136 -4.52835,-2.3487789 -8.12783,-5.5237621 -10.80733,-9.521014 -2.67058,-3.997253 -4.00139,-8.403673 -4.00139,-13.21926 V -130.375 h 26.2325 v 104.29688 h 34.73846 V -130.375 h 26.68019 v 104.29688 z"
             id="path329"
             style="fill:#ffffff;fill-opacity:1;stroke-width:1.24938"
             transform="matrix(0.41790625,0,0,0.42387038,1456.2176,-183.02276)" />
        </g>
        <g
           id="g345"
           transform="matrix(0.27157493,0,0,0.27157493,125.93468,-65.028853)"
           style="fill:#5e30a5;fill-opacity:1;stroke-width:1.29869;stroke-dasharray:none">
          <path
             d="m 174.84197,345.5604 h 26.875 c 1.64454,0 3.14454,0.40235 4.5,1.20313 1.36329,0.80469 2.44532,1.88672 3.25,3.25 0.8125,1.36719 1.21875,2.86719 1.21875,4.5 v 35.84375 h -8.96875 V 372.4354 h -26.875 v 17.92188 h -8.96875 v -35.84375 c 0,-1.63281 0.39844,-3.13281 1.20313,-4.5 0.80078,-1.36328 1.88281,-2.44531 3.25,-3.25 1.36328,-0.80078 2.86719,-1.20313 4.51562,-1.20313 z m 0,8.95313 v 8.96875 h 26.875 v -8.96875 z m 0,0"
             id="path330"
             style="fill:#5e30a5;fill-opacity:1;stroke-width:1.29869;stroke-dasharray:none" />
          <path
             d="m 259.95884,390.35728 h -35.84375 c -1.64843,0 -3.15234,-0.39844 -4.51562,-1.20313 -1.36719,-0.80078 -2.44922,-1.88281 -3.25,-3.25 -0.80469,-1.36328 -1.20313,-2.86328 -1.20313,-4.5 v -26.89062 c 0,-1.63281 0.39844,-3.13281 1.20313,-4.5 0.80078,-1.36328 1.88281,-2.44531 3.25,-3.25 1.36328,-0.80078 2.86719,-1.20313 4.51562,-1.20313 h 35.84375 v 8.95313 h -35.84375 v 26.89062 h 35.84375 z m 0,0"
             id="path331"
             style="fill:#5e30a5;fill-opacity:1;stroke-width:1.29869;stroke-dasharray:none" />
          <path
             d="m 309.23196,390.35728 h -35.84375 c -1.64843,0 -3.15234,-0.39844 -4.51562,-1.20313 -1.36719,-0.80078 -2.44922,-1.88281 -3.25,-3.25 -0.80469,-1.36328 -1.20313,-2.86328 -1.20313,-4.5 v -26.89062 c 0,-1.63281 0.39844,-3.13281 1.20313,-4.5 0.80078,-1.36328 1.88281,-2.44531 3.25,-3.25 1.36328,-0.80078 2.86719,-1.20313 4.51562,-1.20313 h 35.84375 v 8.95313 h -35.84375 v 26.89062 h 35.84375 z m 0,0"
             id="path332"
             style="fill:#5e30a5;fill-opacity:1;stroke-width:1.29869;stroke-dasharray:none" />
          <path
             d="m 358.50507,345.5604 v 8.95313 h -35.84375 v 8.96875 h 35.84375 v 8.95312 h -35.84375 v 8.96875 h 35.84375 v 8.95313 h -35.84375 c -1.64843,0 -3.15234,-0.39844 -4.51562,-1.20313 -1.36719,-0.80078 -2.44922,-1.88281 -3.25,-3.25 -0.80469,-1.36328 -1.20313,-2.86328 -1.20313,-4.5 v -26.89062 c 0,-1.63281 0.39844,-3.13281 1.20313,-4.5 0.80078,-1.36328 1.88281,-2.44531 3.25,-3.25 1.36328,-0.80078 2.86719,-1.20313 4.51562,-1.20313 z m 0,0"
             id="path333"
             style="fill:#5e30a5;fill-opacity:1;stroke-width:1.29869;stroke-dasharray:none" />
          <path
             d="m 407.77819,345.5604 v 8.95313 h -35.84375 v 8.96875 h 26.875 c 1.64454,0 3.14454,0.40234 4.5,1.20312 1.36329,0.80469 2.44532,1.88672 3.25,3.25 0.8125,1.35547 1.21875,2.85547 1.21875,4.5 v 8.96875 c 0,1.63672 -0.40625,3.13672 -1.21875,4.5 -0.80468,1.36719 -1.88671,2.44922 -3.25,3.25 -1.35546,0.80469 -2.85546,1.20313 -4.5,1.20313 h -35.84375 v -8.95313 h 35.84375 v -8.96875 h -26.875 c -1.64843,0 -3.15234,-0.39843 -4.51562,-1.20312 -1.36719,-0.80078 -2.44922,-1.88281 -3.25,-3.25 -0.80469,-1.36328 -1.20313,-2.86328 -1.20313,-4.5 v -8.96875 c 0,-1.63281 0.39844,-3.13281 1.20313,-4.5 0.80078,-1.36328 1.88281,-2.44531 3.25,-3.25 1.36328,-0.80078 2.86719,-1.20313 4.51562,-1.20313 z m 0,0"
             id="path334"
             style="fill:#5e30a5;fill-opacity:1;stroke-width:1.29869;stroke-dasharray:none" />
          <path
             d="m 448.08258,390.35728 h -26.875 c -1.64844,0 -3.15235,-0.39844 -4.51563,-1.20313 -1.36719,-0.80078 -2.44922,-1.88281 -3.25,-3.25 -0.80469,-1.36328 -1.20312,-2.86328 -1.20312,-4.5 v -26.89062 c 0,-1.63281 0.39843,-3.13281 1.20312,-4.5 0.80078,-1.36328 1.88281,-2.44531 3.25,-3.25 1.36328,-0.80078 2.86719,-1.20313 4.51563,-1.20313 h 26.875 c 1.64453,0 3.14453,0.40235 4.5,1.20313 1.36328,0.80469 2.44531,1.88672 3.25,3.25 0.8125,1.36719 1.21875,2.86719 1.21875,4.5 v 26.89062 c 0,1.60547 -0.40625,3.08985 -1.21875,4.45313 -0.80469,1.35547 -1.875,2.44531 -3.21875,3.26562 -1.34375,0.82422 -2.85547,1.23438 -4.53125,1.23438 z m -26.875,-35.84375 v 26.89062 h 26.875 v -26.89062 z m 0,0"
             id="path335"
             style="fill:#5e30a5;fill-opacity:1;stroke-width:1.29869;stroke-dasharray:none" />
          <path
             d="m 174.84197,423.5604 h 26.875 c 1.64454,0 3.14454,0.40234 4.5,1.20312 1.36329,0.80469 2.44532,1.88672 3.25,3.25 0.8125,1.36719 1.21875,2.86719 1.21875,4.5 v 35.84375 h -8.96875 V 450.4354 h -26.875 v 17.92187 h -8.96875 v -35.84375 c 0,-1.63281 0.39844,-3.13281 1.20313,-4.5 0.80078,-1.36328 1.88281,-2.44531 3.25,-3.25 1.36328,-0.80078 2.86719,-1.20312 4.51562,-1.20312 z m 0,8.95312 v 8.96875 h 26.875 v -8.96875 z m 0,0"
             id="path336"
             style="fill:#5e30a5;fill-opacity:1;stroke-width:1.29869;stroke-dasharray:none" />
          <path
             d="m 224.11509,468.35727 h -8.96875 v -40.3125 c 0,-1.23828 0.4375,-2.29687 1.3125,-3.17187 0.88282,-0.875 1.94141,-1.3125 3.17188,-1.3125 1.22656,0 2.28906,0.44921 3.1875,1.34375 l 28.17187,28.17187 V 423.5604 h 8.96875 v 40.3125 c 0,1.24218 -0.44531,2.29687 -1.32812,3.17187 -0.875,0.875 -1.92969,1.3125 -3.15625,1.3125 -1.23047,0 -2.29297,-0.44531 -3.1875,-1.34375 l -28.17188,-28.17187 z m 0,0"
             id="path337"
             style="fill:#5e30a5;fill-opacity:1;stroke-width:1.29869;stroke-dasharray:none" />
          <path
             d="m 309.23196,423.5604 v 8.95312 h -17.92187 v 35.84375 h -8.96875 v -35.84375 h -17.92188 v -8.95312 z m 0,0"
             id="path338"
             style="fill:#5e30a5;fill-opacity:1;stroke-width:1.29869;stroke-dasharray:none" />
          <path
             d="m 358.50507,468.35727 h -44.8125 v -8.95312 h 17.92188 v -26.89063 h -17.92188 v -8.95312 h 44.8125 v 8.95312 H 340.5832 v 26.89063 h 17.92187 z m 0,0"
             id="path339"
             style="fill:#5e30a5;fill-opacity:1;stroke-width:1.29869;stroke-dasharray:none" />
          <path
             d="m 407.77819,468.35727 h -35.84375 c -1.64843,0 -3.15234,-0.39844 -4.51562,-1.20312 -1.36719,-0.80079 -2.44922,-1.88282 -3.25,-3.25 -0.80469,-1.36329 -1.20313,-2.86329 -1.20313,-4.5 v -26.89063 c 0,-1.63281 0.39844,-3.13281 1.20313,-4.5 0.80078,-1.36328 1.88281,-2.44531 3.25,-3.25 1.36328,-0.80078 2.86719,-1.20312 4.51562,-1.20312 h 35.84375 v 8.95312 h -35.84375 v 26.89063 h 35.84375 z m 0,0"
             id="path340"
             style="fill:#5e30a5;fill-opacity:1;stroke-width:1.29869;stroke-dasharray:none" />
          <path
             d="m 457.05133,468.35727 h -44.8125 v -8.95312 h 17.92187 v -26.89063 h -17.92187 v -8.95312 h 44.8125 v 8.95312 h -17.92188 v 26.89063 h 17.92188 z m 0,0"
             id="path341"
             style="fill:#5e30a5;fill-opacity:1;stroke-width:1.29869;stroke-dasharray:none" />
          <path
             d="m 497.35568,423.5604 c 1.64454,0 3.14454,0.40234 4.5,1.20312 1.36329,0.80469 2.44532,1.88672 3.25,3.25 0.8125,1.36719 1.21875,2.86719 1.21875,4.5 v 8.96875 c 0,1.63672 -0.40625,3.13672 -1.21875,4.5 -0.80468,1.36719 -1.88671,2.44922 -3.25,3.25 -1.35546,0.80469 -2.85546,1.20313 -4.5,1.20313 h -26.875 v 17.92187 h -8.96875 V 423.5604 Z m -26.875,17.92187 h 26.875 v -8.96875 h -26.875 z m 0,0"
             id="path342"
             style="fill:#5e30a5;fill-opacity:1;stroke-width:1.29869;stroke-dasharray:none" />
          <path
             d="m 519.7538,423.5604 h 26.875 c 1.64453,0 3.14453,0.40234 4.5,1.20312 1.36328,0.80469 2.44531,1.88672 3.25,3.25 0.8125,1.36719 1.21875,2.86719 1.21875,4.5 v 35.84375 H 546.6288 V 450.4354 h -26.875 v 17.92187 h -8.96875 v -35.84375 c 0,-1.63281 0.39843,-3.13281 1.20312,-4.5 0.80078,-1.36328 1.88281,-2.44531 3.25,-3.25 1.36328,-0.80078 2.86719,-1.20312 4.51563,-1.20312 z m 0,8.95312 v 8.96875 h 26.875 v -8.96875 z m 0,0"
             id="path343"
             style="fill:#5e30a5;fill-opacity:1;stroke-width:1.29869;stroke-dasharray:none" />
          <path
             d="M 595.90192,468.35727 H 560.05817 V 423.5604 h 35.84375 c 1.64454,0 3.14454,0.40234 4.5,1.20312 1.36329,0.80469 2.44532,1.88672 3.25,3.25 0.8125,1.36719 1.21875,2.86719 1.21875,4.5 v 26.89063 c 0,1.63671 -0.40625,3.13671 -1.21875,4.5 -0.80468,1.36718 -1.88671,2.44921 -3.25,3.25 -1.35546,0.80468 -2.85546,1.20312 -4.5,1.20312 z m -26.875,-35.84375 v 26.89063 h 26.875 v -26.89063 z m 0,0"
             id="path344"
             style="fill:#5e30a5;fill-opacity:1;stroke-width:1.29869;stroke-dasharray:none" />
          <path
             d="m 645.17506,468.35727 h -26.875 c -1.64844,0 -3.15235,-0.39844 -4.51563,-1.20312 -1.36719,-0.80079 -2.44922,-1.88282 -3.25,-3.25 -0.80469,-1.36329 -1.20312,-2.86329 -1.20312,-4.5 v -26.89063 c 0,-1.63281 0.39843,-3.13281 1.20312,-4.5 0.80078,-1.36328 1.88281,-2.44531 3.25,-3.25 1.36328,-0.80078 2.86719,-1.20312 4.51563,-1.20312 h 26.875 c 1.64453,0 3.14453,0.40234 4.5,1.20312 1.36328,0.80469 2.44531,1.88672 3.25,3.25 0.8125,1.36719 1.21875,2.86719 1.21875,4.5 v 26.89063 c 0,1.60546 -0.40625,3.08984 -1.21875,4.45312 -0.80469,1.35547 -1.875,2.44531 -3.21875,3.26563 -1.34375,0.82421 -2.85547,1.23437 -4.53125,1.23437 z m -26.875,-35.84375 v 26.89063 h 26.875 v -26.89063 z m 0,0"
             id="path345"
             style="fill:#5e30a5;fill-opacity:1;stroke-width:1.29869;stroke-dasharray:none" />
        </g>
      </g>
      <g
         id="g366"
         transform="translate(0,-189.99133)"
         style="fill:#ffffff">
        <g
           id="g349"
           transform="matrix(0.67088979,0,0,0.67088979,-728.96298,186.82606)"
           style="fill:#ffffff;stroke-width:1.49055">
          <path
             d="m 32.59375,-130.375 h 78.21875 c 4.78125,0 9.15625,1.16797 13.125,3.5 3.96875,2.33594 7.11719,5.48437 9.45312,9.45312 2.33204,3.96875 3.5,8.34375 3.5,13.125 v 78.218755 c 0,4.679687 -1.16796,9 -3.5,12.96875 -2.33593,3.960937 -5.46093,7.136719 -9.37499,9.53125 C 120.10938,-1.191406 115.70703,0 110.8125,0 H 84.75 V 13.03125 H 58.671875 V 0 H 32.59375 c -4.78125,0 -9.15625,-1.164062 -13.125,-3.5 -3.960938,-2.332031 -7.109375,-5.484375 -9.453125,-9.453125 -2.335937,-3.96875 -3.5,-8.34375 -3.5,-13.125 v -78.218755 c 0,-4.78125 1.164063,-9.15625 3.5,-13.125 2.34375,-3.96875 5.492187,-7.11718 9.453125,-9.45312 3.96875,-2.33203 8.34375,-3.5 13.125,-3.5 z M 84.75,-26.07812 h 23.1962 v -78.21876 H 35.460051 v 78.21876 H 58.671875 V -39.245833 H 84.75 Z"
             id="path346"
             style="fill:#5e30a5;fill-opacity:1;stroke-width:1.37277"
             transform="matrix(0.34615604,0,0,0.42387038,1111.8697,-183.02276)" />
          <path
             id="path347"
             style="fill:#5e30a5;fill-opacity:1;stroke-width:1.24938"
             d="m -405.60476,-130.37459 v 24.17953 h 24.64455 59.59704 v 37.42201 h -59.59704 -24.64455 v 68.74579536 h 24.64455 V -44.608149 h 21.90064 l 32.49668,44.60040086 32.35571,0.00731494 -32.76254,-44.6077158 h 9.18761 c 3.9029,0 7.47386,-1.079485 10.71352,-3.245395 3.23966,-2.162288 5.81054,-5.077256 7.71734,-8.749886 1.90362,-3.679874 2.85645,-7.736386 2.85645,-12.16962 v -37.42201 c 0,-4.43323 -0.95283,-8.48975 -2.85645,-12.16962 -1.9068,-3.67987 -4.47768,-6.5986 -7.71734,-8.76451 -3.23966,-2.16228 -6.81062,-3.2454 -10.71352,-3.2454 z"
             transform="matrix(0.41790625,0,0,0.42387038,1336.3488,-183.02276)" />
          <path
             d="m -327.24305,-130.375 v 23.9595 h -72.06464 v 27.711253 h 54.38124 v 25.930043 h -54.38124 v 26.696084 h 72.06464 V 0 h -77.43681 c -3.54991,0 -6.7982,-1.1680028 -9.74486,-3.5118491 -2.94086,-2.339926 -5.27846,-5.5029421 -7.01862,-9.4851289 -1.73435,-3.982186 -2.59863,-8.371997 -2.59863,-13.169434 V -103.9879 c 0,-4.8379 0.86428,-9.26473 2.59863,-13.28051 1.74016,-4.01577 4.07776,-7.2015 7.01862,-9.56511 2.94666,-2.35968 6.19495,-3.54148 9.74486,-3.54148 z"
             id="path348"
             style="fill:#5e30a5;fill-opacity:1;stroke-width:1.24938"
             transform="matrix(0.41790625,0,0,0.42387038,1396.2832,-183.02276)" />
          <path
             d="M -334.01348,-26.07812 V -130.375 h 26.45634 v 104.10959 c 0,4.815587 -1.33528,9.222007 -4.00139,13.21926 -2.67057,3.9972519 -6.27004,7.1722351 -10.80734,9.521014 C -326.90316,-1.1724219 -331.9049,0 -337.37109,0 h -89.42402 c -5.46619,0 -10.46793,-1.1724219 -15.00523,-3.525136 -4.52835,-2.3487789 -8.12783,-5.5237621 -10.80733,-9.521014 -2.67058,-3.997253 -4.00139,-8.403673 -4.00139,-13.21926 V -130.375 h 26.2325 v 104.29688 h 34.73846 V -130.375 h 26.68019 v 104.29688 z"
             id="path349"
             style="fill:#5e30a5;fill-opacity:1;stroke-width:1.24938"
             transform="matrix(0.41790625,0,0,0.42387038,1456.2176,-183.02276)" />
        </g>
        <g
           id="g365"
           transform="matrix(0.27157493,0,0,0.27157493,125.93468,-65.028853)"
           style="fill:#ffffff;fill-opacity:1;stroke-width:1.29869;stroke-dasharray:none">
          <path
             d="m 174.84197,345.5604 h 26.875 c 1.64454,0 3.14454,0.40235 4.5,1.20313 1.36329,0.80469 2.44532,1.88672 3.25,3.25 0.8125,1.36719 1.21875,2.86719 1.21875,4.5 v 35.84375 h -8.96875 V 372.4354 h -26.875 v 17.92188 h -8.96875 v -35.84375 c 0,-1.63281 0.39844,-3.13281 1.20313,-4.5 0.80078,-1.36328 1.88281,-2.44531 3.25,-3.25 1.36328,-0.80078 2.86719,-1.20313 4.51562,-1.20313 z m 0,8.95313 v 8.96875 h 26.875 v -8.96875 z m 0,0"
             id="path350"
             style="fill:#ffffff;fill-opacity:1;stroke-width:1.29869;stroke-dasharray:none" />
          <path
             d="m 259.95884,390.35728 h -35.84375 c -1.64843,0 -3.15234,-0.39844 -4.51562,-1.20313 -1.36719,-0.80078 -2.44922,-1.88281 -3.25,-3.25 -0.80469,-1.36328 -1.20313,-2.86328 -1.20313,-4.5 v -26.89062 c 0,-1.63281 0.39844,-3.13281 1.20313,-4.5 0.80078,-1.36328 1.88281,-2.44531 3.25,-3.25 1.36328,-0.80078 2.86719,-1.20313 4.51562,-1.20313 h 35.84375 v 8.95313 h -35.84375 v 26.89062 h 35.84375 z m 0,0"
             id="path351"
             style="fill:#ffffff;fill-opacity:1;stroke-width:1.29869;stroke-dasharray:none" />
          <path
             d="m 309.23196,390.35728 h -35.84375 c -1.64843,0 -3.15234,-0.39844 -4.51562,-1.20313 -1.36719,-0.80078 -2.44922,-1.88281 -3.25,-3.25 -0.80469,-1.36328 -1.20313,-2.86328 -1.20313,-4.5 v -26.89062 c 0,-1.63281 0.39844,-3.13281 1.20313,-4.5 0.80078,-1.36328 1.88281,-2.44531 3.25,-3.25 1.36328,-0.80078 2.86719,-1.20313 4.51562,-1.20313 h 35.84375 v 8.95313 h -35.84375 v 26.89062 h 35.84375 z m 0,0"
             id="path352"
             style="fill:#ffffff;fill-opacity:1;stroke-width:1.29869;stroke-dasharray:none" />
          <path
             d="m 358.50507,345.5604 v 8.95313 h -35.84375 v 8.96875 h 35.84375 v 8.95312 h -35.84375 v 8.96875 h 35.84375 v 8.95313 h -35.84375 c -1.64843,0 -3.15234,-0.39844 -4.51562,-1.20313 -1.36719,-0.80078 -2.44922,-1.88281 -3.25,-3.25 -0.80469,-1.36328 -1.20313,-2.86328 -1.20313,-4.5 v -26.89062 c 0,-1.63281 0.39844,-3.13281 1.20313,-4.5 0.80078,-1.36328 1.88281,-2.44531 3.25,-3.25 1.36328,-0.80078 2.86719,-1.20313 4.51562,-1.20313 z m 0,0"
             id="path353"
             style="fill:#ffffff;fill-opacity:1;stroke-width:1.29869;stroke-dasharray:none" />
          <path
             d="m 407.77819,345.5604 v 8.95313 h -35.84375 v 8.96875 h 26.875 c 1.64454,0 3.14454,0.40234 4.5,1.20312 1.36329,0.80469 2.44532,1.88672 3.25,3.25 0.8125,1.35547 1.21875,2.85547 1.21875,4.5 v 8.96875 c 0,1.63672 -0.40625,3.13672 -1.21875,4.5 -0.80468,1.36719 -1.88671,2.44922 -3.25,3.25 -1.35546,0.80469 -2.85546,1.20313 -4.5,1.20313 h -35.84375 v -8.95313 h 35.84375 v -8.96875 h -26.875 c -1.64843,0 -3.15234,-0.39843 -4.51562,-1.20312 -1.36719,-0.80078 -2.44922,-1.88281 -3.25,-3.25 -0.80469,-1.36328 -1.20313,-2.86328 -1.20313,-4.5 v -8.96875 c 0,-1.63281 0.39844,-3.13281 1.20313,-4.5 0.80078,-1.36328 1.88281,-2.44531 3.25,-3.25 1.36328,-0.80078 2.86719,-1.20313 4.51562,-1.20313 z m 0,0"
             id="path354"
             style="fill:#ffffff;fill-opacity:1;stroke-width:1.29869;stroke-dasharray:none" />
          <path
             d="m 448.08258,390.35728 h -26.875 c -1.64844,0 -3.15235,-0.39844 -4.51563,-1.20313 -1.36719,-0.80078 -2.44922,-1.88281 -3.25,-3.25 -0.80469,-1.36328 -1.20312,-2.86328 -1.20312,-4.5 v -26.89062 c 0,-1.63281 0.39843,-3.13281 1.20312,-4.5 0.80078,-1.36328 1.88281,-2.44531 3.25,-3.25 1.36328,-0.80078 2.86719,-1.20313 4.51563,-1.20313 h 26.875 c 1.64453,0 3.14453,0.40235 4.5,1.20313 1.36328,0.80469 2.44531,1.88672 3.25,3.25 0.8125,1.36719 1.21875,2.86719 1.21875,4.5 v 26.89062 c 0,1.60547 -0.40625,3.08985 -1.21875,4.45313 -0.80469,1.35547 -1.875,2.44531 -3.21875,3.26562 -1.34375,0.82422 -2.85547,1.23438 -4.53125,1.23438 z m -26.875,-35.84375 v 26.89062 h 26.875 v -26.89062 z m 0,0"
             id="path355"
             style="fill:#ffffff;fill-opacity:1;stroke-width:1.29869;stroke-dasharray:none" />
          <path
             d="m 174.84197,423.5604 h 26.875 c 1.64454,0 3.14454,0.40234 4.5,1.20312 1.36329,0.80469 2.44532,1.88672 3.25,3.25 0.8125,1.36719 1.21875,2.86719 1.21875,4.5 v 35.84375 h -8.96875 V 450.4354 h -26.875 v 17.92187 h -8.96875 v -35.84375 c 0,-1.63281 0.39844,-3.13281 1.20313,-4.5 0.80078,-1.36328 1.88281,-2.44531 3.25,-3.25 1.36328,-0.80078 2.86719,-1.20312 4.51562,-1.20312 z m 0,8.95312 v 8.96875 h 26.875 v -8.96875 z m 0,0"
             id="path356"
             style="fill:#ffffff;fill-opacity:1;stroke-width:1.29869;stroke-dasharray:none" />
          <path
             d="m 224.11509,468.35727 h -8.96875 v -40.3125 c 0,-1.23828 0.4375,-2.29687 1.3125,-3.17187 0.88282,-0.875 1.94141,-1.3125 3.17188,-1.3125 1.22656,0 2.28906,0.44921 3.1875,1.34375 l 28.17187,28.17187 V 423.5604 h 8.96875 v 40.3125 c 0,1.24218 -0.44531,2.29687 -1.32812,3.17187 -0.875,0.875 -1.92969,1.3125 -3.15625,1.3125 -1.23047,0 -2.29297,-0.44531 -3.1875,-1.34375 l -28.17188,-28.17187 z m 0,0"
             id="path357"
             style="fill:#ffffff;fill-opacity:1;stroke-width:1.29869;stroke-dasharray:none" />
          <path
             d="m 309.23196,423.5604 v 8.95312 h -17.92187 v 35.84375 h -8.96875 v -35.84375 h -17.92188 v -8.95312 z m 0,0"
             id="path358"
             style="fill:#ffffff;fill-opacity:1;stroke-width:1.29869;stroke-dasharray:none" />
          <path
             d="m 358.50507,468.35727 h -44.8125 v -8.95312 h 17.92188 v -26.89063 h -17.92188 v -8.95312 h 44.8125 v 8.95312 H 340.5832 v 26.89063 h 17.92187 z m 0,0"
             id="path359"
             style="fill:#ffffff;fill-opacity:1;stroke-width:1.29869;stroke-dasharray:none" />
          <path
             d="m 407.77819,468.35727 h -35.84375 c -1.64843,0 -3.15234,-0.39844 -4.51562,-1.20312 -1.36719,-0.80079 -2.44922,-1.88282 -3.25,-3.25 -0.80469,-1.36329 -1.20313,-2.86329 -1.20313,-4.5 v -26.89063 c 0,-1.63281 0.39844,-3.13281 1.20313,-4.5 0.80078,-1.36328 1.88281,-2.44531 3.25,-3.25 1.36328,-0.80078 2.86719,-1.20312 4.51562,-1.20312 h 35.84375 v 8.95312 h -35.84375 v 26.89063 h 35.84375 z m 0,0"
             id="path360"
             style="fill:#ffffff;fill-opacity:1;stroke-width:1.29869;stroke-dasharray:none" />
          <path
             d="m 457.05133,468.35727 h -44.8125 v -8.95312 h 17.92187 v -26.89063 h -17.92187 v -8.95312 h 44.8125 v 8.95312 h -17.92188 v 26.89063 h 17.92188 z m 0,0"
             id="path361"
             style="fill:#ffffff;fill-opacity:1;stroke-width:1.29869;stroke-dasharray:none" />
          <path
             d="m 497.35568,423.5604 c 1.64454,0 3.14454,0.40234 4.5,1.20312 1.36329,0.80469 2.44532,1.88672 3.25,3.25 0.8125,1.36719 1.21875,2.86719 1.21875,4.5 v 8.96875 c 0,1.63672 -0.40625,3.13672 -1.21875,4.5 -0.80468,1.36719 -1.88671,2.44922 -3.25,3.25 -1.35546,0.80469 -2.85546,1.20313 -4.5,1.20313 h -26.875 v 17.92187 h -8.96875 V 423.5604 Z m -26.875,17.92187 h 26.875 v -8.96875 h -26.875 z m 0,0"
             id="path362"
             style="fill:#ffffff;fill-opacity:1;stroke-width:1.29869;stroke-dasharray:none" />
          <path
             d="m 519.7538,423.5604 h 26.875 c 1.64453,0 3.14453,0.40234 4.5,1.20312 1.36328,0.80469 2.44531,1.88672 3.25,3.25 0.8125,1.36719 1.21875,2.86719 1.21875,4.5 v 35.84375 H 546.6288 V 450.4354 h -26.875 v 17.92187 h -8.96875 v -35.84375 c 0,-1.63281 0.39843,-3.13281 1.20312,-4.5 0.80078,-1.36328 1.88281,-2.44531 3.25,-3.25 1.36328,-0.80078 2.86719,-1.20312 4.51563,-1.20312 z m 0,8.95312 v 8.96875 h 26.875 v -8.96875 z m 0,0"
             id="path363"
             style="fill:#ffffff;fill-opacity:1;stroke-width:1.29869;stroke-dasharray:none" />
          <path
             d="M 595.90192,468.35727 H 560.05817 V 423.5604 h 35.84375 c 1.64454,0 3.14454,0.40234 4.5,1.20312 1.36329,0.80469 2.44532,1.88672 3.25,3.25 0.8125,1.36719 1.21875,2.86719 1.21875,4.5 v 26.89063 c 0,1.63671 -0.40625,3.13671 -1.21875,4.5 -0.80468,1.36718 -1.88671,2.44921 -3.25,3.25 -1.35546,0.80468 -2.85546,1.20312 -4.5,1.20312 z m -26.875,-35.84375 v 26.89063 h 26.875 v -26.89063 z m 0,0"
             id="path364"
             style="fill:#ffffff;fill-opacity:1;stroke-width:1.29869;stroke-dasharray:none" />
          <path
             d="m 645.17506,468.35727 h -26.875 c -1.64844,0 -3.15235,-0.39844 -4.51563,-1.20312 -1.36719,-0.80079 -2.44922,-1.88282 -3.25,-3.25 -0.80469,-1.36329 -1.20312,-2.86329 -1.20312,-4.5 v -26.89063 c 0,-1.63281 0.39843,-3.13281 1.20312,-4.5 0.80078,-1.36328 1.88281,-2.44531 3.25,-3.25 1.36328,-0.80078 2.86719,-1.20312 4.51563,-1.20312 h 26.875 c 1.64453,0 3.14453,0.40234 4.5,1.20312 1.36328,0.80469 2.44531,1.88672 3.25,3.25 0.8125,1.36719 1.21875,2.86719 1.21875,4.5 v 26.89063 c 0,1.60546 -0.40625,3.08984 -1.21875,4.45312 -0.80469,1.35547 -1.875,2.44531 -3.21875,3.26563 -1.34375,0.82421 -2.85547,1.23437 -4.53125,1.23437 z m -26.875,-35.84375 v 26.89063 h 26.875 v -26.89063 z m 0,0"
             id="path365"
             style="fill:#ffffff;fill-opacity:1;stroke-width:1.29869;stroke-dasharray:none" />
        </g>
      </g>
      <g
         id="g386"
         transform="translate(0,-98.059649)"
         style="fill:#ffffff">
        <g
           id="g369"
           transform="matrix(0.67088979,0,0,0.67088979,-728.96298,186.82606)"
           style="fill:#ffffff;stroke-width:1.49055">
          <path
             d="m 32.59375,-130.375 h 78.21875 c 4.78125,0 9.15625,1.16797 13.125,3.5 3.96875,2.33594 7.11719,5.48437 9.45312,9.45312 2.33204,3.96875 3.5,8.34375 3.5,13.125 v 78.218755 c 0,4.679687 -1.16796,9 -3.5,12.96875 -2.33593,3.960937 -5.46093,7.136719 -9.37499,9.53125 C 120.10938,-1.191406 115.70703,0 110.8125,0 H 84.75 V 13.03125 H 58.671875 V 0 H 32.59375 c -4.78125,0 -9.15625,-1.164062 -13.125,-3.5 -3.960938,-2.332031 -7.109375,-5.484375 -9.453125,-9.453125 -2.335937,-3.96875 -3.5,-8.34375 -3.5,-13.125 v -78.218755 c 0,-4.78125 1.164063,-9.15625 3.5,-13.125 2.34375,-3.96875 5.492187,-7.11718 9.453125,-9.45312 3.96875,-2.33203 8.34375,-3.5 13.125,-3.5 z M 84.75,-26.07812 h 23.1962 v -78.21876 H 35.460051 v 78.21876 H 58.671875 V -39.245833 H 84.75 Z"
             id="path366"
             style="fill:#5e30a5;fill-opacity:1;stroke-width:1.37277"
             transform="matrix(0.34615604,0,0,0.42387038,1111.8697,-183.02276)" />
          <path
             id="path367"
             style="fill:#5e30a5;fill-opacity:1;stroke-width:1.24938"
             d="m -405.60476,-130.37459 v 24.17953 h 24.64455 59.59704 v 37.42201 h -59.59704 -24.64455 v 68.74579536 h 24.64455 V -44.608149 h 21.90064 l 32.49668,44.60040086 32.35571,0.00731494 -32.76254,-44.6077158 h 9.18761 c 3.9029,0 7.47386,-1.079485 10.71352,-3.245395 3.23966,-2.162288 5.81054,-5.077256 7.71734,-8.749886 1.90362,-3.679874 2.85645,-7.736386 2.85645,-12.16962 v -37.42201 c 0,-4.43323 -0.95283,-8.48975 -2.85645,-12.16962 -1.9068,-3.67987 -4.47768,-6.5986 -7.71734,-8.76451 -3.23966,-2.16228 -6.81062,-3.2454 -10.71352,-3.2454 z"
             transform="matrix(0.41790625,0,0,0.42387038,1336.3488,-183.02276)" />
          <path
             d="m -327.24305,-130.375 v 23.9595 h -72.06464 v 27.711253 h 54.38124 v 25.930043 h -54.38124 v 26.696084 h 72.06464 V 0 h -77.43681 c -3.54991,0 -6.7982,-1.1680028 -9.74486,-3.5118491 -2.94086,-2.339926 -5.27846,-5.5029421 -7.01862,-9.4851289 -1.73435,-3.982186 -2.59863,-8.371997 -2.59863,-13.169434 V -103.9879 c 0,-4.8379 0.86428,-9.26473 2.59863,-13.28051 1.74016,-4.01577 4.07776,-7.2015 7.01862,-9.56511 2.94666,-2.35968 6.19495,-3.54148 9.74486,-3.54148 z"
             id="path368"
             style="fill:#ffffff;fill-opacity:1;stroke-width:1.24938"
             transform="matrix(0.41790625,0,0,0.42387038,1396.2832,-183.02276)" />
          <path
             d="M -334.01348,-26.07812 V -130.375 h 26.45634 v 104.10959 c 0,4.815587 -1.33528,9.222007 -4.00139,13.21926 -2.67057,3.9972519 -6.27004,7.1722351 -10.80734,9.521014 C -326.90316,-1.1724219 -331.9049,0 -337.37109,0 h -89.42402 c -5.46619,0 -10.46793,-1.1724219 -15.00523,-3.525136 -4.52835,-2.3487789 -8.12783,-5.5237621 -10.80733,-9.521014 -2.67058,-3.997253 -4.00139,-8.403673 -4.00139,-13.21926 V -130.375 h 26.2325 v 104.29688 h 34.73846 V -130.375 h 26.68019 v 104.29688 z"
             id="path369"
             style="fill:#ffffff;fill-opacity:1;stroke-width:1.24938"
             transform="matrix(0.41790625,0,0,0.42387038,1456.2176,-183.02276)" />
        </g>
        <g
           id="g385"
           transform="matrix(0.27157493,0,0,0.27157493,125.93468,-65.028853)"
           style="fill:#ffffff;fill-opacity:1;stroke-width:1.29869;stroke-dasharray:none">
          <path
             d="m 174.84197,345.5604 h 26.875 c 1.64454,0 3.14454,0.40235 4.5,1.20313 1.36329,0.80469 2.44532,1.88672 3.25,3.25 0.8125,1.36719 1.21875,2.86719 1.21875,4.5 v 35.84375 h -8.96875 V 372.4354 h -26.875 v 17.92188 h -8.96875 v -35.84375 c 0,-1.63281 0.39844,-3.13281 1.20313,-4.5 0.80078,-1.36328 1.88281,-2.44531 3.25,-3.25 1.36328,-0.80078 2.86719,-1.20313 4.51562,-1.20313 z m 0,8.95313 v 8.96875 h 26.875 v -8.96875 z m 0,0"
             id="path370"
             style="fill:#ffffff;fill-opacity:1;stroke-width:1.29869;stroke-dasharray:none" />
          <path
             d="m 259.95884,390.35728 h -35.84375 c -1.64843,0 -3.15234,-0.39844 -4.51562,-1.20313 -1.36719,-0.80078 -2.44922,-1.88281 -3.25,-3.25 -0.80469,-1.36328 -1.20313,-2.86328 -1.20313,-4.5 v -26.89062 c 0,-1.63281 0.39844,-3.13281 1.20313,-4.5 0.80078,-1.36328 1.88281,-2.44531 3.25,-3.25 1.36328,-0.80078 2.86719,-1.20313 4.51562,-1.20313 h 35.84375 v 8.95313 h -35.84375 v 26.89062 h 35.84375 z m 0,0"
             id="path371"
             style="fill:#ffffff;fill-opacity:1;stroke-width:1.29869;stroke-dasharray:none" />
          <path
             d="m 309.23196,390.35728 h -35.84375 c -1.64843,0 -3.15234,-0.39844 -4.51562,-1.20313 -1.36719,-0.80078 -2.44922,-1.88281 -3.25,-3.25 -0.80469,-1.36328 -1.20313,-2.86328 -1.20313,-4.5 v -26.89062 c 0,-1.63281 0.39844,-3.13281 1.20313,-4.5 0.80078,-1.36328 1.88281,-2.44531 3.25,-3.25 1.36328,-0.80078 2.86719,-1.20313 4.51562,-1.20313 h 35.84375 v 8.95313 h -35.84375 v 26.89062 h 35.84375 z m 0,0"
             id="path372"
             style="fill:#ffffff;fill-opacity:1;stroke-width:1.29869;stroke-dasharray:none" />
          <path
             d="m 358.50507,345.5604 v 8.95313 h -35.84375 v 8.96875 h 35.84375 v 8.95312 h -35.84375 v 8.96875 h 35.84375 v 8.95313 h -35.84375 c -1.64843,0 -3.15234,-0.39844 -4.51562,-1.20313 -1.36719,-0.80078 -2.44922,-1.88281 -3.25,-3.25 -0.80469,-1.36328 -1.20313,-2.86328 -1.20313,-4.5 v -26.89062 c 0,-1.63281 0.39844,-3.13281 1.20313,-4.5 0.80078,-1.36328 1.88281,-2.44531 3.25,-3.25 1.36328,-0.80078 2.86719,-1.20313 4.51562,-1.20313 z m 0,0"
             id="path373"
             style="fill:#ffffff;fill-opacity:1;stroke-width:1.29869;stroke-dasharray:none" />
          <path
             d="m 407.77819,345.5604 v 8.95313 h -35.84375 v 8.96875 h 26.875 c 1.64454,0 3.14454,0.40234 4.5,1.20312 1.36329,0.80469 2.44532,1.88672 3.25,3.25 0.8125,1.35547 1.21875,2.85547 1.21875,4.5 v 8.96875 c 0,1.63672 -0.40625,3.13672 -1.21875,4.5 -0.80468,1.36719 -1.88671,2.44922 -3.25,3.25 -1.35546,0.80469 -2.85546,1.20313 -4.5,1.20313 h -35.84375 v -8.95313 h 35.84375 v -8.96875 h -26.875 c -1.64843,0 -3.15234,-0.39843 -4.51562,-1.20312 -1.36719,-0.80078 -2.44922,-1.88281 -3.25,-3.25 -0.80469,-1.36328 -1.20313,-2.86328 -1.20313,-4.5 v -8.96875 c 0,-1.63281 0.39844,-3.13281 1.20313,-4.5 0.80078,-1.36328 1.88281,-2.44531 3.25,-3.25 1.36328,-0.80078 2.86719,-1.20313 4.51562,-1.20313 z m 0,0"
             id="path374"
             style="fill:#ffffff;fill-opacity:1;stroke-width:1.29869;stroke-dasharray:none" />
          <path
             d="m 448.08258,390.35728 h -26.875 c -1.64844,0 -3.15235,-0.39844 -4.51563,-1.20313 -1.36719,-0.80078 -2.44922,-1.88281 -3.25,-3.25 -0.80469,-1.36328 -1.20312,-2.86328 -1.20312,-4.5 v -26.89062 c 0,-1.63281 0.39843,-3.13281 1.20312,-4.5 0.80078,-1.36328 1.88281,-2.44531 3.25,-3.25 1.36328,-0.80078 2.86719,-1.20313 4.51563,-1.20313 h 26.875 c 1.64453,0 3.14453,0.40235 4.5,1.20313 1.36328,0.80469 2.44531,1.88672 3.25,3.25 0.8125,1.36719 1.21875,2.86719 1.21875,4.5 v 26.89062 c 0,1.60547 -0.40625,3.08985 -1.21875,4.45313 -0.80469,1.35547 -1.875,2.44531 -3.21875,3.26562 -1.34375,0.82422 -2.85547,1.23438 -4.53125,1.23438 z m -26.875,-35.84375 v 26.89062 h 26.875 v -26.89062 z m 0,0"
             id="path375"
             style="fill:#ffffff;fill-opacity:1;stroke-width:1.29869;stroke-dasharray:none" />
          <path
             d="m 174.84197,423.5604 h 26.875 c 1.64454,0 3.14454,0.40234 4.5,1.20312 1.36329,0.80469 2.44532,1.88672 3.25,3.25 0.8125,1.36719 1.21875,2.86719 1.21875,4.5 v 35.84375 h -8.96875 V 450.4354 h -26.875 v 17.92187 h -8.96875 v -35.84375 c 0,-1.63281 0.39844,-3.13281 1.20313,-4.5 0.80078,-1.36328 1.88281,-2.44531 3.25,-3.25 1.36328,-0.80078 2.86719,-1.20312 4.51562,-1.20312 z m 0,8.95312 v 8.96875 h 26.875 v -8.96875 z m 0,0"
             id="path376"
             style="fill:#ffffff;fill-opacity:1;stroke-width:1.29869;stroke-dasharray:none" />
          <path
             d="m 224.11509,468.35727 h -8.96875 v -40.3125 c 0,-1.23828 0.4375,-2.29687 1.3125,-3.17187 0.88282,-0.875 1.94141,-1.3125 3.17188,-1.3125 1.22656,0 2.28906,0.44921 3.1875,1.34375 l 28.17187,28.17187 V 423.5604 h 8.96875 v 40.3125 c 0,1.24218 -0.44531,2.29687 -1.32812,3.17187 -0.875,0.875 -1.92969,1.3125 -3.15625,1.3125 -1.23047,0 -2.29297,-0.44531 -3.1875,-1.34375 l -28.17188,-28.17187 z m 0,0"
             id="path377"
             style="fill:#ffffff;fill-opacity:1;stroke-width:1.29869;stroke-dasharray:none" />
          <path
             d="m 309.23196,423.5604 v 8.95312 h -17.92187 v 35.84375 h -8.96875 v -35.84375 h -17.92188 v -8.95312 z m 0,0"
             id="path378"
             style="fill:#ffffff;fill-opacity:1;stroke-width:1.29869;stroke-dasharray:none" />
          <path
             d="m 358.50507,468.35727 h -44.8125 v -8.95312 h 17.92188 v -26.89063 h -17.92188 v -8.95312 h 44.8125 v 8.95312 H 340.5832 v 26.89063 h 17.92187 z m 0,0"
             id="path379"
             style="fill:#ffffff;fill-opacity:1;stroke-width:1.29869;stroke-dasharray:none" />
          <path
             d="m 407.77819,468.35727 h -35.84375 c -1.64843,0 -3.15234,-0.39844 -4.51562,-1.20312 -1.36719,-0.80079 -2.44922,-1.88282 -3.25,-3.25 -0.80469,-1.36329 -1.20313,-2.86329 -1.20313,-4.5 v -26.89063 c 0,-1.63281 0.39844,-3.13281 1.20313,-4.5 0.80078,-1.36328 1.88281,-2.44531 3.25,-3.25 1.36328,-0.80078 2.86719,-1.20312 4.51562,-1.20312 h 35.84375 v 8.95312 h -35.84375 v 26.89063 h 35.84375 z m 0,0"
             id="path380"
             style="fill:#ffffff;fill-opacity:1;stroke-width:1.29869;stroke-dasharray:none" />
          <path
             d="m 457.05133,468.35727 h -44.8125 v -8.95312 h 17.92187 v -26.89063 h -17.92187 v -8.95312 h 44.8125 v 8.95312 h -17.92188 v 26.89063 h 17.92188 z m 0,0"
             id="path381"
             style="fill:#ffffff;fill-opacity:1;stroke-width:1.29869;stroke-dasharray:none" />
          <path
             d="m 497.35568,423.5604 c 1.64454,0 3.14454,0.40234 4.5,1.20312 1.36329,0.80469 2.44532,1.88672 3.25,3.25 0.8125,1.36719 1.21875,2.86719 1.21875,4.5 v 8.96875 c 0,1.63672 -0.40625,3.13672 -1.21875,4.5 -0.80468,1.36719 -1.88671,2.44922 -3.25,3.25 -1.35546,0.80469 -2.85546,1.20313 -4.5,1.20313 h -26.875 v 17.92187 h -8.96875 V 423.5604 Z m -26.875,17.92187 h 26.875 v -8.96875 h -26.875 z m 0,0"
             id="path382"
             style="fill:#ffffff;fill-opacity:1;stroke-width:1.29869;stroke-dasharray:none" />
          <path
             d="m 519.7538,423.5604 h 26.875 c 1.64453,0 3.14453,0.40234 4.5,1.20312 1.36328,0.80469 2.44531,1.88672 3.25,3.25 0.8125,1.36719 1.21875,2.86719 1.21875,4.5 v 35.84375 H 546.6288 V 450.4354 h -26.875 v 17.92187 h -8.96875 v -35.84375 c 0,-1.63281 0.39843,-3.13281 1.20312,-4.5 0.80078,-1.36328 1.88281,-2.44531 3.25,-3.25 1.36328,-0.80078 2.86719,-1.20312 4.51563,-1.20312 z m 0,8.95312 v 8.96875 h 26.875 v -8.96875 z m 0,0"
             id="path383"
             style="fill:#ffffff;fill-opacity:1;stroke-width:1.29869;stroke-dasharray:none" />
          <path
             d="M 595.90192,468.35727 H 560.05817 V 423.5604 h 35.84375 c 1.64454,0 3.14454,0.40234 4.5,1.20312 1.36329,0.80469 2.44532,1.88672 3.25,3.25 0.8125,1.36719 1.21875,2.86719 1.21875,4.5 v 26.89063 c 0,1.63671 -0.40625,3.13671 -1.21875,4.5 -0.80468,1.36718 -1.88671,2.44921 -3.25,3.25 -1.35546,0.80468 -2.85546,1.20312 -4.5,1.20312 z m -26.875,-35.84375 v 26.89063 h 26.875 v -26.89063 z m 0,0"
             id="path384"
             style="fill:#ffffff;fill-opacity:1;stroke-width:1.29869;stroke-dasharray:none" />
          <path
             d="m 645.17506,468.35727 h -26.875 c -1.64844,0 -3.15235,-0.39844 -4.51563,-1.20312 -1.36719,-0.80079 -2.44922,-1.88282 -3.25,-3.25 -0.80469,-1.36329 -1.20312,-2.86329 -1.20312,-4.5 v -26.89063 c 0,-1.63281 0.39843,-3.13281 1.20312,-4.5 0.80078,-1.36328 1.88281,-2.44531 3.25,-3.25 1.36328,-0.80078 2.86719,-1.20312 4.51563,-1.20312 h 26.875 c 1.64453,0 3.14453,0.40234 4.5,1.20312 1.36328,0.80469 2.44531,1.88672 3.25,3.25 0.8125,1.36719 1.21875,2.86719 1.21875,4.5 v 26.89063 c 0,1.60546 -0.40625,3.08984 -1.21875,4.45312 -0.80469,1.35547 -1.875,2.44531 -3.21875,3.26563 -1.34375,0.82421 -2.85547,1.23437 -4.53125,1.23437 z m -26.875,-35.84375 v 26.89063 h 26.875 v -26.89063 z m 0,0"
             id="path385"
             style="fill:#ffffff;fill-opacity:1;stroke-width:1.29869;stroke-dasharray:none" />
        </g>
      </g>
      <g
         id="g406"
         transform="translate(0,-14.961195)"
         style="fill:#ffffff">
        <g
           id="g389"
           transform="matrix(0.67088979,0,0,0.67088979,-728.96298,186.82606)"
           style="fill:#ffffff;stroke-width:1.49055">
          <path
             d="m 32.59375,-130.375 h 78.21875 c 4.78125,0 9.15625,1.16797 13.125,3.5 3.96875,2.33594 7.11719,5.48437 9.45312,9.45312 2.33204,3.96875 3.5,8.34375 3.5,13.125 v 78.218755 c 0,4.679687 -1.16796,9 -3.5,12.96875 -2.33593,3.960937 -5.46093,7.136719 -9.37499,9.53125 C 120.10938,-1.191406 115.70703,0 110.8125,0 H 84.75 V 13.03125 H 58.671875 V 0 H 32.59375 c -4.78125,0 -9.15625,-1.164062 -13.125,-3.5 -3.960938,-2.332031 -7.109375,-5.484375 -9.453125,-9.453125 -2.335937,-3.96875 -3.5,-8.34375 -3.5,-13.125 v -78.218755 c 0,-4.78125 1.164063,-9.15625 3.5,-13.125 2.34375,-3.96875 5.492187,-7.11718 9.453125,-9.45312 3.96875,-2.33203 8.34375,-3.5 13.125,-3.5 z M 84.75,-26.07812 h 23.1962 v -78.21876 H 35.460051 v 78.21876 H 58.671875 V -39.245833 H 84.75 Z"
             id="path386"
             style="fill:#ffffff;fill-opacity:1;stroke-width:1.37277"
             transform="matrix(0.34615604,0,0,0.42387038,1111.8697,-183.02276)" />
          <path
             id="path387"
             style="fill:#ffffff;fill-opacity:1;stroke-width:1.24938"
             d="m -405.60476,-130.37459 v 24.17953 h 24.64455 59.59704 v 37.42201 h -59.59704 -24.64455 v 68.74579536 h 24.64455 V -44.608149 h 21.90064 l 32.49668,44.60040086 32.35571,0.00731494 -32.76254,-44.6077158 h 9.18761 c 3.9029,0 7.47386,-1.079485 10.71352,-3.245395 3.23966,-2.162288 5.81054,-5.077256 7.71734,-8.749886 1.90362,-3.679874 2.85645,-7.736386 2.85645,-12.16962 v -37.42201 c 0,-4.43323 -0.95283,-8.48975 -2.85645,-12.16962 -1.9068,-3.67987 -4.47768,-6.5986 -7.71734,-8.76451 -3.23966,-2.16228 -6.81062,-3.2454 -10.71352,-3.2454 z"
             transform="matrix(0.41790625,0,0,0.42387038,1336.3488,-183.02276)" />
          <path
             d="m -327.24305,-130.375 v 23.9595 h -72.06464 v 27.711253 h 54.38124 v 25.930043 h -54.38124 v 26.696084 h 72.06464 V 0 h -77.43681 c -3.54991,0 -6.7982,-1.1680028 -9.74486,-3.5118491 -2.94086,-2.339926 -5.27846,-5.5029421 -7.01862,-9.4851289 -1.73435,-3.982186 -2.59863,-8.371997 -2.59863,-13.169434 V -103.9879 c 0,-4.8379 0.86428,-9.26473 2.59863,-13.28051 1.74016,-4.01577 4.07776,-7.2015 7.01862,-9.56511 2.94666,-2.35968 6.19495,-3.54148 9.74486,-3.54148 z"
             id="path388"
             style="fill:#5e30a5;fill-opacity:1;stroke-width:1.24938"
             transform="matrix(0.41790625,0,0,0.42387038,1396.2832,-183.02276)" />
          <path
             d="M -334.01348,-26.07812 V -130.375 h 26.45634 v 104.10959 c 0,4.815587 -1.33528,9.222007 -4.00139,13.21926 -2.67057,3.9972519 -6.27004,7.1722351 -10.80734,9.521014 C -326.90316,-1.1724219 -331.9049,0 -337.37109,0 h -89.42402 c -5.46619,0 -10.46793,-1.1724219 -15.00523,-3.525136 -4.52835,-2.3487789 -8.12783,-5.5237621 -10.80733,-9.521014 -2.67058,-3.997253 -4.00139,-8.403673 -4.00139,-13.21926 V -130.375 h 26.2325 v 104.29688 h 34.73846 V -130.375 h 26.68019 v 104.29688 z"
             id="path389"
             style="fill:#5e30a5;fill-opacity:1;stroke-width:1.24938"
             transform="matrix(0.41790625,0,0,0.42387038,1456.2176,-183.02276)" />
        </g>
        <g
           id="g405"
           transform="matrix(0.27157493,0,0,0.27157493,125.93468,-65.028853)"
           style="fill:#ffffff;fill-opacity:1;stroke-width:1.29869;stroke-dasharray:none">
          <path
             d="m 174.84197,345.5604 h 26.875 c 1.64454,0 3.14454,0.40235 4.5,1.20313 1.36329,0.80469 2.44532,1.88672 3.25,3.25 0.8125,1.36719 1.21875,2.86719 1.21875,4.5 v 35.84375 h -8.96875 V 372.4354 h -26.875 v 17.92188 h -8.96875 v -35.84375 c 0,-1.63281 0.39844,-3.13281 1.20313,-4.5 0.80078,-1.36328 1.88281,-2.44531 3.25,-3.25 1.36328,-0.80078 2.86719,-1.20313 4.51562,-1.20313 z m 0,8.95313 v 8.96875 h 26.875 v -8.96875 z m 0,0"
             id="path390"
             style="fill:#ffffff;fill-opacity:1;stroke-width:1.29869;stroke-dasharray:none" />
          <path
             d="m 259.95884,390.35728 h -35.84375 c -1.64843,0 -3.15234,-0.39844 -4.51562,-1.20313 -1.36719,-0.80078 -2.44922,-1.88281 -3.25,-3.25 -0.80469,-1.36328 -1.20313,-2.86328 -1.20313,-4.5 v -26.89062 c 0,-1.63281 0.39844,-3.13281 1.20313,-4.5 0.80078,-1.36328 1.88281,-2.44531 3.25,-3.25 1.36328,-0.80078 2.86719,-1.20313 4.51562,-1.20313 h 35.84375 v 8.95313 h -35.84375 v 26.89062 h 35.84375 z m 0,0"
             id="path391"
             style="fill:#ffffff;fill-opacity:1;stroke-width:1.29869;stroke-dasharray:none" />
          <path
             d="m 309.23196,390.35728 h -35.84375 c -1.64843,0 -3.15234,-0.39844 -4.51562,-1.20313 -1.36719,-0.80078 -2.44922,-1.88281 -3.25,-3.25 -0.80469,-1.36328 -1.20313,-2.86328 -1.20313,-4.5 v -26.89062 c 0,-1.63281 0.39844,-3.13281 1.20313,-4.5 0.80078,-1.36328 1.88281,-2.44531 3.25,-3.25 1.36328,-0.80078 2.86719,-1.20313 4.51562,-1.20313 h 35.84375 v 8.95313 h -35.84375 v 26.89062 h 35.84375 z m 0,0"
             id="path392"
             style="fill:#ffffff;fill-opacity:1;stroke-width:1.29869;stroke-dasharray:none" />
          <path
             d="m 358.50507,345.5604 v 8.95313 h -35.84375 v 8.96875 h 35.84375 v 8.95312 h -35.84375 v 8.96875 h 35.84375 v 8.95313 h -35.84375 c -1.64843,0 -3.15234,-0.39844 -4.51562,-1.20313 -1.36719,-0.80078 -2.44922,-1.88281 -3.25,-3.25 -0.80469,-1.36328 -1.20313,-2.86328 -1.20313,-4.5 v -26.89062 c 0,-1.63281 0.39844,-3.13281 1.20313,-4.5 0.80078,-1.36328 1.88281,-2.44531 3.25,-3.25 1.36328,-0.80078 2.86719,-1.20313 4.51562,-1.20313 z m 0,0"
             id="path393"
             style="fill:#ffffff;fill-opacity:1;stroke-width:1.29869;stroke-dasharray:none" />
          <path
             d="m 407.77819,345.5604 v 8.95313 h -35.84375 v 8.96875 h 26.875 c 1.64454,0 3.14454,0.40234 4.5,1.20312 1.36329,0.80469 2.44532,1.88672 3.25,3.25 0.8125,1.35547 1.21875,2.85547 1.21875,4.5 v 8.96875 c 0,1.63672 -0.40625,3.13672 -1.21875,4.5 -0.80468,1.36719 -1.88671,2.44922 -3.25,3.25 -1.35546,0.80469 -2.85546,1.20313 -4.5,1.20313 h -35.84375 v -8.95313 h 35.84375 v -8.96875 h -26.875 c -1.64843,0 -3.15234,-0.39843 -4.51562,-1.20312 -1.36719,-0.80078 -2.44922,-1.88281 -3.25,-3.25 -0.80469,-1.36328 -1.20313,-2.86328 -1.20313,-4.5 v -8.96875 c 0,-1.63281 0.39844,-3.13281 1.20313,-4.5 0.80078,-1.36328 1.88281,-2.44531 3.25,-3.25 1.36328,-0.80078 2.86719,-1.20313 4.51562,-1.20313 z m 0,0"
             id="path394"
             style="fill:#ffffff;fill-opacity:1;stroke-width:1.29869;stroke-dasharray:none" />
          <path
             d="m 448.08258,390.35728 h -26.875 c -1.64844,0 -3.15235,-0.39844 -4.51563,-1.20313 -1.36719,-0.80078 -2.44922,-1.88281 -3.25,-3.25 -0.80469,-1.36328 -1.20312,-2.86328 -1.20312,-4.5 v -26.89062 c 0,-1.63281 0.39843,-3.13281 1.20312,-4.5 0.80078,-1.36328 1.88281,-2.44531 3.25,-3.25 1.36328,-0.80078 2.86719,-1.20313 4.51563,-1.20313 h 26.875 c 1.64453,0 3.14453,0.40235 4.5,1.20313 1.36328,0.80469 2.44531,1.88672 3.25,3.25 0.8125,1.36719 1.21875,2.86719 1.21875,4.5 v 26.89062 c 0,1.60547 -0.40625,3.08985 -1.21875,4.45313 -0.80469,1.35547 -1.875,2.44531 -3.21875,3.26562 -1.34375,0.82422 -2.85547,1.23438 -4.53125,1.23438 z m -26.875,-35.84375 v 26.89062 h 26.875 v -26.89062 z m 0,0"
             id="path395"
             style="fill:#ffffff;fill-opacity:1;stroke-width:1.29869;stroke-dasharray:none" />
          <path
             d="m 174.84197,423.5604 h 26.875 c 1.64454,0 3.14454,0.40234 4.5,1.20312 1.36329,0.80469 2.44532,1.88672 3.25,3.25 0.8125,1.36719 1.21875,2.86719 1.21875,4.5 v 35.84375 h -8.96875 V 450.4354 h -26.875 v 17.92187 h -8.96875 v -35.84375 c 0,-1.63281 0.39844,-3.13281 1.20313,-4.5 0.80078,-1.36328 1.88281,-2.44531 3.25,-3.25 1.36328,-0.80078 2.86719,-1.20312 4.51562,-1.20312 z m 0,8.95312 v 8.96875 h 26.875 v -8.96875 z m 0,0"
             id="path396"
             style="fill:#ffffff;fill-opacity:1;stroke-width:1.29869;stroke-dasharray:none" />
          <path
             d="m 224.11509,468.35727 h -8.96875 v -40.3125 c 0,-1.23828 0.4375,-2.29687 1.3125,-3.17187 0.88282,-0.875 1.94141,-1.3125 3.17188,-1.3125 1.22656,0 2.28906,0.44921 3.1875,1.34375 l 28.17187,28.17187 V 423.5604 h 8.96875 v 40.3125 c 0,1.24218 -0.44531,2.29687 -1.32812,3.17187 -0.875,0.875 -1.92969,1.3125 -3.15625,1.3125 -1.23047,0 -2.29297,-0.44531 -3.1875,-1.34375 l -28.17188,-28.17187 z m 0,0"
             id="path397"
             style="fill:#ffffff;fill-opacity:1;stroke-width:1.29869;stroke-dasharray:none" />
          <path
             d="m 309.23196,423.5604 v 8.95312 h -17.92187 v 35.84375 h -8.96875 v -35.84375 h -17.92188 v -8.95312 z m 0,0"
             id="path398"
             style="fill:#ffffff;fill-opacity:1;stroke-width:1.29869;stroke-dasharray:none" />
          <path
             d="m 358.50507,468.35727 h -44.8125 v -8.95312 h 17.92188 v -26.89063 h -17.92188 v -8.95312 h 44.8125 v 8.95312 H 340.5832 v 26.89063 h 17.92187 z m 0,0"
             id="path399"
             style="fill:#ffffff;fill-opacity:1;stroke-width:1.29869;stroke-dasharray:none" />
          <path
             d="m 407.77819,468.35727 h -35.84375 c -1.64843,0 -3.15234,-0.39844 -4.51562,-1.20312 -1.36719,-0.80079 -2.44922,-1.88282 -3.25,-3.25 -0.80469,-1.36329 -1.20313,-2.86329 -1.20313,-4.5 v -26.89063 c 0,-1.63281 0.39844,-3.13281 1.20313,-4.5 0.80078,-1.36328 1.88281,-2.44531 3.25,-3.25 1.36328,-0.80078 2.86719,-1.20312 4.51562,-1.20312 h 35.84375 v 8.95312 h -35.84375 v 26.89063 h 35.84375 z m 0,0"
             id="path400"
             style="fill:#ffffff;fill-opacity:1;stroke-width:1.29869;stroke-dasharray:none" />
          <path
             d="m 457.05133,468.35727 h -44.8125 v -8.95312 h 17.92187 v -26.89063 h -17.92187 v -8.95312 h 44.8125 v 8.95312 h -17.92188 v 26.89063 h 17.92188 z m 0,0"
             id="path401"
             style="fill:#ffffff;fill-opacity:1;stroke-width:1.29869;stroke-dasharray:none" />
          <path
             d="m 497.35568,423.5604 c 1.64454,0 3.14454,0.40234 4.5,1.20312 1.36329,0.80469 2.44532,1.88672 3.25,3.25 0.8125,1.36719 1.21875,2.86719 1.21875,4.5 v 8.96875 c 0,1.63672 -0.40625,3.13672 -1.21875,4.5 -0.80468,1.36719 -1.88671,2.44922 -3.25,3.25 -1.35546,0.80469 -2.85546,1.20313 -4.5,1.20313 h -26.875 v 17.92187 h -8.96875 V 423.5604 Z m -26.875,17.92187 h 26.875 v -8.96875 h -26.875 z m 0,0"
             id="path402"
             style="fill:#ffffff;fill-opacity:1;stroke-width:1.29869;stroke-dasharray:none" />
          <path
             d="m 519.7538,423.5604 h 26.875 c 1.64453,0 3.14453,0.40234 4.5,1.20312 1.36328,0.80469 2.44531,1.88672 3.25,3.25 0.8125,1.36719 1.21875,2.86719 1.21875,4.5 v 35.84375 H 546.6288 V 450.4354 h -26.875 v 17.92187 h -8.96875 v -35.84375 c 0,-1.63281 0.39843,-3.13281 1.20312,-4.5 0.80078,-1.36328 1.88281,-2.44531 3.25,-3.25 1.36328,-0.80078 2.86719,-1.20312 4.51563,-1.20312 z m 0,8.95312 v 8.96875 h 26.875 v -8.96875 z m 0,0"
             id="path403"
             style="fill:#ffffff;fill-opacity:1;stroke-width:1.29869;stroke-dasharray:none" />
          <path
             d="M 595.90192,468.35727 H 560.05817 V 423.5604 h 35.84375 c 1.64454,0 3.14454,0.40234 4.5,1.20312 1.36329,0.80469 2.44532,1.88672 3.25,3.25 0.8125,1.36719 1.21875,2.86719 1.21875,4.5 v 26.89063 c 0,1.63671 -0.40625,3.13671 -1.21875,4.5 -0.80468,1.36718 -1.88671,2.44921 -3.25,3.25 -1.35546,0.80468 -2.85546,1.20312 -4.5,1.20312 z m -26.875,-35.84375 v 26.89063 h 26.875 v -26.89063 z m 0,0"
             id="path404"
             style="fill:#ffffff;fill-opacity:1;stroke-width:1.29869;stroke-dasharray:none" />
          <path
             d="m 645.17506,468.35727 h -26.875 c -1.64844,0 -3.15235,-0.39844 -4.51563,-1.20312 -1.36719,-0.80079 -2.44922,-1.88282 -3.25,-3.25 -0.80469,-1.36329 -1.20312,-2.86329 -1.20312,-4.5 v -26.89063 c 0,-1.63281 0.39843,-3.13281 1.20312,-4.5 0.80078,-1.36328 1.88281,-2.44531 3.25,-3.25 1.36328,-0.80078 2.86719,-1.20312 4.51563,-1.20312 h 26.875 c 1.64453,0 3.14453,0.40234 4.5,1.20312 1.36328,0.80469 2.44531,1.88672 3.25,3.25 0.8125,1.36719 1.21875,2.86719 1.21875,4.5 v 26.89063 c 0,1.60546 -0.40625,3.08984 -1.21875,4.45312 -0.80469,1.35547 -1.875,2.44531 -3.21875,3.26563 -1.34375,0.82421 -2.85547,1.23437 -4.53125,1.23437 z m -26.875,-35.84375 v 26.89063 h 26.875 v -26.89063 z m 0,0"
             id="path405"
             style="fill:#ffffff;fill-opacity:1;stroke-width:1.29869;stroke-dasharray:none" />
        </g>
      </g>
      <g
         id="g426"
         transform="translate(0,77.370416)"
         style="fill:#ffffff">
        <g
           id="g409"
           transform="matrix(0.67088979,0,0,0.67088979,-728.96298,186.82606)"
           style="fill:#ffffff;stroke-width:1.49055">
          <path
             d="m 32.59375,-130.375 h 78.21875 c 4.78125,0 9.15625,1.16797 13.125,3.5 3.96875,2.33594 7.11719,5.48437 9.45312,9.45312 2.33204,3.96875 3.5,8.34375 3.5,13.125 v 78.218755 c 0,4.679687 -1.16796,9 -3.5,12.96875 -2.33593,3.960937 -5.46093,7.136719 -9.37499,9.53125 C 120.10938,-1.191406 115.70703,0 110.8125,0 H 84.75 V 13.03125 H 58.671875 V 0 H 32.59375 c -4.78125,0 -9.15625,-1.164062 -13.125,-3.5 -3.960938,-2.332031 -7.109375,-5.484375 -9.453125,-9.453125 -2.335937,-3.96875 -3.5,-8.34375 -3.5,-13.125 v -78.218755 c 0,-4.78125 1.164063,-9.15625 3.5,-13.125 2.34375,-3.96875 5.492187,-7.11718 9.453125,-9.45312 3.96875,-2.33203 8.34375,-3.5 13.125,-3.5 z M 84.75,-26.07812 h 23.1962 v -78.21876 H 35.460051 v 78.21876 H 58.671875 V -39.245833 H 84.75 Z"
             id="path406"
             style="fill:#ffffff;fill-opacity:1;stroke-width:1.37277"
             transform="matrix(0.34615604,0,0,0.42387038,1111.8697,-183.02276)" />
          <path
             id="path407"
             style="fill:#ffffff;fill-opacity:1;stroke-width:1.24938"
             d="m -405.60476,-130.37459 v 24.17953 h 24.64455 59.59704 v 37.42201 h -59.59704 -24.64455 v 68.74579536 h 24.64455 V -44.608149 h 21.90064 l 32.49668,44.60040086 32.35571,0.00731494 -32.76254,-44.6077158 h 9.18761 c 3.9029,0 7.47386,-1.079485 10.71352,-3.245395 3.23966,-2.162288 5.81054,-5.077256 7.71734,-8.749886 1.90362,-3.679874 2.85645,-7.736386 2.85645,-12.16962 v -37.42201 c 0,-4.43323 -0.95283,-8.48975 -2.85645,-12.16962 -1.9068,-3.67987 -4.47768,-6.5986 -7.71734,-8.76451 -3.23966,-2.16228 -6.81062,-3.2454 -10.71352,-3.2454 z"
             transform="matrix(0.41790625,0,0,0.42387038,1336.3488,-183.02276)" />
          <path
             d="m -327.24305,-130.375 v 23.9595 h -72.06464 v 27.711253 h 54.38124 v 25.930043 h -54.38124 v 26.696084 h 72.06464 V 0 h -77.43681 c -3.54991,0 -6.7982,-1.1680028 -9.74486,-3.5118491 -2.94086,-2.339926 -5.27846,-5.5029421 -7.01862,-9.4851289 -1.73435,-3.982186 -2.59863,-8.371997 -2.59863,-13.169434 V -103.9879 c 0,-4.8379 0.86428,-9.26473 2.59863,-13.28051 1.74016,-4.01577 4.07776,-7.2015 7.01862,-9.56511 2.94666,-2.35968 6.19495,-3.54148 9.74486,-3.54148 z"
             id="path408"
             style="fill:#5e30a5;fill-opacity:1;stroke-width:1.24938"
             transform="matrix(0.41790625,0,0,0.42387038,1396.2832,-183.02276)" />
          <path
             d="M -334.01348,-26.07812 V -130.375 h 26.45634 v 104.10959 c 0,4.815587 -1.33528,9.222007 -4.00139,13.21926 -2.67057,3.9972519 -6.27004,7.1722351 -10.80734,9.521014 C -326.90316,-1.1724219 -331.9049,0 -337.37109,0 h -89.42402 c -5.46619,0 -10.46793,-1.1724219 -15.00523,-3.525136 -4.52835,-2.3487789 -8.12783,-5.5237621 -10.80733,-9.521014 -2.67058,-3.997253 -4.00139,-8.403673 -4.00139,-13.21926 V -130.375 h 26.2325 v 104.29688 h 34.73846 V -130.375 h 26.68019 v 104.29688 z"
             id="path409"
             style="fill:#5e30a5;fill-opacity:1;stroke-width:1.24938"
             transform="matrix(0.41790625,0,0,0.42387038,1456.2176,-183.02276)" />
        </g>
        <g
           id="g425"
           transform="matrix(0.27157493,0,0,0.27157493,125.93468,-65.028853)"
           style="fill:#5e30a5;fill-opacity:1;stroke-width:1.29869;stroke-dasharray:none">
          <path
             d="m 174.84197,345.5604 h 26.875 c 1.64454,0 3.14454,0.40235 4.5,1.20313 1.36329,0.80469 2.44532,1.88672 3.25,3.25 0.8125,1.36719 1.21875,2.86719 1.21875,4.5 v 35.84375 h -8.96875 V 372.4354 h -26.875 v 17.92188 h -8.96875 v -35.84375 c 0,-1.63281 0.39844,-3.13281 1.20313,-4.5 0.80078,-1.36328 1.88281,-2.44531 3.25,-3.25 1.36328,-0.80078 2.86719,-1.20313 4.51562,-1.20313 z m 0,8.95313 v 8.96875 h 26.875 v -8.96875 z m 0,0"
             id="path410"
             style="fill:#5e30a5;fill-opacity:1;stroke-width:1.29869;stroke-dasharray:none" />
          <path
             d="m 259.95884,390.35728 h -35.84375 c -1.64843,0 -3.15234,-0.39844 -4.51562,-1.20313 -1.36719,-0.80078 -2.44922,-1.88281 -3.25,-3.25 -0.80469,-1.36328 -1.20313,-2.86328 -1.20313,-4.5 v -26.89062 c 0,-1.63281 0.39844,-3.13281 1.20313,-4.5 0.80078,-1.36328 1.88281,-2.44531 3.25,-3.25 1.36328,-0.80078 2.86719,-1.20313 4.51562,-1.20313 h 35.84375 v 8.95313 h -35.84375 v 26.89062 h 35.84375 z m 0,0"
             id="path411"
             style="fill:#5e30a5;fill-opacity:1;stroke-width:1.29869;stroke-dasharray:none" />
          <path
             d="m 309.23196,390.35728 h -35.84375 c -1.64843,0 -3.15234,-0.39844 -4.51562,-1.20313 -1.36719,-0.80078 -2.44922,-1.88281 -3.25,-3.25 -0.80469,-1.36328 -1.20313,-2.86328 -1.20313,-4.5 v -26.89062 c 0,-1.63281 0.39844,-3.13281 1.20313,-4.5 0.80078,-1.36328 1.88281,-2.44531 3.25,-3.25 1.36328,-0.80078 2.86719,-1.20313 4.51562,-1.20313 h 35.84375 v 8.95313 h -35.84375 v 26.89062 h 35.84375 z m 0,0"
             id="path412"
             style="fill:#5e30a5;fill-opacity:1;stroke-width:1.29869;stroke-dasharray:none" />
          <path
             d="m 358.50507,345.5604 v 8.95313 h -35.84375 v 8.96875 h 35.84375 v 8.95312 h -35.84375 v 8.96875 h 35.84375 v 8.95313 h -35.84375 c -1.64843,0 -3.15234,-0.39844 -4.51562,-1.20313 -1.36719,-0.80078 -2.44922,-1.88281 -3.25,-3.25 -0.80469,-1.36328 -1.20313,-2.86328 -1.20313,-4.5 v -26.89062 c 0,-1.63281 0.39844,-3.13281 1.20313,-4.5 0.80078,-1.36328 1.88281,-2.44531 3.25,-3.25 1.36328,-0.80078 2.86719,-1.20313 4.51562,-1.20313 z m 0,0"
             id="path413"
             style="fill:#5e30a5;fill-opacity:1;stroke-width:1.29869;stroke-dasharray:none" />
          <path
             d="m 407.77819,345.5604 v 8.95313 h -35.84375 v 8.96875 h 26.875 c 1.64454,0 3.14454,0.40234 4.5,1.20312 1.36329,0.80469 2.44532,1.88672 3.25,3.25 0.8125,1.35547 1.21875,2.85547 1.21875,4.5 v 8.96875 c 0,1.63672 -0.40625,3.13672 -1.21875,4.5 -0.80468,1.36719 -1.88671,2.44922 -3.25,3.25 -1.35546,0.80469 -2.85546,1.20313 -4.5,1.20313 h -35.84375 v -8.95313 h 35.84375 v -8.96875 h -26.875 c -1.64843,0 -3.15234,-0.39843 -4.51562,-1.20312 -1.36719,-0.80078 -2.44922,-1.88281 -3.25,-3.25 -0.80469,-1.36328 -1.20313,-2.86328 -1.20313,-4.5 v -8.96875 c 0,-1.63281 0.39844,-3.13281 1.20313,-4.5 0.80078,-1.36328 1.88281,-2.44531 3.25,-3.25 1.36328,-0.80078 2.86719,-1.20313 4.51562,-1.20313 z m 0,0"
             id="path414"
             style="fill:#5e30a5;fill-opacity:1;stroke-width:1.29869;stroke-dasharray:none" />
          <path
             d="m 448.08258,390.35728 h -26.875 c -1.64844,0 -3.15235,-0.39844 -4.51563,-1.20313 -1.36719,-0.80078 -2.44922,-1.88281 -3.25,-3.25 -0.80469,-1.36328 -1.20312,-2.86328 -1.20312,-4.5 v -26.89062 c 0,-1.63281 0.39843,-3.13281 1.20312,-4.5 0.80078,-1.36328 1.88281,-2.44531 3.25,-3.25 1.36328,-0.80078 2.86719,-1.20313 4.51563,-1.20313 h 26.875 c 1.64453,0 3.14453,0.40235 4.5,1.20313 1.36328,0.80469 2.44531,1.88672 3.25,3.25 0.8125,1.36719 1.21875,2.86719 1.21875,4.5 v 26.89062 c 0,1.60547 -0.40625,3.08985 -1.21875,4.45313 -0.80469,1.35547 -1.875,2.44531 -3.21875,3.26562 -1.34375,0.82422 -2.85547,1.23438 -4.53125,1.23438 z m -26.875,-35.84375 v 26.89062 h 26.875 v -26.89062 z m 0,0"
             id="path415"
             style="fill:#5e30a5;fill-opacity:1;stroke-width:1.29869;stroke-dasharray:none" />
          <path
             d="m 174.84197,423.5604 h 26.875 c 1.64454,0 3.14454,0.40234 4.5,1.20312 1.36329,0.80469 2.44532,1.88672 3.25,3.25 0.8125,1.36719 1.21875,2.86719 1.21875,4.5 v 35.84375 h -8.96875 V 450.4354 h -26.875 v 17.92187 h -8.96875 v -35.84375 c 0,-1.63281 0.39844,-3.13281 1.20313,-4.5 0.80078,-1.36328 1.88281,-2.44531 3.25,-3.25 1.36328,-0.80078 2.86719,-1.20312 4.51562,-1.20312 z m 0,8.95312 v 8.96875 h 26.875 v -8.96875 z m 0,0"
             id="path416"
             style="fill:#5e30a5;fill-opacity:1;stroke-width:1.29869;stroke-dasharray:none" />
          <path
             d="m 224.11509,468.35727 h -8.96875 v -40.3125 c 0,-1.23828 0.4375,-2.29687 1.3125,-3.17187 0.88282,-0.875 1.94141,-1.3125 3.17188,-1.3125 1.22656,0 2.28906,0.44921 3.1875,1.34375 l 28.17187,28.17187 V 423.5604 h 8.96875 v 40.3125 c 0,1.24218 -0.44531,2.29687 -1.32812,3.17187 -0.875,0.875 -1.92969,1.3125 -3.15625,1.3125 -1.23047,0 -2.29297,-0.44531 -3.1875,-1.34375 l -28.17188,-28.17187 z m 0,0"
             id="path417"
             style="fill:#5e30a5;fill-opacity:1;stroke-width:1.29869;stroke-dasharray:none" />
          <path
             d="m 309.23196,423.5604 v 8.95312 h -17.92187 v 35.84375 h -8.96875 v -35.84375 h -17.92188 v -8.95312 z m 0,0"
             id="path418"
             style="fill:#5e30a5;fill-opacity:1;stroke-width:1.29869;stroke-dasharray:none" />
          <path
             d="m 358.50507,468.35727 h -44.8125 v -8.95312 h 17.92188 v -26.89063 h -17.92188 v -8.95312 h 44.8125 v 8.95312 H 340.5832 v 26.89063 h 17.92187 z m 0,0"
             id="path419"
             style="fill:#5e30a5;fill-opacity:1;stroke-width:1.29869;stroke-dasharray:none" />
          <path
             d="m 407.77819,468.35727 h -35.84375 c -1.64843,0 -3.15234,-0.39844 -4.51562,-1.20312 -1.36719,-0.80079 -2.44922,-1.88282 -3.25,-3.25 -0.80469,-1.36329 -1.20313,-2.86329 -1.20313,-4.5 v -26.89063 c 0,-1.63281 0.39844,-3.13281 1.20313,-4.5 0.80078,-1.36328 1.88281,-2.44531 3.25,-3.25 1.36328,-0.80078 2.86719,-1.20312 4.51562,-1.20312 h 35.84375 v 8.95312 h -35.84375 v 26.89063 h 35.84375 z m 0,0"
             id="path420"
             style="fill:#5e30a5;fill-opacity:1;stroke-width:1.29869;stroke-dasharray:none" />
          <path
             d="m 457.05133,468.35727 h -44.8125 v -8.95312 h 17.92187 v -26.89063 h -17.92187 v -8.95312 h 44.8125 v 8.95312 h -17.92188 v 26.89063 h 17.92188 z m 0,0"
             id="path421"
             style="fill:#5e30a5;fill-opacity:1;stroke-width:1.29869;stroke-dasharray:none" />
          <path
             d="m 497.35568,423.5604 c 1.64454,0 3.14454,0.40234 4.5,1.20312 1.36329,0.80469 2.44532,1.88672 3.25,3.25 0.8125,1.36719 1.21875,2.86719 1.21875,4.5 v 8.96875 c 0,1.63672 -0.40625,3.13672 -1.21875,4.5 -0.80468,1.36719 -1.88671,2.44922 -3.25,3.25 -1.35546,0.80469 -2.85546,1.20313 -4.5,1.20313 h -26.875 v 17.92187 h -8.96875 V 423.5604 Z m -26.875,17.92187 h 26.875 v -8.96875 h -26.875 z m 0,0"
             id="path422"
             style="fill:#5e30a5;fill-opacity:1;stroke-width:1.29869;stroke-dasharray:none" />
          <path
             d="m 519.7538,423.5604 h 26.875 c 1.64453,0 3.14453,0.40234 4.5,1.20312 1.36328,0.80469 2.44531,1.88672 3.25,3.25 0.8125,1.36719 1.21875,2.86719 1.21875,4.5 v 35.84375 H 546.6288 V 450.4354 h -26.875 v 17.92187 h -8.96875 v -35.84375 c 0,-1.63281 0.39843,-3.13281 1.20312,-4.5 0.80078,-1.36328 1.88281,-2.44531 3.25,-3.25 1.36328,-0.80078 2.86719,-1.20312 4.51563,-1.20312 z m 0,8.95312 v 8.96875 h 26.875 v -8.96875 z m 0,0"
             id="path423"
             style="fill:#5e30a5;fill-opacity:1;stroke-width:1.29869;stroke-dasharray:none" />
          <path
             d="M 595.90192,468.35727 H 560.05817 V 423.5604 h 35.84375 c 1.64454,0 3.14454,0.40234 4.5,1.20312 1.36329,0.80469 2.44532,1.88672 3.25,3.25 0.8125,1.36719 1.21875,2.86719 1.21875,4.5 v 26.89063 c 0,1.63671 -0.40625,3.13671 -1.21875,4.5 -0.80468,1.36718 -1.88671,2.44921 -3.25,3.25 -1.35546,0.80468 -2.85546,1.20312 -4.5,1.20312 z m -26.875,-35.84375 v 26.89063 h 26.875 v -26.89063 z m 0,0"
             id="path424"
             style="fill:#5e30a5;fill-opacity:1;stroke-width:1.29869;stroke-dasharray:none" />
          <path
             d="m 645.17506,468.35727 h -26.875 c -1.64844,0 -3.15235,-0.39844 -4.51563,-1.20312 -1.36719,-0.80079 -2.44922,-1.88282 -3.25,-3.25 -0.80469,-1.36329 -1.20312,-2.86329 -1.20312,-4.5 v -26.89063 c 0,-1.63281 0.39843,-3.13281 1.20312,-4.5 0.80078,-1.36328 1.88281,-2.44531 3.25,-3.25 1.36328,-0.80078 2.86719,-1.20312 4.51563,-1.20312 h 26.875 c 1.64453,0 3.14453,0.40234 4.5,1.20312 1.36328,0.80469 2.44531,1.88672 3.25,3.25 0.8125,1.36719 1.21875,2.86719 1.21875,4.5 v 26.89063 c 0,1.60546 -0.40625,3.08984 -1.21875,4.45312 -0.80469,1.35547 -1.875,2.44531 -3.21875,3.26563 -1.34375,0.82421 -2.85547,1.23437 -4.53125,1.23437 z m -26.875,-35.84375 v 26.89063 h 26.875 v -26.89063 z m 0,0"
             id="path425"
             style="fill:#5e30a5;fill-opacity:1;stroke-width:1.29869;stroke-dasharray:none" />
        </g>
      </g>
      <g
         id="g446"
         transform="translate(0,168.40065)"
         style="fill:#ffffff">
        <g
           id="g429"
           transform="matrix(0.67088979,0,0,0.67088979,-728.96298,186.82606)"
           style="fill:#ffffff;stroke-width:1.49055">
          <path
             d="m 32.59375,-130.375 h 78.21875 c 4.78125,0 9.15625,1.16797 13.125,3.5 3.96875,2.33594 7.11719,5.48437 9.45312,9.45312 2.33204,3.96875 3.5,8.34375 3.5,13.125 v 78.218755 c 0,4.679687 -1.16796,9 -3.5,12.96875 -2.33593,3.960937 -5.46093,7.136719 -9.37499,9.53125 C 120.10938,-1.191406 115.70703,0 110.8125,0 H 84.75 V 13.03125 H 58.671875 V 0 H 32.59375 c -4.78125,0 -9.15625,-1.164062 -13.125,-3.5 -3.960938,-2.332031 -7.109375,-5.484375 -9.453125,-9.453125 -2.335937,-3.96875 -3.5,-8.34375 -3.5,-13.125 v -78.218755 c 0,-4.78125 1.164063,-9.15625 3.5,-13.125 2.34375,-3.96875 5.492187,-7.11718 9.453125,-9.45312 3.96875,-2.33203 8.34375,-3.5 13.125,-3.5 z M 84.75,-26.07812 h 23.1962 v -78.21876 H 35.460051 v 78.21876 H 58.671875 V -39.245833 H 84.75 Z"
             id="path426"
             style="fill:#5e30a5;fill-opacity:1;stroke-width:1.37277"
             transform="matrix(0.34615604,0,0,0.42387038,1111.8697,-183.02276)" />
          <path
             id="path427"
             style="fill:#5e30a5;fill-opacity:1;stroke-width:1.24938"
             d="m -405.60476,-130.37459 v 24.17953 h 24.64455 59.59704 v 37.42201 h -59.59704 -24.64455 v 68.74579536 h 24.64455 V -44.608149 h 21.90064 l 32.49668,44.60040086 32.35571,0.00731494 -32.76254,-44.6077158 h 9.18761 c 3.9029,0 7.47386,-1.079485 10.71352,-3.245395 3.23966,-2.162288 5.81054,-5.077256 7.71734,-8.749886 1.90362,-3.679874 2.85645,-7.736386 2.85645,-12.16962 v -37.42201 c 0,-4.43323 -0.95283,-8.48975 -2.85645,-12.16962 -1.9068,-3.67987 -4.47768,-6.5986 -7.71734,-8.76451 -3.23966,-2.16228 -6.81062,-3.2454 -10.71352,-3.2454 z"
             transform="matrix(0.41790625,0,0,0.42387038,1336.3488,-183.02276)" />
          <path
             d="m -327.24305,-130.375 v 23.9595 h -72.06464 v 27.711253 h 54.38124 v 25.930043 h -54.38124 v 26.696084 h 72.06464 V 0 h -77.43681 c -3.54991,0 -6.7982,-1.1680028 -9.74486,-3.5118491 -2.94086,-2.339926 -5.27846,-5.5029421 -7.01862,-9.4851289 -1.73435,-3.982186 -2.59863,-8.371997 -2.59863,-13.169434 V -103.9879 c 0,-4.8379 0.86428,-9.26473 2.59863,-13.28051 1.74016,-4.01577 4.07776,-7.2015 7.01862,-9.56511 2.94666,-2.35968 6.19495,-3.54148 9.74486,-3.54148 z"
             id="path428"
             style="fill:#ffffff;fill-opacity:1;stroke-width:1.24938"
             transform="matrix(0.41790625,0,0,0.42387038,1396.2832,-183.02276)" />
          <path
             d="M -334.01348,-26.07812 V -130.375 h 26.45634 v 104.10959 c 0,4.815587 -1.33528,9.222007 -4.00139,13.21926 -2.67057,3.9972519 -6.27004,7.1722351 -10.80734,9.521014 C -326.90316,-1.1724219 -331.9049,0 -337.37109,0 h -89.42402 c -5.46619,0 -10.46793,-1.1724219 -15.00523,-3.525136 -4.52835,-2.3487789 -8.12783,-5.5237621 -10.80733,-9.521014 -2.67058,-3.997253 -4.00139,-8.403673 -4.00139,-13.21926 V -130.375 h 26.2325 v 104.29688 h 34.73846 V -130.375 h 26.68019 v 104.29688 z"
             id="path429"
             style="fill:#ffffff;fill-opacity:1;stroke-width:1.24938"
             transform="matrix(0.41790625,0,0,0.42387038,1456.2176,-183.02276)" />
        </g>
        <g
           id="g445"
           transform="matrix(0.27157493,0,0,0.27157493,125.93468,-65.028853)"
           style="fill:#5e30a5;fill-opacity:1;stroke-width:1.29869;stroke-dasharray:none">
          <path
             d="m 174.84197,345.5604 h 26.875 c 1.64454,0 3.14454,0.40235 4.5,1.20313 1.36329,0.80469 2.44532,1.88672 3.25,3.25 0.8125,1.36719 1.21875,2.86719 1.21875,4.5 v 35.84375 h -8.96875 V 372.4354 h -26.875 v 17.92188 h -8.96875 v -35.84375 c 0,-1.63281 0.39844,-3.13281 1.20313,-4.5 0.80078,-1.36328 1.88281,-2.44531 3.25,-3.25 1.36328,-0.80078 2.86719,-1.20313 4.51562,-1.20313 z m 0,8.95313 v 8.96875 h 26.875 v -8.96875 z m 0,0"
             id="path430"
             style="fill:#5e30a5;fill-opacity:1;stroke-width:1.29869;stroke-dasharray:none" />
          <path
             d="m 259.95884,390.35728 h -35.84375 c -1.64843,0 -3.15234,-0.39844 -4.51562,-1.20313 -1.36719,-0.80078 -2.44922,-1.88281 -3.25,-3.25 -0.80469,-1.36328 -1.20313,-2.86328 -1.20313,-4.5 v -26.89062 c 0,-1.63281 0.39844,-3.13281 1.20313,-4.5 0.80078,-1.36328 1.88281,-2.44531 3.25,-3.25 1.36328,-0.80078 2.86719,-1.20313 4.51562,-1.20313 h 35.84375 v 8.95313 h -35.84375 v 26.89062 h 35.84375 z m 0,0"
             id="path431"
             style="fill:#5e30a5;fill-opacity:1;stroke-width:1.29869;stroke-dasharray:none" />
          <path
             d="m 309.23196,390.35728 h -35.84375 c -1.64843,0 -3.15234,-0.39844 -4.51562,-1.20313 -1.36719,-0.80078 -2.44922,-1.88281 -3.25,-3.25 -0.80469,-1.36328 -1.20313,-2.86328 -1.20313,-4.5 v -26.89062 c 0,-1.63281 0.39844,-3.13281 1.20313,-4.5 0.80078,-1.36328 1.88281,-2.44531 3.25,-3.25 1.36328,-0.80078 2.86719,-1.20313 4.51562,-1.20313 h 35.84375 v 8.95313 h -35.84375 v 26.89062 h 35.84375 z m 0,0"
             id="path432"
             style="fill:#5e30a5;fill-opacity:1;stroke-width:1.29869;stroke-dasharray:none" />
          <path
             d="m 358.50507,345.5604 v 8.95313 h -35.84375 v 8.96875 h 35.84375 v 8.95312 h -35.84375 v 8.96875 h 35.84375 v 8.95313 h -35.84375 c -1.64843,0 -3.15234,-0.39844 -4.51562,-1.20313 -1.36719,-0.80078 -2.44922,-1.88281 -3.25,-3.25 -0.80469,-1.36328 -1.20313,-2.86328 -1.20313,-4.5 v -26.89062 c 0,-1.63281 0.39844,-3.13281 1.20313,-4.5 0.80078,-1.36328 1.88281,-2.44531 3.25,-3.25 1.36328,-0.80078 2.86719,-1.20313 4.51562,-1.20313 z m 0,0"
             id="path433"
             style="fill:#5e30a5;fill-opacity:1;stroke-width:1.29869;stroke-dasharray:none" />
          <path
             d="m 407.77819,345.5604 v 8.95313 h -35.84375 v 8.96875 h 26.875 c 1.64454,0 3.14454,0.40234 4.5,1.20312 1.36329,0.80469 2.44532,1.88672 3.25,3.25 0.8125,1.35547 1.21875,2.85547 1.21875,4.5 v 8.96875 c 0,1.63672 -0.40625,3.13672 -1.21875,4.5 -0.80468,1.36719 -1.88671,2.44922 -3.25,3.25 -1.35546,0.80469 -2.85546,1.20313 -4.5,1.20313 h -35.84375 v -8.95313 h 35.84375 v -8.96875 h -26.875 c -1.64843,0 -3.15234,-0.39843 -4.51562,-1.20312 -1.36719,-0.80078 -2.44922,-1.88281 -3.25,-3.25 -0.80469,-1.36328 -1.20313,-2.86328 -1.20313,-4.5 v -8.96875 c 0,-1.63281 0.39844,-3.13281 1.20313,-4.5 0.80078,-1.36328 1.88281,-2.44531 3.25,-3.25 1.36328,-0.80078 2.86719,-1.20313 4.51562,-1.20313 z m 0,0"
             id="path434"
             style="fill:#5e30a5;fill-opacity:1;stroke-width:1.29869;stroke-dasharray:none" />
          <path
             d="m 448.08258,390.35728 h -26.875 c -1.64844,0 -3.15235,-0.39844 -4.51563,-1.20313 -1.36719,-0.80078 -2.44922,-1.88281 -3.25,-3.25 -0.80469,-1.36328 -1.20312,-2.86328 -1.20312,-4.5 v -26.89062 c 0,-1.63281 0.39843,-3.13281 1.20312,-4.5 0.80078,-1.36328 1.88281,-2.44531 3.25,-3.25 1.36328,-0.80078 2.86719,-1.20313 4.51563,-1.20313 h 26.875 c 1.64453,0 3.14453,0.40235 4.5,1.20313 1.36328,0.80469 2.44531,1.88672 3.25,3.25 0.8125,1.36719 1.21875,2.86719 1.21875,4.5 v 26.89062 c 0,1.60547 -0.40625,3.08985 -1.21875,4.45313 -0.80469,1.35547 -1.875,2.44531 -3.21875,3.26562 -1.34375,0.82422 -2.85547,1.23438 -4.53125,1.23438 z m -26.875,-35.84375 v 26.89062 h 26.875 v -26.89062 z m 0,0"
             id="path435"
             style="fill:#5e30a5;fill-opacity:1;stroke-width:1.29869;stroke-dasharray:none" />
          <path
             d="m 174.84197,423.5604 h 26.875 c 1.64454,0 3.14454,0.40234 4.5,1.20312 1.36329,0.80469 2.44532,1.88672 3.25,3.25 0.8125,1.36719 1.21875,2.86719 1.21875,4.5 v 35.84375 h -8.96875 V 450.4354 h -26.875 v 17.92187 h -8.96875 v -35.84375 c 0,-1.63281 0.39844,-3.13281 1.20313,-4.5 0.80078,-1.36328 1.88281,-2.44531 3.25,-3.25 1.36328,-0.80078 2.86719,-1.20312 4.51562,-1.20312 z m 0,8.95312 v 8.96875 h 26.875 v -8.96875 z m 0,0"
             id="path436"
             style="fill:#5e30a5;fill-opacity:1;stroke-width:1.29869;stroke-dasharray:none" />
          <path
             d="m 224.11509,468.35727 h -8.96875 v -40.3125 c 0,-1.23828 0.4375,-2.29687 1.3125,-3.17187 0.88282,-0.875 1.94141,-1.3125 3.17188,-1.3125 1.22656,0 2.28906,0.44921 3.1875,1.34375 l 28.17187,28.17187 V 423.5604 h 8.96875 v 40.3125 c 0,1.24218 -0.44531,2.29687 -1.32812,3.17187 -0.875,0.875 -1.92969,1.3125 -3.15625,1.3125 -1.23047,0 -2.29297,-0.44531 -3.1875,-1.34375 l -28.17188,-28.17187 z m 0,0"
             id="path437"
             style="fill:#5e30a5;fill-opacity:1;stroke-width:1.29869;stroke-dasharray:none" />
          <path
             d="m 309.23196,423.5604 v 8.95312 h -17.92187 v 35.84375 h -8.96875 v -35.84375 h -17.92188 v -8.95312 z m 0,0"
             id="path438"
             style="fill:#5e30a5;fill-opacity:1;stroke-width:1.29869;stroke-dasharray:none" />
          <path
             d="m 358.50507,468.35727 h -44.8125 v -8.95312 h 17.92188 v -26.89063 h -17.92188 v -8.95312 h 44.8125 v 8.95312 H 340.5832 v 26.89063 h 17.92187 z m 0,0"
             id="path439"
             style="fill:#5e30a5;fill-opacity:1;stroke-width:1.29869;stroke-dasharray:none" />
          <path
             d="m 407.77819,468.35727 h -35.84375 c -1.64843,0 -3.15234,-0.39844 -4.51562,-1.20312 -1.36719,-0.80079 -2.44922,-1.88282 -3.25,-3.25 -0.80469,-1.36329 -1.20313,-2.86329 -1.20313,-4.5 v -26.89063 c 0,-1.63281 0.39844,-3.13281 1.20313,-4.5 0.80078,-1.36328 1.88281,-2.44531 3.25,-3.25 1.36328,-0.80078 2.86719,-1.20312 4.51562,-1.20312 h 35.84375 v 8.95312 h -35.84375 v 26.89063 h 35.84375 z m 0,0"
             id="path440"
             style="fill:#5e30a5;fill-opacity:1;stroke-width:1.29869;stroke-dasharray:none" />
          <path
             d="m 457.05133,468.35727 h -44.8125 v -8.95312 h 17.92187 v -26.89063 h -17.92187 v -8.95312 h 44.8125 v 8.95312 h -17.92188 v 26.89063 h 17.92188 z m 0,0"
             id="path441"
             style="fill:#5e30a5;fill-opacity:1;stroke-width:1.29869;stroke-dasharray:none" />
          <path
             d="m 497.35568,423.5604 c 1.64454,0 3.14454,0.40234 4.5,1.20312 1.36329,0.80469 2.44532,1.88672 3.25,3.25 0.8125,1.36719 1.21875,2.86719 1.21875,4.5 v 8.96875 c 0,1.63672 -0.40625,3.13672 -1.21875,4.5 -0.80468,1.36719 -1.88671,2.44922 -3.25,3.25 -1.35546,0.80469 -2.85546,1.20313 -4.5,1.20313 h -26.875 v 17.92187 h -8.96875 V 423.5604 Z m -26.875,17.92187 h 26.875 v -8.96875 h -26.875 z m 0,0"
             id="path442"
             style="fill:#5e30a5;fill-opacity:1;stroke-width:1.29869;stroke-dasharray:none" />
          <path
             d="m 519.7538,423.5604 h 26.875 c 1.64453,0 3.14453,0.40234 4.5,1.20312 1.36328,0.80469 2.44531,1.88672 3.25,3.25 0.8125,1.36719 1.21875,2.86719 1.21875,4.5 v 35.84375 H 546.6288 V 450.4354 h -26.875 v 17.92187 h -8.96875 v -35.84375 c 0,-1.63281 0.39843,-3.13281 1.20312,-4.5 0.80078,-1.36328 1.88281,-2.44531 3.25,-3.25 1.36328,-0.80078 2.86719,-1.20312 4.51563,-1.20312 z m 0,8.95312 v 8.96875 h 26.875 v -8.96875 z m 0,0"
             id="path443"
             style="fill:#5e30a5;fill-opacity:1;stroke-width:1.29869;stroke-dasharray:none" />
          <path
             d="M 595.90192,468.35727 H 560.05817 V 423.5604 h 35.84375 c 1.64454,0 3.14454,0.40234 4.5,1.20312 1.36329,0.80469 2.44532,1.88672 3.25,3.25 0.8125,1.36719 1.21875,2.86719 1.21875,4.5 v 26.89063 c 0,1.63671 -0.40625,3.13671 -1.21875,4.5 -0.80468,1.36718 -1.88671,2.44921 -3.25,3.25 -1.35546,0.80468 -2.85546,1.20312 -4.5,1.20312 z m -26.875,-35.84375 v 26.89063 h 26.875 v -26.89063 z m 0,0"
             id="path444"
             style="fill:#5e30a5;fill-opacity:1;stroke-width:1.29869;stroke-dasharray:none" />
          <path
             d="m 645.17506,468.35727 h -26.875 c -1.64844,0 -3.15235,-0.39844 -4.51563,-1.20312 -1.36719,-0.80079 -2.44922,-1.88282 -3.25,-3.25 -0.80469,-1.36329 -1.20312,-2.86329 -1.20312,-4.5 v -26.89063 c 0,-1.63281 0.39843,-3.13281 1.20312,-4.5 0.80078,-1.36328 1.88281,-2.44531 3.25,-3.25 1.36328,-0.80078 2.86719,-1.20312 4.51563,-1.20312 h 26.875 c 1.64453,0 3.14453,0.40234 4.5,1.20312 1.36328,0.80469 2.44531,1.88672 3.25,3.25 0.8125,1.36719 1.21875,2.86719 1.21875,4.5 v 26.89063 c 0,1.60546 -0.40625,3.08984 -1.21875,4.45312 -0.80469,1.35547 -1.875,2.44531 -3.21875,3.26563 -1.34375,0.82421 -2.85547,1.23437 -4.53125,1.23437 z m -26.875,-35.84375 v 26.89063 h 26.875 v -26.89063 z m 0,0"
             id="path445"
             style="fill:#5e30a5;fill-opacity:1;stroke-width:1.29869;stroke-dasharray:none" />
        </g>
      </g>
    </g>
  </g>
</svg>
