<svg xmlns="http://www.w3.org/2000/svg" version="1.1" width="903.36865" height="900.09875" viewBox="0 0 239.01633 238.15113" id="svg1" xml:space="preserve" sodipodi:docname="dark-purple-no-bg-v2.svg" inkscape:version="1.4.2 (f4327f4, 2025-05-13)" xmlns:inkscape="http://www.inkscape.org/namespaces/inkscape" xmlns:sodipodi="http://sodipodi.sourceforge.net/DTD/sodipodi-0.dtd" xmlns:svg="http://www.w3.org/2000/svg"><metadata><rdf:RDF xmlns:rdf="http://www.w3.org/1999/02/22-rdf-syntax-ns#" xmlns:dc="http://purl.org/dc/elements/1.1/"><rdf:Description><dc:creator>RealFaviconGenerator</dc:creator><dc:source>https://realfavicongenerator.net</dc:source></rdf:Description></rdf:RDF></metadata><sodipodi:namedview id="namedview1" pagecolor="#ffffff" bordercolor="#000000" borderopacity="0.25" inkscape:showpageshadow="2" inkscape:pageopacity="0.0" inkscape:pagecheckerboard="0" inkscape:deskcolor="#d1d1d1" inkscape:zoom="0.42884183" inkscape:cx="561.97876" inkscape:cy="673.90813" inkscape:window-width="1920" inkscape:window-height="1006" inkscape:window-x="1358" inkscape:window-y="-8" inkscape:window-maximized="1" inkscape:current-layer="svg1"></sodipodi:namedview><defs id="defs1"></defs><rect style="display:none;fill:#999999;stroke-width:4.59998;stroke-linejoin:round;stroke-dashoffset:72;paint-order:stroke markers fill" id="rect5" width="203.20003" height="203.20003" x="19.365286" y="16.022474"></rect><path id="path8-8" style="font-size:34.5722px;font-family:Audiowide;-inkscape-font-specification:Audiowide;display:inline;fill:#f8f4ff;fill-opacity:1;stroke-width:4.6;stroke-linejoin:round;stroke-dashoffset:72;paint-order:stroke markers fill" d="m 218.88635,46.436529 -0.009,0.301022 c -0.72661,24.427346 -1.65025,57.055559 -1.95718,87.511749 -0.29373,29.14702 0.16371,51.62018 0.16371,51.62018 0.19561,10.06354 -1.96097,17.4046 -6.79257,22.14713 -4.66025,4.57433 -11.54044,6.54156 -20.60861,6.21093 -0.22372,-0.0121 -0.67111,-0.036 -0.67111,-0.036 -11.11592,-0.59466 -24.79659,-1.1894 -39.71813,-1.66801 -14.8624,-0.4767 -30.61499,-0.82698 -45.25347,-0.84964 -15.200089,-0.0236 -27.274719,0.30579 -37.454059,0.84787 -9.57938,0.51014 -15.44245,1.08885 -15.44245,1.08885 -8.5024,0.60427 -14.9502,-0.94303 -19.63769,-4.8943 -5.02803,-4.04183 -7.00372,-10.2327 -6.15862,-19.16661 2.33299,-24.66313 2.54008,-53.24474 1.41666,-86.44635 -1.0182,-30.091713 -2.67409,-54.107004 -2.67409,-54.107004 -0.6648,-10.674691 1.53786,-18.662865 6.58935,-23.904503 4.89292,-5.0771 12.17613,-7.424668 21.97376,-7.380042 0.24267,0.0052 0.72782,0.01567 0.72782,0.01567 20.4175,0.435106 42.59294,0.549408 66.631169,0.354464 21.7181,-0.176128 38.53668,-0.543244 38.53668,-0.543244 -1.6e-4,-0.0018 -4.7e-4,-0.0052 -4.7e-4,-0.0052 10.77446,-0.210872 32.05397,-0.752515 32.05397,-0.752515 8.42734,-0.228673 15.36818,2.183052 20.63586,7.465416 5.43157,5.257966 6.25723,12.915041 7.64831,22.189811 l 1.3e-4,3.93e-4 z" sodipodi:nodetypes="ccscsccsssccsscsccsccccccc"></path><path id="path8" style="font-size:34.5722px;font-family:Audiowide;-inkscape-font-specification:Audiowide;display:inline;fill:#2f1a55;fill-opacity:1;stroke-width:4.6;stroke-linejoin:round;stroke-dashoffset:72;paint-order:stroke markers fill" d="m 253.40195,87.651393 c 0.41474,-9.261952 -0.28373,-17.585806 -2.11953,-24.875981 -1.8357,-7.289784 -4.40156,-13.689266 -7.76398,-19.120223 -3.37778,-5.307069 -7.40209,-9.700868 -12.1748,-13.231215 -4.777,-3.398131 -9.9128,-5.990694 -15.43677,-7.888001 -5.37751,-1.902127 -10.90993,-3.178673 -16.52973,-3.916383 -5.6049,-0.616838 -10.99564,-0.785812 -16.03731,-0.545674 -7.76547,0.369829 -23.27325,0.843232 -23.27325,0.843232 -13.58143,0.336114 -28.81359,0.437654 -45.34474,0.07966 C 99.644776,18.6703 87.634283,18.019804 87.634283,18.019804 c -0.06729,-0.0035 -0.201787,-0.01025 -0.201787,-0.01025 -8.587427,-0.436866 -16.176708,-0.02375 -22.839728,1.425892 -0.371032,0.07892 -0.739714,0.160731 -1.105505,0.245856 -3.767111,0.898692 -7.213409,2.071854 -10.47684,3.44891 -2.045487,0.876837 -3.963639,1.869066 -5.793363,2.952451 -0.618814,0.355691 -1.343319,0.615488 -1.940452,0.994028 -3.12268,2.038268 -5.861512,4.44414 -8.420446,7.068791 -0.94377,0.977598 -1.842454,1.997437 -2.693567,3.060689 -0.618405,0.750289 -1.345688,1.411293 -1.924554,2.2045 -3.458596,4.934552 -6.242775,10.2585 -8.346542,16.020147 -2.095528,5.90736 -3.574058,11.986553 -4.459694,18.200768 -0.751702,6.201549 -0.986761,12.200154 -0.721421,17.863816 0.0036,0.07766 0.01089,0.232938 0.01089,0.232938 0.842758,18.00194 2.052337,45.05485 2.536433,66.6358 0.485864,21.65975 0.04119,37.36506 0.04119,37.36506 -0.384509,13.49919 -1.387843,28.68997 -4.162373,42.20335 -0.639946,3.11686 -1.3559,5.95566 -2.070975,8.46298 -1.957724,6.8645 1.269916,10.69894 8.280114,9.32152 5.665819,-1.11328 11.768074,-2.10568 18.383479,-2.97208 10.708453,-1.40245 19.576581,-2.06602 19.576581,-2.06602 7.065393,-0.58704 21.461133,-1.37211 21.461133,-1.37211 17.930514,-0.84308 39.637254,-1.17197 62.164844,-0.79707 20.88601,0.34757 37.31763,1.34305 37.31763,1.34305 0.0697,0.004 0.20925,0.0122 0.20925,0.0122 8.88118,0.52096 16.88681,0.2945 23.74157,-0.8384 0.38336,-0.0617 0.76401,-0.12599 1.1414,-0.19325 3.89055,-0.71369 7.40599,-1.67185 10.69697,-2.82119 2.06273,-0.73293 3.97896,-1.57442 5.79387,-2.5049 0.61333,-0.30458 1.32597,-0.51492 1.91458,-0.84152 3.08128,-1.76409 5.73351,-3.88396 8.19502,-6.22282 0.90705,-0.87085 1.7674,-1.78313 2.58035,-2.73789 0.5907,-0.67285 1.28478,-1.25635 1.83618,-1.97047 3.28418,-4.43614 5.94105,-9.29062 7.98906,-14.47813 2.03984,-5.32113 3.56767,-10.81233 4.55489,-16.34803 0.85674,-5.56085 1.24408,-10.89732 1.13132,-16.00043 -0.002,-0.0699 -0.005,-0.20964 -0.005,-0.20964 -0.39947,-18.22672 -0.41321,-38.20434 0.10973,-60.48327 0.47355,-20.17465 1.25325,-36.353377 1.25325,-36.353377 2e-5,-7e-6 0.01,-0.210312 0.01,-0.210335 z M 224.7994,72.462349 c -0.003,0.09032 -0.008,0.270922 -0.008,0.270922 -0.65395,21.984806 -1.48523,51.350449 -1.76147,78.761259 -0.26436,26.23255 0.14734,46.45857 0.14734,46.45857 0.17605,9.05727 -1.76489,15.66428 -6.11337,19.93259 -4.19426,4.11694 -10.38649,5.88746 -18.54791,5.58989 -0.20135,-0.0109 -0.60401,-0.0324 -0.60401,-0.0324 -10.00441,-0.5352 -22.31712,-1.07047 -35.74663,-1.50122 -13.37627,-0.42904 -27.55373,-0.74429 -40.72848,-0.76469 -13.6802,-0.0212 -24.547461,0.27522 -33.708947,0.76309 -8.621511,0.45913 -13.898326,0.97998 -13.898326,0.97998 -7.652233,0.54384 -13.455296,-0.84874 -17.674077,-4.40491 -4.525276,-3.63768 -6.303404,-9.20951 -5.542812,-17.2501 2.099706,-22.19701 2.286103,-47.92069 1.275008,-77.8024 -0.916387,-27.082776 -2.406702,-48.696726 -2.406702,-48.696726 -0.598321,-9.607306 1.384085,-16.796725 5.930468,-21.514241 4.403665,-4.56943 10.958617,-6.68226 19.77656,-6.642096 0.218403,0.0047 0.65505,0.0141 0.65505,0.0141 18.375907,0.391598 38.333978,0.494471 59.968568,0.31902 19.54647,-0.158517 34.68332,-0.488924 34.68332,-0.488924 -1.4e-4,-0.0016 -4.2e-4,-0.0047 -4.2e-4,-0.0047 9.6971,-0.189786 28.84882,-0.677269 28.84882,-0.677269 7.58468,-0.205808 13.83149,1.964764 18.57244,6.718933 4.88846,4.732211 5.63156,11.623639 6.88354,19.971005 l 1.2e-4,3.54e-4 z M 68.890537,205.64259 c 6.842239,-0.80323 14.334735,-1.42717 22.691316,-1.85066 7.555408,-0.38289 13.537957,-0.49119 13.537957,-0.49119 0.97297,-6.09732 1.92757,-12.99974 2.73952,-20.65259 0.73986,-6.97345 1.14137,-12.63597 1.14137,-12.63597 6.88205,-0.14499 14.17907,-0.19287 22.20274,-0.15516 7.22472,0.034 12.80032,0.12052 12.80032,0.12052 0.48863,-6.3746 0.9142,-13.57345 1.16747,-21.52034 0.23075,-7.2405 0.24117,-13.07892 0.24117,-13.07892 -6.06435,-0.0199 -13.69059,-0.0259 -21.63284,0.0409 -7.43109,0.0625 -13.57778,0.18975 -13.57778,0.18975 -6.74098,0.13576 -14.84374,0.36638 -23.405843,0.79281 -7.926342,0.39476 -14.304622,0.88755 -14.304622,0.88755 0.08609,6.56841 0.08906,14.00201 -0.09427,21.90495 -0.167858,7.23591 -0.464528,12.93655 -0.464528,12.93655 -0.56216,11.41595 -1.537353,22.61893 -3.041982,33.51179 z m 75.113373,-35.66453 c -0.49147,6.41137 -1.15504,13.40231 -2.06345,21.02554 -0.82355,6.91113 -1.61169,12.3205 -1.61169,12.3205 6.49269,0.1185 13.47471,0.28968 21.15044,0.50874 6.93582,0.19794 12.38316,0.37466 12.38316,0.37466 5.88576,0.18697 13.15755,0.42946 20.2744,0.68843 6.70167,0.24386 12.0609,0.46402 12.0609,0.46402 0.074,-10.98753 0.45448,-34.24932 0.45448,-34.24932 13.97378,0.23736 -32.8923,-0.56658 -18.91851,-0.32923 -6.33376,-0.11628 -11.51257,-0.21921 -11.51257,-0.21921 -9.45201,-0.18527 -21.89467,-0.44545 -32.21716,-0.58413 z M 71.208926,101.6978 c 7.214991,-0.29474 15.064424,-0.54662 23.742048,-0.75382 7.841726,-0.18724 13.968856,-0.28258 13.968856,-0.28258 -0.44784,-6.594393 -1.04315,-13.795195 -1.84021,-21.76786 -0.72143,-7.216121 -1.39326,-12.910075 -1.39326,-12.910075 -12.171573,0.07448 -37.031007,0.113305 -37.031007,0.113305 1.003807,11.754343 1.885518,23.709909 2.553573,35.60103 z m 73.191024,-1.42326 c 6.41741,-0.0414 13.26063,-0.075 20.67972,-0.10445 6.70435,-0.0267 11.9065,-0.0426 11.9065,-0.0426 0.21656,6.61536 0.382,14.04461 0.42649,22.16494 0.0405,7.39776 -0.0388,13.29198 -0.0388,13.29198 -1.45202,-0.0108 20.21887,0.13646 18.76685,0.1257 6.16625,0.0365 11.11416,0.0634 11.11416,0.0634 0.18375,-11.88695 0.41863,-35.71288 0.41863,-35.71288 0.0488,-6.689392 0.0843,-14.077031 0.092,-22.146146 0.007,-7.330062 -0.0124,-13.106809 -0.0124,-13.106809 -4.01428,0.05542 -16.26735,0.228136 -20.28163,0.283559 -6.78964,0.09483 -12.30098,0.169538 -12.30098,0.169538 2.75012,-0.03723 -23.68896,0.306672 -20.93884,0.269443 -7.08879,0.08548 -12.89086,0.147415 -12.89086,0.147415 1.28255,11.382931 2.34069,22.848994 3.05917,34.59695 z m -34.19814,35.33432 c 6.96754,-0.14032 14.33028,-0.21605 22.38958,-0.23753 7.25511,-0.0194 12.82103,0.007 12.82103,0.007 0.0337,-6.5693 -0.0591,-13.87826 -0.36159,-21.94007 -0.27484,-7.32524 -0.65135,-13.16366 -0.65135,-13.16366 -6.16609,0.0398 -13.83412,0.0988 -21.8432,0.19309 -7.47643,0.088 -13.63694,0.19368 -13.63694,0.19368 0.79404,11.69213 1.24858,23.31639 1.28247,34.94762 z" sodipodi:nodetypes="csccccccsccccccccccccccscssssccsccccccccccccccscccccscsccsssccsscsccscccccccsscscccscscscscsscscscsccccccscsccccccsccccsccccccccccscsccc" transform="translate(-14.50138,-17.84419)"></path></svg>