<svg width="497" height="152" viewBox="0 0 497 152" fill="none" xmlns="http://www.w3.org/2000/svg">
<g filter="url(#filter0_f_77_555)">
<path d="M32.8246 98.7999C32.8246 104.8 81.3302 106.223 114.59 106.223C114.59 106.223 250.926 106.817 297.331 106.8C343.735 106.783 469.335 79.3002 469.333 67.8002C469.323 28.3001 356.828 27.2903 330.328 27.3001C319.523 27.3041 275.956 78.0783 221.328 84.3001C193.145 87.5101 109.824 84.7999 109.824 84.7999C109.824 84.7999 32.8246 84.7999 32.8246 98.7999Z" fill="#A859A8" fill-opacity="0.2"/>
</g>
<g filter="url(#filter1_f_77_555)">
<path d="M34.8235 98.3C34.8235 104.8 84.8234 106.233 110.842 106.233C136.861 106.233 247.347 105.31 291.332 105.3C335.317 105.289 441.078 80.2997 442.326 69.2997C447.318 25.2998 368.237 27.2835 298.823 27.2996C277.066 27.3047 243.752 75.222 208.823 79.7996C172.999 84.4946 143.26 78.6409 99.3232 83.2999C75.3071 85.8466 34.8235 86.2999 34.8235 98.3Z" fill="#A859A8" fill-opacity="0.2"/>
</g>
<g filter="url(#filter2_f_77_555)">
<path d="M45.8283 95.7998C47.5955 101.8 68.0156 104.798 104.955 106.249C104.955 106.249 249.158 106.279 289.396 106.279C329.633 106.279 396.421 84.2695 396.422 72.7205C396.422 50.0862 339.484 51.7801 275.984 51.78C257.749 51.7799 230.027 86.6149 201.157 86.7866C170.687 86.9679 117.04 85.2937 106.72 85.2946C96.3992 85.2955 42.7361 85.3001 45.8283 95.7998Z" fill="#1D0766" fill-opacity="0.55"/>
</g>
<g filter="url(#filter3_f_77_555)">
<path d="M47.323 98.2999C47.3232 102.8 79.8214 106.461 93.1186 106.461C93.1186 106.461 238.801 106.81 271.323 106.8C303.845 106.79 323.821 90.6514 323.823 84.3001C323.828 67.9682 242.322 64.3 205.822 66.3C194.684 66.9102 159.991 83.083 140.823 85.7999C125.587 87.9595 81.3232 87.7999 81.3232 87.7999C81.3232 87.7999 47.3224 85.7999 47.323 98.2999Z" fill="#1D0766" fill-opacity="0.55"/>
</g>
<defs>
<filter id="filter0_f_77_555" x="5.52422" y="4.95911e-05" width="491.108" height="134.1" filterUnits="userSpaceOnUse" color-interpolation-filters="sRGB">
<feFlood flood-opacity="0" result="BackgroundImageFix"/>
<feBlend mode="normal" in="SourceGraphic" in2="BackgroundImageFix" result="shape"/>
<feGaussianBlur stdDeviation="6.15" result="effect1_foregroundBlur_77_555"/>
</filter>
<filter id="filter1_f_77_555" x="12.9242" y="5.38223" width="451.527" height="122.751" filterUnits="userSpaceOnUse" color-interpolation-filters="sRGB">
<feFlood flood-opacity="0" result="BackgroundImageFix"/>
<feBlend mode="normal" in="SourceGraphic" in2="BackgroundImageFix" result="shape"/>
<feGaussianBlur stdDeviation="5.1" result="effect1_foregroundBlur_77_555"/>
</filter>
<filter id="filter2_f_77_555" x="-0.000782013" y="6.05122" width="442.123" height="145.928" filterUnits="userSpaceOnUse" color-interpolation-filters="sRGB">
<feFlood flood-opacity="0" result="BackgroundImageFix"/>
<feBlend mode="normal" in="SourceGraphic" in2="BackgroundImageFix" result="shape"/>
<feGaussianBlur stdDeviation="4.55" result="effect1_foregroundBlur_77_555"/>
</filter>
<filter id="filter3_f_77_555" x="29.0223" y="47.504" width="313.1" height="77.5963" filterUnits="userSpaceOnUse" color-interpolation-filters="sRGB">
<feFlood flood-opacity="0" result="BackgroundImageFix"/>
<feBlend mode="normal" in="SourceGraphic" in2="BackgroundImageFix" result="shape"/>
<feGaussianBlur stdDeviation="3" result="effect1_foregroundBlur_77_555"/>
</filter>
</defs>
</svg>
