<svg width="380" height="144" viewBox="0 0 380 144" fill="none" xmlns="http://www.w3.org/2000/svg">
<mask id="path-1-inside-1_77_696" fill="white">
<path d="M0 15.8408C0 7.09229 7.09229 0 15.8408 0H134.529C134.529 5.84294 139.668 10.5801 146.006 10.5801C152.146 10.58 157.16 6.13473 157.468 0.544922L157.482 0L364.159 0C372.908 6.09849e-05 380 7.09234 380 15.8408V128.159C380 136.908 372.908 144 364.159 144L157.482 144C157.482 138.157 152.344 133.421 146.006 133.421C139.668 133.421 134.529 138.157 134.529 144H15.8408C7.09229 144 0 136.908 0 128.159L0 15.8408Z"/>
</mask>
<path d="M0 15.8408C0 7.09229 7.09229 0 15.8408 0H134.529C134.529 5.84294 139.668 10.5801 146.006 10.5801C152.146 10.58 157.16 6.13473 157.468 0.544922L157.482 0L364.159 0C372.908 6.09849e-05 380 7.09234 380 15.8408V128.159C380 136.908 372.908 144 364.159 144L157.482 144C157.482 138.157 152.344 133.421 146.006 133.421C139.668 133.421 134.529 138.157 134.529 144H15.8408C7.09229 144 0 136.908 0 128.159L0 15.8408Z" fill="white"/>
<path d="M134.529 0H135.163V-0.633621H134.529V0ZM146.006 10.5801V11.2137V11.2137V10.5801ZM157.468 0.544922L158.1 0.579727L158.101 0.570847L158.101 0.561951L157.468 0.544922ZM157.482 0V-0.633621H156.866L156.849 -0.0170288L157.482 0ZM364.159 0V-0.633621V-0.633621V0ZM380 15.8408H380.634V15.8408H380ZM364.159 144V144.634V144.634V144ZM157.482 144L156.849 144V144.634H157.482V144ZM146.006 133.421V132.787V132.787V133.421ZM134.529 144V144.634H135.163V144L134.529 144ZM0 15.8408H0.633625C0.633625 7.44223 7.44223 0.633621 15.8408 0.633621V0V-0.633621C6.74235 -0.633621 -0.633625 6.74236 -0.633625 15.8408H0ZM15.8408 0V0.633621H134.529V0V-0.633621H15.8408V0ZM134.529 0H133.896C133.896 6.2404 139.367 11.2137 146.006 11.2137V10.5801V9.94646C139.968 9.94646 135.163 5.44547 135.163 0H134.529ZM146.006 10.5801V11.2137C152.439 11.2137 157.772 6.54747 158.1 0.579727L157.468 0.544922L156.835 0.510117C156.548 5.722 151.853 9.94643 146.006 9.94646V10.5801ZM157.468 0.544922L158.101 0.561951L158.116 0.0170288L157.482 0L156.849 -0.0170288L156.834 0.527893L157.468 0.544922ZM157.482 0V0.633621L364.159 0.633621V0V-0.633621L157.482 -0.633621V0ZM364.159 0V0.633621C372.558 0.633682 379.366 7.44229 379.366 15.8408H380H380.634C380.634 6.7424 373.258 -0.63356 364.159 -0.633621V0ZM380 15.8408H379.366V128.159H380H380.634V15.8408H380ZM380 128.159H379.366C379.366 136.558 372.558 143.366 364.159 143.366V144V144.634C373.258 144.634 380.634 137.258 380.634 128.159H380ZM364.159 144V143.366L157.482 143.366V144V144.634L364.159 144.634V144ZM157.482 144L158.116 144C158.116 137.76 152.644 132.787 146.006 132.787V133.421V134.055C152.044 134.055 156.849 138.555 156.849 144L157.482 144ZM146.006 133.421V132.787C139.367 132.787 133.896 137.76 133.896 144L134.529 144L135.163 144C135.163 138.555 139.968 134.055 146.006 134.055V133.421ZM134.529 144V143.366H15.8408V144V144.634H134.529V144ZM15.8408 144V143.366C7.44223 143.366 0.633625 136.558 0.633625 128.159H0H-0.633625C-0.633625 137.258 6.74235 144.634 15.8408 144.634V144ZM0 128.159H0.633625L0.633625 15.8408H0H-0.633625L-0.633625 128.159H0Z" fill="black" mask="url(#path-1-inside-1_77_696)"/>
</svg>
