<svg width="28" height="28" viewBox="0 0 28 28" fill="none" xmlns="http://www.w3.org/2000/svg">
<path d="M24.4985 8.74988H3.49852V19.2499C3.49852 20.1781 3.86727 21.0684 4.52365 21.7248C5.18002 22.3811 6.07026 22.7499 6.99852 22.7499H20.9985C21.9268 22.7499 22.817 22.3811 23.4734 21.7248C24.1298 21.0684 24.4985 20.1781 24.4985 19.2499V8.74988Z" fill="#C78005"/>
<path d="M24.4985 8.74988H3.49852V19.2499C3.49852 20.1781 3.86727 21.0684 4.52365 21.7248C5.18002 22.3811 6.07026 22.7499 6.99852 22.7499H20.9985C21.9268 22.7499 22.817 22.3811 23.4734 21.7248C24.1298 21.0684 24.4985 20.1781 24.4985 19.2499V8.74988Z" fill="url(#paint0_linear_173_51)"/>
<path d="M24.4985 8.74988H3.49852V19.2499C3.49852 20.1781 3.86727 21.0684 4.52365 21.7248C5.18002 22.3811 6.07026 22.7499 6.99852 22.7499H20.9985C21.9268 22.7499 22.817 22.3811 23.4734 21.7248C24.1298 21.0684 24.4985 20.1781 24.4985 19.2499V8.74988Z" fill="url(#paint1_linear_173_51)"/>
<path d="M24.4985 8.74988H3.49852V19.2499C3.49852 20.1781 3.86727 21.0684 4.52365 21.7248C5.18002 22.3811 6.07026 22.7499 6.99852 22.7499H20.9985C21.9268 22.7499 22.817 22.3811 23.4734 21.7248C24.1298 21.0684 24.4985 20.1781 24.4985 19.2499V8.74988Z" fill="url(#paint2_linear_173_51)" fill-opacity="0.75"/>
<path d="M24.4985 8.74988H3.49852V19.2499C3.49852 20.1781 3.86727 21.0684 4.52365 21.7248C5.18002 22.3811 6.07026 22.7499 6.99852 22.7499H20.9985C21.9268 22.7499 22.817 22.3811 23.4734 21.7248C24.1298 21.0684 24.4985 20.1781 24.4985 19.2499V8.74988Z" fill="url(#paint3_linear_173_51)" fill-opacity="0.7"/>
<path d="M6.99825 5.24976C6.06999 5.24976 5.17975 5.6185 4.52337 6.27488C3.86699 6.93126 3.49825 7.8215 3.49825 8.74976V10.2198L13.5835 15.65C13.711 15.7186 13.8535 15.7545 13.9982 15.7545C14.143 15.7545 14.2855 15.7186 14.413 15.65L24.4982 10.2198V8.74976C24.4982 7.8215 24.1295 6.93126 23.4731 6.27488C22.8167 5.6185 21.9265 5.24976 20.9982 5.24976H6.99825Z" fill="url(#paint4_linear_173_51)"/>
<defs>
<linearGradient id="paint0_linear_173_51" x1="16.6638" y1="11.4939" x2="22.794" y2="22.4244" gradientUnits="userSpaceOnUse">
<stop offset="0.228" stop-color="#F09800" stop-opacity="0"/>
<stop offset="0.431" stop-color="#F09800"/>
</linearGradient>
<linearGradient id="paint1_linear_173_51" x1="10.999" y1="10.2234" x2="4.18802" y2="23.0964" gradientUnits="userSpaceOnUse">
<stop offset="0.228" stop-color="#F09800" stop-opacity="0"/>
<stop offset="0.431" stop-color="#F09800"/>
</linearGradient>
<linearGradient id="paint2_linear_173_51" x1="19.5355" y1="17.1026" x2="20.5715" y2="24.0204" gradientUnits="userSpaceOnUse">
<stop stop-color="#CE8B16" stop-opacity="0"/>
<stop offset="1" stop-color="#CF8B17"/>
</linearGradient>
<linearGradient id="paint3_linear_173_51" x1="17.2483" y1="10.4684" x2="19.14" y2="24.5594" gradientUnits="userSpaceOnUse">
<stop offset="0.533" stop-color="#A053FF" stop-opacity="0"/>
<stop offset="1" stop-color="#923BFD"/>
</linearGradient>
<linearGradient id="paint4_linear_173_51" x1="9.73699" y1="0.887006" x2="21.5512" y2="22.2685" gradientUnits="userSpaceOnUse">
<stop stop-color="#FFC96C"/>
<stop offset="0.462" stop-color="#FFB129"/>
<stop offset="1" stop-color="#FEBB48"/>
</linearGradient>
</defs>
</svg>
