<svg width="26" height="26" viewBox="0 0 26 26" fill="none" xmlns="http://www.w3.org/2000/svg">
<path opacity="0.987" fill-rule="evenodd" clip-rule="evenodd" d="M11.7137 1.72433C12.8919 1.5927 13.589 1.5927 14.8549 1.72433C17.0956 2.05598 19.1728 3.09174 20.7861 4.68183C19.6959 5.7123 18.6201 6.75782 17.5589 7.81808C15.5265 6.09558 13.258 5.698 10.7534 6.62533C8.91603 7.47033 7.63661 8.83966 6.91511 10.7333C5.73608 9.85555 4.5724 8.95733 3.42461 8.03908C3.34484 7.99709 3.25374 7.98172 3.16461 7.9952C4.98786 4.47979 7.83703 2.38895 11.7121 1.7227" fill="#F44336"/>
<path opacity="0.997" fill-rule="evenodd" clip-rule="evenodd" d="M3.16138 7.99529C3.25346 7.98121 3.34067 7.99584 3.423 8.03917C4.57079 8.95742 5.73447 9.85564 6.9135 10.7334C6.72797 11.4713 6.61101 12.2247 6.56413 12.984C6.60421 13.7185 6.72067 14.4395 6.9135 15.1469L3.24913 18.0638C1.65338 14.7293 1.62413 11.3731 3.16138 7.99529Z" fill="#FFC107"/>
<path opacity="0.999" fill-rule="evenodd" clip-rule="evenodd" d="M20.612 21.5966C19.471 20.5903 18.2765 19.6465 17.0337 18.7691C18.2795 17.8894 19.0357 16.6826 19.3022 15.1486H13.1971V10.9089C16.7179 10.8797 20.2371 10.9095 23.7547 10.9983C24.422 14.6221 23.6513 17.8894 21.4423 20.8003C21.1797 21.0795 20.9014 21.3453 20.612 21.5966Z" fill="#448AFF"/>
<path opacity="0.993" fill-rule="evenodd" clip-rule="evenodd" d="M6.91468 15.1484C8.24718 18.4602 10.6901 20.0061 14.2434 19.7862C15.2409 19.6707 16.1972 19.3223 17.0352 18.7689C18.2788 19.6486 19.4716 20.5911 20.6134 21.5964C18.8042 23.2222 16.4975 24.1868 14.0696 24.3329C13.5179 24.377 12.9637 24.377 12.4121 24.3329C8.27589 23.8454 5.22197 21.7557 3.25031 18.0637L6.91468 15.1484Z" fill="#43A047"/>
</svg>
