<svg width="262" height="383" viewBox="0 0 262 383" fill="none" xmlns="http://www.w3.org/2000/svg">
<g clip-path="url(#clip0_77_581)">
<path d="M0.925781 0.925049H216.926C241.226 0.925049 260.926 20.6245 260.926 44.925V337.925C260.926 362.226 241.226 381.925 216.926 381.925H0.925781V0.925049Z" fill="white"/>
<path d="M106.839 316.812C106.839 316.812 76.8087 309.373 58.277 302.475C45.7636 297.817 26.827 289.062 26.827 289.062L0.00195312 278.425V512.45H318.202V258.075C318.202 258.075 308.28 259.796 302.014 261.312C295.624 262.859 291.991 263.652 285.827 265.937C282.336 267.232 280.402 268.037 277.039 269.637C277.039 269.637 266.864 273.8 259.927 279.812C252.989 285.825 248.558 295.451 244.664 300.162C240.759 304.888 238.47 307.586 233.564 311.262C228.777 314.85 225.668 316.348 220.152 318.662C220.152 318.662 209.052 325.137 177.139 325.137C161.877 325.137 153.552 324.675 139.677 323.287C126.671 321.987 106.839 316.812 106.839 316.812Z" fill="#E5D2F5" stroke="#DFC3FA" stroke-width="0.925"/>
<path d="M17.4326 276.854C22.3688 276.562 28.5183 276.329 33.3252 276.575C42.3952 277.04 47.5318 277.36 56.5049 278.895C69.2848 281.08 76.2823 283.434 88.4912 287.701C97.2535 290.764 108.028 295.746 116.601 299.956C120.889 302.062 124.631 303.978 127.301 305.366C128.636 306.061 129.703 306.623 130.437 307.013C130.803 307.207 131.087 307.358 131.278 307.461C131.374 307.512 131.448 307.552 131.497 307.578C131.521 307.591 131.54 307.601 131.553 307.607C131.559 307.611 131.563 307.614 131.566 307.615C131.568 307.616 131.57 307.617 131.57 307.617L131.571 307.618H131.572C131.573 307.619 131.574 307.619 131.575 307.62L131.639 307.654C131.684 307.679 131.751 307.714 131.84 307.762C132.017 307.856 132.279 307.996 132.618 308.176C133.297 308.535 134.284 309.054 135.519 309.693C137.989 310.972 141.451 312.732 145.414 314.656C152.85 318.266 162.034 322.444 169.748 325.11L171.271 325.623L171.276 325.625H171.277L171.279 325.626C171.281 325.627 171.284 325.628 171.288 325.629C171.296 325.632 171.307 325.635 171.322 325.641C171.353 325.651 171.4 325.667 171.461 325.688C171.583 325.729 171.764 325.789 172.001 325.868C172.475 326.026 173.171 326.255 174.058 326.54C175.832 327.11 178.372 327.903 181.432 328.798C187.552 330.588 195.747 332.781 204.053 334.396C220.673 337.628 240.938 337.626 252.294 337.625H320.977V476.375H8.32617V277.542L8.74512 277.502L8.78906 277.963L8.74609 277.502H8.74805C8.74992 277.502 8.75317 277.501 8.75684 277.501C8.76412 277.5 8.77489 277.499 8.78906 277.498C8.81785 277.495 8.86091 277.491 8.91699 277.486C9.02925 277.476 9.19509 277.461 9.40918 277.442C9.8377 277.405 10.4606 277.351 11.2373 277.288C12.7909 277.163 14.9622 277.001 17.4326 276.854Z" fill="#E5C7FC" stroke="#DFC3FA" stroke-width="0.925"/>
<path d="M0.635742 277.995L8.32617 281.044V476.375H289.064V512.912H0.00195312V277.744L0.635742 277.995ZM320.977 337.625V476.375H289.064V337.625H320.977ZM289.064 337.625H252.294C240.938 337.626 220.673 337.628 204.053 334.396C195.747 332.781 187.552 330.589 181.432 328.799C178.372 327.904 175.832 327.11 174.058 326.54C173.171 326.255 172.475 326.026 172.001 325.868C171.764 325.789 171.583 325.729 171.461 325.688C171.4 325.667 171.353 325.651 171.322 325.641C171.307 325.635 171.296 325.632 171.288 325.629C171.284 325.628 171.281 325.627 171.279 325.626L171.277 325.625H171.276L171.271 325.623L170.22 325.269C171.524 325.334 172.7 325.392 173.712 325.438C174.927 325.492 175.904 325.534 176.577 325.561C176.913 325.574 177.174 325.584 177.351 325.591C177.438 325.594 177.506 325.596 177.551 325.598C177.573 325.598 177.59 325.599 177.602 325.6C177.607 325.6 177.611 325.6 177.614 325.601H177.631C177.634 325.601 177.638 325.601 177.644 325.602C177.654 325.602 177.67 325.603 177.691 325.604C177.734 325.607 177.799 325.609 177.884 325.613C178.053 325.622 178.303 325.634 178.627 325.648C179.274 325.678 180.216 325.717 181.39 325.758C183.738 325.839 187.018 325.924 190.744 325.942C198.203 325.979 207.424 325.747 214.533 324.68C223.317 323.361 228.276 322.48 236.652 319.612L237.203 319.424C244.361 316.975 248.624 315.515 255.05 311.337C263.459 305.869 267.171 302.18 273.44 294.324C278.391 288.121 280.799 284.667 284.479 276.387C286.316 272.254 287.232 269.047 287.688 266.883C287.915 265.801 288.028 264.978 288.084 264.431C288.112 264.157 288.126 263.951 288.133 263.816C288.136 263.749 288.138 263.699 288.139 263.667C288.139 263.651 288.14 263.64 288.14 263.633C288.14 263.629 288.14 263.626 288.14 263.625H289.064V337.625ZM17.4326 276.854C22.3688 276.562 28.5183 276.329 33.3252 276.575C42.3952 277.04 47.5318 277.36 56.5049 278.895C69.2848 281.08 76.2823 283.434 88.4912 287.701C97.2535 290.764 108.028 295.746 116.601 299.956C120.889 302.062 124.631 303.978 127.301 305.366C128.636 306.061 129.703 306.623 130.437 307.013C130.803 307.207 131.087 307.358 131.278 307.461C131.374 307.512 131.448 307.552 131.497 307.578C131.521 307.591 131.54 307.601 131.553 307.607C131.559 307.611 131.563 307.614 131.566 307.615C131.568 307.616 131.57 307.617 131.57 307.617L131.571 307.618H131.572C131.573 307.619 131.574 307.619 131.575 307.62L131.639 307.654C131.684 307.679 131.751 307.714 131.84 307.762C132.017 307.856 132.279 307.996 132.618 308.176C133.297 308.535 134.284 309.054 135.519 309.693C137.989 310.972 141.451 312.732 145.414 314.656C152.85 318.266 162.034 322.444 169.748 325.11L170.22 325.269C168.389 325.177 166.306 325.068 164.077 324.936C156.439 324.483 147.09 323.79 140.204 322.829C130.275 321.444 122.077 319.827 116.363 318.558C113.507 317.923 111.271 317.375 109.751 316.986C108.991 316.792 108.409 316.636 108.019 316.53C107.824 316.477 107.676 316.437 107.577 316.409C107.528 316.395 107.49 316.385 107.466 316.378L107.432 316.368H107.43L107.422 316.365L107.413 316.363H107.412C107.411 316.363 107.41 316.363 107.408 316.362C107.405 316.361 107.399 316.36 107.392 316.358C107.377 316.355 107.355 316.349 107.327 316.342C107.27 316.328 107.185 316.306 107.073 316.278C106.849 316.222 106.517 316.14 106.089 316.031C105.232 315.815 103.988 315.497 102.437 315.095C99.3335 314.29 95.0027 313.145 90.0938 311.785C80.2722 309.064 68.1476 305.484 58.9014 302.042C52.658 299.718 44.8055 296.369 38.5088 293.599C35.3617 292.214 32.6044 290.975 30.6348 290.082C29.6502 289.636 28.862 289.276 28.3203 289.027C28.0499 288.903 27.8407 288.807 27.6992 288.742C27.6286 288.71 27.5742 288.685 27.5381 288.668C27.5202 288.66 27.5062 288.654 27.4971 288.649C27.4928 288.647 27.4895 288.646 27.4873 288.645C27.4863 288.644 27.485 288.644 27.4844 288.644V288.643L27.4727 288.638L27.46 288.633L8.32617 281.044V277.542L8.74512 277.502L8.78906 277.963L8.74609 277.502H8.74805C8.74992 277.502 8.75317 277.501 8.75684 277.501C8.76412 277.5 8.7749 277.499 8.78906 277.498C8.81785 277.495 8.86091 277.491 8.91699 277.486C9.02925 277.476 9.19509 277.461 9.40918 277.442C9.8377 277.405 10.4606 277.351 11.2373 277.288C12.7909 277.163 14.9622 277.001 17.4326 276.854Z" fill="#F0DDFA"/>
<path d="M28.2137 286.287C10.6978 270.087 -17.1113 256.688 -17.1113 256.688V511.525H324.676V442.612C324.676 442.612 263.056 430.773 223.851 418.562C189.17 407.761 150.776 391.275 150.776 391.275C150.776 391.275 131.114 383.823 119.326 377.4C111.492 373.131 107.007 370.77 99.9012 365.375C93.0791 360.195 89.6021 356.796 83.7137 350.575C76.2865 342.729 66.6012 328.837 66.6012 328.837C66.6012 328.837 43.1195 300.074 28.2137 286.287Z" fill="#D1ABF7" stroke="#D1AFF8" stroke-width="0.925"/>
<path d="M-0.924999 295.075C-18.4409 278.874 -46.25 265.475 -46.25 265.475V520.313H295.538V451.4C295.538 451.4 233.917 439.56 194.713 427.35C160.032 416.549 121.637 400.063 121.637 400.063C121.637 400.063 101.975 392.611 90.1875 386.188C82.3532 381.919 77.8684 379.558 70.7625 374.163C63.9404 368.983 60.4634 365.583 54.575 359.363C47.1478 351.517 37.4625 337.625 37.4625 337.625C37.4625 337.625 13.9808 308.862 -0.924999 295.075Z" fill="#B78AE8" stroke="#BB90EB" stroke-width="0.925"/>
</g>
<path d="M216.926 0.462158C241.482 0.462158 261.389 20.3691 261.389 44.925V337.925C261.389 362.481 241.482 382.388 216.926 382.388H0.462891V0.462158H216.926Z" stroke="white" stroke-opacity="0.22" stroke-width="0.925"/>
<defs>
<clipPath id="clip0_77_581">
<path d="M0.925781 0.925049H216.926C241.226 0.925049 260.926 20.6245 260.926 44.925V337.925C260.926 362.226 241.226 381.925 216.926 381.925H0.925781V0.925049Z" fill="white"/>
</clipPath>
</defs>
</svg>
