<svg width="430" height="737" viewBox="0 0 430 737" fill="none" xmlns="http://www.w3.org/2000/svg">
<g clip-path="url(#clip0_173_14)">
<path d="M0 0H430V713C430 726.255 419.255 737 406 737H24C10.7452 737 0 726.255 0 713V0Z" fill="white"/>
<path d="M159.801 637.602C159.801 637.602 114.491 626.378 86.5311 615.97C67.6513 608.942 39.0802 595.734 39.0802 595.734L-1.39258 579.684V932.774H478.699V548.98C478.699 548.98 463.729 551.577 454.275 553.865C444.634 556.198 439.153 557.395 429.852 560.843C424.585 562.796 421.667 564.011 416.594 566.426C416.594 566.426 401.242 572.706 390.775 581.777C380.308 590.849 373.622 605.373 367.747 612.481C361.855 619.611 358.402 623.682 351 629.228C343.777 634.641 339.087 636.901 330.764 640.393C330.764 640.393 314.016 650.162 265.868 650.162C242.84 650.162 230.279 649.465 209.345 647.371C189.722 645.409 159.801 637.602 159.801 637.602Z" fill="#E5D2F5" stroke="#DFC3FA" stroke-width="1.39561"/>
<path d="M24.9053 577.315C32.3528 576.873 41.6305 576.523 48.8828 576.894C62.5673 577.595 70.3172 578.077 83.8555 580.392C103.138 583.689 113.696 587.24 132.116 593.679C145.336 598.3 161.592 605.817 174.525 612.169C180.996 615.347 186.642 618.236 190.671 620.332C192.685 621.379 194.295 622.229 195.401 622.816C195.955 623.11 196.382 623.338 196.672 623.493C196.816 623.57 196.927 623.629 197.001 623.668C197.038 623.688 197.066 623.704 197.085 623.714C197.094 623.719 197.102 623.723 197.106 623.725C197.109 623.726 197.11 623.727 197.111 623.728L197.115 623.73C197.116 623.731 197.117 623.732 197.119 623.733C197.123 623.735 197.13 623.738 197.139 623.743C197.156 623.752 197.182 623.766 197.216 623.785C197.284 623.821 197.385 623.876 197.519 623.947C197.786 624.089 198.181 624.3 198.692 624.571C199.716 625.113 201.206 625.896 203.069 626.861C206.797 628.79 212.021 631.445 218 634.348C229.593 639.976 244.002 646.521 255.87 650.516L257.011 650.895L257.02 650.898L256.794 651.558L257.021 650.898C257.021 650.898 257.023 650.898 257.024 650.899C257.027 650.9 257.031 650.902 257.037 650.904C257.049 650.908 257.066 650.914 257.089 650.921C257.135 650.937 257.206 650.961 257.298 650.992C257.482 651.054 257.755 651.146 258.112 651.265C258.827 651.503 259.877 651.848 261.216 652.278C263.893 653.138 267.725 654.336 272.341 655.686C281.575 658.387 293.939 661.695 306.471 664.131C331.546 669.007 362.123 669.006 379.257 669.003H482.883V878.345H11.165V578.351L11.7979 578.292H11.7988C11.7995 578.291 11.8005 578.291 11.8018 578.291C11.8046 578.29 11.8089 578.29 11.8145 578.29C11.8254 578.289 11.8418 578.288 11.8633 578.286C11.9068 578.282 11.9719 578.275 12.0566 578.267C12.2261 578.252 12.4766 578.229 12.7998 578.201C13.4464 578.144 14.3857 578.063 15.5576 577.968C17.9017 577.779 21.1779 577.536 24.9053 577.315Z" fill="#E5C7FC" stroke="#DFC3FA" stroke-width="1.39561"/>
<path d="M-0.44043 579.036L11.165 583.637V878.345H434.734V933.472H-1.39551V578.657L-0.44043 579.036ZM482.883 669.003V878.345H434.734V669.003H482.883ZM434.734 669.003H379.257C362.123 669.006 331.546 669.007 306.471 664.131C293.939 661.695 281.575 658.387 272.341 655.686C267.725 654.336 263.893 653.138 261.216 652.278C259.877 651.848 258.827 651.503 258.112 651.265C257.755 651.146 257.482 651.054 257.298 650.992C257.206 650.961 257.135 650.937 257.089 650.921C257.066 650.914 257.049 650.908 257.037 650.904C257.031 650.902 257.027 650.9 257.024 650.899C257.023 650.898 257.021 650.898 257.021 650.898L256.794 651.558L257.02 650.898L257.011 650.895L255.87 650.516C255.721 650.466 255.572 650.414 255.422 650.363C257.39 650.462 259.166 650.547 260.692 650.616C262.527 650.698 264.001 650.76 265.017 650.8C265.524 650.821 265.918 650.835 266.184 650.845C266.316 650.85 266.417 650.854 266.485 650.857C266.519 650.858 266.545 650.859 266.562 650.86C266.571 650.86 266.577 650.861 266.581 650.861H266.602C266.603 650.861 266.604 650.862 266.606 650.862C266.61 650.862 266.617 650.862 266.625 650.863C266.641 650.864 266.666 650.865 266.698 650.867C266.763 650.87 266.86 650.875 266.987 650.881C267.242 650.894 267.62 650.912 268.108 650.934C269.085 650.978 270.505 651.037 272.276 651.098C275.82 651.22 280.77 651.349 286.392 651.376C297.645 651.432 311.557 651.083 322.284 649.472C335.537 647.482 343.018 646.153 355.656 641.827L356.486 641.542C367.286 637.848 373.718 635.646 383.414 629.341C396.103 621.091 401.701 615.524 411.161 603.671C418.63 594.313 422.264 589.103 427.816 576.609C430.588 570.373 431.969 565.535 432.656 562.269C433 560.636 433.17 559.396 433.255 558.57C433.297 558.157 433.319 557.847 433.329 557.643C433.334 557.541 433.337 557.466 433.338 557.417C433.339 557.394 433.339 557.376 433.339 557.366C433.339 557.36 433.339 557.356 433.339 557.354H434.734V669.003ZM24.9053 577.315C32.3528 576.873 41.6305 576.523 48.8828 576.894C62.5673 577.595 70.3172 578.077 83.8555 580.392C103.138 583.689 113.696 587.24 132.116 593.679C145.336 598.3 161.592 605.817 174.525 612.169C180.996 615.347 186.642 618.236 190.671 620.332C192.685 621.379 194.295 622.229 195.401 622.816C195.955 623.11 196.382 623.338 196.672 623.493C196.816 623.57 196.927 623.629 197.001 623.668C197.038 623.688 197.066 623.704 197.085 623.714C197.094 623.719 197.102 623.723 197.106 623.725C197.109 623.726 197.11 623.727 197.111 623.728L197.115 623.73C197.116 623.731 197.117 623.732 197.119 623.733C197.123 623.735 197.13 623.738 197.139 623.743C197.156 623.752 197.182 623.766 197.216 623.785C197.284 623.821 197.385 623.876 197.519 623.947C197.786 624.09 198.181 624.3 198.692 624.571C199.716 625.113 201.206 625.896 203.069 626.861C206.797 628.79 212.021 631.445 218 634.348C229.447 639.905 243.64 646.355 255.422 650.363C252.66 650.224 249.519 650.057 246.156 649.858C234.632 649.175 220.525 648.13 210.137 646.68C195.155 644.59 182.788 642.15 174.168 640.235C169.858 639.277 166.484 638.451 164.19 637.864C163.044 637.57 162.167 637.336 161.577 637.176C161.282 637.096 161.059 637.035 160.91 636.994C160.836 636.973 160.779 636.957 160.742 636.947C160.724 636.942 160.71 636.938 160.701 636.935C160.697 636.934 160.693 636.933 160.69 636.932L160.688 636.931H160.688L160.676 636.927L160.664 636.924H160.662C160.661 636.924 160.659 636.923 160.656 636.922C160.651 636.921 160.642 636.919 160.632 636.917C160.61 636.911 160.577 636.903 160.534 636.892C160.448 636.871 160.318 636.839 160.149 636.796C159.811 636.712 159.312 636.586 158.666 636.422C157.374 636.095 155.496 635.617 153.155 635.01C148.473 633.796 141.939 632.068 134.532 630.016C119.713 625.91 101.42 620.509 87.4697 615.316C78.0498 611.809 66.2025 606.757 56.7021 602.578C51.9537 600.489 47.795 598.618 44.8232 597.271C43.3375 596.597 42.1484 596.055 41.3311 595.68C40.9224 595.493 40.6061 595.348 40.3926 595.25C40.286 595.2 40.2048 595.163 40.1504 595.138C40.1232 595.126 40.1026 595.116 40.0889 595.11L40.0693 595.1H40.0684L40.0332 595.084L11.165 583.637V578.351L11.7979 578.292H11.7988C11.7995 578.291 11.8005 578.291 11.8018 578.291C11.8046 578.29 11.8089 578.29 11.8145 578.29C11.8254 578.289 11.8418 578.288 11.8633 578.286C11.9068 578.282 11.9719 578.275 12.0566 578.267C12.2261 578.252 12.4766 578.229 12.7998 578.201C13.4464 578.144 14.3857 578.063 15.5576 577.968C17.9017 577.779 21.1779 577.536 24.9053 577.315Z" fill="#F0DDFA"/>
<path d="M41.1722 591.547C14.7448 567.104 -27.2129 546.887 -27.2129 546.887V931.379H488.466V827.406C488.466 827.406 395.496 809.542 336.345 791.12C284.019 774.823 226.091 749.949 226.091 749.949C226.091 749.949 196.425 738.706 178.64 729.015C166.82 722.574 160.053 719.012 149.332 710.872C139.039 703.057 133.793 697.927 124.909 688.542C113.703 676.704 99.0902 655.745 99.0902 655.745C99.0902 655.745 63.6617 612.348 41.1722 591.547Z" fill="#DDBBFF" stroke="#DEC2FF" stroke-width="1.39561"/>
<path d="M-2.7907 604.805C-29.2181 580.362 -71.1758 560.146 -71.1758 560.146V944.637H444.504V840.664C444.504 840.664 351.533 822.8 292.382 804.378C240.056 788.082 182.128 763.207 182.128 763.207C182.128 763.207 152.462 751.964 134.677 742.273C122.857 735.833 116.091 732.27 105.369 724.13C95.0764 716.315 89.8304 711.186 80.9462 701.8C69.7402 689.962 55.1273 669.003 55.1273 669.003C55.1273 669.003 19.6988 625.606 -2.7907 604.805Z" fill="#D5AFFF" stroke="#D4AEFF" stroke-width="1.39561"/>
</g>
<defs>
<clipPath id="clip0_173_14">
<path d="M0 0H430V713C430 726.255 419.255 737 406 737H24C10.7452 737 0 726.255 0 713V0Z" fill="white"/>
</clipPath>
</defs>
</svg>
