<svg width="312" height="310" viewBox="0 0 312 310" fill="none" xmlns="http://www.w3.org/2000/svg">
<g filter="url(#filter0_d_259_700)">
<ellipse cx="156" cy="155" rx="36" ry="35" fill="url(#paint0_linear_259_700)"/>
<path d="M156 120.5C175.619 120.5 191.5 135.959 191.5 155C191.5 174.041 175.619 189.5 156 189.5C136.381 189.5 120.5 174.041 120.5 155C120.5 135.959 136.381 120.5 156 120.5Z" stroke="#FAAC11"/>
</g>
<g opacity="0.75" filter="url(#filter1_f_259_700)">
<ellipse cx="156" cy="155" rx="36" ry="35" fill="url(#paint1_linear_259_700)"/>
<path d="M156 120.5C175.619 120.5 191.5 135.959 191.5 155C191.5 174.041 175.619 189.5 156 189.5C136.381 189.5 120.5 174.041 120.5 155C120.5 135.959 136.381 120.5 156 120.5Z" stroke="#FAAC11"/>
</g>
<g filter="url(#filter2_d_259_700)">
<path fill-rule="evenodd" clip-rule="evenodd" d="M170.438 154C170.438 157.829 168.916 161.501 166.209 164.209C163.501 166.916 159.829 168.438 156 168.438C152.171 168.438 148.499 166.916 145.791 164.209C143.084 161.501 141.562 157.829 141.562 154C141.562 150.171 143.084 146.499 145.791 143.791C148.499 141.084 152.171 139.562 156 139.562C159.829 139.562 163.501 141.084 166.209 143.791C168.916 146.499 170.438 150.171 170.438 154ZM174.375 154C174.375 158.873 172.439 163.547 168.993 166.993C165.547 170.439 160.873 172.375 156 172.375C151.127 172.375 146.453 170.439 143.007 166.993C139.561 163.547 137.625 158.873 137.625 154C137.625 149.127 139.561 144.453 143.007 141.007C146.453 137.561 151.127 135.625 156 135.625C160.873 135.625 165.547 137.561 168.993 141.007C172.439 144.453 174.375 149.127 174.375 154ZM157.969 144.812C157.969 144.29 157.761 143.79 157.392 143.42C157.023 143.051 156.522 142.844 156 142.844C155.478 142.844 154.977 143.051 154.608 143.42C154.239 143.79 154.031 144.29 154.031 144.812V154C154.031 154.306 154.102 154.607 154.239 154.88C154.376 155.154 154.574 155.392 154.819 155.575L160.069 159.513C160.276 159.668 160.511 159.78 160.761 159.845C161.012 159.909 161.272 159.923 161.528 159.886C161.784 159.85 162.031 159.763 162.253 159.632C162.476 159.5 162.67 159.326 162.825 159.119C162.98 158.912 163.093 158.677 163.157 158.426C163.221 158.176 163.236 157.915 163.199 157.659C163.162 157.403 163.076 157.157 162.944 156.934C162.812 156.712 162.638 156.518 162.431 156.362L157.969 153.016V144.812Z" fill="black"/>
</g>
<g filter="url(#filter3_f_259_700)">
<circle cx="104" cy="172" r="2" fill="#FEC435"/>
<circle cx="104" cy="172" r="1.5" stroke="#FDAE33"/>
</g>
<g filter="url(#filter4_f_259_700)">
<circle cx="208.5" cy="171.5" r="2.5" fill="#FEEABB"/>
<circle cx="208.5" cy="171.5" r="2" stroke="#FDE3B3"/>
</g>
<g filter="url(#filter5_f_259_700)">
<circle cx="215" cy="142" r="3" fill="#FFECB2"/>
<circle cx="215" cy="142" r="2.5" stroke="#FDE3B5"/>
</g>
<g filter="url(#filter6_f_259_700)">
<circle cx="97.5" cy="148.5" r="3.5" fill="#FEB70E"/>
<circle cx="97.5" cy="148.5" r="3" stroke="#F6A61F"/>
</g>
<g filter="url(#filter7_f_259_700)">
<circle cx="112" cy="122" r="3" fill="#FEE497"/>
<circle cx="112" cy="122" r="2.5" stroke="#FCD896"/>
</g>
<g filter="url(#filter8_f_259_700)">
<circle cx="201.5" cy="122.5" r="3.5" fill="#FFC31A"/>
<circle cx="201.5" cy="122.5" r="3" stroke="#FDA716"/>
</g>
<defs>
<filter id="filter0_d_259_700" x="107.8" y="108.8" width="96.4" height="94.4" filterUnits="userSpaceOnUse" color-interpolation-filters="sRGB">
<feFlood flood-opacity="0" result="BackgroundImageFix"/>
<feColorMatrix in="SourceAlpha" type="matrix" values="0 0 0 0 0 0 0 0 0 0 0 0 0 0 0 0 0 0 127 0" result="hardAlpha"/>
<feOffset dy="1"/>
<feGaussianBlur stdDeviation="6.1"/>
<feComposite in2="hardAlpha" operator="out"/>
<feColorMatrix type="matrix" values="0 0 0 0 0 0 0 0 0 0 0 0 0 0 0 0 0 0 0.19 0"/>
<feBlend mode="normal" in2="BackgroundImageFix" result="effect1_dropShadow_259_700"/>
<feBlend mode="normal" in="SourceGraphic" in2="effect1_dropShadow_259_700" result="shape"/>
</filter>
<filter id="filter1_f_259_700" x="0" y="0" width="312" height="310" filterUnits="userSpaceOnUse" color-interpolation-filters="sRGB">
<feFlood flood-opacity="0" result="BackgroundImageFix"/>
<feBlend mode="normal" in="SourceGraphic" in2="BackgroundImageFix" result="shape"/>
<feGaussianBlur stdDeviation="60" result="effect1_foregroundBlur_259_700"/>
</filter>
<filter id="filter2_d_259_700" x="122.8" y="121.8" width="66.4" height="66.4" filterUnits="userSpaceOnUse" color-interpolation-filters="sRGB">
<feFlood flood-opacity="0" result="BackgroundImageFix"/>
<feColorMatrix in="SourceAlpha" type="matrix" values="0 0 0 0 0 0 0 0 0 0 0 0 0 0 0 0 0 0 127 0" result="hardAlpha"/>
<feOffset dy="1"/>
<feGaussianBlur stdDeviation="6.1"/>
<feComposite in2="hardAlpha" operator="out"/>
<feColorMatrix type="matrix" values="0 0 0 0 0 0 0 0 0 0 0 0 0 0 0 0 0 0 0.19 0"/>
<feBlend mode="normal" in2="BackgroundImageFix" result="effect1_dropShadow_259_700"/>
<feBlend mode="normal" in="SourceGraphic" in2="effect1_dropShadow_259_700" result="shape"/>
</filter>
<filter id="filter3_f_259_700" x="101.6" y="169.6" width="4.8" height="4.8" filterUnits="userSpaceOnUse" color-interpolation-filters="sRGB">
<feFlood flood-opacity="0" result="BackgroundImageFix"/>
<feBlend mode="normal" in="SourceGraphic" in2="BackgroundImageFix" result="shape"/>
<feGaussianBlur stdDeviation="0.2" result="effect1_foregroundBlur_259_700"/>
</filter>
<filter id="filter4_f_259_700" x="205.6" y="168.6" width="5.8" height="5.8" filterUnits="userSpaceOnUse" color-interpolation-filters="sRGB">
<feFlood flood-opacity="0" result="BackgroundImageFix"/>
<feBlend mode="normal" in="SourceGraphic" in2="BackgroundImageFix" result="shape"/>
<feGaussianBlur stdDeviation="0.2" result="effect1_foregroundBlur_259_700"/>
</filter>
<filter id="filter5_f_259_700" x="211.6" y="138.6" width="6.8" height="6.8" filterUnits="userSpaceOnUse" color-interpolation-filters="sRGB">
<feFlood flood-opacity="0" result="BackgroundImageFix"/>
<feBlend mode="normal" in="SourceGraphic" in2="BackgroundImageFix" result="shape"/>
<feGaussianBlur stdDeviation="0.2" result="effect1_foregroundBlur_259_700"/>
</filter>
<filter id="filter6_f_259_700" x="93.6" y="144.6" width="7.8" height="7.8" filterUnits="userSpaceOnUse" color-interpolation-filters="sRGB">
<feFlood flood-opacity="0" result="BackgroundImageFix"/>
<feBlend mode="normal" in="SourceGraphic" in2="BackgroundImageFix" result="shape"/>
<feGaussianBlur stdDeviation="0.2" result="effect1_foregroundBlur_259_700"/>
</filter>
<filter id="filter7_f_259_700" x="108.6" y="118.6" width="6.8" height="6.8" filterUnits="userSpaceOnUse" color-interpolation-filters="sRGB">
<feFlood flood-opacity="0" result="BackgroundImageFix"/>
<feBlend mode="normal" in="SourceGraphic" in2="BackgroundImageFix" result="shape"/>
<feGaussianBlur stdDeviation="0.2" result="effect1_foregroundBlur_259_700"/>
</filter>
<filter id="filter8_f_259_700" x="197.6" y="118.6" width="7.8" height="7.8" filterUnits="userSpaceOnUse" color-interpolation-filters="sRGB">
<feFlood flood-opacity="0" result="BackgroundImageFix"/>
<feBlend mode="normal" in="SourceGraphic" in2="BackgroundImageFix" result="shape"/>
<feGaussianBlur stdDeviation="0.2" result="effect1_foregroundBlur_259_700"/>
</filter>
<linearGradient id="paint0_linear_259_700" x1="158" y1="120" x2="156" y2="188" gradientUnits="userSpaceOnUse">
<stop stop-color="#FEBF13"/>
<stop offset="1" stop-color="#FDB416"/>
</linearGradient>
<linearGradient id="paint1_linear_259_700" x1="158" y1="120" x2="156" y2="188" gradientUnits="userSpaceOnUse">
<stop stop-color="#FEBF13"/>
<stop offset="1" stop-color="#FDB416"/>
</linearGradient>
</defs>
</svg>
